<svg width="22" height="23" viewBox="0 0 22 23" fill="none" xmlns="http://www.w3.org/2000/svg">
<path fill-rule="evenodd" clip-rule="evenodd" d="M11.1803 1.51514C8.81526 1.51514 6.89799 3.43241 6.89799 5.79748C6.89799 8.16255 8.81526 10.0798 11.1803 10.0798C13.5454 10.0798 15.4627 8.16255 15.4627 5.79748C15.4627 3.43241 13.5454 1.51514 11.1803 1.51514ZM8.25031 5.79748C8.25031 4.17927 9.56213 2.86745 11.1803 2.86745C12.7985 2.86745 14.1104 4.17927 14.1104 5.79748C14.1104 7.41568 12.7985 8.7275 11.1803 8.7275C9.56213 8.7275 8.25031 7.41568 8.25031 5.79748Z" fill="#B3B5B7"/>
<path fill-rule="evenodd" clip-rule="evenodd" d="M8.4757 11.4321C6.11063 11.4321 4.19336 13.3494 4.19336 15.7145C4.19336 18.0795 6.11063 19.9968 8.4757 19.9968H13.885C16.25 19.9968 18.1673 18.0795 18.1673 15.7145C18.1673 13.3494 16.25 11.4321 13.885 11.4321H8.4757ZM5.54568 15.7145C5.54568 14.0963 6.85749 12.7845 8.4757 12.7845H13.885C15.5032 12.7845 16.815 14.0963 16.815 15.7145C16.815 17.3327 15.5032 18.6445 13.885 18.6445H8.4757C6.85749 18.6445 5.54568 17.3327 5.54568 15.7145Z" fill="#B3B5B7"/>
</svg>
