<svg width="18" height="19" viewBox="0 0 18 19" fill="none" xmlns="http://www.w3.org/2000/svg">
<g clip-path="url(#clip0_1_17278)">
<path d="M12.75 6.48173H5.25V5.73173C5.24977 4.90028 5.52587 4.09234 6.03489 3.43491C6.54391 2.77749 7.25698 2.30788 8.062 2.0999C8.86701 1.89193 9.71832 1.95739 10.4821 2.286C11.2458 2.6146 11.8787 3.18772 12.2812 3.91523C12.3291 4.00136 12.3934 4.07723 12.4705 4.13851C12.5477 4.19978 12.6361 4.24527 12.7308 4.27236C12.8255 4.29945 12.9247 4.30762 13.0225 4.2964C13.1204 4.28519 13.2151 4.2548 13.3012 4.20698C13.3874 4.15917 13.4632 4.09485 13.5245 4.01771C13.5858 3.94057 13.6313 3.85212 13.6584 3.75741C13.6855 3.66269 13.6936 3.56357 13.6824 3.46569C13.6712 3.36782 13.6408 3.27311 13.593 3.18698C13.0292 2.16872 12.143 1.36667 11.0738 0.906918C10.0045 0.447164 8.81277 0.355771 7.6859 0.647105C6.55903 0.938439 5.56092 1.59598 4.84847 2.51637C4.13601 3.43676 3.74961 4.56781 3.75 5.73173V6.79973C3.08202 7.09126 2.51347 7.57113 2.11387 8.18064C1.71428 8.79016 1.50096 9.50291 1.5 10.2317V14.7317C1.50119 15.7259 1.89666 16.6791 2.59966 17.3821C3.30267 18.0851 4.2558 18.4805 5.25 18.4817H12.75C13.7442 18.4805 14.6973 18.0851 15.4003 17.3821C16.1033 16.6791 16.4988 15.7259 16.5 14.7317V10.2317C16.4988 9.23754 16.1033 8.2844 15.4003 7.5814C14.6973 6.87839 13.7442 6.48292 12.75 6.48173ZM15 14.7317C15 15.3285 14.7629 15.9008 14.341 16.3227C13.919 16.7447 13.3467 16.9817 12.75 16.9817H5.25C4.65326 16.9817 4.08097 16.7447 3.65901 16.3227C3.23705 15.9008 3 15.3285 3 14.7317V10.2317C3 9.635 3.23705 9.0627 3.65901 8.64074C4.08097 8.21879 4.65326 7.98173 5.25 7.98173H12.75C13.3467 7.98173 13.919 8.21879 14.341 8.64074C14.7629 9.0627 15 9.635 15 10.2317V14.7317Z" fill="#B3B5B7"/>
<path d="M9 10.9814C8.80109 10.9814 8.61032 11.0605 8.46967 11.2011C8.32902 11.3418 8.25 11.5325 8.25 11.7314V13.2314C8.25 13.4304 8.32902 13.6211 8.46967 13.7618C8.61032 13.9024 8.80109 13.9814 9 13.9814C9.19892 13.9814 9.38968 13.9024 9.53034 13.7618C9.67099 13.6211 9.75001 13.4304 9.75001 13.2314V11.7314C9.75001 11.5325 9.67099 11.3418 9.53034 11.2011C9.38968 11.0605 9.19892 10.9814 9 10.9814Z" fill="#B3B5B7"/>
</g>
<defs>
<clipPath id="clip0_1_17278">
<rect width="18" height="18" fill="white" transform="translate(0 0.480957)"/>
</clipPath>
</defs>
</svg>
