<svg width="340" height="177" viewBox="0 0 340 177" fill="none" xmlns="http://www.w3.org/2000/svg">
<ellipse cx="170.5" cy="158.5" rx="80.5" ry="18.5" fill="#DDEDEC"/>
<path d="M240 34.3332C239.74 34.3343 239.483 34.2759 239.248 34.1624C235.683 32.4011 231.828 31.3014 227.871 30.9166C225.713 30.6945 223.537 30.6945 221.379 30.9166C221.141 30.9405 220.9 30.9141 220.673 30.839C220.445 30.764 220.236 30.6419 220.059 30.4809C219.882 30.3198 219.741 30.1232 219.644 29.904C219.548 29.6847 219.499 29.4477 219.5 29.2082V1.87492C219.498 1.44995 219.654 1.03944 219.939 0.72355C220.223 0.407664 220.615 0.209086 221.038 0.166593C223.424 -0.055531 225.826 -0.055531 228.213 0.166593C232.293 0.58452 236.276 1.67554 240 3.39534C243.724 1.67554 247.707 0.58452 251.787 0.166593C254.174 -0.055531 256.576 -0.055531 258.962 0.166593C259.385 0.209086 259.777 0.407664 260.061 0.72355C260.346 1.03944 260.502 1.44995 260.5 1.87492V29.2082C260.501 29.4477 260.452 29.6847 260.356 29.904C260.259 30.1232 260.118 30.3198 259.941 30.4809C259.764 30.6419 259.555 30.764 259.327 30.839C259.1 30.9141 258.859 30.9405 258.621 30.9166C256.463 30.6945 254.287 30.6945 252.129 30.9166C248.172 31.3014 244.317 32.4011 240.752 34.1624C240.517 34.2759 240.26 34.3343 240 34.3332ZM224.625 27.3291C225.821 27.3291 227.017 27.3291 228.213 27.4999C232.293 27.9178 236.276 29.0088 240 30.7286C243.724 29.0088 247.707 27.9178 251.787 27.4999C253.548 27.332 255.317 27.2921 257.083 27.3803V3.46367C255.431 3.37519 253.775 3.41518 252.129 3.58326C248.172 3.96809 244.317 5.06785 240.752 6.82909C240.518 6.94374 240.261 7.00334 240 7.00334C239.739 7.00334 239.482 6.94374 239.248 6.82909C235.683 5.06785 231.828 3.96809 227.871 3.58326C226.225 3.41518 224.569 3.37519 222.917 3.46367V27.3803C223.48 27.3461 224.061 27.3291 224.625 27.3291Z" fill="#67C0BF"/>
<path d="M239.999 24.083C239.546 24.083 239.112 23.903 238.791 23.5826C238.471 23.2623 238.291 22.8277 238.291 22.3747V5.29134C238.291 4.83826 238.471 4.40374 238.791 4.08337C239.112 3.76299 239.546 3.58301 239.999 3.58301C240.452 3.58301 240.887 3.76299 241.207 4.08337C241.528 4.40374 241.708 4.83826 241.708 5.29134V22.3747C241.708 22.8277 241.528 23.2623 241.207 23.5826C240.887 23.903 240.452 24.083 239.999 24.083Z" fill="#67C0BF"/>
<path d="M111.661 130.961H96.573V152.741H59.4119V130.961H0.5V103.75L48.6979 25.7002H87.9725L45.1169 97.7623H60.5273V78.3305H96.5437V97.7623H111.631V130.961H111.661Z" fill="#289795"/>
<path d="M141.776 147.75C134.027 142.496 127.98 134.864 123.606 124.884C119.233 114.904 117.031 103.016 117.031 89.2202C117.031 75.4242 119.233 63.5362 123.606 53.5561C127.98 43.576 134.056 35.9442 141.776 30.69C149.496 25.4357 158.419 22.7939 168.458 22.7939C178.526 22.7939 187.42 25.4357 195.14 30.69C202.86 35.9442 208.936 43.576 213.31 53.5561C217.683 63.5362 219.885 75.4242 219.885 89.2202C219.885 103.016 217.683 114.904 213.31 124.884C208.936 134.864 202.86 142.496 195.14 147.75C187.391 153.005 178.497 155.646 168.458 155.646C158.39 155.646 149.496 153.005 141.776 147.75ZM181.432 89.2202C181.432 67.7924 177.117 57.1078 168.458 57.1078C159.799 57.1078 155.484 67.8217 155.484 89.2202C155.484 110.648 159.799 121.333 168.458 121.333C177.117 121.333 181.432 110.648 181.432 89.2202Z" fill="#289795"/>
<path d="M339.5 130.961H324.413V152.741H287.252V130.961H228.34V103.75L276.538 25.7002H315.812L272.957 97.7623H288.367V78.3305H324.383V97.7623H339.471V130.961H339.5Z" fill="#289795"/>
<path d="M207.028 75.3366L193.937 67.9103C192.733 67.2351 192.293 65.6794 192.997 64.4759C192.997 64.4759 201.979 58.5172 203.535 55.758C205.12 52.9695 205.619 42.2262 205.619 42.2262C206.294 41.0227 207.85 40.5824 209.054 41.2869L222.145 48.7133C223.349 49.3884 223.789 50.9441 223.084 52.1476C223.084 52.1476 214.102 58.1063 212.547 60.8655C210.962 63.6541 210.463 74.3973 210.463 74.3973C209.758 75.6008 208.232 76.0117 207.028 75.3366Z" fill="#D8FCFF"/>
<path d="M210.191 75.8376L191.836 65.4224L189.605 69.3537L207.96 79.769L210.191 75.8376Z" fill="#67C0BF"/>
<path d="M226.58 46.9978L208.225 36.5825L205.994 40.5139L224.349 50.9292L226.58 46.9978Z" fill="#67C0BF"/>
<mask id="mask0_1_27446" style="mask-type:luminance" maskUnits="userSpaceOnUse" x="194" y="42" width="28" height="32">
<path d="M194.905 66.2078C194.729 66.1197 194.611 65.9142 194.611 65.7381C196.96 64.153 203.652 59.4859 205.237 56.7267C206.822 53.9675 207.38 45.8073 207.527 42.9894C207.703 42.9013 207.908 42.9013 208.084 42.9894L221.176 50.4157C221.352 50.5038 221.469 50.7093 221.469 50.8854C219.121 52.4705 212.429 57.1376 210.844 59.8968C209.259 62.656 208.701 70.8162 208.554 73.6341C208.378 73.7222 208.173 73.7222 207.996 73.6341L194.905 66.2078Z" fill="white"/>
</mask>
<g mask="url(#mask0_1_27446)">
<path d="M203.623 50.9443C203.623 50.9443 207.469 52.9991 208.437 54.4667C209.406 55.9344 209.729 56.4334 210.697 56.815C211.666 57.1966 214.631 57.8717 214.631 57.8717C214.631 57.8717 210.609 58.9871 209.787 59.5155C208.966 60.0732 208.408 61.3941 208.29 62.1573C207.997 63.8597 209.993 65.5916 210.14 66.5309C210.286 67.4702 208.672 74.5443 208.672 74.5443L193.35 65.3274L200.6 60.6015C200.6 60.6015 203.535 61.0712 204.328 60.7777C206.324 59.9851 206.676 58.7523 206.764 57.5782C206.852 56.4627 206.676 55.2886 206.118 54.0264C205.649 52.9404 203.623 50.9443 203.623 50.9443Z" fill="#7BE2E1"/>
</g>
<path d="M144.713 62.3033L136.641 64.8864C135.907 65.1212 135.085 64.7103 134.85 63.9764C134.85 63.9764 135.819 57.9884 135.261 56.2565C134.703 54.5247 130.447 50.2098 130.447 50.2098C130.212 49.4759 130.623 48.6541 131.357 48.4192L139.429 45.8361C140.163 45.6013 140.985 46.0123 141.22 46.7461C141.22 46.7461 140.251 52.7342 140.809 54.466C141.366 56.1978 145.623 60.5127 145.623 60.5127C145.887 61.2466 145.476 62.0391 144.713 62.3033Z" fill="#D8FCFF"/>
<path d="M146.146 61.164L134.797 64.7988L135.576 67.2307L146.925 63.5959L146.146 61.164Z" fill="#67C0BF"/>
<path d="M140.451 43.3442L129.102 46.979L129.88 49.4109L141.229 45.7761L140.451 43.3442Z" fill="#67C0BF"/>
<mask id="mask1_1_27446" style="mask-type:luminance" maskUnits="userSpaceOnUse" x="131" y="46" width="14" height="18">
<path d="M136.289 63.8297C136.171 63.8591 136.054 63.8297 135.966 63.771C136.2 62.1859 136.817 57.6362 136.289 55.9043C135.731 54.2019 132.59 50.8262 131.475 49.6815C131.504 49.5641 131.592 49.476 131.68 49.4466L139.752 46.8636C139.87 46.8342 139.987 46.8636 140.075 46.9223C139.84 48.5073 139.224 53.0571 139.752 54.7889C140.31 56.4914 143.451 59.867 144.566 61.0118C144.537 61.1292 144.449 61.2173 144.361 61.2466L136.289 63.8297Z" fill="white"/>
</mask>
<g mask="url(#mask1_1_27446)">
<path d="M133.295 54.3782C133.295 54.3782 135.614 53.5563 136.582 53.7325C137.551 53.9086 137.903 53.9379 138.432 53.6738C138.96 53.4096 140.369 52.4409 140.369 52.4409C140.369 52.4409 139.283 54.525 139.195 55.0827C139.107 55.6404 139.459 56.3742 139.723 56.6971C140.31 57.4603 141.807 57.3135 142.248 57.6071C142.688 57.9006 145.007 61.2762 145.007 61.2762L135.32 64.1235L136.142 59.3096C136.142 59.3096 137.463 58.2822 137.639 57.8126C138.079 56.6678 137.698 56.0514 137.258 55.5817C136.847 55.1121 136.26 54.7305 135.526 54.4956C134.909 54.2902 133.295 54.3782 133.295 54.3782Z" fill="#7BE2E1"/>
</g>
<path d="M196.051 79.563C196.051 79.563 185.22 86.9013 198.693 90.5998C212.166 94.2983 225.962 92.7719 227.782 103.721" stroke="#67C0BF" stroke-width="1.92224" stroke-miterlimit="10"/>
<path d="M159.771 20.7687C159.771 20.7687 146.592 13.812 140.046 18.802C131.915 24.9955 145.946 30.3965 129.391 36.1791" stroke="#67C0BF" stroke-width="1.92224" stroke-miterlimit="10"/>
</svg>
