<svg width="51" height="55" viewBox="0 0 51 55" fill="none" xmlns="http://www.w3.org/2000/svg">
<path opacity="0.44" d="M25.092 54.0467C37.6793 54.0467 47.8833 51.5179 47.8833 48.3985C47.8833 45.2791 37.6793 42.7503 25.092 42.7503C12.5048 42.7503 2.30078 45.2791 2.30078 48.3985C2.30078 51.5179 12.5048 54.0467 25.092 54.0467Z" fill="#B8CBCD"/>
<path d="M8.51368 16.1196C8.62094 16.3148 8.78054 16.477 8.97502 16.5886C9.1695 16.7002 9.39135 16.7568 9.61626 16.7522H41.3843C41.6092 16.7568 41.831 16.7002 42.0255 16.5886C42.22 16.477 42.3796 16.3148 42.4869 16.1196C42.565 15.9907 42.6028 15.8418 42.5955 15.6918C42.5882 15.5417 42.5361 15.3971 42.4458 15.2762C42.0317 14.6687 41.4752 14.1687 40.8236 13.8186L28.0029 7.22771C27.2302 6.83199 26.3725 6.62542 25.502 6.62542C24.6315 6.62542 23.7737 6.83199 23.0011 7.22771L10.1804 13.8186C9.52905 14.1699 8.97271 14.6703 8.55813 15.2778C8.46768 15.3983 8.41522 15.5424 8.40732 15.6921C8.39941 15.8418 8.43641 15.9905 8.51368 16.1196Z" fill="#B2EDA6"/>
<rect x="12.2695" y="24.7277" width="3.06767" height="11.1203" fill="#B2EDA6"/>
<rect x="35.6602" y="24.7277" width="3.06767" height="11.1203" fill="#B2EDA6"/>
<rect x="23.3906" y="24.7277" width="4.21805" height="11.1203" fill="#B2EDA6"/>
<g clip-path="url(#clip0_1_28211)">
<path d="M0.617893 19.1265C0.160003 18.2772 -0.0521306 17.317 0.00529918 16.3539C0.062729 15.3907 0.387449 14.4626 0.943018 13.6737C1.85094 12.3416 3.06684 11.2482 4.48752 10.4862L20.4271 2.19022C21.9938 1.37556 23.7337 0.950237 25.4995 0.950237C27.2654 0.950237 29.0052 1.37556 30.5719 2.19022L46.5094 10.4926C47.9301 11.2545 49.146 12.348 50.0539 13.6801C50.6095 14.469 50.9342 15.3971 50.9916 16.3603C51.049 17.3234 50.8369 18.2835 50.379 19.1328C49.8861 20.0654 49.1467 20.8448 48.2415 21.3862C47.3362 21.9276 46.2998 22.2103 45.245 22.2035H44.6245V39.2035H46.7495C47.3131 39.2035 47.8536 39.4274 48.2521 39.8259C48.6506 40.2244 48.8745 40.7649 48.8745 41.3285C48.8745 41.8921 48.6506 42.4326 48.2521 42.8311C47.8536 43.2296 47.3131 43.4535 46.7495 43.4535H4.24952C3.68593 43.4535 3.14543 43.2296 2.74692 42.8311C2.3484 42.4326 2.12452 41.8921 2.12452 41.3285C2.12452 40.7649 2.3484 40.2244 2.74692 39.8259C3.14543 39.4274 3.68593 39.2035 4.24952 39.2035H6.37452V22.2035H5.75402C4.69823 22.2101 3.66091 21.9266 2.75519 21.384C1.84948 20.8414 1.11017 20.0605 0.617893 19.1265ZM10.6245 39.2035H16.9995V22.2035H10.6245V39.2035ZM21.2495 22.2035V39.2035H29.7495V22.2035H21.2495ZM40.3745 22.2035H33.9995V39.2035H40.3745V22.2035ZM4.38339 17.1566C4.51672 17.4024 4.71513 17.6068 4.95689 17.7474C5.19865 17.8879 5.47443 17.9592 5.75402 17.9535H45.245C45.5246 17.9592 45.8004 17.8879 46.0421 17.7474C46.2839 17.6068 46.4823 17.4024 46.6156 17.1566C46.7128 16.9942 46.7597 16.8067 46.7507 16.6176C46.7416 16.4286 46.6769 16.2465 46.5646 16.0941C46.0498 15.3289 45.358 14.6991 44.548 14.2581L28.6105 5.95572C27.65 5.45724 26.5838 5.19703 25.5016 5.19703C24.4195 5.19703 23.3533 5.45724 22.3928 5.95572L6.45527 14.2581C5.64561 14.7005 4.95402 15.3309 4.43864 16.0962C4.32621 16.248 4.261 16.4295 4.25117 16.6181C4.24134 16.8067 4.28734 16.994 4.38339 17.1566Z" fill="#3C663E"/>
<rect x="10.3555" y="46.5849" width="29.9098" height="3.83459" rx="1.91729" fill="#3C663E"/>
</g>
<defs>
<clipPath id="clip0_1_28211">
<rect width="51" height="51" fill="white" transform="translate(0 0.95332)"/>
</clipPath>
</defs>
</svg>
