<svg width="52" height="53" viewBox="0 0 52 53" fill="none" xmlns="http://www.w3.org/2000/svg">
<g clip-path="url(#clip0_1_28216)">
<path opacity="0.5" d="M23.4753 52.0247C33.9745 52.0247 42.4857 49.9154 42.4857 47.3134C42.4857 44.7115 33.9745 42.6022 23.4753 42.6022C12.9761 42.6022 4.46484 44.7115 4.46484 47.3134C4.46484 49.9154 12.9761 52.0247 23.4753 52.0247Z" fill="#B8CBCD"/>
<path d="M33.3292 30.2815C32.2472 29.385 30.6431 29.5349 29.7462 30.6173L27.6815 33.1087C28.0376 32.1268 27.7657 30.9862 26.9154 30.2819C26.0838 29.5927 24.9448 29.5242 24.0543 30.0195C24.7634 28.9499 24.5663 27.4946 23.5557 26.6574C22.4733 25.7605 20.8693 25.9105 19.9724 26.9929L8.73008 40.5567C7.83314 41.6386 7.98349 43.2427 9.06549 44.1396C9.89702 44.8288 11.036 44.8974 11.9266 44.4025C11.2175 45.4721 11.4141 46.927 12.4251 47.7645C13.5071 48.6614 15.1112 48.5111 16.0081 47.4291L18.0728 44.9377C17.7166 45.9192 17.9886 47.0598 18.8389 47.7641C19.9213 48.661 21.5254 48.5107 22.4223 47.4287L33.6646 33.8641C34.5615 32.7829 34.4116 31.1784 33.3292 30.2815Z" fill="#EBBC96" stroke="#4F3625" stroke-width="2.68955" stroke-miterlimit="10" stroke-linecap="round" stroke-linejoin="round"/>
<path d="M41.1557 41.2562C41.1557 42.1336 40.4378 42.8514 39.5604 42.8514H6.45855C5.58115 42.8514 4.86328 42.1336 4.86328 41.2562V20.9164C4.86328 20.0391 5.58115 19.3212 6.45855 19.3212H39.5604C40.4378 19.3212 41.1557 20.0391 41.1557 20.9164V41.2562Z" fill="#B2EDA6"/>
<path d="M41.1557 41.2562C41.1557 42.1336 40.4378 42.8514 39.5604 42.8514H6.45855C5.58115 42.8514 4.86328 42.1336 4.86328 41.2562V20.9164C4.86328 20.0391 5.58115 19.3212 6.45855 19.3212H39.5604C40.4378 19.3212 41.1557 20.0391 41.1557 20.9164V41.2562Z" stroke="#3C663E" stroke-width="2.68955" stroke-miterlimit="10" stroke-linecap="round" stroke-linejoin="round"/>
<path d="M41.4058 22.9393H4.99609V27.6373H41.4058V22.9393Z" fill="#3C663E"/>
<path d="M37.8826 29.6191H22.2227V33.5343H37.8826V29.6191Z" fill="#E7FFE1" stroke="#3C663E" stroke-width="1.79303" stroke-miterlimit="10" stroke-linecap="round" stroke-linejoin="round"/>
<path d="M30.5782 17.4464C30.5782 17.4464 28.3544 18.8387 25.3493 19.8652C22.6493 20.7881 19.3969 21.3676 19.3969 21.3676C19.3969 21.3676 19.2832 25.7035 18.8446 27.7766C18.4078 29.8496 14.509 30.8957 13.3106 27.9289C12.1129 24.9617 11.8082 20.3593 12.6449 17.659C13.482 14.9582 16.2913 13.0502 18.5351 11.833C19.5313 11.2926 20.2512 10.9875 21.3272 10.6629C21.3272 10.6629 29.761 2.4604 29.9217 2.25701C31.5417 0.213464 36.9987 1.83984 42.1088 5.89024C47.2192 9.94063 50.0497 14.8824 48.4297 16.9263C48.3228 17.0611 44.0243 20.2241 41.9612 22.8268" fill="#EBBC96"/>
<path d="M30.5782 17.4464C30.5782 17.4464 28.3544 18.8387 25.3493 19.8652C22.6493 20.7881 19.3969 21.3676 19.3969 21.3676C19.3969 21.3676 19.2832 25.7035 18.8446 27.7766C18.4078 29.8496 14.509 30.8957 13.3106 27.9289C12.1129 24.9617 11.8082 20.3593 12.6449 17.659C13.482 14.9582 16.2913 13.0502 18.5351 11.833C19.5313 11.2926 20.2512 10.9875 21.3272 10.6629C21.3272 10.6629 29.761 2.4604 29.9217 2.25701C31.5417 0.213464 36.9987 1.83984 42.1088 5.89024C47.2192 9.94063 50.0497 14.8824 48.4297 16.9263C48.3228 17.0611 44.0243 20.2241 41.9612 22.8268" fill="#EBBC96"/>
<path d="M42.1099 5.89024C37.0002 1.83984 31.5432 0.213464 29.9232 2.25701C29.8386 2.36349 26.6034 4.13624 24.6875 6.50641C25.7476 6.56903 26.8076 6.64121 27.8717 6.67591C29.9184 6.74211 31.8068 6.68508 33.7367 7.48431C36.8806 8.78685 39.1917 11.5487 41.0518 14.3085C42.3216 16.1921 43.4926 18.4354 43.6186 20.7374C45.3738 18.5228 48.3506 17.028 48.4307 16.9263C50.0511 14.882 47.2203 9.94063 42.1099 5.89024Z" fill="white"/>
<path opacity="0.2" d="M16.4023 30.908C16.4023 30.908 19.8697 30.7417 22.0707 27.5939C23.5045 25.5431 23.3374 24.0496 23.3374 24.0496C23.3374 24.0496 25.4268 23.9152 28.5583 22.2361C31.2922 20.7705 32.6267 17.9975 32.6267 17.9975L28.4299 17.6007L19.4932 20.6508L18.9233 27.2684L16.4023 30.908Z" fill="#1E3A1E"/>
<path d="M37.949 8.84113C33.6154 5.28966 26.9348 5.35905 26.9348 5.35905L22.7843 10.6258L22.7109 10.7403L22.7951 10.7913C26.8471 9.81544 31.2823 10.0663 35.0472 12.4776C38.4618 14.6655 40.8089 17.6414 41.8694 21.1658C42.9111 19.9075 44.2523 18.3597 44.2523 18.3597C44.2523 18.3597 43.2668 13.1994 37.949 8.84113Z" fill="#D6D0CC"/>
<path d="M22.2891 10.9166C26.4751 9.79471 31.1261 9.9658 35.0484 12.4776C39.0681 15.0531 41.6154 18.7175 42.3169 23.0877" stroke="#4F3625" stroke-width="1.79303" stroke-miterlimit="10" stroke-linecap="round" stroke-linejoin="round"/>
<path d="M30.5782 17.4464C30.5782 17.4464 28.3544 18.8387 25.3493 19.8652C22.6493 20.7881 19.3969 21.3676 19.3969 21.3676C19.3969 21.3676 19.2833 25.7035 18.8446 27.7766C18.4078 29.8496 14.509 30.8957 13.3106 27.9289C12.1129 24.9617 11.8082 20.3594 12.6449 17.659C13.482 14.9582 16.2913 13.0502 18.5351 11.833C19.5313 11.2926 20.2512 10.9875 21.3272 10.6629C21.3272 10.6629 29.0096 3.21178 29.1703 3.00878C30.7903 0.965242 36.2474 2.59162 41.3574 6.64201C46.4679 10.6924 49.2983 15.6338 47.6783 17.6777C47.5714 17.8125 44.0243 20.2242 41.9612 22.8268" stroke="#4F3625" stroke-width="2.68955" stroke-miterlimit="10" stroke-linecap="round" stroke-linejoin="round"/>
<path d="M13.6133 23.2241C13.6133 23.2241 15.4969 23.274 16.0174 24.5622" stroke="#4F3625" stroke-width="1.79303" stroke-miterlimit="10" stroke-linecap="round" stroke-linejoin="round"/>
<path d="M11.6514 39.4064C13.3812 39.4064 14.7834 38.0042 14.7834 36.2745C14.7834 34.5448 13.3812 33.1426 11.6514 33.1426C9.92174 33.1426 8.51953 34.5448 8.51953 36.2745C8.51953 38.0042 9.92174 39.4064 11.6514 39.4064Z" fill="#E7FFE1" stroke="#3C663E" stroke-width="1.79303" stroke-miterlimit="10" stroke-linecap="round" stroke-linejoin="round"/>
<path d="M15.96 39.4064C17.6898 39.4064 19.092 38.0042 19.092 36.2745C19.092 34.5448 17.6898 33.1426 15.96 33.1426C14.2303 33.1426 12.8281 34.5448 12.8281 36.2745C12.8281 38.0042 14.2303 39.4064 15.96 39.4064Z" fill="#E7FFE1" stroke="#3C663E" stroke-width="1.79303" stroke-miterlimit="10" stroke-linecap="round" stroke-linejoin="round"/>
<path d="M32.0078 19.4401H39.4171C40.2944 19.4401 41.0123 20.158 41.0123 21.0354V23.331" fill="#B2EDA6"/>
<path d="M32.0078 19.4401H39.4171C40.2945 19.4401 41.0123 20.158 41.0123 21.0354V23.331" stroke="#3C663E" stroke-width="2.68955" stroke-miterlimit="10" stroke-linecap="round" stroke-linejoin="round"/>
</g>
<defs>
<clipPath id="clip0_1_28216">
<rect width="51.0487" height="51.0487" fill="white" transform="translate(0.476562 0.975658)"/>
</clipPath>
</defs>
</svg>
