<svg width="39" height="244" viewBox="0 0 39 244" fill="none" xmlns="http://www.w3.org/2000/svg">
<path d="M25.7458 236.92H8.25958C7.95379 236.919 7.65468 236.83 7.3981 236.664C7.14152 236.498 6.93836 236.261 6.81299 235.982L0.454378 221.675C0.311218 221.297 0.317773 220.878 0.472708 220.504C0.627642 220.13 0.919293 219.829 1.28822 219.663C1.65714 219.497 2.07556 219.478 2.45821 219.609C2.84085 219.741 3.1589 220.014 3.34755 220.371L9.29285 233.74H24.6012L29.0046 220.515C29.1112 220.199 29.3144 219.925 29.5854 219.731C29.8564 219.537 30.1815 219.433 30.5147 219.434H36.8733C37.2949 219.434 37.6993 219.601 37.9974 219.899C38.2955 220.197 38.463 220.602 38.463 221.023C38.463 221.445 38.2955 221.849 37.9974 222.147C37.6993 222.445 37.2949 222.613 36.8733 222.613H31.6593L27.3354 235.839C27.2248 236.168 27.0095 236.452 26.7225 236.647C26.4355 236.842 26.0924 236.938 25.7458 236.92Z" fill="#27A098"/>
<path d="M15.4612 217.752C15.2316 217.752 15.0047 217.703 14.7961 217.607C14.5876 217.511 14.4023 217.371 14.253 217.196L11.9004 214.398C11.7656 214.239 11.6636 214.054 11.6002 213.855C11.5369 213.656 11.5134 213.446 11.5311 213.238C11.5488 213.03 11.6074 212.827 11.7035 212.642C11.7996 212.456 11.9313 212.291 12.0911 212.157C12.2508 212.022 12.4354 211.92 12.6345 211.857C12.8336 211.793 13.0432 211.77 13.2514 211.788C13.4595 211.805 13.6622 211.864 13.8477 211.96C14.0332 212.056 14.198 212.188 14.3325 212.348L15.493 213.731L19.785 208.85C20.0635 208.535 20.4559 208.342 20.8762 208.315C21.2964 208.288 21.7101 208.429 22.0265 208.707C22.3423 208.986 22.5348 209.378 22.5616 209.798C22.5884 210.219 22.4474 210.632 22.1695 210.949L16.6534 217.212C16.5045 217.382 16.3211 217.517 16.1155 217.611C15.9099 217.704 15.6869 217.752 15.4612 217.752Z" fill="#27A098"/>
<path d="M16.2078 224.2C13.6782 224.2 11.2522 223.195 9.46351 221.406C7.67481 219.617 6.66992 217.191 6.66992 214.662C6.66992 212.132 7.67481 209.706 9.46351 207.917C11.2522 206.129 13.6782 205.124 16.2078 205.124C16.6294 205.124 17.0338 205.291 17.3319 205.589C17.63 205.887 17.7975 206.292 17.7975 206.713C17.7975 207.135 17.63 207.539 17.3319 207.837C17.0338 208.136 16.6294 208.303 16.2078 208.303C14.9502 208.303 13.7209 208.676 12.6752 209.375C11.6295 210.073 10.8145 211.066 10.3333 212.228C9.85198 213.39 9.72606 214.669 9.97141 215.902C10.2168 217.136 10.8224 218.269 11.7116 219.158C12.6009 220.047 13.7339 220.653 14.9673 220.898C16.2008 221.143 17.4793 221.018 18.6412 220.536C19.8031 220.055 20.7961 219.24 21.4948 218.194C22.1935 217.149 22.5665 215.919 22.5665 214.662C22.5665 214.24 22.7339 213.836 23.0321 213.538C23.3302 213.24 23.7345 213.072 24.1561 213.072C24.5777 213.072 24.982 213.24 25.2802 213.538C25.5783 213.836 25.7458 214.24 25.7458 214.662C25.7458 217.191 24.7409 219.617 22.9522 221.406C21.1635 223.195 18.7375 224.2 16.2078 224.2Z" fill="#27A098"/>
<path d="M8.2592 243.271C7.31599 243.271 6.39396 242.991 5.6097 242.467C4.82545 241.943 4.2142 241.198 3.85325 240.327C3.4923 239.455 3.39786 238.496 3.58187 237.571C3.76588 236.646 4.22008 235.796 4.88703 235.129C5.55398 234.463 6.40373 234.008 7.32882 233.824C8.25391 233.64 9.21278 233.735 10.0842 234.096C10.9556 234.457 11.7004 235.068 12.2244 235.852C12.7485 236.636 13.0282 237.558 13.0282 238.502C13.0282 239.766 12.5257 240.979 11.6314 241.874C10.737 242.768 9.524 243.271 8.2592 243.271ZM8.2592 236.912C7.94479 236.912 7.63745 237.005 7.37603 237.18C7.11462 237.355 6.91087 237.603 6.79055 237.893C6.67023 238.184 6.63875 238.503 6.70009 238.812C6.76142 239.12 6.91283 239.403 7.13514 239.626C7.35746 239.848 7.64071 239.999 7.94907 240.061C8.25743 240.122 8.57706 240.091 8.86753 239.97C9.158 239.85 9.40627 239.646 9.58094 239.385C9.75562 239.123 9.84885 238.816 9.84885 238.502C9.84885 238.08 9.68137 237.676 9.38325 237.378C9.08513 237.079 8.6808 236.912 8.2592 236.912Z" fill="#27A098"/>
<path d="M25.7455 243.271C24.8023 243.271 23.8803 242.991 23.096 242.467C22.3118 241.943 21.7005 241.198 21.3396 240.327C20.9786 239.455 20.8842 238.496 21.0682 237.571C21.2522 236.646 21.7064 235.796 22.3734 235.129C23.0403 234.463 23.8901 234.008 24.8151 233.824C25.7402 233.64 26.6991 233.735 27.5705 234.096C28.4419 234.457 29.1868 235.068 29.7108 235.852C30.2348 236.636 30.5145 237.558 30.5145 238.502C30.5145 239.766 30.012 240.979 29.1177 241.874C28.2233 242.768 27.0103 243.271 25.7455 243.271ZM25.7455 236.912C25.4311 236.912 25.1238 237.005 24.8624 237.18C24.6009 237.355 24.3972 237.603 24.2769 237.893C24.1566 238.184 24.1251 238.503 24.1864 238.812C24.2478 239.12 24.3992 239.403 24.6215 239.626C24.8438 239.848 25.127 239.999 25.4354 240.061C25.7438 240.122 26.0634 240.091 26.3539 239.97C26.6443 239.85 26.8926 239.646 27.0673 239.385C27.2419 239.123 27.3352 238.816 27.3352 238.502C27.3352 238.08 27.1677 237.676 26.8696 237.378C26.5715 237.079 26.1671 236.912 25.7455 236.912Z" fill="#27A098"/>
<path fill-rule="evenodd" clip-rule="evenodd" d="M14.5617 205.798H15.3618V203.624C15.362 203.38 15.4114 203.138 15.507 202.914C15.6027 202.689 15.7426 202.486 15.9185 202.317L16.5866 201.671C16.7626 201.501 16.9026 201.298 16.9983 201.074C17.0939 200.849 17.1432 200.607 17.1432 200.363C17.1432 200.119 17.0939 199.877 16.9983 199.652C16.9026 199.428 16.7626 199.225 16.5866 199.055L15.9185 198.409C15.7427 198.24 15.6028 198.037 15.5072 197.812C15.4115 197.588 15.362 197.346 15.3618 197.102V187.658C15.362 187.414 15.4115 187.172 15.5072 186.947C15.6028 186.723 15.7427 186.52 15.9185 186.35L16.5866 185.704C16.7626 185.535 16.9026 185.332 16.9983 185.107C17.0939 184.882 17.1432 184.641 17.1432 184.396C17.1432 184.152 17.0939 183.911 16.9983 183.686C16.9026 183.461 16.7626 183.258 16.5866 183.089L15.9185 182.443C15.7427 182.274 15.6028 182.07 15.5072 181.846C15.4115 181.621 15.362 181.379 15.3618 181.135V171.691C15.362 171.447 15.4115 171.205 15.5072 170.981C15.6028 170.756 15.7427 170.553 15.9185 170.384L16.5866 169.738C16.7626 169.569 16.9026 169.366 16.9983 169.141C17.0939 168.916 17.1432 168.675 17.1432 168.43C17.1432 168.186 17.0939 167.945 16.9983 167.72C16.9026 167.495 16.7626 167.292 16.5866 167.123L15.9185 166.477C15.7427 166.307 15.6028 166.104 15.5072 165.88C15.4115 165.655 15.362 165.413 15.3618 165.169V155.725C15.362 155.481 15.4114 155.239 15.5071 155.015C15.6028 154.79 15.7427 154.587 15.9185 154.417L16.5866 153.772C16.7626 153.602 16.9026 153.399 16.9983 153.175C17.0939 152.95 17.1432 152.708 17.1432 152.464C17.1432 152.22 17.0939 151.978 16.9983 151.753C16.9026 151.529 16.7626 151.326 16.5866 151.156L15.9185 150.51C15.7427 150.341 15.6028 150.138 15.5071 149.913C15.4114 149.689 15.362 149.447 15.3618 149.203V139.759C15.362 139.515 15.4115 139.273 15.5072 139.048C15.6028 138.824 15.7427 138.62 15.9185 138.451L16.5866 137.806C16.7626 137.636 16.9026 137.433 16.9983 137.208C17.0939 136.984 17.1432 136.742 17.1432 136.498C17.1432 136.254 17.0939 136.012 16.9983 135.787C16.9026 135.563 16.7626 135.359 16.5866 135.19L15.9185 134.544C15.7427 134.375 15.6028 134.172 15.5072 133.947C15.4115 133.722 15.362 133.481 15.3618 133.237V123.793C15.362 123.548 15.4115 123.307 15.5072 123.082C15.6028 122.857 15.7427 122.654 15.9185 122.485L16.5866 121.839C16.7626 121.67 16.9026 121.467 16.9983 121.242C17.0939 121.017 17.1432 120.776 17.1432 120.531C17.1432 120.287 17.0939 120.045 16.9983 119.821C16.9026 119.596 16.7626 119.393 16.5866 119.224L15.9185 118.578C15.7426 118.408 15.6027 118.205 15.507 117.981C15.4114 117.756 15.362 117.514 15.3618 117.27V107.826C15.362 107.582 15.4115 107.34 15.5072 107.116C15.6028 106.891 15.7427 106.688 15.9185 106.518L16.5866 105.873C16.7625 105.703 16.9025 105.5 16.9981 105.276C17.0937 105.051 17.143 104.809 17.143 104.565C17.143 104.321 17.0937 104.079 16.9981 103.855C16.9025 103.63 16.7625 103.427 16.5866 103.258L15.9185 102.612C15.7427 102.442 15.6028 102.239 15.5072 102.014C15.4115 101.79 15.362 101.548 15.3618 101.304V91.86C15.362 91.6159 15.4115 91.3742 15.5072 91.1496C15.6028 90.9249 15.7427 90.7218 15.9185 90.5523L16.5866 89.9065C16.7626 89.7372 16.9026 89.5341 16.9983 89.3094C17.0939 89.0847 17.1432 88.843 17.1432 88.5988C17.1432 88.3546 17.0939 88.1129 16.9983 87.8882C16.9026 87.6635 16.7626 87.4604 16.5866 87.2911L15.9185 86.6452C15.7427 86.4758 15.6028 86.2727 15.5072 86.048C15.4115 85.8233 15.362 85.5817 15.3618 85.3375V75.8935C15.362 75.6494 15.4115 75.4077 15.5072 75.1831C15.6028 74.9584 15.7427 74.7553 15.9185 74.5858L16.5866 73.94C16.7626 73.7707 16.9026 73.5676 16.9983 73.3429C17.0939 73.1182 17.1432 72.8765 17.1432 72.6323C17.1432 72.3881 17.0939 72.1464 16.9983 71.9217C16.9026 71.697 16.7626 71.4939 16.5866 71.3246L15.9185 70.6787C15.7426 70.5094 15.6028 70.3064 15.5071 70.0817C15.4114 69.8571 15.362 69.6156 15.3618 69.3714V59.9275C15.362 59.6833 15.4114 59.4416 15.5071 59.217C15.6028 58.9923 15.7427 58.7892 15.9185 58.6197L16.5866 57.9739C16.7626 57.8046 16.9026 57.6015 16.9983 57.3768C17.0939 57.1521 17.1432 56.9104 17.1432 56.6662C17.1432 56.422 17.0939 56.1803 16.9983 55.9556C16.9026 55.7309 16.7626 55.5278 16.5866 55.3585L15.9185 54.7127C15.7426 54.5432 15.6028 54.3401 15.5071 54.1155C15.4114 53.8908 15.362 53.6491 15.3618 53.4049V43.961C15.362 43.7168 15.4114 43.4751 15.5071 43.2505C15.6028 43.0258 15.7427 42.8227 15.9185 42.6532L16.5866 42.0074C16.7626 41.8381 16.9026 41.635 16.9983 41.4103C17.0939 41.1856 17.1432 40.9439 17.1432 40.6997C17.1432 40.4555 17.0939 40.2138 16.9983 39.9891C16.9026 39.7644 16.7626 39.5613 16.5866 39.392L15.9185 38.7462C15.7427 38.5767 15.6028 38.3736 15.5071 38.1489C15.4114 37.9243 15.362 37.6826 15.3618 37.4384V27.9945C15.362 27.7503 15.4114 27.5086 15.5071 27.284C15.6028 27.0593 15.7427 26.8562 15.9185 26.6867L16.5866 26.0409C16.7626 25.8716 16.9026 25.6685 16.9983 25.4438C17.0939 25.2191 17.1432 24.9774 17.1432 24.7332C17.1432 24.489 17.0939 24.2473 16.9983 24.0226C16.9026 23.7979 16.7626 23.5948 16.5866 23.4255L15.9185 22.7801C15.7427 22.6106 15.6028 22.4075 15.5071 22.1829C15.4114 21.9582 15.362 21.7165 15.3618 21.4724V12.028C15.362 11.7838 15.4114 11.5422 15.5071 11.3175C15.6028 11.0928 15.7427 10.8897 15.9185 10.7203L16.5866 10.0744C16.7626 9.90513 16.9026 9.70204 16.9983 9.47733C17.0939 9.25262 17.1432 9.01092 17.1432 8.76671C17.1432 8.5225 17.0939 8.2808 16.9983 8.05609C16.9026 7.83138 16.7626 7.62829 16.5866 7.45899L15.9185 6.81276C15.7427 6.64332 15.6028 6.44021 15.5071 6.21554C15.4114 5.99086 15.362 5.74922 15.3618 5.50504V0.782227H14.5617V5.50586C14.5622 5.74979 14.5136 5.99132 14.4186 6.21601C14.3237 6.4407 14.1844 6.64394 14.0091 6.81358L13.3369 7.4594C13.1617 7.62918 13.0224 7.83243 12.9273 8.05707C12.8322 8.28171 12.7832 8.52317 12.7832 8.76712C12.7832 9.01107 12.8322 9.25253 12.9273 9.47718C13.0224 9.70182 13.1617 9.90506 13.3369 10.0748L14.0091 10.7207C14.1844 10.8903 14.3237 11.0935 14.4186 11.3182C14.5136 11.5429 14.5622 11.7845 14.5617 12.0284V21.4724C14.5622 21.7163 14.5136 21.9578 14.4186 22.1825C14.3237 22.4072 14.1844 22.6104 14.0091 22.7801L13.3369 23.4255C13.1617 23.5953 13.0224 23.7985 12.9273 24.0232C12.8322 24.2478 12.7832 24.4893 12.7832 24.7332C12.7832 24.9772 12.8322 25.2186 12.9273 25.4433C13.0224 25.6679 13.1617 25.8711 13.3369 26.0409L14.0091 26.6867C14.1843 26.8563 14.3236 27.0595 14.4185 27.2841C14.5135 27.5087 14.5622 27.7502 14.5617 27.9941V37.438C14.5622 37.682 14.5136 37.9235 14.4186 38.1482C14.3237 38.3729 14.1844 38.5761 14.0091 38.7458L13.3369 39.3916C13.1617 39.5614 13.0224 39.7646 12.9273 39.9892C12.8322 40.2139 12.7832 40.4553 12.7832 40.6993C12.7832 40.9432 12.8322 41.1847 12.9273 41.4093C13.0224 41.634 13.1617 41.8372 13.3369 42.007L14.0091 42.6528C14.1844 42.8225 14.3237 43.0257 14.4186 43.2504C14.5136 43.4751 14.5622 43.7166 14.5617 43.9606V53.4136C14.5622 53.6575 14.5136 53.8991 14.4186 54.1237C14.3237 54.3484 14.1844 54.5517 14.0091 54.7213L13.3369 55.3671C13.1617 55.5369 13.0224 55.7402 12.9273 55.9648C12.8322 56.1895 12.7832 56.4309 12.7832 56.6749C12.7832 56.9188 12.8322 57.1603 12.9273 57.3849C13.0224 57.6096 13.1617 57.8128 13.3369 57.9826L14.0091 58.628C14.1844 58.7977 14.3238 59.001 14.4187 59.2258C14.5137 59.4505 14.5623 59.6921 14.5617 59.9361V69.3801C14.5622 69.624 14.5136 69.8656 14.4186 70.0902C14.3237 70.3149 14.1844 70.5182 14.0091 70.6878L13.3369 71.3332C13.1617 71.503 13.0224 71.7062 12.9273 71.9309C12.8322 72.1555 12.7832 72.397 12.7832 72.6409C12.7832 72.8849 12.8322 73.1264 12.9273 73.351C13.0224 73.5756 13.1617 73.7789 13.3369 73.9487L14.0091 74.5945C14.1844 74.7641 14.3237 74.9674 14.4186 75.1921C14.5136 75.4167 14.5622 75.6583 14.5617 75.9022V85.3462C14.5622 85.5901 14.5136 85.8316 14.4186 86.0563C14.3237 86.281 14.1844 86.4843 14.0091 86.6539L13.3369 87.2997C13.1617 87.4695 13.0224 87.6727 12.9273 87.8974C12.8322 88.122 12.7832 88.3635 12.7832 88.6074C12.7832 88.8514 12.8322 89.0928 12.9273 89.3175C13.0224 89.5421 13.1617 89.7454 13.3369 89.9152L14.0091 90.561C14.1844 90.7306 14.3237 90.9339 14.4186 91.1586C14.5136 91.3832 14.5622 91.6248 14.5617 91.8687V101.313C14.5622 101.557 14.5136 101.798 14.4186 102.023C14.3237 102.248 14.1844 102.451 14.0091 102.62L13.3369 103.266C13.1617 103.436 13.0224 103.639 12.9273 103.864C12.8322 104.089 12.7832 104.33 12.7832 104.574C12.7832 104.818 12.8322 105.059 12.9273 105.284C13.0224 105.509 13.1617 105.712 13.3369 105.882L14.0091 106.527C14.1844 106.697 14.3237 106.9 14.4186 107.125C14.5136 107.349 14.5622 107.591 14.5617 107.835V117.279C14.5622 117.523 14.5136 117.764 14.4186 117.989C14.3237 118.214 14.1844 118.417 14.0091 118.586L13.3369 119.232C13.1617 119.402 13.0224 119.605 12.9273 119.83C12.8322 120.055 12.7832 120.296 12.7832 120.54C12.7832 120.784 12.8322 121.025 12.9273 121.25C13.0224 121.475 13.1617 121.678 13.3369 121.848L14.0091 122.494C14.1844 122.663 14.3237 122.866 14.4186 123.091C14.5136 123.316 14.5622 123.557 14.5617 123.801V133.25C14.5622 133.494 14.5136 133.736 14.4186 133.96C14.3237 134.185 14.1844 134.388 14.0091 134.558L13.3369 135.204C13.1617 135.374 13.0224 135.577 12.9273 135.801C12.8322 136.026 12.7832 136.268 12.7832 136.511C12.7832 136.755 12.8322 136.997 12.9273 137.222C13.0224 137.446 13.1617 137.649 13.3369 137.819L14.0091 138.465C14.1844 138.634 14.3237 138.837 14.4186 139.062C14.5136 139.287 14.5622 139.528 14.5617 139.772V149.216C14.5622 149.46 14.5136 149.702 14.4186 149.926C14.3237 150.151 14.1844 150.354 14.0091 150.524L13.3369 151.17C13.1617 151.34 13.0224 151.543 12.9273 151.767C12.8322 151.992 12.7832 152.234 12.7832 152.478C12.7832 152.721 12.8322 152.963 12.9273 153.188C13.0224 153.412 13.1617 153.615 13.3369 153.785L14.0091 154.431C14.1844 154.601 14.3237 154.804 14.4186 155.029C14.5136 155.253 14.5622 155.495 14.5617 155.739V165.183C14.5622 165.427 14.5136 165.668 14.4186 165.893C14.3237 166.118 14.1844 166.321 14.0091 166.49L13.3369 167.136C13.1617 167.306 13.0224 167.509 12.9273 167.734C12.8322 167.959 12.7832 168.2 12.7832 168.444C12.7832 168.688 12.8322 168.929 12.9273 169.154C13.0224 169.379 13.1617 169.582 13.3369 169.752L14.0091 170.397C14.1844 170.567 14.3237 170.77 14.4186 170.995C14.5136 171.219 14.5622 171.461 14.5617 171.705V181.149C14.5622 181.393 14.5136 181.634 14.4186 181.859C14.3237 182.084 14.1844 182.287 14.0091 182.457L13.3369 183.102C13.1617 183.272 13.0224 183.475 12.9273 183.7C12.8322 183.925 12.7832 184.166 12.7832 184.41C12.7832 184.654 12.8322 184.896 12.9273 185.12C13.0224 185.345 13.1617 185.548 13.3369 185.718L14.0091 186.364C14.1844 186.533 14.3237 186.737 14.4186 186.961C14.5136 187.186 14.5622 187.427 14.5617 187.671V197.115C14.5622 197.359 14.5136 197.601 14.4186 197.826C14.3237 198.05 14.1844 198.253 14.0091 198.423L13.3369 199.069C13.1617 199.239 13.0224 199.442 12.9273 199.667C12.8322 199.891 12.7832 200.133 12.7832 200.377C12.7832 200.621 12.8322 200.862 12.9273 201.087C13.0224 201.311 13.1617 201.515 13.3369 201.684L14.0091 202.33C14.1844 202.499 14.3237 202.703 14.4186 202.927C14.5136 203.152 14.5622 203.394 14.5617 203.637V205.798Z" fill="#27A098"/>
</svg>
