<svg width="376" height="401" viewBox="0 0 376 401" fill="none" xmlns="http://www.w3.org/2000/svg">
<g filter="url(#filter0_d_0_1)">
<rect x="11" y="24" width="354" height="376" rx="5" fill="white"/>
<rect x="10.63" y="23.63" width="354.74" height="376.74" rx="5.37" stroke="#E7E9EB" stroke-width="0.74"/>
</g>
<path d="M214.348 177.83C213.856 177.83 213.61 177.578 213.61 177.074C213.61 176.594 213.856 176.354 214.348 176.354C214.816 176.354 215.05 176.594 215.05 177.074C215.05 177.578 214.816 177.83 214.348 177.83ZM216.4 177.83C215.908 177.83 215.662 177.578 215.662 177.074C215.662 176.594 215.908 176.354 216.4 176.354C216.868 176.354 217.102 176.594 217.102 177.074C217.102 177.578 216.868 177.83 216.4 177.83ZM219.892 186.884H220.504V188H219.73C218.446 188 217.552 187.496 217.048 186.488C216.424 187.136 215.656 187.46 214.744 187.46C213.712 187.46 212.896 187.07 212.296 186.29C211.792 185.63 211.54 184.808 211.54 183.824C211.54 182.672 211.876 181.748 212.548 181.052C213.136 180.44 213.862 180.134 214.726 180.134C215.506 180.134 216.16 180.362 216.688 180.818V179.846L217.894 179.216V184.832C217.894 186.2 218.56 186.884 219.892 186.884ZM216.688 182.186C216.16 181.55 215.518 181.232 214.762 181.232C214.162 181.232 213.67 181.478 213.286 181.97C212.914 182.45 212.728 183.074 212.728 183.842C212.728 184.622 212.914 185.246 213.286 185.714C213.67 186.182 214.168 186.416 214.78 186.416C215.56 186.416 216.208 186.074 216.724 185.39C216.7 185.174 216.688 185 216.688 184.868V182.186ZM220.136 188V186.884H220.766C222.086 186.884 222.746 186.2 222.746 184.832V180.926L223.952 180.296V184.868C223.952 185.876 223.658 186.662 223.07 187.226C222.53 187.742 221.81 188 220.91 188H220.136ZM220.73 191.366C220.238 191.366 219.992 191.114 219.992 190.61C219.992 190.13 220.238 189.89 220.73 189.89C221.198 189.89 221.432 190.13 221.432 190.61C221.432 191.114 221.198 191.366 220.73 191.366ZM222.782 191.366C222.29 191.366 222.044 191.114 222.044 190.61C222.044 190.13 222.29 189.89 222.782 189.89C223.25 189.89 223.484 190.13 223.484 190.61C223.484 191.114 223.25 191.366 222.782 191.366ZM232.726 186.884H233.356V188H232.582C231.838 188 231.22 187.82 230.728 187.46C230.632 189.452 229.828 190.712 228.316 191.24C227.932 191.372 227.524 191.438 227.092 191.438C226.396 191.438 225.724 191.27 225.076 190.934V189.872C225.688 190.208 226.312 190.376 226.948 190.376C227.452 190.376 227.896 190.262 228.28 190.034C229.12 189.53 229.54 188.588 229.54 187.208V180.926L230.728 180.296V180.314L230.746 180.296V184.832C230.746 186.2 231.406 186.884 232.726 186.884ZM251.004 186.884H251.634V188H250.86C249.78 188 248.97 187.634 248.43 186.902C247.89 187.634 247.074 188 245.982 188H238.656C237.576 188 236.766 187.634 236.226 186.902C235.662 187.634 234.846 188 233.778 188H233.004V186.884H233.634C234.954 186.884 235.614 186.2 235.614 184.832V182.24L236.82 181.61V184.832C236.82 185.96 237.258 186.62 238.134 186.812C238.578 184.964 239.352 183.416 240.456 182.168C241.692 180.776 243.144 180.08 244.812 180.08C246.156 180.08 247.224 180.542 248.016 181.466C248.688 182.258 249.024 183.236 249.024 184.4V184.868C249.024 186.212 249.684 186.884 251.004 186.884ZM245.892 186.884C247.176 186.884 247.818 186.176 247.818 184.76V184.4C247.818 183.392 247.5 182.582 246.864 181.97C246.324 181.442 245.646 181.178 244.83 181.178C243.426 181.178 242.178 181.838 241.086 183.158C240.258 184.166 239.634 185.408 239.214 186.884H245.892ZM251.267 188V186.884H253.283C255.899 186.884 257.939 185.996 259.403 184.22C258.335 182.18 257.045 181.16 255.533 181.16C254.501 181.16 253.493 181.682 252.509 182.726V181.538C253.493 180.566 254.519 180.08 255.587 180.08H255.623C257.507 180.08 259.139 181.352 260.519 183.896V184.634C258.767 186.878 256.349 188 253.265 188H251.267ZM281.74 186.884H282.37V188H281.596C280.516 188 279.706 187.634 279.166 186.902C278.602 187.634 277.78 188 276.7 188H270.274C269.386 188 268.678 187.724 268.15 187.172C267.622 186.608 267.358 185.852 267.358 184.904V182.546L268.564 181.916V184.76C268.564 186.176 269.224 186.884 270.544 186.884H276.574C277.894 186.884 278.554 186.176 278.554 184.76V180.926L279.76 180.296V184.832C279.76 186.2 280.42 186.884 281.74 186.884ZM272.776 189.89C273.244 189.89 273.478 190.13 273.478 190.61C273.478 191.114 273.244 191.366 272.776 191.366C272.284 191.366 272.038 191.114 272.038 190.61C272.038 190.13 272.284 189.89 272.776 189.89ZM283.46 177.974C282.98 177.974 282.74 177.728 282.74 177.236C282.74 176.744 282.98 176.498 283.46 176.498C283.94 176.498 284.18 176.744 284.18 177.236C284.18 177.728 283.94 177.974 283.46 177.974ZM285.512 177.974C285.032 177.974 284.792 177.728 284.792 177.236C284.792 176.744 285.032 176.498 285.512 176.498C285.992 176.498 286.232 176.744 286.232 177.236C286.232 177.728 285.992 177.974 285.512 177.974ZM287.438 186.884H288.068V188H287.294C286.214 188 285.404 187.634 284.864 186.902C284.3 187.634 283.484 188 282.416 188H281.642V186.884H282.272C283.592 186.884 284.252 186.2 284.252 184.832V180.926L285.458 180.296V184.832C285.458 186.2 286.118 186.884 287.438 186.884ZM290.551 180.566C290.671 180.554 290.797 180.548 290.929 180.548C292.009 180.548 292.933 180.812 293.701 181.34C294.757 182.096 295.285 183.176 295.285 184.58V184.922C295.285 185.93 294.973 186.716 294.349 187.28C293.809 187.76 293.107 188 292.243 188H287.707V186.884H292.117C293.425 186.884 294.079 186.182 294.079 184.778V184.598C294.079 183.626 293.731 182.9 293.035 182.42C292.459 181.988 291.727 181.772 290.839 181.772C290.191 181.772 289.549 181.886 288.913 182.114V180.926L292.999 176.39H294.241L290.551 180.566Z" fill="black"/>
<path d="M313.5 190C317.642 190 321 186.642 321 182.5C321 178.358 317.642 175 313.5 175C309.358 175 306 178.358 306 182.5C306 186.642 309.358 190 313.5 190Z" fill="#8CE5C3"/>
<path d="M312.826 186C312.7 186 312.575 185.949 312.496 185.847L310.141 183.289C309.953 183.084 309.953 182.761 310.141 182.573C310.33 182.368 310.628 182.368 310.801 182.573L312.795 184.738L317.175 179.18C317.347 178.958 317.646 178.941 317.834 179.129C318.038 179.316 318.054 179.64 317.881 179.845L313.171 185.812C313.093 185.915 312.967 185.983 312.826 185.983C312.842 186 312.826 186 312.826 186Z" fill="#1C7775"/>
<path d="M190.348 214.83C189.856 214.83 189.61 214.578 189.61 214.074C189.61 213.594 189.856 213.354 190.348 213.354C190.816 213.354 191.05 213.594 191.05 214.074C191.05 214.578 190.816 214.83 190.348 214.83ZM192.4 214.83C191.908 214.83 191.662 214.578 191.662 214.074C191.662 213.594 191.908 213.354 192.4 213.354C192.868 213.354 193.102 213.594 193.102 214.074C193.102 214.578 192.868 214.83 192.4 214.83ZM195.892 223.884H196.504V225H195.73C194.446 225 193.552 224.496 193.048 223.488C192.424 224.136 191.656 224.46 190.744 224.46C189.712 224.46 188.896 224.07 188.296 223.29C187.792 222.63 187.54 221.808 187.54 220.824C187.54 219.672 187.876 218.748 188.548 218.052C189.136 217.44 189.862 217.134 190.726 217.134C191.506 217.134 192.16 217.362 192.688 217.818V216.846L193.894 216.216V221.832C193.894 223.2 194.56 223.884 195.892 223.884ZM192.688 219.186C192.16 218.55 191.518 218.232 190.762 218.232C190.162 218.232 189.67 218.478 189.286 218.97C188.914 219.45 188.728 220.074 188.728 220.842C188.728 221.622 188.914 222.246 189.286 222.714C189.67 223.182 190.168 223.416 190.78 223.416C191.56 223.416 192.208 223.074 192.724 222.39C192.7 222.174 192.688 222 192.688 221.868V219.186ZM196.136 225V223.884H197.234C198.566 223.884 199.232 223.2 199.232 221.832V219.24L200.438 218.61V221.832C200.438 223.2 201.098 223.884 202.418 223.884H203.084C204.404 223.884 205.064 223.2 205.064 221.832V218.592L206.27 217.944V221.832C206.27 223.2 206.936 223.884 208.268 223.884H208.916C210.248 223.884 210.914 223.2 210.914 221.832V217.926L212.12 217.296V221.76C212.12 223.176 212.804 223.884 214.172 223.884H215.216V225H214.046C212.906 225 212.072 224.598 211.544 223.794C211.016 224.598 210.2 225 209.096 225H208.106C206.99 225 206.18 224.604 205.676 223.812C205.16 224.604 204.356 225 203.264 225H202.274C201.158 225 200.342 224.604 199.826 223.812C199.322 224.604 198.512 225 197.396 225H196.136ZM220.329 214.956C219.837 214.956 219.591 214.704 219.591 214.2C219.591 213.72 219.837 213.48 220.329 213.48C220.797 213.48 221.031 213.72 221.031 214.2C221.031 214.704 220.797 214.956 220.329 214.956ZM214.857 225V223.884H217.917C217.257 223.224 216.927 222.276 216.927 221.04C216.927 219.744 217.263 218.742 217.935 218.034C218.523 217.398 219.303 217.08 220.275 217.08C221.271 217.08 222.039 217.392 222.579 218.016C223.047 218.556 223.281 219.276 223.281 220.176V221.922C223.269 222.894 222.975 223.656 222.399 224.208C221.871 224.736 221.151 225 220.239 225H214.857ZM222.093 220.284C222.093 218.88 221.487 218.178 220.275 218.178C219.603 218.178 219.075 218.43 218.691 218.934C218.319 219.426 218.133 220.122 218.133 221.022C218.133 221.898 218.313 222.594 218.673 223.11C219.045 223.626 219.537 223.884 220.149 223.884C221.445 223.884 222.093 223.212 222.093 221.868V220.284ZM229.385 225C228.365 225 227.579 224.67 227.027 224.01C226.571 223.446 226.343 222.732 226.343 221.868V214.02L227.549 213.39V221.832C227.549 223.2 228.209 223.884 229.529 223.884H230.159V225H229.385ZM232.805 214.92C232.313 214.92 232.067 214.668 232.067 214.164C232.067 213.684 232.313 213.444 232.805 213.444C233.273 213.444 233.507 213.684 233.507 214.164C233.507 214.668 233.273 214.92 232.805 214.92ZM235.595 223.884H236.225V225H235.451C234.371 225 233.561 224.634 233.021 223.902C232.457 224.634 231.641 225 230.573 225H229.799V223.884H230.429C231.749 223.884 232.409 223.2 232.409 221.832V217.926L233.615 217.296V221.832C233.615 223.2 234.275 223.884 235.595 223.884ZM238.473 220.176C238.473 219.156 238.779 218.364 239.391 217.8C239.919 217.32 240.615 217.08 241.479 217.08C242.595 217.08 243.453 217.488 244.053 218.304C244.569 219 244.827 219.912 244.827 221.04C244.827 222.324 244.497 223.326 243.837 224.046C243.261 224.682 242.511 225 241.587 225C240.459 225 239.619 224.64 239.067 223.92C238.527 224.64 237.717 225 236.637 225H235.863V223.884H236.493C237.813 223.884 238.473 223.2 238.473 221.832V220.176ZM239.679 221.904C239.679 223.224 240.327 223.884 241.623 223.884C242.247 223.884 242.739 223.632 243.099 223.128C243.459 222.624 243.639 221.922 243.639 221.022C243.639 220.134 243.447 219.438 243.063 218.934C242.691 218.43 242.163 218.178 241.479 218.178C240.279 218.178 239.679 218.88 239.679 220.284V221.904ZM254.488 224.136C254.488 226.32 253.684 227.688 252.076 228.24C251.692 228.372 251.284 228.438 250.852 228.438C250.156 228.438 249.484 228.27 248.836 227.934V226.872C249.448 227.208 250.072 227.376 250.708 227.376C251.212 227.376 251.656 227.262 252.04 227.034C252.88 226.53 253.3 225.588 253.3 224.208V217.926L254.488 217.296V224.136ZM260.762 225C259.742 225 258.956 224.67 258.404 224.01C257.948 223.446 257.72 222.732 257.72 221.868V214.02L258.926 213.39V221.832C258.926 223.2 259.586 223.884 260.906 223.884H261.536V225H260.762ZM274.027 225H269.581C268.933 225 268.273 224.862 267.601 224.586C266.917 224.862 266.251 225 265.603 225H261.175V223.884H265.531C265.771 223.884 266.017 223.866 266.269 223.83C265.321 223.146 264.289 222.018 263.173 220.446V219.708C264.421 217.956 265.891 217.08 267.583 217.08C269.263 217.08 270.739 217.968 272.011 219.744V220.446C270.895 222.018 269.869 223.146 268.933 223.83C269.173 223.866 269.413 223.884 269.653 223.884H274.009L274.027 225ZM264.217 220.086C265.477 221.766 266.599 222.858 267.583 223.362C268.555 222.858 269.683 221.76 270.967 220.068C270.007 218.808 268.879 218.178 267.583 218.178H267.529C266.305 218.178 265.201 218.814 264.217 220.086ZM273.674 225V223.884H274.772C276.104 223.884 276.77 223.2 276.77 221.832V219.24L277.976 218.61V221.832C277.976 223.2 278.636 223.884 279.956 223.884H280.622C281.942 223.884 282.602 223.2 282.602 221.832V218.592L283.808 217.944V221.832C283.808 223.2 284.474 223.884 285.806 223.884H286.454C287.786 223.884 288.452 223.2 288.452 221.832V217.926L289.658 217.296V221.868C289.658 222.864 289.364 223.644 288.776 224.208C288.248 224.724 287.534 224.988 286.634 225H285.644C284.528 225 283.718 224.604 283.214 223.812C282.698 224.604 281.894 225 280.802 225H279.812C278.696 225 277.88 224.604 277.364 223.812C276.86 224.604 276.05 225 274.934 225H273.674ZM291.903 213.138L292.245 212.508H292.695C292.575 212.304 292.515 212.088 292.515 211.86C292.515 211.524 292.641 211.23 292.893 210.978C293.157 210.726 293.457 210.6 293.793 210.6C294.057 210.6 294.315 210.684 294.567 210.852V211.518C294.339 211.35 294.111 211.266 293.883 211.266C293.691 211.266 293.523 211.326 293.379 211.446C293.247 211.566 293.181 211.71 293.181 211.878C293.181 212.094 293.271 212.304 293.451 212.508H295.017L294.675 213.138H291.903ZM292.893 225V214.74L294.099 214.11V225H292.893Z" fill="black"/>
<path d="M313.5 226.5C317.642 226.5 321 223.142 321 219C321 214.858 317.642 211.5 313.5 211.5C309.358 211.5 306 214.858 306 219C306 223.142 309.358 226.5 313.5 226.5Z" fill="#8CE5C3"/>
<path d="M312.826 222.5C312.7 222.5 312.575 222.449 312.496 222.347L310.141 219.789C309.953 219.584 309.953 219.261 310.141 219.073C310.33 218.868 310.628 218.868 310.801 219.073L312.795 221.238L317.175 215.68C317.347 215.458 317.646 215.441 317.834 215.629C318.038 215.816 318.054 216.14 317.881 216.345L313.171 222.312C313.093 222.415 312.967 222.483 312.826 222.483C312.842 222.5 312.826 222.5 312.826 222.5Z" fill="#1C7775"/>
<path d="M208.754 261C208.658 262.032 208.118 262.866 207.134 263.502C206.186 264.114 204.968 264.42 203.48 264.42C201.632 264.42 200.24 263.88 199.304 262.8C198.608 261.996 198.26 261.006 198.26 259.83C198.26 258.798 198.524 257.91 199.052 257.166L200.222 256.932C199.646 257.808 199.358 258.744 199.358 259.74C199.358 260.844 199.736 261.726 200.492 262.386C201.212 263.022 202.208 263.34 203.48 263.34C204.788 263.34 205.814 263.064 206.558 262.512C207.11 262.104 207.434 261.6 207.53 261H205.694L206.27 259.884H208.808V261H208.754ZM202.346 267.39C201.854 267.39 201.608 267.144 201.608 266.652C201.608 266.16 201.854 265.914 202.346 265.914C202.814 265.914 203.048 266.16 203.048 266.652C203.048 267.144 202.814 267.39 202.346 267.39ZM204.398 267.39C203.918 267.39 203.678 267.144 203.678 266.652C203.678 266.16 203.918 265.914 204.398 265.914C204.878 265.914 205.118 266.16 205.118 266.652C205.118 267.144 204.878 267.39 204.398 267.39ZM211.343 250.92C210.851 250.92 210.605 250.668 210.605 250.164C210.605 249.684 210.851 249.444 211.343 249.444C211.811 249.444 212.045 249.684 212.045 250.164C212.045 250.668 211.811 250.92 211.343 250.92ZM208.211 261V259.884H208.841C210.161 259.884 210.821 259.2 210.821 257.832V253.926L212.027 253.296V257.868C212.027 258.876 211.733 259.662 211.145 260.226C210.605 260.742 209.885 261 208.985 261H208.211ZM218.308 261C217.288 261 216.502 260.67 215.95 260.01C215.494 259.446 215.266 258.732 215.266 257.868V250.02L216.472 249.39V257.832C216.472 259.2 217.132 259.884 218.452 259.884H219.082V261H218.308ZM230.098 259.884H230.728V261H230.08C229.084 261 228.286 260.886 227.686 260.658C227.098 260.43 226.552 260.028 226.048 259.452C224.512 260.484 222.736 261 220.72 261H218.722V259.884H220.738C223.354 259.884 225.394 258.996 226.858 257.22C225.79 255.18 224.5 254.16 222.988 254.16C221.956 254.16 220.948 254.682 219.964 255.726V254.538C220.948 253.566 221.974 253.08 223.042 253.08H223.078C224.962 253.08 226.594 254.352 227.974 256.896V257.634C227.602 258.114 227.206 258.528 226.786 258.876C227.17 259.248 227.602 259.512 228.082 259.668C228.574 259.812 229.246 259.884 230.098 259.884ZM223.474 262.89C223.942 262.89 224.176 263.13 224.176 263.61C224.176 264.114 223.942 264.366 223.474 264.366C222.982 264.366 222.736 264.114 222.736 263.61C222.736 263.13 222.982 262.89 223.474 262.89ZM232.987 256.176C232.987 255.156 233.293 254.364 233.905 253.8C234.433 253.32 235.129 253.08 235.993 253.08C237.109 253.08 237.967 253.488 238.567 254.304C239.083 255 239.341 255.912 239.341 257.04C239.341 258.324 239.011 259.326 238.351 260.046C237.775 260.682 237.025 261 236.101 261C234.973 261 234.133 260.64 233.581 259.92C233.041 260.64 232.231 261 231.151 261H230.377V259.884H231.007C232.327 259.884 232.987 259.2 232.987 257.832V256.176ZM234.193 257.904C234.193 259.224 234.841 259.884 236.137 259.884C236.761 259.884 237.253 259.632 237.613 259.128C237.973 258.624 238.153 257.922 238.153 257.022C238.153 256.134 237.961 255.438 237.577 254.934C237.205 254.43 236.677 254.178 235.993 254.178C234.793 254.178 234.193 254.88 234.193 256.284V257.904ZM257.605 259.884H258.235V261H257.461C256.693 261 256.051 260.808 255.535 260.424C255.439 261.696 254.929 262.698 254.005 263.43C253.177 264.09 252.133 264.42 250.873 264.42C249.313 264.42 248.113 263.886 247.273 262.818C246.613 261.99 246.283 261 246.283 259.848C246.283 258.804 246.547 257.922 247.075 257.202L248.263 256.932C247.675 257.796 247.381 258.744 247.381 259.776C247.381 260.832 247.723 261.696 248.407 262.368C249.055 263.004 249.877 263.322 250.873 263.322C252.025 263.322 252.919 262.974 253.555 262.278C254.095 261.702 254.365 260.952 254.365 260.028V250.02L255.553 249.39V257.85V257.886C255.553 259.218 256.237 259.884 257.605 259.884ZM263.665 259.884H264.295V261H263.521C262.441 261 261.631 260.634 261.091 259.902C260.527 260.634 259.711 261 258.643 261H257.869V259.884H258.499C259.819 259.884 260.479 259.2 260.479 257.832V253.926L261.685 253.296V257.832C261.685 259.2 262.345 259.884 263.665 259.884ZM259.579 262.89C260.059 262.89 260.299 263.136 260.299 263.628C260.299 264.12 260.059 264.366 259.579 264.366C259.099 264.366 258.859 264.12 258.859 263.628C258.859 263.136 259.099 262.89 259.579 262.89ZM261.631 262.89C262.111 262.89 262.351 263.136 262.351 263.628C262.351 264.12 262.111 264.366 261.631 264.366C261.151 264.366 260.911 264.12 260.911 263.628C260.911 263.136 261.151 262.89 261.631 262.89ZM269.063 259.812C269.507 257.964 270.281 256.416 271.385 255.168C272.621 253.776 274.073 253.08 275.741 253.08C277.085 253.08 278.153 253.542 278.945 254.466C279.617 255.258 279.953 256.236 279.953 257.4V257.904C279.953 258.924 279.641 259.716 279.017 260.28C278.489 260.76 277.787 261 276.911 261H269.585C268.505 261 267.695 260.634 267.155 259.902C266.591 260.634 265.775 261 264.707 261H263.933V259.884H264.563C265.883 259.884 266.543 259.2 266.543 257.832V255.24L267.749 254.61V257.832C267.749 258.96 268.187 259.62 269.063 259.812ZM278.747 257.76V257.4C278.747 256.392 278.429 255.582 277.793 254.97C277.253 254.442 276.575 254.178 275.759 254.178C274.355 254.178 273.107 254.838 272.015 256.158C271.187 257.166 270.563 258.408 270.143 259.884H276.821C278.105 259.884 278.747 259.176 278.747 257.76ZM290.774 259.884V261H288.866C288.854 261.792 288.596 262.488 288.092 263.088C287.6 263.7 286.958 264.102 286.166 264.294C285.878 264.378 285.566 264.42 285.23 264.42C284.534 264.42 283.856 264.252 283.196 263.916V262.854C283.82 263.19 284.438 263.358 285.05 263.358C285.542 263.358 285.974 263.25 286.346 263.034C286.718 262.842 287.03 262.548 287.282 262.152C287.534 261.768 287.66 261.384 287.66 261L286.13 260.946C284.798 260.886 283.802 260.466 283.142 259.686C282.602 259.026 282.332 258.144 282.332 257.04C282.332 255.744 282.668 254.742 283.34 254.034C283.94 253.398 284.744 253.08 285.752 253.08C286.796 253.08 287.594 253.392 288.146 254.016C288.626 254.556 288.866 255.276 288.866 256.176V259.884H290.774ZM287.66 256.302C287.66 254.886 287.024 254.178 285.752 254.178C285.044 254.178 284.492 254.43 284.096 254.934C283.712 255.426 283.52 256.122 283.52 257.022C283.52 258.81 284.402 259.746 286.166 259.83C286.694 259.866 287.192 259.884 287.66 259.884V256.302ZM291.486 250.92C290.994 250.92 290.748 250.668 290.748 250.164C290.748 249.684 290.994 249.444 291.486 249.444C291.954 249.444 292.188 249.684 292.188 250.164C292.188 250.668 291.954 250.92 291.486 250.92ZM293.538 250.92C293.046 250.92 292.8 250.668 292.8 250.164C292.8 249.684 293.046 249.444 293.538 249.444C294.006 249.444 294.24 249.684 294.24 250.164C294.24 250.668 294.006 250.92 293.538 250.92ZM290.406 261V259.884H291.036C292.356 259.884 293.016 259.2 293.016 257.832V253.926L294.222 253.296V257.868C294.222 258.876 293.928 259.662 293.34 260.226C292.8 260.742 292.08 261 291.18 261H290.406Z" fill="black"/>
<path d="M313.5 262.5C317.642 262.5 321 259.142 321 255C321 250.858 317.642 247.5 313.5 247.5C309.358 247.5 306 250.858 306 255C306 259.142 309.358 262.5 313.5 262.5Z" fill="#8CE5C3"/>
<path d="M312.826 258.5C312.7 258.5 312.575 258.449 312.496 258.347L310.141 255.789C309.953 255.584 309.953 255.261 310.141 255.073C310.33 254.868 310.628 254.868 310.801 255.073L312.795 257.238L317.175 251.68C317.347 251.458 317.646 251.441 317.834 251.629C318.038 251.816 318.054 252.14 317.881 252.345L313.171 258.312C313.093 258.415 312.967 258.483 312.826 258.483C312.842 258.5 312.826 258.5 312.826 258.5Z" fill="#1C7775"/>
<path d="M106.348 286.83C105.856 286.83 105.61 286.578 105.61 286.074C105.61 285.594 105.856 285.354 106.348 285.354C106.816 285.354 107.05 285.594 107.05 286.074C107.05 286.578 106.816 286.83 106.348 286.83ZM108.4 286.83C107.908 286.83 107.662 286.578 107.662 286.074C107.662 285.594 107.908 285.354 108.4 285.354C108.868 285.354 109.102 285.594 109.102 286.074C109.102 286.578 108.868 286.83 108.4 286.83ZM111.892 295.884H112.504V297H111.73C110.446 297 109.552 296.496 109.048 295.488C108.424 296.136 107.656 296.46 106.744 296.46C105.712 296.46 104.896 296.07 104.296 295.29C103.792 294.63 103.54 293.808 103.54 292.824C103.54 291.672 103.876 290.748 104.548 290.052C105.136 289.44 105.862 289.134 106.726 289.134C107.506 289.134 108.16 289.362 108.688 289.818V288.846L109.894 288.216V293.832C109.894 295.2 110.56 295.884 111.892 295.884ZM108.688 291.186C108.16 290.55 107.518 290.232 106.762 290.232C106.162 290.232 105.67 290.478 105.286 290.97C104.914 291.45 104.728 292.074 104.728 292.842C104.728 293.622 104.914 294.246 105.286 294.714C105.67 295.182 106.168 295.416 106.78 295.416C107.56 295.416 108.208 295.074 108.724 294.39C108.7 294.174 108.688 294 108.688 293.868V291.186ZM121.352 295.884V297H112.136V295.884H115.16C114.404 295.116 114.026 294.096 114.026 292.824C114.026 291.612 114.44 290.652 115.268 289.944C115.928 289.38 116.702 289.092 117.59 289.08C118.826 289.08 119.792 289.566 120.488 290.538V291.726C119.768 290.694 118.844 290.178 117.716 290.178H117.662C116.942 290.178 116.354 290.424 115.898 290.916C115.454 291.408 115.232 292.056 115.232 292.86C115.232 293.784 115.508 294.522 116.06 295.074C116.588 295.614 117.296 295.884 118.184 295.884H121.352ZM126.91 297C125.89 297 125.104 296.67 124.552 296.01C124.096 295.446 123.868 294.732 123.868 293.868V286.02L125.074 285.39V293.832C125.074 295.2 125.734 295.884 127.054 295.884H127.684V297H126.91ZM127.324 297V295.884H128.422C129.754 295.884 130.42 295.2 130.42 293.832V291.24L131.626 290.61V293.832C131.626 295.2 132.286 295.884 133.606 295.884H134.272C135.592 295.884 136.252 295.2 136.252 293.832V290.592L137.458 289.944V293.832C137.458 295.2 138.124 295.884 139.456 295.884H140.104C141.436 295.884 142.102 295.2 142.102 293.832V289.926L143.308 289.296V293.868C143.308 294.864 143.014 295.644 142.426 296.208C141.898 296.724 141.184 296.988 140.284 297H139.294C138.178 297 137.368 296.604 136.864 295.812C136.348 296.604 135.544 297 134.452 297H133.462C132.346 297 131.53 296.604 131.014 295.812C130.51 296.604 129.7 297 128.584 297H127.324ZM149.878 293.436L154.99 285.606H156.394V293.436H158.482V294.57H156.394V297H155.08V294.57H149.878V293.436ZM151.21 293.436H155.08V287.442L151.21 293.436ZM162.725 290.898C161.369 290.382 160.691 289.53 160.691 288.342C160.691 287.418 161.033 286.674 161.717 286.11C162.329 285.606 163.103 285.354 164.039 285.354C165.071 285.354 165.905 285.678 166.541 286.326C167.105 286.89 167.387 287.574 167.387 288.378C167.387 288.942 167.201 289.452 166.829 289.908C166.469 290.352 165.971 290.688 165.335 290.916C166.067 291.144 166.643 291.522 167.063 292.05C167.483 292.578 167.693 293.196 167.693 293.904C167.693 294.936 167.291 295.77 166.487 296.406C165.791 296.946 164.957 297.216 163.985 297.216C162.869 297.216 161.957 296.868 161.249 296.172C160.625 295.56 160.313 294.81 160.313 293.922C160.313 293.202 160.535 292.566 160.979 292.014C161.423 291.45 162.005 291.078 162.725 290.898ZM164.021 290.466C164.633 290.322 165.113 290.058 165.461 289.674C165.821 289.29 166.001 288.84 166.001 288.324C166.001 287.784 165.821 287.346 165.461 287.01C165.101 286.674 164.627 286.506 164.039 286.506C163.439 286.506 162.959 286.668 162.599 286.992C162.251 287.304 162.077 287.73 162.077 288.27C162.077 289.35 162.725 290.082 164.021 290.466ZM163.985 291.348C163.349 291.42 162.815 291.702 162.383 292.194C161.951 292.674 161.735 293.232 161.735 293.868C161.735 294.516 161.945 295.05 162.365 295.47C162.785 295.878 163.325 296.082 163.985 296.082C164.657 296.082 165.203 295.878 165.623 295.47C166.055 295.062 166.271 294.534 166.271 293.886C166.271 293.226 166.055 292.656 165.623 292.176C165.191 291.696 164.645 291.42 163.985 291.348ZM184.926 297C184.83 298.032 184.29 298.866 183.306 299.502C182.358 300.114 181.14 300.42 179.652 300.42C177.804 300.42 176.412 299.88 175.476 298.8C174.78 297.996 174.432 297.006 174.432 295.83C174.432 294.798 174.696 293.91 175.224 293.166L176.394 292.932C175.818 293.808 175.53 294.744 175.53 295.74C175.53 296.844 175.908 297.726 176.664 298.386C177.384 299.022 178.38 299.34 179.652 299.34C180.96 299.34 181.986 299.064 182.73 298.512C183.282 298.104 183.606 297.6 183.702 297H181.866L182.442 295.884H184.98V297H184.926ZM178.518 303.39C178.026 303.39 177.78 303.144 177.78 302.652C177.78 302.16 178.026 301.914 178.518 301.914C178.986 301.914 179.22 302.16 179.22 302.652C179.22 303.144 178.986 303.39 178.518 303.39ZM180.57 303.39C180.09 303.39 179.85 303.144 179.85 302.652C179.85 302.16 180.09 301.914 180.57 301.914C181.05 301.914 181.29 302.16 181.29 302.652C181.29 303.144 181.05 303.39 180.57 303.39ZM189.854 286.956C189.363 286.956 189.117 286.704 189.117 286.2C189.117 285.72 189.363 285.48 189.854 285.48C190.323 285.48 190.557 285.72 190.557 286.2C190.557 286.704 190.323 286.956 189.854 286.956ZM184.382 297V295.884H187.443C186.783 295.224 186.453 294.276 186.453 293.04C186.453 291.744 186.789 290.742 187.461 290.034C188.049 289.398 188.829 289.08 189.801 289.08C190.797 289.08 191.565 289.392 192.105 290.016C192.573 290.556 192.807 291.276 192.807 292.176V293.922C192.795 294.894 192.501 295.656 191.925 296.208C191.397 296.736 190.677 297 189.765 297H184.382ZM191.619 292.284C191.619 290.88 191.013 290.178 189.801 290.178C189.129 290.178 188.601 290.43 188.217 290.934C187.845 291.426 187.659 292.122 187.659 293.022C187.659 293.898 187.839 294.594 188.199 295.11C188.571 295.626 189.063 295.884 189.675 295.884C190.971 295.884 191.619 295.212 191.619 293.868V292.284ZM204.206 296.55C204.086 296.622 203.888 296.736 203.612 296.892L203.576 296.91C202.592 297.462 201.932 297.936 201.596 298.332C201.272 298.728 201.11 299.256 201.11 299.916C201.11 300.708 201.38 301.356 201.92 301.86C202.472 302.376 203.18 302.634 204.044 302.634H204.08C205.448 302.634 206.546 302.328 207.374 301.716V302.814C206.39 303.438 205.28 303.75 204.044 303.75C202.748 303.75 201.716 303.324 200.948 302.472C200.312 301.752 199.994 300.888 199.994 299.88C199.994 299.028 200.204 298.344 200.624 297.828C201.044 297.312 201.89 296.7 203.162 295.992C202.118 295.284 201.014 294.102 199.85 292.446V291.708C201.098 289.956 202.568 289.08 204.26 289.08C205.052 289.08 205.838 289.314 206.618 289.782C207.398 290.25 208.088 290.904 208.688 291.744V292.446C207.86 293.586 206.75 294.696 205.358 295.776C205.67 295.848 205.994 295.884 206.33 295.884H210.686V297H206.258C205.55 297 204.866 296.85 204.206 296.55ZM200.894 292.104C202.154 293.76 203.264 294.84 204.224 295.344C205.46 294.48 206.6 293.388 207.644 292.068C206.684 290.808 205.556 290.178 204.26 290.178H204.206C202.97 290.178 201.866 290.82 200.894 292.104ZM210.328 297V295.884H210.958C212.278 295.884 212.938 295.2 212.938 293.832V289.926L214.144 289.296V293.868C214.144 294.876 213.85 295.662 213.262 296.226C212.722 296.742 212.002 297 211.102 297H210.328ZM210.922 300.366C210.43 300.366 210.184 300.114 210.184 299.61C210.184 299.13 210.43 298.89 210.922 298.89C211.39 298.89 211.624 299.13 211.624 299.61C211.624 300.114 211.39 300.366 210.922 300.366ZM212.974 300.366C212.482 300.366 212.236 300.114 212.236 299.61C212.236 299.13 212.482 298.89 212.974 298.89C213.442 298.89 213.676 299.13 213.676 299.61C213.676 300.114 213.442 300.366 212.974 300.366ZM222.917 295.884H223.547V297H222.773C222.029 297 221.411 296.82 220.919 296.46C220.823 298.452 220.019 299.712 218.507 300.24C218.123 300.372 217.715 300.438 217.283 300.438C216.587 300.438 215.915 300.27 215.267 299.934V298.872C215.879 299.208 216.503 299.376 217.139 299.376C217.643 299.376 218.087 299.262 218.471 299.034C219.311 298.53 219.731 297.588 219.731 296.208V289.926L220.919 289.296V289.314L220.937 289.296V293.832C220.937 295.2 221.597 295.884 222.917 295.884ZM223.195 297V295.884H224.293C225.625 295.884 226.291 295.2 226.291 293.832V291.24L227.497 290.61V293.832C227.497 295.2 228.157 295.884 229.477 295.884H230.143C231.463 295.884 232.123 295.2 232.123 293.832V290.592L233.329 289.944V293.832C233.329 295.2 233.995 295.884 235.327 295.884H235.975C237.307 295.884 237.973 295.2 237.973 293.832V289.926L239.179 289.296V293.868C239.179 294.864 238.885 295.644 238.297 296.208C237.769 296.724 237.055 296.988 236.155 297H235.165C234.049 297 233.239 296.604 232.735 295.812C232.219 296.604 231.415 297 230.323 297H229.333C228.217 297 227.401 296.604 226.885 295.812C226.381 296.604 225.571 297 224.455 297H223.195ZM257.701 295.884H258.331V297H257.557C256.789 297 256.147 296.808 255.631 296.424C255.535 297.696 255.025 298.698 254.101 299.43C253.273 300.09 252.229 300.42 250.969 300.42C249.409 300.42 248.209 299.886 247.369 298.818C246.709 297.99 246.379 297 246.379 295.848C246.379 294.804 246.643 293.922 247.171 293.202L248.359 292.932C247.771 293.796 247.477 294.744 247.477 295.776C247.477 296.832 247.819 297.696 248.503 298.368C249.151 299.004 249.973 299.322 250.969 299.322C252.121 299.322 253.015 298.974 253.651 298.278C254.191 297.702 254.461 296.952 254.461 296.028V286.02L255.649 285.39V293.85V293.886C255.649 295.218 256.333 295.884 257.701 295.884ZM263.761 295.884H264.391V297H263.617C262.537 297 261.727 296.634 261.187 295.902C260.623 296.634 259.807 297 258.739 297H257.965V295.884H258.595C259.915 295.884 260.575 295.2 260.575 293.832V289.926L261.781 289.296V293.832C261.781 295.2 262.441 295.884 263.761 295.884ZM259.675 298.89C260.155 298.89 260.395 299.136 260.395 299.628C260.395 300.12 260.155 300.366 259.675 300.366C259.195 300.366 258.955 300.12 258.955 299.628C258.955 299.136 259.195 298.89 259.675 298.89ZM261.727 298.89C262.207 298.89 262.447 299.136 262.447 299.628C262.447 300.12 262.207 300.366 261.727 300.366C261.247 300.366 261.007 300.12 261.007 299.628C261.007 299.136 261.247 298.89 261.727 298.89ZM269.159 295.812C269.603 293.964 270.377 292.416 271.481 291.168C272.717 289.776 274.169 289.08 275.837 289.08C277.181 289.08 278.249 289.542 279.041 290.466C279.713 291.258 280.049 292.236 280.049 293.4V293.904C280.049 294.924 279.737 295.716 279.113 296.28C278.585 296.76 277.883 297 277.007 297H269.681C268.601 297 267.791 296.634 267.251 295.902C266.687 296.634 265.871 297 264.803 297H264.029V295.884H264.659C265.979 295.884 266.639 295.2 266.639 293.832V291.24L267.845 290.61V293.832C267.845 294.96 268.283 295.62 269.159 295.812ZM278.843 293.76V293.4C278.843 292.392 278.525 291.582 277.889 290.97C277.349 290.442 276.671 290.178 275.855 290.178C274.451 290.178 273.203 290.838 272.111 292.158C271.283 293.166 270.659 294.408 270.239 295.884H276.917C278.201 295.884 278.843 295.176 278.843 293.76ZM290.87 295.884V297H288.962C288.95 297.792 288.692 298.488 288.188 299.088C287.696 299.7 287.054 300.102 286.262 300.294C285.974 300.378 285.662 300.42 285.326 300.42C284.63 300.42 283.952 300.252 283.292 299.916V298.854C283.916 299.19 284.534 299.358 285.146 299.358C285.638 299.358 286.07 299.25 286.442 299.034C286.814 298.842 287.126 298.548 287.378 298.152C287.63 297.768 287.756 297.384 287.756 297L286.226 296.946C284.894 296.886 283.898 296.466 283.238 295.686C282.698 295.026 282.428 294.144 282.428 293.04C282.428 291.744 282.764 290.742 283.436 290.034C284.036 289.398 284.84 289.08 285.848 289.08C286.892 289.08 287.69 289.392 288.242 290.016C288.722 290.556 288.962 291.276 288.962 292.176V295.884H290.87ZM287.756 292.302C287.756 290.886 287.12 290.178 285.848 290.178C285.14 290.178 284.588 290.43 284.192 290.934C283.808 291.426 283.616 292.122 283.616 293.022C283.616 294.81 284.498 295.746 286.262 295.83C286.79 295.866 287.288 295.884 287.756 295.884V292.302ZM291.582 286.92C291.09 286.92 290.844 286.668 290.844 286.164C290.844 285.684 291.09 285.444 291.582 285.444C292.05 285.444 292.284 285.684 292.284 286.164C292.284 286.668 292.05 286.92 291.582 286.92ZM293.634 286.92C293.142 286.92 292.896 286.668 292.896 286.164C292.896 285.684 293.142 285.444 293.634 285.444C294.102 285.444 294.336 285.684 294.336 286.164C294.336 286.668 294.102 286.92 293.634 286.92ZM290.502 297V295.884H291.132C292.452 295.884 293.112 295.2 293.112 293.832V289.926L294.318 289.296V293.868C294.318 294.876 294.024 295.662 293.436 296.226C292.896 296.742 292.176 297 291.276 297H290.502Z" fill="black"/>
<path d="M313.5 301.5C317.642 301.5 321 298.142 321 294C321 289.858 317.642 286.5 313.5 286.5C309.358 286.5 306 289.858 306 294C306 298.142 309.358 301.5 313.5 301.5Z" fill="#8CE5C3"/>
<path d="M312.826 297.5C312.7 297.5 312.575 297.449 312.496 297.347L310.141 294.789C309.953 294.584 309.953 294.261 310.141 294.073C310.33 293.868 310.628 293.868 310.801 294.073L312.795 296.238L317.175 290.68C317.347 290.458 317.646 290.441 317.834 290.629C318.038 290.816 318.054 291.14 317.881 291.345L313.171 297.312C313.093 297.415 312.967 297.483 312.826 297.483C312.842 297.5 312.826 297.5 312.826 297.5Z" fill="#1C7775"/>
<path d="M213.705 346.07H214.23V347H213.585C212.965 347 212.45 346.85 212.04 346.55C211.96 348.21 211.29 349.26 210.03 349.7C209.71 349.81 209.37 349.865 209.01 349.865C208.43 349.865 207.87 349.725 207.33 349.445V348.56C207.84 348.84 208.36 348.98 208.89 348.98C209.31 348.98 209.68 348.885 210 348.695C210.7 348.275 211.05 347.49 211.05 346.34V341.105L212.04 340.58V340.595L212.055 340.58V344.36C212.055 345.5 212.605 346.07 213.705 346.07ZM221.871 337.535C221.511 337.535 221.331 337.345 221.331 336.965C221.331 336.605 221.511 336.425 221.871 336.425C222.231 336.425 222.411 336.605 222.411 336.965C222.411 337.345 222.231 337.535 221.871 337.535ZM221.031 339.095C220.621 339.095 220.416 338.89 220.416 338.48C220.416 338.07 220.621 337.865 221.031 337.865C221.421 337.865 221.616 338.07 221.616 338.48C221.616 338.89 221.421 339.095 221.031 339.095ZM222.741 339.095C222.341 339.095 222.141 338.89 222.141 338.48C222.141 338.07 222.341 337.865 222.741 337.865C223.141 337.865 223.341 338.07 223.341 338.48C223.341 338.89 223.141 339.095 222.741 339.095ZM213.936 347V346.07H214.851C215.961 346.07 216.516 345.5 216.516 344.36V342.2L217.521 341.675V344.36C217.521 345.5 218.071 346.07 219.171 346.07H219.726C220.826 346.07 221.376 345.5 221.376 344.36V341.66L222.381 341.12V344.36C222.381 345.5 222.936 346.07 224.046 346.07H224.586C225.696 346.07 226.251 345.5 226.251 344.36V341.105L227.256 340.58V344.3C227.256 345.48 227.826 346.07 228.966 346.07H229.836V347H228.861C227.911 347 227.216 346.665 226.776 345.995C226.336 346.665 225.656 347 224.736 347H223.911C222.981 347 222.306 346.67 221.886 346.01C221.456 346.67 220.786 347 219.876 347H219.051C218.121 347 217.441 346.67 217.011 346.01C216.591 346.67 215.916 347 214.986 347H213.936ZM232.042 338.6C231.632 338.6 231.427 338.39 231.427 337.97C231.427 337.57 231.632 337.37 232.042 337.37C232.432 337.37 232.627 337.57 232.627 337.97C232.627 338.39 232.432 338.6 232.042 338.6ZM234.367 346.07H234.892V347H234.247C233.347 347 232.672 346.695 232.222 346.085C231.752 346.695 231.072 347 230.182 347H229.537V346.07H230.062C231.162 346.07 231.712 345.5 231.712 344.36V341.105L232.717 340.58V344.36C232.717 345.5 233.267 346.07 234.367 346.07ZM239.375 346.07H239.9V347H239.255C238.335 347 237.65 346.685 237.2 346.055C236.73 346.685 236.035 347 235.115 347H234.59V346.07H235.01C236.15 346.07 236.72 345.48 236.72 344.3V337.85L237.725 337.325V344.36C237.725 345.5 238.275 346.07 239.375 346.07ZM239.6 347V346.07H240.02C241.16 346.07 241.73 345.48 241.73 344.3V337.85L242.735 337.325V344.315C242.735 345.165 242.485 345.835 241.985 346.325C241.515 346.775 240.895 347 240.125 347H239.6ZM252.564 340.28C252.154 340.28 251.949 340.07 251.949 339.65C251.949 339.25 252.154 339.05 252.564 339.05C252.954 339.05 253.149 339.25 253.149 339.65C253.149 340.07 252.954 340.28 252.564 340.28ZM256.374 346.265C256.374 347.395 255.984 348.295 255.204 348.965C254.514 349.555 253.619 349.85 252.519 349.85C251.249 349.85 250.264 349.4 249.564 348.5C249.014 347.81 248.739 346.985 248.739 346.025C248.739 345.165 248.959 344.425 249.399 343.805L250.374 343.61C249.894 344.34 249.654 345.12 249.654 345.95C249.654 346.83 249.939 347.555 250.509 348.125C251.039 348.655 251.709 348.92 252.519 348.92C253.469 348.92 254.204 348.64 254.724 348.08C255.154 347.62 255.369 347.015 255.369 346.265V341.105L256.374 340.58V346.265ZM259.074 347V337.85L260.079 337.325V347H259.074ZM269.365 346.07V347H267.775C267.765 347.66 267.55 348.24 267.13 348.74C266.72 349.25 266.185 349.585 265.525 349.745C265.285 349.815 265.025 349.85 264.745 349.85C264.165 349.85 263.6 349.71 263.05 349.43V348.545C263.57 348.825 264.085 348.965 264.595 348.965C265.005 348.965 265.365 348.875 265.675 348.695C265.985 348.535 266.245 348.29 266.455 347.96C266.665 347.64 266.77 347.32 266.77 347L265.495 346.955C264.385 346.905 263.555 346.555 263.005 345.905C262.555 345.355 262.33 344.62 262.33 343.7C262.33 342.62 262.61 341.785 263.17 341.195C263.67 340.665 264.34 340.4 265.18 340.4C266.05 340.4 266.715 340.66 267.175 341.18C267.575 341.63 267.775 342.23 267.775 342.98V346.07H269.365ZM266.77 343.085C266.77 341.905 266.24 341.315 265.18 341.315C264.59 341.315 264.13 341.525 263.8 341.945C263.48 342.355 263.32 342.935 263.32 343.685C263.32 345.175 264.055 345.955 265.525 346.025C265.965 346.055 266.38 346.07 266.77 346.07V343.085ZM269.058 347V346.07H269.583C270.683 346.07 271.233 345.5 271.233 344.36V341.105L272.238 340.58V344.39C272.238 345.23 271.993 345.885 271.503 346.355C271.053 346.785 270.453 347 269.703 347H269.058ZM269.553 349.805C269.143 349.805 268.938 349.595 268.938 349.175C268.938 348.775 269.143 348.575 269.553 348.575C269.943 348.575 270.138 348.775 270.138 349.175C270.138 349.595 269.943 349.805 269.553 349.805ZM271.263 349.805C270.853 349.805 270.648 349.595 270.648 349.175C270.648 348.775 270.853 348.575 271.263 348.575C271.653 348.575 271.848 348.775 271.848 349.175C271.848 349.595 271.653 349.805 271.263 349.805ZM274.938 347V337.85L275.943 337.325V347H274.938ZM274.083 350.54L274.368 350H274.758C274.658 349.82 274.608 349.64 274.608 349.46C274.608 349.18 274.713 348.935 274.923 348.725C275.133 348.525 275.383 348.425 275.673 348.425C275.893 348.425 276.108 348.49 276.318 348.62V349.19C276.118 349.04 275.923 348.965 275.733 348.965C275.573 348.965 275.438 349.015 275.328 349.115C275.218 349.225 275.163 349.35 275.163 349.49C275.163 349.66 275.233 349.83 275.373 350H276.693L276.408 350.54H274.083ZM284.212 346.28C284.212 348.1 283.542 349.24 282.202 349.7C281.882 349.81 281.542 349.865 281.182 349.865C280.602 349.865 280.042 349.725 279.502 349.445V348.56C280.012 348.84 280.532 348.98 281.062 348.98C281.482 348.98 281.852 348.885 282.172 348.695C282.872 348.275 283.222 347.49 283.222 346.34V341.105L284.212 340.58V346.28ZM286.906 347V337.85L287.911 337.325V347H286.906ZM289.412 347L289.892 346.07H292.712C293.172 346.07 293.492 345.955 293.672 345.725C293.862 345.495 293.957 345.095 293.957 344.525C293.957 343.065 293.317 341.97 292.037 341.24L292.517 340.415C294.147 341.365 294.962 342.74 294.962 344.54C294.962 346.18 294.267 347 292.877 347H289.412ZM150.218 369.37H150.863V370H150.113C148.983 370 148.228 369.535 147.848 368.605C147.318 369.235 146.638 369.55 145.808 369.55C144.968 369.55 144.308 369.23 143.828 368.59C143.418 368.05 143.213 367.365 143.213 366.535C143.213 365.585 143.478 364.825 144.008 364.255C144.478 363.755 145.078 363.505 145.808 363.505C146.568 363.505 147.183 363.75 147.653 364.24V363.25L148.358 362.875V367.45C148.358 368.73 148.978 369.37 150.218 369.37ZM147.653 365.095C147.163 364.455 146.548 364.135 145.808 364.135C145.248 364.135 144.793 364.36 144.443 364.81C144.093 365.25 143.918 365.825 143.918 366.535C143.918 367.255 144.088 367.835 144.428 368.275C144.778 368.705 145.238 368.92 145.808 368.92C146.548 368.92 147.173 368.59 147.683 367.93C147.663 367.73 147.653 367.575 147.653 367.465V365.095ZM155.029 369.37H155.674V370H154.924C153.934 370 153.234 369.635 152.824 368.905C152.404 369.635 151.699 370 150.709 370H149.959V369.37H150.604C151.844 369.37 152.464 368.73 152.464 367.45V360.7L153.169 360.325V367.45C153.169 368.73 153.789 369.37 155.029 369.37ZM156.594 365.725C156.804 364.785 157.249 364.065 157.929 363.565C158.469 363.175 159.079 362.98 159.759 362.98C160.719 362.98 161.524 363.33 162.174 364.03C162.794 364.69 163.104 365.535 163.104 366.565V367.495C163.104 368.325 162.854 368.965 162.354 369.415C161.924 369.805 161.354 370 160.644 370H159.294C158.954 370 158.634 369.95 158.334 369.85C158.034 369.95 157.714 370 157.374 370H154.779V369.37H157.359C156.609 368.81 156.234 368.06 156.234 367.12C156.234 366.58 156.354 366.115 156.594 365.725ZM162.399 367.375V366.565C162.399 365.595 162.084 364.83 161.454 364.27C160.964 363.83 160.384 363.61 159.714 363.61C158.694 363.61 157.954 364.055 157.494 364.945C157.774 364.845 158.054 364.795 158.334 364.795C158.974 364.795 159.484 365.01 159.864 365.44C160.244 365.86 160.434 366.42 160.434 367.12C160.434 368.07 160.054 368.82 159.294 369.37H160.569C161.789 369.37 162.399 368.705 162.399 367.375ZM158.334 369.235C159.344 368.905 159.849 368.2 159.849 367.12C159.849 366.59 159.709 366.17 159.429 365.86C159.159 365.54 158.794 365.38 158.334 365.38C157.874 365.38 157.504 365.54 157.224 365.86C156.954 366.17 156.819 366.59 156.819 367.12C156.819 368.2 157.324 368.905 158.334 369.235ZM164.703 359.53L164.928 359.11H165.288C165.198 358.94 165.153 358.77 165.153 358.6C165.153 358.33 165.253 358.095 165.453 357.895C165.653 357.695 165.893 357.595 166.173 357.595C166.363 357.595 166.553 357.65 166.743 357.76V358.225C166.563 358.095 166.383 358.03 166.203 358.03C166.043 358.03 165.903 358.085 165.783 358.195C165.663 358.305 165.603 358.435 165.603 358.585C165.603 358.765 165.678 358.94 165.828 359.11H167.088L166.863 359.53H164.703ZM165.573 370V360.7L166.278 360.325V370H165.573ZM176.257 369.31C175.817 369.67 175.202 369.85 174.412 369.85C173.562 369.85 172.902 369.525 172.432 368.875C172.022 368.305 171.817 367.575 171.817 366.685C171.817 365.655 172.087 364.85 172.627 364.27C173.107 363.76 173.742 363.505 174.532 363.505C175.282 363.505 175.872 363.73 176.302 364.18C176.742 364.63 176.962 365.245 176.962 366.025V369.355C176.962 370.435 176.687 371.295 176.137 371.935C175.617 372.545 174.912 372.85 174.022 372.85C173.452 372.85 172.907 372.72 172.387 372.46V371.83C172.907 372.1 173.427 372.235 173.947 372.235C174.767 372.235 175.382 371.915 175.792 371.275C176.102 370.775 176.257 370.145 176.257 369.385V369.31ZM176.257 366.145C176.257 364.805 175.682 364.135 174.532 364.135C173.902 364.135 173.402 364.365 173.032 364.825C172.672 365.275 172.492 365.895 172.492 366.685C172.492 367.485 172.682 368.12 173.062 368.59C173.402 369.01 173.852 369.22 174.412 369.22C175.352 369.22 175.967 368.95 176.257 368.41V366.145ZM190.449 369.37H191.094V370H190.344C189.354 370 188.649 369.635 188.229 368.905C187.829 369.605 187.144 369.97 186.174 370H184.329C183.089 370 182.469 370.64 182.469 371.92V374.35L181.764 374.725V371.905C181.764 371.095 181.999 370.46 182.469 370C182.909 369.58 183.494 369.37 184.224 369.37H184.389C183.759 368.8 183.444 367.93 183.444 366.76C183.444 365.69 183.714 364.865 184.254 364.285C184.734 363.765 185.369 363.505 186.159 363.505C186.909 363.505 187.499 363.73 187.929 364.18C188.369 364.63 188.589 365.245 188.589 366.025V367.45C188.589 368.73 189.209 369.37 190.449 369.37ZM187.884 366.145C187.884 364.805 187.309 364.135 186.159 364.135C185.529 364.135 185.034 364.37 184.674 364.84C184.324 365.3 184.149 365.94 184.149 366.76C184.149 367.6 184.329 368.255 184.689 368.725C185.019 369.155 185.464 369.37 186.024 369.37C187.264 369.37 187.884 368.73 187.884 367.45V366.145ZM195.268 369.37H195.913V370H195.163C194.173 370 193.473 369.635 193.063 368.905C192.643 369.635 191.938 370 190.948 370H190.198V369.37H190.843C192.083 369.37 192.703 368.73 192.703 367.45V360.7L193.408 360.325V367.45C193.408 368.73 194.028 369.37 195.268 369.37ZM201.078 369.115L201.153 369.145C201.443 369.295 201.748 369.37 202.068 369.37H206.253V370H202.068C201.558 370 201.078 369.855 200.628 369.565C200.178 369.855 199.698 370 199.188 370H195.018V369.37H199.188C199.518 369.36 199.823 369.285 200.103 369.145C199.653 368.875 199.178 368.5 198.678 368.02C198.018 367.39 197.463 366.75 197.013 366.1V365.68C198.063 364.23 199.268 363.505 200.628 363.505C201.988 363.505 203.198 364.235 204.258 365.695V366.1C203.318 367.32 202.258 368.325 201.078 369.115ZM200.628 368.8C201.238 368.39 201.828 367.905 202.398 367.345C202.978 366.785 203.393 366.295 203.643 365.875C202.763 364.715 201.743 364.135 200.583 364.135C199.513 364.135 198.528 364.715 197.628 365.875C198.208 366.835 199.208 367.81 200.628 368.8ZM205.36 370V369.37H206.005C207.245 369.37 207.865 368.73 207.865 367.45V360.7L208.57 360.325V367.465C208.57 368.275 208.335 368.91 207.865 369.37C207.425 369.79 206.84 370 206.11 370H205.36ZM211.276 370V360.7L211.981 360.325V370H211.276ZM219.53 361.525C219.21 361.525 219.05 361.36 219.05 361.03C219.05 360.71 219.21 360.55 219.53 360.55C219.84 360.55 219.995 360.71 219.995 361.03C219.995 361.36 219.84 361.525 219.53 361.525ZM221.045 361.525C220.725 361.525 220.565 361.36 220.565 361.03C220.565 360.71 220.725 360.55 221.045 360.55C221.355 360.55 221.51 360.71 221.51 361.03C221.51 361.36 221.355 361.525 221.045 361.525ZM224.075 369.37H224.72V370H223.97C222.84 370 222.085 369.535 221.705 368.605C221.175 369.235 220.495 369.55 219.665 369.55C218.825 369.55 218.165 369.23 217.685 368.59C217.275 368.05 217.07 367.365 217.07 366.535C217.07 365.585 217.335 364.825 217.865 364.255C218.335 363.755 218.935 363.505 219.665 363.505C220.425 363.505 221.04 363.75 221.51 364.24V363.25L222.215 362.875V367.45C222.215 368.73 222.835 369.37 224.075 369.37ZM221.51 365.095C221.02 364.455 220.405 364.135 219.665 364.135C219.105 364.135 218.65 364.36 218.3 364.81C217.95 365.25 217.775 365.825 217.775 366.535C217.775 367.255 217.945 367.835 218.285 368.275C218.635 368.705 219.095 368.92 219.665 368.92C220.405 368.92 221.03 368.59 221.54 367.93C221.52 367.73 221.51 367.575 221.51 367.465V365.095ZM226.322 366.025C226.322 365.185 226.567 364.54 227.057 364.09C227.487 363.7 228.052 363.505 228.752 363.505C229.662 363.505 230.357 363.84 230.837 364.51C231.257 365.08 231.467 365.83 231.467 366.76C231.467 367.82 231.202 368.645 230.672 369.235C230.202 369.745 229.587 370 228.827 370C227.817 370 227.102 369.635 226.682 368.905C226.262 369.635 225.557 370 224.567 370H223.817V369.37H224.462C225.702 369.37 226.322 368.73 226.322 367.45V366.025ZM227.027 367.45C227.027 368.73 227.647 369.37 228.887 369.37C229.467 369.37 229.922 369.14 230.252 368.68C230.592 368.21 230.762 367.57 230.762 366.76C230.762 365.91 230.572 365.25 230.192 364.78C229.842 364.35 229.362 364.135 228.752 364.135C227.602 364.135 227.027 364.805 227.027 366.145V367.45ZM232.737 370L233.067 369.37H236.022C236.542 369.37 236.907 369.24 237.117 368.98C237.327 368.71 237.432 368.25 237.432 367.6C237.432 366.02 236.742 364.865 235.362 364.135L235.737 363.505C237.337 364.435 238.137 365.75 238.137 367.45C238.137 368.73 238.757 369.37 239.997 369.37H240.642V370H239.892C238.982 370 238.307 369.68 237.867 369.04C237.547 369.68 236.967 370 236.127 370H232.737ZM244.179 361.525C243.859 361.525 243.699 361.36 243.699 361.03C243.699 360.71 243.859 360.55 244.179 360.55C244.489 360.55 244.644 360.71 244.644 361.03C244.644 361.36 244.489 361.525 244.179 361.525ZM239.739 370V369.37H241.629C243.929 369.37 245.729 368.56 247.029 366.94C246.089 365.07 244.914 364.135 243.504 364.135C242.654 364.135 241.844 364.565 241.074 365.425V364.675C241.884 363.895 242.719 363.505 243.579 363.505C245.119 363.505 246.459 364.555 247.599 366.655V367.225C246.159 369.075 244.164 370 241.614 370H239.739ZM262.04 369.37H262.685V370H261.935C261.205 370 260.62 369.79 260.18 369.37C260.17 370.47 259.785 371.345 259.025 371.995C258.345 372.565 257.47 372.85 256.4 372.85C255.15 372.85 254.18 372.41 253.49 371.53C252.96 370.85 252.695 370.04 252.695 369.1C252.695 368.21 252.925 367.455 253.385 366.835L254.09 366.685C253.58 367.425 253.325 368.23 253.325 369.1C253.325 370.02 253.63 370.78 254.24 371.38C254.81 371.94 255.53 372.22 256.4 372.22C257.42 372.22 258.21 371.915 258.77 371.305C259.24 370.795 259.475 370.14 259.475 369.34V360.7L260.18 360.325V367.45C260.18 368.73 260.8 369.37 262.04 369.37ZM261.785 370V369.37H263.675C265.975 369.37 267.775 368.56 269.075 366.94C268.135 365.07 266.96 364.135 265.55 364.135C264.7 364.135 263.89 364.565 263.12 365.425V364.675C263.93 363.895 264.765 363.505 265.625 363.505C267.165 363.505 268.505 364.555 269.645 366.655V367.225C268.205 369.075 266.21 370 263.66 370H261.785ZM265.91 372.625C265.59 372.625 265.43 372.46 265.43 372.13C265.43 371.81 265.59 371.65 265.91 371.65C266.22 371.65 266.375 371.81 266.375 372.13C266.375 372.46 266.22 372.625 265.91 372.625ZM270.875 359.53L271.1 359.11H271.46C271.37 358.94 271.325 358.77 271.325 358.6C271.325 358.33 271.425 358.095 271.625 357.895C271.825 357.695 272.065 357.595 272.345 357.595C272.535 357.595 272.725 357.65 272.915 357.76V358.225C272.735 358.095 272.555 358.03 272.375 358.03C272.215 358.03 272.075 358.085 271.955 358.195C271.835 358.305 271.775 358.435 271.775 358.585C271.775 358.765 271.85 358.94 272 359.11H273.26L273.035 359.53H270.875ZM271.745 370V360.7L272.45 360.325V370H271.745ZM281.814 363.025C281.494 363.025 281.334 362.86 281.334 362.53C281.334 362.21 281.494 362.05 281.814 362.05C282.124 362.05 282.279 362.21 282.279 362.53C282.279 362.86 282.124 363.025 281.814 363.025ZM287.484 369.37H288.129V370H287.379C286.649 370 286.064 369.79 285.624 369.37C285.614 370.47 285.229 371.345 284.469 371.995C283.789 372.565 282.914 372.85 281.844 372.85C280.594 372.85 279.624 372.41 278.934 371.53C278.404 370.85 278.139 370.04 278.139 369.1C278.139 368.21 278.369 367.455 278.829 366.835L279.534 366.685C279.024 367.425 278.769 368.23 278.769 369.1C278.769 370.02 279.074 370.78 279.684 371.38C280.254 371.94 280.974 372.22 281.844 372.22C282.864 372.22 283.654 371.915 284.214 371.305C284.684 370.795 284.919 370.14 284.919 369.34V364.03L285.624 363.655V367.45C285.624 368.73 286.244 369.37 287.484 369.37ZM289.735 366.025C289.735 365.185 289.98 364.54 290.47 364.09C290.9 363.7 291.465 363.505 292.165 363.505C293.075 363.505 293.77 363.84 294.25 364.51C294.67 365.08 294.88 365.83 294.88 366.76C294.88 367.82 294.615 368.645 294.085 369.235C293.615 369.745 293 370 292.24 370C291.23 370 290.515 369.635 290.095 368.905C289.675 369.635 288.97 370 287.98 370H287.23V369.37H287.875C289.115 369.37 289.735 368.73 289.735 367.45V366.025ZM290.44 367.45C290.44 368.73 291.06 369.37 292.3 369.37C292.88 369.37 293.335 369.14 293.665 368.68C294.005 368.21 294.175 367.57 294.175 366.76C294.175 365.91 293.985 365.25 293.605 364.78C293.255 364.35 292.775 364.135 292.165 364.135C291.015 364.135 290.44 364.805 290.44 366.145V367.45Z" fill="black"/>
<path d="M288.829 73.6565C288.705 72.7669 288.065 72.0351 287.2 71.7946L259.469 64.0825C259.073 63.9725 258.656 63.9725 258.26 64.0825L230.529 71.7946C229.664 72.0351 229.024 72.7666 228.9 73.6565C228.739 74.8131 225.069 102.14 234.481 115.735C243.882 129.313 257.749 132.793 258.335 132.934C258.509 132.976 258.686 132.997 258.864 132.997C259.042 132.997 259.22 132.976 259.394 132.934C259.98 132.793 273.848 129.313 283.248 115.735C292.659 102.141 288.99 74.8134 288.829 73.6565Z" fill="#8CE5C3"/>
<path d="M287.147 71.8071C277.509 68.862 260.118 63.6054 258.863 64.0235V133.021C292.338 125.297 291.781 91.0679 289.205 74.1616C289.035 73.0427 288.23 72.1379 287.147 71.8071Z" fill="#27A098"/>
<path d="M278.625 88.8464L260.644 107.015C260.226 107.437 259.677 107.649 259.128 107.649C258.58 107.649 258.031 107.438 257.613 107.015L246.495 95.7814C246.093 95.3754 245.867 94.8244 245.867 94.2501C245.867 93.6757 246.093 93.1248 246.495 92.7188L248.703 90.4884C249.54 89.6429 250.897 89.6426 251.734 90.4884L259.128 97.9598L273.387 83.5531C273.788 83.1468 274.334 82.9187 274.902 82.9187C275.471 82.9187 276.016 83.1468 276.418 83.5531L278.625 85.7835C279.462 86.6293 279.462 88.0007 278.625 88.8464Z" fill="white"/>
<circle cx="310.973" cy="105.732" r="5.00789" fill="#27A098"/>
<circle cx="195.234" cy="81.2494" r="7.23362" fill="#8CE5C3"/>
<circle cx="208.586" cy="103.507" r="3.89502" fill="#8CE5C3"/>
<defs>
<filter id="filter0_d_0_1" x="0.261719" y="0.26001" width="375.477" height="400.48" filterUnits="userSpaceOnUse" color-interpolation-filters="sRGB">
<feFlood flood-opacity="0" result="BackgroundImageFix"/>
<feColorMatrix in="SourceAlpha" type="matrix" values="0 0 0 0 0 0 0 0 0 0 0 0 0 0 0 0 0 0 127 0" result="hardAlpha"/>
<feMorphology radius="40" operator="erode" in="SourceAlpha" result="effect1_dropShadow_0_1"/>
<feOffset dy="-13"/>
<feGaussianBlur stdDeviation="25"/>
<feComposite in2="hardAlpha" operator="out"/>
<feColorMatrix type="matrix" values="0 0 0 0 0.687905 0 0 0 0 0.687905 0 0 0 0 0.687905 0 0 0 0.49 0"/>
<feBlend mode="normal" in2="BackgroundImageFix" result="effect1_dropShadow_0_1"/>
<feBlend mode="normal" in="SourceGraphic" in2="effect1_dropShadow_0_1" result="shape"/>
</filter>
</defs>
</svg>
