<svg width="28" height="20" viewBox="0 0 28 20" fill="none" xmlns="http://www.w3.org/2000/svg">
<path d="M21.4087 10.0001C21.4087 10.5835 21.1837 11.1668 20.7421 11.6085L15.3087 17.0418C15.0671 17.2835 14.6671 17.2835 14.4254 17.0418C14.1837 16.8001 14.1837 16.4001 14.4254 16.1585L19.8587 10.7251C20.2587 10.3251 20.2587 9.67512 19.8587 9.27512L14.4254 3.84179C14.1837 3.60012 14.1837 3.20012 14.4254 2.95845C14.6671 2.71679 15.0671 2.71679 15.3087 2.95845L20.7421 8.39179C21.1837 8.83345 21.4087 9.41679 21.4087 10.0001Z" fill="#31827D"/>
<path d="M14.0005 10.0001C14.0005 10.5835 13.7755 11.1668 13.3339 11.6085L7.90052 17.0418C7.65885 17.2835 7.25885 17.2835 7.01719 17.0418C6.77552 16.8001 6.77552 16.4001 7.01719 16.1585L12.4505 10.7251C12.8505 10.3251 12.8505 9.67512 12.4505 9.27512L7.01719 3.84179C6.77552 3.60012 6.77552 3.20012 7.01719 2.95845C7.25885 2.71679 7.65885 2.71679 7.90052 2.95845L13.3339 8.39179C13.7755 8.83345 14.0005 9.41679 14.0005 10.0001Z" fill="#31827D"/>
</svg>
