<svg width="1920" height="30" viewBox="0 0 1920 30" fill="none" xmlns="http://www.w3.org/2000/svg">
<mask id="mask0_1_4009" style="mask-type:luminance" maskUnits="userSpaceOnUse" x="0" y="0" width="1920" height="30">
<path d="M0 29.9998L1920 30L1920 -1.90735e-06L2.62268e-06 -0.000169759L0 29.9998Z" fill="white"/>
</mask>
<g mask="url(#mask0_1_4009)">
<path d="M1479.06 26.3759C1480.57 25.7719 1481.08 23.6578 1480.57 19.933L1480.27 19.8323L1480.17 19.8323C1479.77 21.8457 1479.16 22.9531 1478.36 23.3558C1477.15 23.8591 1476.24 23.1544 1475.54 21.443C1475.03 20.3356 1474.83 17.2149 1474.83 12.282L1474.63 12.3826C1473.32 17.0135 1473.32 20.6377 1474.43 23.4565L1475.03 24.8659C1475.13 25.1679 1475.33 25.5705 1475.64 25.9732C1476.54 26.8793 1477.55 27.1813 1478.66 26.6779L1479.06 26.3759Z" fill="#31827D"/>
<path d="M1545.24 57.6849C1545.04 58.3896 1544.74 59.195 1544.13 60.3024C1543.53 61.5104 1543.02 62.1144 1542.62 62.0138C1542.42 61.9131 1542.22 61.7118 1542.22 61.2084C1541.72 58.893 1539.9 57.3829 1536.78 56.5775C1533.66 55.6715 1529.53 56.3762 1524.59 58.591C1522.17 59.6983 1516.43 62.8191 1507.27 67.9534C1502.33 70.7722 1498.7 71.8795 1496.39 71.2755C1494.17 70.6715 1492.46 69.3628 1491.35 67.2487C1490.24 65.1346 1489.94 62.9198 1490.65 60.6044C1491.96 55.6715 1495.18 50.7386 1500.11 45.705C1500.72 45.101 1501.32 44.799 1501.73 44.8997C1501.83 44.8997 1501.93 45.0003 1501.83 45.3024C1501.73 45.6044 1501.42 46.1077 1500.82 46.7118C1496.19 51.846 1493.37 56.4769 1492.46 60.6044C1491.85 63.6245 1492.56 65.4366 1494.78 66.0406C1498 66.846 1502.53 65.7386 1508.27 62.6178C1513.51 59.6983 1518.75 56.6782 1523.99 53.8594C1530.33 50.9399 1535.67 50.0339 1540.1 51.1413C1542.02 51.6446 1543.43 52.5507 1544.44 53.8594C1545.34 54.8661 1545.64 56.2755 1545.24 57.6849ZM1518.35 21.7453L1518.55 21.846C1521.57 24.8661 1522.58 28.1883 1521.47 31.8124L1521.27 32.4165C1520.76 34.2285 1518.95 36.9467 1515.83 40.3695L1515.22 41.4769C1514.82 43.0876 1515.12 43.9936 1516.23 44.2957C1516.94 44.497 1517.94 43.9936 1519.25 42.8863L1519.66 42.9869C1518.14 45.8057 1516.63 47.0138 1515.22 46.6111L1514.62 46.4097C1513.21 45.8057 1512.81 44.5977 1513.31 42.6849L1513.41 42.3829C1513.81 40.7722 1515.53 38.3561 1518.45 35.1346C1518.85 34.2285 1519.15 33.6245 1519.35 33.1212L1519.55 32.4165C1520.26 29.799 1519.15 26.7789 1516.33 23.2554L1516.33 23.1547C1516.94 22.5507 1517.64 22.0473 1518.35 21.7453ZM1531.54 63.2218C1529.53 66.3426 1528.42 68.3561 1528.12 69.2621C1527.71 70.6715 1527.92 71.4769 1528.62 71.6782C1529.12 71.8795 1529.83 71.3762 1530.84 70.2688L1530.94 70.2688L1531.04 70.4701C1529.83 72.9869 1528.72 74.195 1527.81 73.893L1527.51 73.7923C1526.81 73.591 1526.51 72.9869 1526.4 71.9802C1526.4 71.5775 1526.51 71.2755 1526.51 71.0742L1526.81 69.9668C1527.41 67.752 1528.92 65.4366 1531.34 63.1212L1531.54 63.2218Z" fill="#31827D"/>
<path d="M1446.43 32.4163C1446.22 33.121 1445.92 33.9263 1445.32 35.0337C1444.71 36.2418 1444.21 36.8458 1443.81 36.7451C1443.61 36.6445 1443.4 36.4431 1443.4 35.9398C1442.9 33.6243 1441.09 32.1143 1437.96 31.3089C1434.84 30.4029 1430.71 31.1075 1425.78 33.3223C1423.36 34.4297 1417.62 37.5505 1408.45 42.6847C1403.52 45.5035 1399.89 46.6109 1397.57 46.0069C1395.36 45.4028 1393.64 44.0941 1392.54 41.98C1391.33 39.8659 1391.13 37.6512 1391.83 35.3357C1393.14 30.4028 1396.36 25.47 1401.3 20.4364C1401.9 19.8324 1402.51 19.5304 1402.91 19.631C1403.01 19.631 1403.11 19.7317 1403.01 20.0337C1402.91 20.3357 1402.61 20.8391 1402 21.4431C1397.27 26.5773 1394.55 31.2082 1393.64 35.2351C1393.04 38.2552 1393.74 40.0673 1395.96 40.6713C1399.18 41.4767 1403.72 40.3693 1409.46 37.2485C1414.7 34.329 1419.93 31.3089 1425.17 28.4901C1431.52 25.5706 1436.86 24.6646 1441.29 25.772C1443.2 26.2753 1444.61 27.1814 1445.62 28.4901C1446.43 29.6982 1446.73 31.0069 1446.43 32.4163ZM1419.43 -3.42265L1419.63 -3.32197C1422.65 -0.30184 1423.66 3.0203 1422.55 6.64446L1422.35 7.2485C1421.85 9.06058 1420.04 11.7787 1416.91 15.2015L1416.31 16.3089C1415.91 17.9196 1416.21 18.8257 1417.32 19.1277C1418.02 19.329 1419.03 18.8257 1420.34 17.7183L1420.74 17.819C1419.23 20.6378 1417.72 21.8458 1416.31 21.4431L1415.7 21.2418C1414.29 20.6377 1413.89 19.4297 1414.39 17.5169L1414.49 17.2149C1414.9 15.6042 1416.61 13.1881 1419.53 9.96662C1419.93 9.06058 1420.24 8.45655 1420.44 7.95319L1420.64 7.2485C1421.34 4.63105 1420.24 1.61091 1417.42 -1.91258L1417.42 -2.01326C1418.02 -2.71796 1418.73 -3.22131 1419.43 -3.42265ZM1432.63 38.0539C1430.61 41.1747 1429.5 43.1881 1429.2 44.0941C1428.8 45.5035 1429 46.3089 1429.71 46.5102C1430.21 46.7116 1430.91 46.2082 1431.92 45.1008L1432.02 45.1008L1432.12 45.3022C1430.91 47.819 1429.81 49.027 1428.9 48.725L1428.6 48.6243C1427.89 48.423 1427.59 47.819 1427.49 46.8122C1427.49 46.4096 1427.59 46.1075 1427.59 45.9062L1427.89 44.7988C1428.5 42.5841 1430.01 40.2686 1432.42 37.9532L1432.63 38.0539Z" fill="#31827D"/>
<path d="M933.008 17.0135L933.31 17.5168L934.519 18.1208L934.821 18.7249C933.914 20.839 931.295 24.0604 926.964 28.2886C924.143 30.1007 922.834 31.2081 923.035 31.6108C923.338 32.2148 925.352 32.3155 928.978 31.9128C939.857 28.6913 945.7 27.9866 946.505 29.698L946.606 30.8054C945.8 33.1208 945.397 34.3289 945.498 34.5302C945.8 35.0336 947.21 35.0336 949.829 34.3289L950.232 34.1276C950.635 33.9262 950.937 33.7249 951.139 33.4229C952.851 31.0068 953.355 29.1947 952.851 27.9866C951.139 24.5638 944.189 24.7651 931.698 28.5906L931.597 28.3893L931.799 28.2886C940.562 21.5437 943.886 15.9061 941.771 11.6779L941.57 11.2752C940.663 10.7719 938.548 10.4698 935.123 10.4698L934.72 10.6712C933.008 13.6913 932.403 15.7047 933.008 17.0135Z" fill="#31827D"/>
<path d="M832.048 36.4591L832.16 35.8828L831.664 34.6263L831.843 33.9751C833.931 33.0072 838.033 32.3585 844.082 32.104C847.392 32.6386 849.107 32.6888 849.226 32.2547C849.405 31.6034 847.973 30.1835 845.006 28.0621C834.757 23.1961 829.938 19.8199 830.483 18.0084L831.148 17.1171C833.295 15.9321 834.403 15.3022 834.462 15.0851C834.574 14.5088 833.524 13.5672 831.105 12.3431L830.67 12.2239C830.236 12.1048 829.876 12.0528 829.525 12.143C826.635 12.7977 825.049 13.8098 824.617 15.045C823.603 18.7354 828.91 23.2259 840.761 28.7184L840.702 28.9355L840.484 28.8759C829.455 28.0442 823.213 30.02 821.961 34.5786L821.842 35.0127C822.18 35.9926 823.552 37.6296 826.1 39.9161L826.535 40.0353C829.828 38.9312 831.623 37.8365 832.048 36.4591Z" fill="#31827D"/>
<path d="M883.752 18.6239C886.27 17.8185 887.781 17.7178 888.486 18.4225C889.393 19.3286 888.889 20.738 887.076 22.6507C885.867 23.8588 882.241 25.9729 876.298 28.993L876.499 29.1943C882.442 27.6843 886.875 25.5702 889.695 22.6507L891.206 21.2413C891.508 20.9393 891.81 20.5366 892.314 19.9326C893.12 18.4225 893.12 17.2145 892.213 16.2078L891.81 15.7044C890.602 14.4964 887.882 15.2011 883.651 18.0198L883.551 18.4225L883.752 18.6239Z" fill="#31827D"/>
<path d="M972.494 56.98C972.091 56.4766 971.587 55.6713 971.084 54.5639C970.479 53.3558 970.278 52.5505 970.58 52.3491C970.781 52.2485 971.084 52.2485 971.487 52.4498C973.602 53.3558 975.919 52.8525 978.437 50.8391C980.955 48.8256 982.869 45.1008 983.977 39.8659C984.581 37.2485 985.387 30.8055 986.596 20.3357C987.2 14.6981 988.51 11.074 990.424 9.56389C992.237 8.15449 994.352 7.55047 996.669 7.85248C999.086 8.15449 1001.1 9.26188 1002.51 11.1746C1005.73 15.1008 1007.85 20.6377 1009.06 27.584C1009.16 28.4901 1009.06 28.9934 1008.76 29.2954C1008.66 29.3961 1008.55 29.3961 1008.35 29.1948C1008.15 28.9934 1007.95 28.3894 1007.85 27.584C1006.54 20.7384 1004.32 15.8055 1001.6 12.6847C999.489 10.3693 997.575 9.96657 995.863 11.376C993.345 13.4901 991.532 17.8189 990.625 24.2619C989.92 30.2015 989.215 36.2417 988.409 42.1813C987.1 49.027 984.682 53.8592 981.056 56.7787C979.545 57.9867 977.933 58.6914 976.322 58.6914C974.71 58.6914 973.4 58.0874 972.494 56.98ZM1017.52 56.376L1017.32 56.4766C1013.09 57.0807 1009.86 55.9733 1007.55 52.9532L1007.14 52.4498C1005.94 50.9397 1004.93 47.9196 1003.92 43.3894L1003.32 42.282C1002.31 40.9733 1001.4 40.6713 1000.5 41.4766C999.892 41.98 999.691 43.0874 999.892 44.6981L999.59 45.0001C998.18 42.0807 998.079 40.1679 999.187 39.2619L999.691 38.8592C1001 38.0538 1002.21 38.4565 1003.42 39.9666L1003.62 40.1679C1004.63 41.4766 1005.63 44.2954 1006.44 48.5236C1006.94 49.4297 1007.25 50.0337 1007.55 50.4364L1007.95 50.9397C1009.66 53.0538 1012.68 53.9599 1017.32 53.6578L1017.42 53.7585C1017.62 54.8659 1017.62 55.6713 1017.52 56.376ZM976.12 42.6847C974.811 39.1612 973.803 37.1478 973.199 36.3424C972.192 35.235 971.487 34.8323 970.983 35.235C970.58 35.537 970.58 36.4431 970.882 37.8525L970.681 37.8525C969.371 35.4364 969.069 33.8256 969.875 33.2216L970.177 33.0203C970.681 32.6176 971.386 32.6176 972.292 33.2216C972.595 33.5236 972.796 33.725 972.897 33.8256L973.602 34.7317C975.012 36.5437 976.019 39.0605 976.422 42.4834L976.12 42.6847Z" fill="#31827D"/>
<path d="M903.595 24.8655C904.502 24.9662 905.308 24.0601 905.912 22.1474L905.711 22.1474C905.006 22.9527 904.502 23.3554 903.998 23.3554C903.293 23.2548 902.991 22.7514 903.092 21.7447L903.293 20.9393C904.905 18.5232 905.711 16.7111 905.811 15.5031L905.811 15.1004C906.013 12.7849 905.106 10.7715 902.89 9.26147L902.79 9.26147C902.487 9.46281 902.084 9.8655 901.682 10.4695L901.682 10.5702C903.797 12.4829 904.804 14.1944 904.603 15.8051L904.502 16.2078C904.502 16.5098 904.401 16.9125 904.2 17.5165C902.79 19.7313 901.883 21.342 901.782 22.4494L901.782 22.6507C901.682 23.8588 902.084 24.5635 902.991 24.7648L903.595 24.8655Z" fill="#31827D"/>
<path d="M1048.39 11.4295C1050.91 10.6242 1052.42 10.5235 1053.13 11.2282C1054.04 12.1342 1053.53 13.5436 1051.72 15.4564C1050.51 16.6644 1046.88 18.7785 1040.94 21.7987L1041.14 22C1047.09 20.4899 1051.52 18.3758 1054.34 15.4564L1055.85 14.047C1056.15 13.745 1056.45 13.3423 1056.96 12.7383C1057.76 11.2282 1057.76 10.0201 1056.86 9.01343L1056.45 8.51007C1055.24 7.30202 1052.52 8.00672 1048.29 10.8255L1048.19 11.2282L1048.39 11.4295Z" fill="#31827D"/>
<path d="M1160.54 61.2886C1160.14 60.7852 1159.64 59.9799 1159.13 58.8725C1158.53 57.6644 1158.33 56.8591 1158.63 56.6577C1158.83 56.557 1159.13 56.557 1159.54 56.7584C1161.65 57.6644 1163.97 57.1611 1166.49 55.1477C1169 53.1342 1170.92 49.4094 1172.03 44.1745C1172.63 41.557 1173.44 35.1141 1174.64 24.6443C1175.25 19.0067 1176.56 15.3825 1178.47 13.8725C1180.29 12.4631 1182.4 11.8591 1184.72 12.1611C1187.14 12.4631 1189.15 13.5705 1190.56 15.4832C1193.78 19.4094 1195.9 24.9463 1197.11 31.8926C1197.21 32.7987 1197.11 33.302 1196.81 33.604C1196.7 33.7047 1196.6 33.7047 1196.4 33.5034C1196.2 33.302 1196 32.698 1195.9 31.8926C1194.59 25.047 1192.37 20.1141 1189.65 16.9933C1187.54 14.6779 1185.62 14.2752 1183.91 15.6846C1181.39 17.7987 1179.58 22.1275 1178.67 28.5705C1177.97 34.5101 1177.26 40.5503 1176.46 46.4899C1175.15 53.3356 1172.73 58.1678 1169.1 61.0873C1167.59 62.2953 1165.98 63 1164.37 63C1162.76 63 1161.45 62.396 1160.54 61.2886ZM1205.57 60.6846L1205.37 60.7852C1201.14 61.3893 1197.91 60.2819 1195.6 57.2617L1195.19 56.7584C1193.98 55.2483 1192.98 52.2282 1191.97 47.698L1191.37 46.5906C1190.36 45.2819 1189.45 44.9799 1188.55 45.7852C1187.94 46.2886 1187.74 47.396 1187.94 49.0067L1187.64 49.3087C1186.23 46.3893 1186.13 44.4765 1187.24 43.5705L1187.74 43.1678C1189.05 42.3624 1190.26 42.7651 1191.47 44.2752L1191.67 44.4765C1192.68 45.7852 1193.68 48.604 1194.49 52.8322C1194.99 53.7383 1195.29 54.3423 1195.6 54.745L1196 55.2483C1197.71 57.3624 1200.73 58.2685 1205.37 57.9664L1205.47 58.0671C1205.67 59.1745 1205.67 59.9799 1205.57 60.6846ZM1164.17 46.9933C1162.86 43.4698 1161.85 41.4564 1161.25 40.651C1160.24 39.5436 1159.54 39.1409 1159.03 39.5436C1158.63 39.8456 1158.63 40.7517 1158.93 42.1611L1158.73 42.1611C1157.42 39.745 1157.12 38.1342 1157.92 37.5302L1158.23 37.3289C1158.73 36.9262 1159.43 36.9262 1160.34 37.5302C1160.64 37.8322 1160.84 38.0336 1160.95 38.1342L1161.65 39.0403C1163.06 40.8523 1164.07 43.3691 1164.47 46.7919L1164.17 46.9933Z" fill="#31827D"/>
<path d="M1090.64 16.6843C1091.55 16.785 1092.35 15.879 1092.96 13.9662L1092.76 13.9662C1092.05 14.7716 1091.55 15.1743 1091.05 15.1743C1090.34 15.0736 1090.04 14.5702 1090.14 13.5635L1090.34 12.7582C1091.95 10.3421 1092.76 8.52998 1092.86 7.32193L1092.86 6.91923C1093.06 4.6038 1092.15 2.59039 1089.94 1.08032L1089.84 1.08032C1089.53 1.28166 1089.13 1.68434 1088.73 2.28837L1088.73 2.38903C1090.84 4.30178 1091.85 6.01321 1091.65 7.62394L1091.55 8.02662C1091.55 8.32864 1091.45 8.73132 1091.25 9.33535C1089.84 11.5501 1088.93 13.1608 1088.83 14.2682L1088.83 14.4696C1088.73 15.6776 1089.13 16.3823 1090.04 16.5837L1090.64 16.6843Z" fill="#31827D"/>
<path d="M1271.86 16.309L1272.06 16.913L1273.17 17.7184L1273.27 18.4231C1271.96 20.3358 1268.74 22.8526 1263.6 26.1747C1260.48 27.3828 1258.97 28.1882 1259.07 28.5909C1259.27 29.1949 1261.18 29.7989 1264.81 30.1009C1276.09 29.1949 1281.93 29.6982 1282.44 31.611L1282.24 32.7184C1280.93 34.8325 1280.32 35.9398 1280.32 36.1412C1280.52 36.7452 1281.83 36.9466 1284.55 36.8459L1284.96 36.7452C1285.46 36.6445 1285.76 36.4432 1285.96 36.2419C1288.18 34.2284 1289.09 32.517 1288.78 31.309C1287.88 27.6848 1280.93 26.3761 1267.93 27.4835L1267.83 27.2821L1268.03 27.1814C1278.01 22.3492 1282.44 17.6177 1281.33 12.9868L1281.23 12.5841C1280.52 11.8794 1278.41 11.1748 1275.08 10.4701L1274.68 10.5707C1272.47 13.0875 1271.56 14.8996 1271.86 16.309Z" fill="#31827D"/>
<path d="M1218.07 10.8726C1220.69 10.5705 1222.2 10.7719 1222.7 11.5772C1223.41 12.6846 1222.6 13.9934 1220.39 15.4028C1218.98 16.3088 1214.95 17.6175 1208.5 19.3289L1208.7 19.5303C1214.75 19.3289 1219.58 18.1209 1223.01 15.9061L1224.72 14.7987C1225.12 14.5974 1225.53 14.1947 1226.03 13.6913C1227.14 12.3826 1227.44 11.1746 1226.73 10.0672L1226.43 9.56382C1225.53 8.15443 1222.7 8.2551 1217.97 10.1679L1217.87 10.5705L1218.07 10.8726Z" fill="#31827D"/>
<path d="M1302.08 61.6111C1301.78 61.007 1301.48 60.101 1301.17 58.8929C1300.87 57.5842 1300.87 56.7788 1301.17 56.6782C1301.38 56.5775 1301.68 56.6782 1302.08 56.9802C1303.99 58.2889 1306.41 58.2889 1309.23 56.8795C1312.15 55.4701 1314.67 52.148 1316.99 47.3158C1318.1 44.8997 1320.31 38.7587 1323.64 28.7923C1325.45 23.4567 1327.46 20.1346 1329.58 19.1278C1331.7 18.1211 1333.81 17.9198 1336.03 18.7252C1338.34 19.5305 1340.06 21.0406 1341.06 23.1547C1343.38 27.6849 1344.29 33.5238 1343.98 40.5708C1343.88 41.4768 1343.68 41.9802 1343.28 42.1815C1343.18 42.2822 1343.08 42.1815 1342.98 41.9802C1342.88 41.6782 1342.78 41.1748 1342.78 40.2688C1342.88 33.3225 1341.87 28.0876 1339.75 24.3628C1338.24 21.6446 1336.43 20.8393 1334.42 21.846C1331.49 23.356 1328.87 27.1815 1326.56 33.3225C1324.64 39.0607 1322.73 44.6983 1320.72 50.3359C1318 56.7789 1314.57 61.007 1310.54 63.0205C1308.73 63.9265 1307.12 64.2285 1305.51 63.9265C1303.79 63.7252 1302.69 62.9198 1302.08 61.6111ZM1346.2 70.4701L1346 70.5708C1341.77 70.2688 1338.75 68.4567 1337.13 65.1346L1336.93 64.6312C1336.13 62.9198 1335.62 59.6983 1335.72 55.0674L1335.42 53.8594C1334.72 52.45 1333.81 51.9466 1332.8 52.45C1332.1 52.752 1331.7 53.8594 1331.49 55.5708L1331.09 55.7721C1330.29 52.6513 1330.59 50.7386 1331.9 50.1346L1332.5 49.8325C1333.91 49.3292 1335.12 49.9332 1335.93 51.7453L1336.03 52.0473C1336.83 53.5574 1337.13 56.4768 1337.13 60.8057C1337.44 61.7117 1337.64 62.4164 1337.84 62.8191L1338.14 63.4232C1339.35 65.8393 1342.17 67.3493 1346.7 68.054L1346.8 68.1547C1346.6 68.9601 1346.5 69.7654 1346.2 70.4701ZM1308.53 48.3225C1307.92 44.5976 1307.42 42.3829 1307.02 41.5775C1306.31 40.2688 1305.71 39.7654 1305 40.0674C1304.5 40.2688 1304.3 41.1748 1304.3 42.5842L1304.1 42.4835C1303.29 39.7654 1303.39 38.2554 1304.2 37.752L1304.5 37.5507C1305.1 37.2486 1305.81 37.45 1306.51 38.1547C1306.71 38.4567 1306.92 38.7587 1307.02 38.9601L1307.52 39.9668C1308.53 41.9802 1308.93 44.6983 1308.73 48.1211L1308.53 48.3225Z" fill="#31827D"/>
<path d="M1236.1 21.141C1236.91 21.443 1237.92 20.7384 1238.92 19.0269L1238.72 18.9263C1237.92 19.631 1237.31 19.8323 1236.81 19.7316C1236.1 19.5303 1235.9 18.9263 1236.3 17.9196L1236.71 17.2149C1238.72 15.2014 1239.93 13.5907 1240.33 12.4833L1240.43 12.0806C1241.14 9.86586 1240.64 7.75177 1238.82 5.83902L1238.72 5.73836C1238.32 5.83903 1237.92 6.24171 1237.41 6.64439L1237.41 6.74507C1239.12 9.06051 1239.73 10.9733 1239.23 12.4833L1239.12 12.886C1239.02 13.188 1238.82 13.5907 1238.52 14.0941C1236.61 16.0068 1235.5 17.4162 1235.2 18.4229L1235.1 18.6243C1234.69 19.7316 1234.99 20.537 1235.8 20.9397L1236.1 21.141Z" fill="#31827D"/>
<path d="M1843.14 12.4831L1843.25 13.0871L1844.25 13.9932L1844.35 14.6978C1842.94 16.5099 1839.62 18.926 1834.18 21.8455C1830.96 22.8522 1829.45 23.5569 1829.55 23.9596C1829.75 24.5636 1831.56 25.2683 1835.19 25.7717C1846.47 25.5703 1852.31 26.4764 1852.61 28.2885L1852.41 29.3958C1851 31.4093 1850.3 32.416 1850.3 32.6173C1850.4 33.2213 1851.81 33.5234 1854.43 33.624L1854.83 33.5233C1855.33 33.4227 1855.64 33.322 1855.84 33.1207C1858.15 31.2079 1859.16 29.5972 1858.96 28.3891C1858.25 24.6643 1851.4 22.9529 1838.41 23.2549L1838.41 23.0536L1838.61 23.0536C1848.79 18.8254 1853.52 14.3958 1852.71 9.66429L1852.61 9.26161C1851.91 8.45624 1849.89 7.65087 1846.67 6.8455L1846.27 6.94617C1843.95 9.26161 1842.94 11.0737 1843.14 12.4831Z" fill="#31827D"/>
<path d="M1870.54 61.611C1870.24 61.0069 1870.04 60.1009 1869.84 58.8929C1869.54 57.5841 1869.64 56.7788 1869.94 56.6781C1870.14 56.5774 1870.44 56.6781 1870.85 57.0808C1872.66 58.5908 1875.08 58.5908 1878 57.3828C1881.02 56.0741 1883.74 53.0539 1886.26 48.2217C1887.47 45.8056 1890.08 39.866 1894.01 30.1009C1896.13 24.866 1898.34 21.7452 1900.56 20.7385C1902.68 19.8325 1904.89 19.8325 1907.01 20.7385C1909.22 21.6445 1910.83 23.2553 1911.74 25.47C1913.76 30.1009 1914.36 36.0405 1913.65 43.0875C1913.55 43.9935 1913.25 44.4969 1912.85 44.6982C1912.75 44.7989 1912.65 44.6982 1912.55 44.4969C1912.45 44.1949 1912.45 43.5908 1912.45 42.7855C1912.95 35.8392 1912.24 30.5036 1910.33 26.7788C1908.92 23.96 1907.21 23.0539 1905.19 23.96C1902.17 25.2687 1899.35 28.9935 1896.73 35.0338C1894.42 40.5707 1892.2 46.2083 1889.88 51.6445C1886.76 57.8861 1883.13 61.913 1878.9 63.7251C1877.09 64.5304 1875.38 64.7318 1873.87 64.3291C1872.15 63.8257 1871.05 62.9197 1870.54 61.611ZM1913.96 72.9868L1913.76 72.9868C1909.53 72.4835 1906.7 70.47 1905.19 67.0472L1904.99 66.5439C1904.29 64.7318 1903.98 61.611 1904.29 56.9801L1903.98 55.7721C1903.38 54.262 1902.47 53.7586 1901.47 54.1613C1900.76 54.4633 1900.26 55.47 1900.06 57.1814L1899.65 57.3828C1899.05 54.1613 1899.45 52.3492 1900.86 51.7452L1901.47 51.5439C1902.88 51.1412 1904.09 51.8459 1904.79 53.658L1904.89 53.96C1905.6 55.47 1905.7 58.4902 1905.4 62.7184C1905.6 63.6244 1905.8 64.3291 1905.9 64.8325L1906.2 65.4365C1907.21 67.8526 1910.03 69.564 1914.46 70.5707L1914.56 70.6714C1914.56 71.5774 1914.36 72.3828 1913.96 72.9868ZM1877.8 48.7251C1877.39 45.0002 1876.99 42.7855 1876.69 41.8794C1876.08 40.47 1875.48 39.9667 1874.77 40.2687C1874.27 40.47 1873.97 41.2754 1873.97 42.7855L1873.77 42.6848C1873.16 39.9667 1873.26 38.3559 1874.17 37.9533L1874.47 37.8526C1875.08 37.5506 1875.78 37.8526 1876.39 38.5573C1876.59 38.8593 1876.79 39.1613 1876.79 39.3627L1877.29 40.3694C1878.2 42.4835 1878.5 45.2016 1878 48.5237L1877.8 48.7251Z" fill="#31827D"/>
<path d="M1755.01 9.86604C1755.61 9.46336 1756.42 8.96 1757.52 8.55732C1758.73 8.05396 1759.54 7.85262 1759.74 8.15464C1759.84 8.35598 1759.84 8.65799 1759.54 9.06067C1758.53 11.1748 1758.93 13.4902 1760.85 16.1077C1762.76 18.7251 1766.39 20.7385 1771.53 22.2486C1774.15 22.9533 1780.59 24.1614 1790.87 25.8728C1796.41 26.7788 1799.93 28.2889 1801.44 30.2016C1802.75 32.1144 1803.26 34.2285 1802.85 36.5439C1802.45 38.96 1801.14 40.8728 1799.23 42.1815C1795.1 45.2016 1789.46 47.0137 1782.4 47.8191C1781.5 47.9197 1780.99 47.7184 1780.69 47.4164C1780.59 47.3157 1780.69 47.215 1780.79 47.0137C1780.99 46.8123 1781.6 46.7117 1782.4 46.5103C1789.36 45.5036 1794.39 43.6915 1797.61 41.0741C1800.03 39.1613 1800.54 37.2486 1799.23 35.4365C1797.31 32.8191 1793.08 30.8056 1786.64 29.4969C1780.69 28.4902 1774.75 27.4835 1768.91 26.3761C1762.16 24.6647 1757.42 21.9466 1754.7 18.3224C1753.6 16.7117 1752.99 15.1009 1753.09 13.4902C1753.19 11.9801 1753.8 10.7721 1755.01 9.86604ZM1753.19 54.7654L1753.09 54.564C1752.69 50.3358 1754 47.1144 1757.12 45.0003L1757.63 44.6983C1759.24 43.5909 1762.26 42.6848 1766.89 41.9801L1768.1 41.4768C1769.41 40.5707 1769.81 39.564 1769.11 38.658C1768.71 38.054 1767.6 37.7519 1765.89 37.8526L1765.68 37.5506C1768.71 36.3425 1770.62 36.3425 1771.43 37.5506L1771.83 38.054C1772.53 39.3627 1772.13 40.6714 1770.52 41.7788L1770.32 41.9801C1768.91 42.9868 1766.09 43.7922 1761.86 44.3962C1760.95 44.7989 1760.35 45.1009 1759.94 45.403L1759.34 45.8056C1757.12 47.3157 1756.11 50.4365 1756.11 54.9667L1756.01 55.0674C1754.7 54.9667 1753.8 54.9667 1753.19 54.7654ZM1769.11 14.1949C1772.63 12.9869 1774.75 12.1815 1775.56 11.6781C1776.76 10.7721 1777.17 10.0674 1776.76 9.46337C1776.46 9.06068 1775.56 8.96001 1774.15 9.16135L1774.15 8.96001C1776.66 7.75196 1778.27 7.55061 1778.88 8.35598L1779.08 8.658C1779.48 9.26202 1779.38 9.86605 1778.78 10.6714C1778.48 10.9734 1778.17 11.1748 1778.07 11.2754L1777.17 11.9801C1775.35 13.2889 1772.73 14.1949 1769.31 14.3962L1769.11 14.1949Z" fill="#31827D"/>
<path d="M738.396 20.4384L738.598 21.0424L739.706 21.8478L739.806 22.5525C738.497 24.4652 735.273 26.982 730.136 30.3041C727.014 31.5122 725.503 32.3176 725.603 32.7202C725.805 33.3243 727.719 33.9283 731.345 34.2303C742.627 33.3243 748.469 33.8276 748.973 35.7404L748.771 36.8478C747.462 38.9619 746.857 40.0692 746.857 40.2706C747.059 40.8746 748.368 41.076 751.088 40.9753L751.491 40.8746C751.995 40.7739 752.297 40.5726 752.498 40.3712C754.714 38.3578 755.621 36.6464 755.319 35.4384C754.412 31.8142 747.462 30.5055 734.468 31.6129L734.367 31.4115L734.568 31.3108C744.541 26.4786 748.973 21.7471 747.865 17.1162L747.764 16.7135C746.958 16.0088 744.943 15.3041 741.619 14.5994L741.216 14.7001C739.101 17.2169 738.094 19.029 738.396 20.4384Z" fill="#31827D"/>
<path d="M688.941 12.584C691.56 12.282 693.071 12.4833 693.575 13.2887C694.28 14.3961 693.474 15.7048 691.258 17.1142C689.848 18.0202 685.819 19.3289 679.372 21.0404L679.573 21.2417C685.617 21.0404 690.452 19.8323 693.877 17.6175L695.69 16.5102C695.992 16.3088 696.496 15.9061 697 15.4028C698.108 14.094 698.41 12.886 697.705 11.7786L697.402 11.2753C696.496 9.86587 693.675 9.96653 688.941 11.8793L688.84 12.282L688.941 12.584Z" fill="#31827D"/>
<path d="M754.576 58.0403C754.274 57.4362 753.971 56.5302 753.669 55.3221C753.367 54.0134 753.367 53.208 753.669 53.1074C753.871 53.0067 754.173 53.1074 754.576 53.4094C756.49 54.7181 758.907 54.7181 761.728 53.3087C764.649 51.8993 767.167 48.5772 769.484 43.745C770.592 41.3289 772.808 35.1879 776.132 25.2215C777.945 19.8859 779.96 16.5638 782.075 15.557C784.19 14.5503 786.306 14.349 788.522 15.1544C790.838 15.9597 792.551 17.4698 793.558 19.5839C795.875 24.1141 796.781 29.953 796.479 37C796.378 37.906 796.177 38.4094 795.774 38.6107C795.673 38.7114 795.573 38.6107 795.472 38.4094C795.371 38.1074 795.27 37.604 795.27 36.698C795.371 29.7517 794.364 24.5168 792.249 20.792C790.738 18.0738 788.925 17.2685 786.91 18.2752C783.989 19.7852 781.37 23.6107 779.053 29.7517C777.139 35.4899 775.225 41.1275 773.211 46.7651C770.491 53.2081 767.066 57.4362 763.037 59.4497C761.224 60.3557 759.612 60.6577 758.001 60.3557C756.389 60.1544 755.281 59.349 754.576 58.0403ZM798.695 66.8993L798.494 67C794.263 66.698 791.241 64.8859 789.63 61.5638L789.428 61.0604C788.622 59.349 788.119 56.1275 788.219 51.4966L787.917 50.2886C787.212 48.8792 786.306 48.3758 785.298 48.8792C784.593 49.1812 784.19 50.2886 783.989 52L783.687 52.2013C782.881 49.0805 783.183 47.1678 784.492 46.5638L785.097 46.2617C786.507 45.7584 787.716 46.3624 788.522 48.1745L788.622 48.4765C789.428 49.9866 789.73 52.906 789.73 57.2349C790.032 58.1409 790.234 58.8456 790.435 59.2483L790.738 59.8523C791.946 62.2685 794.767 63.7785 799.3 64.4832L799.4 64.5839C799.199 65.3893 798.997 66.1946 798.695 66.8993ZM761.123 44.7517C760.519 41.0268 760.015 38.8121 759.612 38.0067C758.907 36.698 758.303 36.1946 757.598 36.4966C757.094 36.698 756.893 37.604 756.893 39.0134L756.792 39.0134L756.59 38.9127C755.785 36.1946 755.885 34.6846 756.691 34.1812L756.993 33.9799C757.598 33.6778 758.303 33.8792 759.008 34.5839C759.209 34.8859 759.411 35.1879 759.512 35.3893L760.015 36.396C761.022 38.4094 761.425 41.1275 761.224 44.5503L761.123 44.7517Z" fill="#31827D"/>
<path d="M649.138 62.3863C648.519 62.1149 647.707 61.6112 646.702 60.8753C645.632 60.062 645.117 59.4427 645.285 59.1722C645.376 58.9661 645.673 58.8504 646.176 58.8252C648.484 58.6089 650.343 57.0643 651.611 54.1786C652.956 51.2284 652.767 47.0649 651.458 41.8688C650.764 39.303 648.54 33.1649 644.722 23.3771C642.703 18.1157 642.127 14.2739 643.11 12.1483C644.093 10.0227 645.591 8.51637 647.81 7.71985C650.106 6.85897 652.389 6.92613 654.516 7.90826C659.195 9.91171 663.627 13.8225 667.902 19.4346C668.404 20.1957 668.571 20.7115 668.39 21.1238C668.377 21.2655 668.236 21.2524 668.029 21.162C667.759 20.9941 667.359 20.6714 666.78 19.9747C662.414 14.5687 658.291 11.1868 654.282 9.67391C651.381 8.54906 649.472 9.08811 648.567 11.1494C647.286 14.1769 647.719 18.7919 649.866 24.9944C652.064 30.6298 654.199 36.1877 656.256 41.81C658.285 48.5022 658.356 53.9417 656.546 58.0642C655.731 59.9194 654.685 61.1813 653.252 61.9788C651.884 62.8537 650.517 62.9422 649.138 62.3863ZM688.731 41.0108L688.641 41.2169C685.194 43.6876 681.711 44.2249 678.347 42.6999L677.87 42.4415C676.156 41.6403 673.708 39.4849 670.823 35.8595L669.818 35.1235C668.375 34.4902 667.355 34.6824 666.903 35.713C666.554 36.3957 666.952 37.5047 667.892 38.9495L667.788 39.2974C665.173 37.4124 664.181 35.7485 664.802 34.4473L665.074 33.829C665.836 32.5409 667.152 32.2331 668.931 33.1117L669.201 33.2796C670.787 33.926 672.887 35.978 675.656 39.3068C676.468 39.8104 677.073 40.2236 677.486 40.4045L678.104 40.676C680.579 41.7616 683.714 41.1209 687.651 38.7668L687.792 38.7798C688.153 39.5278 688.513 40.2759 688.731 41.0108ZM645.673 47.9845C642.825 45.5063 641.021 44.1249 640.196 43.7631C638.817 43.2072 638.03 43.2062 637.681 43.889C637.423 44.3656 637.847 45.1911 638.749 46.2749L638.671 46.3392L638.452 46.3905C636.094 44.8151 635.205 43.5896 635.503 42.6877L635.607 42.3398C635.878 41.7214 636.549 41.4258 637.542 41.5172C637.89 41.6207 638.238 41.7242 638.445 41.8147L639.476 42.2671C641.538 43.1718 643.587 45.0045 645.621 47.7653L645.673 47.9845Z" fill="#31827D"/>
<path d="M706.973 22.8525C707.779 23.1545 708.786 22.4498 709.794 20.7384L709.592 20.6377C708.786 21.3424 708.182 21.5437 707.678 21.4431C707.074 21.2417 706.872 20.6377 707.175 19.631L707.577 18.9263C709.592 16.9129 710.801 15.3021 711.103 14.1947L711.204 13.7921C711.909 11.5773 711.405 9.46318 709.592 7.55043L709.491 7.44977C709.088 7.55044 708.686 7.95312 708.182 8.35581L708.182 8.45648C709.894 10.7719 710.398 12.6847 709.995 14.1947L709.894 14.5974C709.793 14.8994 709.592 15.3021 709.29 15.8055C707.376 17.7182 706.268 19.1276 705.966 20.1343L705.865 20.3357C705.462 21.4431 705.764 22.2484 706.57 22.6511L706.973 22.8525Z" fill="#31827D"/>
<path d="M84.9722 15.4384L85.1737 16.0424L86.2817 16.8478L86.3824 17.5525C85.0729 19.4652 81.8496 21.982 76.7124 25.3041C73.5898 26.5122 72.0789 27.3176 72.1796 27.7202C72.381 28.3243 74.2949 28.9283 77.9211 29.2303C89.2028 28.3243 95.0451 28.8276 95.5487 30.7404L95.3473 31.8478C94.0378 33.9619 93.4334 35.0692 93.4334 35.2706C93.6349 35.8746 94.9444 36.076 97.6641 35.9753L98.0669 35.8746C98.5706 35.7739 98.8728 35.5726 99.0742 35.3712C101.29 33.3578 102.197 31.6464 101.895 30.4384C100.988 26.8142 94.0379 25.5055 81.0438 26.6129L80.943 26.4115L81.1445 26.3108C91.1167 21.4786 95.5487 16.7471 94.4407 12.1162L94.34 11.7135C93.6349 11.0088 91.5196 10.3041 88.1956 9.59945L87.7926 9.70011C85.5766 12.2169 84.67 14.029 84.9722 15.4384Z" fill="#31827D"/>
<path d="M135.821 39.9608L136.263 39.5021L136.463 38.1474L137.04 37.7312C139.343 38.0026 143.07 39.688 148.399 42.6938C150.919 44.8974 152.334 45.8611 152.644 45.585C153.086 45.1264 152.733 43.1518 151.317 39.8015C145.278 30.2349 143.013 24.8293 144.474 23.4957L145.549 23.16C148.031 23.338 149.293 23.3591 149.471 23.2656C149.913 22.8069 149.483 21.5542 148.132 19.1933L147.856 18.8834C147.533 18.4843 147.214 18.3103 146.942 18.2254C144.129 17.1981 142.192 17.1898 141.261 18.018C138.47 20.5027 140.536 27.2629 147.548 38.2519L147.417 38.4346L147.234 38.303C138.323 31.7178 132.072 29.9904 128.482 33.1206L128.172 33.3967C127.875 34.348 128.232 36.5476 129.15 39.8173L129.427 40.1273C132.686 40.921 134.712 40.8825 135.821 39.9608Z" fill="#31827D"/>
<path d="M23.5838 22.3017C26.2027 21.9997 27.7136 22.2011 28.2173 23.0064C28.9224 24.1138 28.1166 25.4226 25.9006 26.8319C24.4904 27.738 20.4612 29.0467 14.0145 30.7581L14.216 30.9595C20.2598 30.7581 25.0947 29.5501 28.5195 27.3353L30.3327 26.2279C30.6349 26.0266 31.1385 25.6239 31.6421 25.1205C32.7501 23.8118 33.0524 22.6038 32.3473 21.4964L32.045 20.993C31.1385 19.5836 28.318 19.6843 23.5838 21.5971L23.4831 21.9997L23.5838 22.3017Z" fill="#31827D"/>
<path d="M51.7875 27.9394C52.5933 28.2414 53.6007 27.5367 54.608 25.8253L54.4064 25.7246C53.6006 26.4293 52.9963 26.6306 52.4927 26.53C51.7876 26.3286 51.586 25.7246 51.8882 24.7179L52.2912 24.0132C54.4065 21.9998 55.5145 20.389 55.9174 19.2816L56.0182 18.879C56.7233 16.6642 56.2196 14.5501 54.4064 12.6374L54.3057 12.5367C53.9028 12.6374 53.3993 13.04 52.9963 13.4427L52.9963 13.5434C54.7087 15.8588 55.313 17.7716 54.8094 19.2816L54.7087 19.6843C54.608 19.9864 54.4065 20.389 54.1043 20.8924C52.1905 22.8051 51.0824 24.2145 50.7802 25.2213L50.6795 25.4226C50.2766 26.53 50.5787 27.3353 51.3846 27.738L51.7875 27.9394Z" fill="#31827D"/>
<path d="M527.882 14.6576L528.084 15.2616L529.192 16.067L529.293 16.7717C527.983 18.6844 524.76 21.2012 519.623 24.5234C516.5 25.7314 514.989 26.5368 515.09 26.9395C515.291 27.5435 517.205 28.1475 520.831 28.4496C532.113 27.5435 537.955 28.0469 538.459 29.9596L538.257 31.067C536.948 33.1811 536.344 34.2885 536.344 34.4898C536.545 35.0938 537.855 35.2952 540.574 35.1945L540.977 35.0938C541.481 34.9932 541.783 34.7918 541.984 34.5905C544.2 32.5771 545.107 30.8657 544.805 29.6576C543.898 26.0334 536.948 24.7247 523.954 25.8321L523.853 25.6308L524.055 25.5301C534.027 20.6979 538.459 15.9663 537.351 11.3355L537.25 10.9328C536.545 10.2281 534.43 9.52338 531.106 8.81869L530.703 8.91935C528.487 11.4361 527.58 13.2482 527.882 14.6576Z" fill="#31827D"/>
<path d="M466.84 21.3017C469.459 20.9997 470.969 21.2011 471.473 22.0064C472.178 23.1138 471.372 24.4226 469.156 25.8319C467.746 26.738 463.717 28.0467 457.27 29.7581L457.472 29.9595C463.516 29.7581 468.351 28.5501 471.775 26.3353L473.589 25.2279C473.891 25.0266 474.394 24.6239 474.898 24.1205C476.006 22.8118 476.308 21.6038 475.603 20.4964L475.301 19.993C474.394 18.5836 471.574 18.6843 466.84 20.5971L466.739 20.9997L466.84 21.3017Z" fill="#31827D"/>
<path d="M495.043 26.9394C495.849 27.2414 496.857 26.5367 497.864 24.8253L497.662 24.7246C496.856 25.4293 496.252 25.6306 495.749 25.53C495.043 25.3286 494.842 24.7246 495.144 23.7179L495.547 23.0132C497.662 20.9998 498.77 19.389 499.173 18.2816L499.274 17.879C499.979 15.6642 499.475 13.5501 497.662 11.6374L497.562 11.5367C497.159 11.6374 496.655 12.04 496.252 12.4427L496.252 12.5434C497.965 14.8588 498.569 16.7716 498.065 18.2816L497.965 18.6843C497.864 18.9864 497.662 19.389 497.36 19.8924C495.446 21.8051 494.338 23.2145 494.036 24.2213L493.935 24.4226C493.532 25.53 493.835 26.3353 494.64 26.738L495.043 26.9394Z" fill="#31827D"/>
<path d="M214.93 32.1325L214.426 31.7298L213.016 31.8305L212.512 31.4278C212.311 29.1124 213.117 25.0855 215.031 19.3473C216.743 16.4278 217.347 14.8171 216.944 14.6157C216.34 14.2131 214.628 15.0184 211.606 17.1325C203.447 24.9849 198.612 28.307 197.101 27.099L196.496 26.0922C196.194 23.6761 195.892 22.4681 195.791 22.2667C195.288 21.8641 194.079 22.5688 192.064 24.3808L191.762 24.6829C191.46 25.0855 191.359 25.3876 191.258 25.6896C190.855 28.609 191.258 30.5218 192.165 31.3271C195.187 33.5419 201.331 30.1191 210.699 21.0587L210.901 21.1594L210.8 21.3607C206.166 31.3271 205.763 37.8708 209.591 40.6896L209.893 40.9916C210.901 41.0922 212.915 40.2869 215.937 38.7768L216.239 38.4748C216.441 35.052 216.038 32.9379 214.93 32.1325Z" fill="#31827D"/>
<path d="M1101.86 0.221467C1103.37 0.926165 1105.28 -0.181226 1107.5 -3.20136L1107.4 -3.50338L1107.3 -3.50338C1105.69 -2.39599 1104.38 -1.9933 1103.47 -2.39599C1102.36 -2.89934 1102.16 -4.00673 1102.87 -5.71814C1103.37 -6.82552 1105.48 -9.14096 1109.01 -12.5638L1108.71 -12.6644C1104.48 -10.349 1101.76 -7.9329 1100.65 -5.21478L1100.04 -3.90606C1099.94 -3.60404 1099.84 -3.30202 1099.64 -2.79867C1099.64 -1.48994 1100.15 -0.583905 1101.25 -0.0805494L1101.86 0.221467Z" fill="#F5EBC3" fill-opacity="0.1"/>
<path d="M1055.07 29.4161C1055.48 28.8121 1056.08 28.1074 1056.99 27.302C1057.99 26.396 1058.6 25.9933 1058.9 26.1946C1059.1 26.2953 1059.1 26.5973 1059 27.1007C1058.8 29.4161 1060.01 31.4295 1062.63 33.2416C1065.35 35.0537 1069.48 35.6577 1074.82 35.1544C1077.54 34.8523 1083.98 33.745 1094.16 31.7315C1099.7 30.6242 1103.52 30.7248 1105.54 32.0336C1107.45 33.3423 1108.66 35.0537 1109.06 37.4698C1109.47 39.7852 1108.96 42 1107.65 44.0134C1104.83 48.2416 1100.3 51.9664 1093.95 55.1879C1093.15 55.5906 1092.54 55.5906 1092.14 55.3893C1092.04 55.3893 1092.04 55.1879 1092.14 54.9866C1092.34 54.7852 1092.75 54.3825 1093.55 53.9799C1099.6 50.557 1103.73 47.0336 1105.84 43.4094C1107.35 40.6913 1107.25 38.7785 1105.34 37.5705C1102.52 35.7584 1097.88 35.4564 1091.44 36.5638C1085.49 37.6711 1079.65 38.8792 1073.71 39.9866C1066.76 40.7919 1061.42 39.9866 1057.59 37.4698C1055.98 36.3624 1054.87 35.0537 1054.37 33.5436C1054.17 32.0335 1054.27 30.6242 1055.07 29.4161ZM1069.38 72L1069.28 71.8993C1067.36 68.0738 1067.46 64.651 1069.58 61.5302L1069.88 61.0268C1070.99 59.4161 1073.51 57.5033 1077.54 55.1879L1078.44 54.2819C1079.35 52.9732 1079.35 51.9664 1078.34 51.3624C1077.74 50.9597 1076.63 51.0604 1075.02 51.7651L1074.72 51.5638C1077.03 49.349 1078.85 48.6443 1080.05 49.4497L1080.56 49.8523C1081.67 50.8591 1081.77 52.1678 1080.66 53.7785L1080.46 53.9799C1079.55 55.3893 1077.13 57.1007 1073.41 59.2148C1072.7 59.9195 1072.2 60.4228 1072 60.8255L1071.59 61.4295C1070.08 63.6443 1070.18 66.8658 1071.79 71.094L1071.79 71.1946C1070.89 71.698 1070.08 72 1069.38 72ZM1069.88 28.5101C1072.8 26.1946 1074.51 24.5839 1075.02 23.8792C1075.82 22.5705 1075.92 21.8658 1075.32 21.3624C1074.92 21.0604 1074.01 21.2617 1072.8 22.0671L1072.7 22.0671L1072.7 21.8658C1074.61 19.8524 1076.02 19.047 1076.83 19.651L1077.13 19.8524C1077.74 20.255 1077.84 20.9597 1077.64 21.8658C1077.43 22.2685 1077.23 22.5705 1077.23 22.6711L1076.63 23.6778C1075.32 25.5906 1073.2 27.302 1070.18 28.7114L1069.88 28.5101Z" fill="#31827D"/>
<path d="M1149.15 20.4563C1149.35 21.3624 1150.46 21.8657 1152.38 21.8657L1152.38 21.6644C1151.37 21.2617 1150.87 20.859 1150.76 20.4563C1150.66 19.7516 1150.97 19.3489 1152.07 19.0469L1152.88 19.0469C1155.7 19.8523 1157.61 20.0536 1158.82 19.7516L1159.23 19.6509C1161.54 19.1476 1163.05 17.6375 1163.86 15.1207L1163.86 15.0201C1163.56 14.7181 1163.05 14.5167 1162.45 14.3154L1162.35 14.3154C1161.24 16.9328 1159.83 18.3422 1158.22 18.7449L1157.82 18.8456C1157.51 18.9463 1157.11 18.9462 1156.51 18.9462C1153.99 18.2416 1152.17 17.9395 1151.07 18.2416L1150.87 18.2416C1149.66 18.4429 1149.15 19.0469 1149.25 20.0536L1149.15 20.4563Z" fill="#31827D"/>
<path d="M1622.7 28.7923C1624.21 29.497 1626.13 28.3896 1628.34 25.3695L1628.24 25.0674L1628.14 25.0674C1626.53 26.1748 1625.22 26.5775 1624.31 26.1748C1623.21 25.6715 1623 24.5641 1623.71 22.8527C1624.21 21.7453 1626.33 19.4299 1629.85 16.007L1629.55 15.9064C1625.32 18.2218 1622.6 20.6379 1621.49 23.356L1620.89 24.6647C1620.79 24.9668 1620.69 25.2688 1620.49 25.7721C1620.49 27.0809 1620.99 27.9869 1622.1 28.4902L1622.7 28.7923Z" fill="#31827D"/>
<path d="M1649.29 27.4837C1649.49 28.3897 1650.6 28.8931 1652.52 28.8931L1652.52 28.6917C1651.51 28.289 1651.01 27.8863 1650.91 27.4837C1650.8 26.779 1651.11 26.3763 1652.21 26.0743L1653.02 26.0743C1655.84 26.8796 1657.75 27.081 1658.96 26.779L1659.37 26.6783C1661.68 26.1749 1663.19 24.6649 1664 22.1481L1664 22.0474C1663.7 21.7454 1663.19 21.5441 1662.59 21.3427L1662.49 21.3427C1661.38 23.9602 1659.97 25.3696 1658.36 25.7723L1657.96 25.8729C1657.65 25.9736 1657.25 25.9736 1656.65 25.9736C1654.13 25.2689 1652.32 24.9669 1651.21 25.2689L1651.01 25.2689C1649.8 25.4702 1649.29 26.0743 1649.39 27.081L1649.29 27.4837Z" fill="#31827D"/>
<mask id="mask1_1_4009" style="mask-type:luminance" maskUnits="userSpaceOnUse" x="251" y="-11" width="171" height="140">
<path d="M409.379 129L421.137 4.11523L263.386 -10.7199L251.628 114.165L409.379 129Z" fill="white"/>
</mask>
<g mask="url(#mask1_1_4009)">
<path d="M346.108 29.4506C347.619 28.8466 348.123 26.7325 347.518 23.0077L347.216 22.907L347.115 22.907C346.813 24.9204 346.108 26.0278 345.302 26.4305C344.093 26.9339 343.187 26.2291 342.482 24.5177C341.978 23.4104 341.777 20.2896 341.777 15.3567L341.575 15.4573C340.266 20.0882 340.266 23.7124 341.374 26.5312L341.978 27.9406C342.079 28.2426 342.28 28.6453 342.582 29.0479C343.489 29.954 344.496 30.256 345.604 29.7526L346.108 29.4506Z" fill="#31827D"/>
<path d="M426.993 60.6589C426.791 61.3636 426.489 62.169 425.885 63.2764C425.28 64.4845 424.777 65.0885 424.374 64.9878C424.172 64.8871 423.971 64.6858 423.971 64.1824C423.467 61.867 421.654 60.3569 418.532 59.5516C415.409 58.6455 411.279 59.3502 406.343 61.565C403.926 62.6724 398.184 65.7932 389.018 70.9274C384.082 73.7462 380.456 74.8536 378.139 74.2495C375.923 73.6455 374.211 72.3368 373.103 70.2227C371.995 68.1086 371.692 65.8938 372.398 63.5784C373.707 58.6455 376.93 53.7126 381.866 48.6791C382.471 48.0751 383.075 47.773 383.478 47.8737C383.579 47.8737 383.578 47.9744 383.578 48.2764C383.478 48.5784 383.176 49.0818 382.571 49.6858C377.938 54.82 375.117 59.4509 374.211 63.5784C373.606 66.5985 374.311 68.4106 376.527 69.0147C379.751 69.82 384.284 68.7126 390.025 65.5918C395.263 62.6724 400.501 59.6522 405.739 56.8334C412.085 53.914 417.424 53.0079 421.856 54.1153C423.769 54.6187 425.18 55.5247 426.187 56.8335C427.094 57.9408 427.396 59.2496 426.993 60.6589ZM400.098 24.82L400.3 24.9207C403.322 27.9408 404.329 31.263 403.221 34.8871L403.019 35.4912C402.516 37.3032 400.702 40.0214 397.58 43.4442L396.976 44.5516C396.573 46.1623 396.875 47.0683 397.983 47.3704C398.688 47.5717 399.695 47.0683 401.005 45.961L401.408 46.0616C399.897 48.8804 398.386 50.0885 396.976 49.6858L396.371 49.4845C394.961 48.8804 394.558 47.6724 395.062 45.7596L395.162 45.4576C395.565 43.8469 397.278 41.4308 400.199 38.2093C400.602 37.3033 400.904 36.6992 401.105 36.1959L401.307 35.4912C402.012 32.8737 400.904 29.8536 398.084 26.3301L398.084 26.2294C398.688 25.5247 399.393 25.0214 400.098 24.82ZM413.294 66.2965C411.279 69.4173 410.171 71.4308 409.869 72.3368C409.466 73.7462 409.667 74.5516 410.373 74.7529C410.876 74.9542 411.581 74.4509 412.589 73.3435L412.689 73.3435L412.79 73.5449C411.581 76.0616 410.473 77.2697 409.567 76.9677L409.264 76.867C408.559 76.6657 408.257 76.0616 408.156 75.0549C408.156 74.6522 408.257 74.3502 408.257 74.1489L408.559 73.0415C409.164 70.8267 410.675 68.5113 413.092 66.1959L413.294 66.2965Z" fill="#31827D"/>
<path d="M313.37 27.4373C313.169 28.142 312.867 28.9473 312.262 30.0547C311.658 31.2628 311.154 31.8668 310.751 31.7661C310.55 31.6655 310.348 31.4641 310.348 30.9608C309.845 28.6453 308.032 27.1353 304.909 26.3299C301.786 25.4238 297.657 26.1285 292.721 28.3433C290.303 29.4507 284.562 32.5715 275.395 37.7057C270.46 40.5245 266.833 41.6319 264.517 41.0279C262.301 40.4238 260.588 39.1151 259.48 37.001C258.271 34.8869 258.07 32.6722 258.674 30.3567C259.984 25.4238 263.207 20.491 268.143 15.4574C268.747 14.8534 269.352 14.5514 269.754 14.652C269.855 14.652 269.956 14.7527 269.855 15.0547C269.755 15.3567 269.452 15.8601 268.848 16.4641C264.114 21.5983 261.394 26.2292 260.487 30.2561C259.883 33.2762 260.588 35.0883 262.804 35.6923C266.028 36.4977 270.56 35.3903 276.302 32.2695C281.54 29.35 286.778 26.3299 292.016 23.5111C298.362 20.5916 303.7 19.6856 308.132 20.793C310.046 21.2963 311.456 22.2024 312.464 23.5111C313.471 24.7191 313.773 26.0279 313.37 27.4373ZM286.476 -8.40165L286.677 -8.30097C289.699 -5.28084 290.706 -1.9587 289.598 1.66546L289.397 2.2695C288.893 4.08158 287.08 6.79969 283.957 10.2225L283.353 11.3299C282.95 12.9406 283.252 13.8467 284.36 14.1487C285.065 14.35 286.073 13.8467 287.382 12.7393L287.785 12.84C286.274 15.6588 284.763 16.8668 283.353 16.4641L282.749 16.2628C281.338 15.6587 280.936 14.4507 281.439 12.5379L281.54 12.2359C281.943 10.6252 283.655 8.20909 286.576 4.98762C286.979 4.08157 287.281 3.47754 287.483 2.97419L287.684 2.2695C288.389 -0.347952 287.281 -3.3681 284.461 -6.89159L284.461 -6.99226C285.065 -7.69696 285.771 -8.20031 286.476 -8.40165ZM299.671 33.0749C297.657 36.1957 296.548 38.2091 296.347 39.1151C295.944 40.5245 296.146 41.3299 296.75 41.5312C297.254 41.7326 297.959 41.2292 298.966 40.1218L299.067 40.1218L299.167 40.3232C297.959 42.84 296.851 44.048 295.944 43.746L295.642 43.6453C294.937 43.444 294.635 42.84 294.534 41.8332C294.534 41.4306 294.635 41.1285 294.635 40.9272L294.937 39.8198C295.541 37.6051 297.052 35.2896 299.47 32.9742L299.671 33.0749Z" fill="#31827D"/>
<path d="M382.772 22.102L382.973 21.9006L382.973 21.1959L383.175 20.8939C384.384 20.7932 386.398 21.2966 389.319 22.3033C390.83 23.2093 391.535 23.5114 391.737 23.31C391.938 23.008 391.535 22.102 390.528 20.4912C386.599 16.263 384.887 13.7463 385.491 13.0416L385.995 12.7395C387.204 12.6389 387.909 12.5382 387.909 12.4375C388.11 12.2362 387.808 11.5315 386.902 10.5248L386.7 10.4241C386.499 10.3234 386.297 10.2228 386.197 10.1221C384.686 9.92074 383.779 10.0214 383.376 10.5248C382.167 12.0348 383.88 15.2563 388.413 20.0885L388.312 20.1892L388.211 20.1892C383.074 17.7731 379.851 17.4711 378.34 19.3838L378.239 19.5852C378.138 20.0885 378.541 21.1959 379.347 22.706L379.548 22.8067C381.261 22.9073 382.268 22.706 382.772 22.102Z" fill="#31827D"/>
</g>
<path d="M440.093 23.7988C441.705 23.7988 443.014 21.9867 443.82 18.4633L443.619 18.2619L443.518 18.2619C442.41 19.8727 441.503 20.7787 440.496 20.7787C439.287 20.7787 438.582 19.772 438.582 17.9599C438.582 16.7518 439.59 13.8324 441.403 9.20151L441.101 9.20151C438.18 12.9263 436.669 16.3492 436.669 19.2686L436.669 20.7787C436.669 21.0807 436.769 21.4834 436.769 21.9867C437.273 23.1948 438.179 23.7988 439.388 23.7988L440.093 23.7988Z" fill="#31827D"/>
<path d="M620.749 21.8453C622.361 23.9593 622.864 25.3687 622.461 26.2748C621.857 27.3822 620.346 27.3822 618.029 26.1741C616.518 25.3687 613.396 22.5499 608.662 17.9191L608.561 18.2211C611.784 23.3553 615.209 26.9795 618.835 28.7916L620.648 29.7983C620.95 29.9996 621.555 30.201 622.26 30.4023C623.972 30.7043 625.181 30.4023 625.785 29.1942L626.088 28.6909C626.894 27.1808 625.383 24.7647 621.353 21.6439L620.95 21.7446L620.749 21.8453Z" fill="#31827D"/>
<path d="M572.6 22.3489C574.111 23.0536 576.025 21.9462 578.241 18.9261L578.14 18.6241L578.039 18.6241C576.327 19.7314 575.118 20.1341 574.212 19.7315C573.104 19.2281 572.902 18.1207 573.607 16.4093C574.111 15.3019 576.226 12.9865 579.752 9.56366L579.45 9.463C575.219 11.7784 572.499 14.1945 571.391 16.9127L570.787 18.2214C570.686 18.5234 570.586 18.8254 570.384 19.3288C570.384 20.6375 570.888 21.5435 571.996 22.0469L572.6 22.3489Z" fill="#31827D"/>
<path d="M1717.94 21.6444L1717.23 22.3491L1716.93 24.6646L1716.02 25.4699C1712.2 25.1679 1705.75 22.6511 1696.78 17.8189C1692.45 14.1948 1690.04 12.7854 1689.53 13.2887C1688.73 14.0941 1689.53 17.2149 1692.05 22.8525C1702.73 38.4565 1706.86 47.4162 1704.44 49.631L1702.63 50.3357C1698.5 50.235 1696.38 50.235 1696.08 50.4364C1695.37 51.1411 1696.18 53.3558 1698.6 57.1813L1699.1 57.6847C1699.71 58.2887 1700.21 58.5907 1700.61 58.7921C1705.35 60.3021 1708.57 60.2015 1710.08 58.7921C1714.61 54.4632 1710.68 43.2887 1698.4 25.3693L1698.6 25.1679L1698.8 25.3693C1714.01 35.8391 1724.59 38.2552 1730.43 32.8189L1730.93 32.3156C1731.33 30.6042 1730.63 27.0807 1728.92 21.7451L1728.41 21.2417C1723.18 19.933 1719.65 20.0337 1717.94 21.6444Z" fill="#31827D"/>
<path d="M1543.93 31.9128C1544.13 31.2081 1544.54 30.4027 1545.04 29.2953C1545.64 28.0873 1546.25 27.4832 1546.55 27.5839C1546.75 27.6846 1546.95 27.8859 1546.95 28.3893C1547.46 30.7047 1549.27 32.2148 1552.29 33.1208C1555.42 34.0269 1559.55 33.3222 1564.48 31.2081C1566.9 30.1007 1572.74 27.0806 1581.91 21.9463C1586.84 19.2282 1590.57 18.1208 1592.89 18.7249C1595.1 19.3289 1596.81 20.6376 1597.92 22.8524C1599.03 24.9665 1599.23 27.1812 1598.63 29.4967C1597.22 34.4295 1593.99 39.3624 1589.06 44.396C1588.45 45 1587.85 45.2014 1587.45 45.1007C1587.35 45.1007 1587.25 45 1587.35 44.698C1587.45 44.396 1587.75 43.8926 1588.35 43.2886C1593.09 38.1544 1595.91 33.5235 1596.81 29.4967C1597.52 26.4765 1596.71 24.6645 1594.6 24.0604C1591.38 23.2551 1586.84 24.2618 1581 27.2819C1575.66 30.2014 1570.42 33.1208 1565.19 35.9396C1558.84 38.8591 1553.5 39.6645 1549.07 38.4564C1547.16 37.953 1545.75 37.047 1544.74 35.7383C1543.83 34.6309 1543.53 33.3222 1543.93 31.9128ZM1570.52 68.0537L1570.32 67.953C1567.4 64.9329 1566.39 61.6108 1567.5 57.9866L1567.7 57.3826C1568.21 55.5705 1570.02 52.953 1573.24 49.5302L1573.85 48.4228C1574.25 46.8121 1573.95 45.9061 1572.84 45.604C1572.14 45.4027 1571.13 45.9061 1569.82 47.0134L1569.42 46.9128C1570.93 44.094 1572.44 42.8859 1573.85 43.2886L1574.45 43.4899C1575.86 44.094 1576.27 45.302 1575.76 47.2148L1575.66 47.5168C1575.16 49.1275 1573.45 51.5436 1570.52 54.6644C1570.12 55.5705 1569.82 56.1745 1569.62 56.6779L1569.42 57.3826C1568.71 59.8993 1569.72 63.0202 1572.64 66.5436L1572.64 66.6443C1571.93 67.349 1571.23 67.8524 1570.52 68.0537ZM1557.73 26.4765C1559.75 23.3557 1560.96 21.3423 1561.16 20.4363C1561.56 19.0269 1561.36 18.2215 1560.75 18.0202C1560.25 17.8188 1559.55 18.3222 1558.54 19.4295L1558.44 19.4295L1558.34 19.2282C1559.55 16.7114 1560.65 15.6041 1561.66 15.8054L1561.96 15.9061C1562.67 16.1074 1562.97 16.7114 1563.07 17.7181C1563.07 18.1208 1562.97 18.4228 1562.87 18.6242L1562.57 19.7316C1561.96 21.9463 1560.45 24.2618 1557.93 26.5772L1557.73 26.4765Z" fill="#31827D"/>
</g>
</svg>
