<svg width="1920" height="30" viewBox="0 0 1920 30" fill="none" xmlns="http://www.w3.org/2000/svg">
<mask id="mask0_1_26376" style="mask-type:luminance" maskUnits="userSpaceOnUse" x="0" y="0" width="1920" height="30">
<path d="M1920 0H0V30H1920V0Z" fill="white"/>
</mask>
<g mask="url(#mask0_1_26376)">
<path d="M440.938 3.62408C439.427 4.2281 438.924 6.34221 439.427 10.067L439.729 10.1677H439.83C440.233 8.15428 440.837 7.04689 441.643 6.64421C442.852 6.14085 443.759 6.84556 444.464 8.55697C444.967 9.66435 445.169 12.7851 445.169 17.718L445.37 17.6174C446.68 12.9865 446.68 9.36234 445.572 6.54355L444.967 5.13414C444.867 4.83213 444.665 4.42945 444.363 4.02677C443.456 3.12073 442.449 2.81872 441.341 3.32207L440.938 3.62408Z" fill="#31827D"/>
<path d="M374.761 -27.6847C374.963 -28.3894 375.265 -29.1947 375.869 -30.3021C376.473 -31.5102 376.977 -32.1142 377.38 -32.0135C377.581 -31.9129 377.783 -31.7115 377.783 -31.2082C378.287 -28.8927 380.1 -27.3827 383.222 -26.5773C386.345 -25.6712 390.475 -26.3759 395.411 -28.5907C397.828 -29.6981 403.57 -32.8189 412.736 -37.9531C417.672 -40.7719 421.298 -41.8793 423.615 -41.2753C425.831 -40.6712 427.543 -39.3625 428.651 -37.2484C429.759 -35.1343 430.061 -32.9196 429.356 -30.6041C428.047 -25.6712 424.823 -20.7384 419.888 -15.7048C419.283 -15.1008 418.679 -14.7988 418.276 -14.8994C418.175 -14.8994 418.075 -15.0001 418.175 -15.3021C418.276 -15.6041 418.578 -16.1075 419.183 -16.7115C423.816 -21.8457 426.637 -26.4766 427.543 -30.6041C428.148 -33.6243 427.442 -35.4363 425.226 -36.0404C422.003 -36.8457 417.47 -35.7384 411.729 -32.6176C406.491 -29.6981 401.253 -26.678 396.015 -23.8592C389.669 -20.9397 384.33 -20.0337 379.898 -21.141C377.984 -21.6444 376.574 -22.5504 375.567 -23.8592C374.66 -24.8659 374.358 -26.2753 374.761 -27.6847ZM401.656 8.25492L401.454 8.15425C398.432 5.13411 397.425 1.81197 398.533 -1.81219L398.735 -2.41623C399.238 -4.22831 401.051 -6.94642 404.174 -10.3692L404.778 -11.4766C405.181 -13.0874 404.879 -13.9934 403.771 -14.2954C403.066 -14.4968 402.059 -13.9934 400.749 -12.886L400.346 -12.9867C401.857 -15.8055 403.368 -17.0135 404.778 -16.6108L405.383 -16.4095C406.793 -15.8055 407.196 -14.5974 406.692 -12.6847L406.591 -12.3827C406.189 -10.7719 404.476 -8.35582 401.555 -5.13434C401.152 -4.2283 400.85 -3.62428 400.648 -3.12092L400.447 -2.41623C399.742 0.201225 400.85 3.22137 403.67 6.74486V6.84553C403.066 7.44956 402.361 7.95291 401.656 8.25492ZM388.46 -33.2216C390.475 -36.3424 391.583 -38.3558 391.885 -39.2618C392.288 -40.6712 392.086 -41.4766 391.381 -41.678C390.878 -41.8793 390.173 -41.3759 389.165 -40.2686H389.065L388.964 -40.4699C390.173 -42.9867 391.281 -44.1947 392.187 -43.8927L392.489 -43.792C393.194 -43.5907 393.497 -42.9867 393.597 -41.98C393.597 -41.5773 393.497 -41.2753 393.497 -41.0739L393.194 -39.9666C392.59 -37.7518 391.079 -35.4363 388.662 -33.1209L388.46 -33.2216Z" fill="#31827D"/>
<path d="M473.576 -2.41628C473.777 -3.12098 474.08 -3.92634 474.684 -5.03372C475.288 -6.24178 475.792 -6.8458 476.195 -6.74513C476.396 -6.64446 476.598 -6.44313 476.598 -5.93977C477.101 -3.62434 478.915 -2.11426 482.037 -1.30889C485.16 -0.402853 489.29 -1.10755 494.225 -3.32232C496.643 -4.4297 502.384 -7.55051 511.551 -12.6847C516.487 -15.5035 520.113 -16.6109 522.43 -16.0069C524.646 -15.4029 526.358 -14.0941 527.466 -11.98C528.675 -9.86594 528.876 -7.65117 528.171 -5.33574C526.862 -0.402853 523.638 4.53004 518.703 9.56359C518.098 10.1676 517.494 10.4696 517.091 10.369C516.99 10.369 516.889 10.2683 516.99 9.96627C517.091 9.66426 517.393 9.16091 517.998 8.55688C522.732 3.42265 525.451 -1.20822 526.358 -5.23506C526.962 -8.25519 526.257 -10.0673 524.041 -10.6713C520.818 -11.4767 516.285 -10.3693 510.544 -7.24848C505.306 -4.32902 500.068 -1.30889 494.83 1.5099C488.484 4.42937 483.145 5.3354 478.713 4.22802C476.799 3.72466 475.389 2.81863 474.382 1.5099C473.576 0.301849 473.274 -1.00689 473.576 -2.41628ZM500.571 33.4226L500.37 33.322C497.348 30.3018 496.341 26.9797 497.449 23.3555L497.65 22.7515C498.154 20.9394 499.967 18.2213 503.09 14.7985L503.694 13.6911C504.097 12.0804 503.795 11.1743 502.687 10.8723C501.982 10.671 500.974 11.1743 499.665 12.2817L499.262 12.181C500.773 9.36224 502.284 8.1542 503.694 8.55688L504.298 8.75822C505.709 9.36225 506.111 10.5703 505.608 12.483L505.507 12.7851C505.104 14.3958 503.392 16.8119 500.471 20.0334C500.068 20.9394 499.766 21.5434 499.564 22.0468L499.363 22.7515C498.657 25.3689 499.765 28.3891 502.586 31.9126V32.0133C501.982 32.718 501.276 33.2213 500.571 33.4226ZM487.376 -8.05386C489.39 -11.1747 490.498 -13.1881 490.801 -14.0941C491.204 -15.5035 491.002 -16.3089 490.297 -16.5102C489.793 -16.7116 489.088 -16.2082 488.081 -15.1008H487.98L487.879 -15.3022C489.088 -17.819 490.196 -19.027 491.103 -18.725L491.405 -18.6243C492.11 -18.423 492.412 -17.819 492.513 -16.8122C492.513 -16.4096 492.412 -16.1075 492.412 -15.9062L492.11 -14.7988C491.506 -12.5841 489.995 -10.2686 487.577 -7.95319L487.376 -8.05386Z" fill="#31827D"/>
<path d="M986.992 12.9865L986.69 12.4832L985.481 11.8792L985.179 11.2751C986.086 9.16104 988.705 5.93956 993.036 1.71138C995.857 -0.100705 997.166 -1.20809 996.965 -1.61077C996.662 -2.2148 994.648 -2.31548 991.022 -1.91279C980.143 1.30868 974.3 2.01339 973.495 0.301986L973.394 -0.805403C974.2 -3.12084 974.603 -4.32889 974.502 -4.53023C974.2 -5.03359 972.79 -5.03359 970.171 -4.32889L969.768 -4.12755C969.365 -3.92621 969.063 -3.72487 968.861 -3.42286C967.149 -1.00675 966.645 0.805338 967.149 2.01339C968.861 5.43621 975.811 5.23486 988.302 1.40936L988.403 1.6107L988.201 1.71138C979.438 8.45634 976.114 14.0939 978.229 18.3221L978.43 18.7248C979.337 19.2281 981.452 19.5302 984.877 19.5302L985.28 19.3288C986.992 16.3087 987.597 14.2953 986.992 12.9865Z" fill="#31827D"/>
<path d="M1087.95 -6.45933L1087.84 -5.88302L1088.34 -4.62653L1088.16 -3.9753C1086.07 -3.0074 1081.97 -2.35872 1075.92 -2.10421C1072.61 -2.63882 1070.89 -2.68906 1070.77 -2.25491C1070.6 -1.60368 1072.03 -0.183718 1074.99 1.93769C1085.24 6.80365 1090.06 10.1799 1089.52 11.9914L1088.85 12.8827C1086.7 14.0676 1085.6 14.6976 1085.54 14.9147C1085.43 15.491 1086.48 16.4325 1088.9 17.6567L1089.33 17.7758C1089.76 17.895 1090.12 17.9469 1090.48 17.8567C1093.36 17.2021 1094.95 16.1899 1095.38 14.9547C1096.4 11.2644 1091.09 6.77387 1079.24 1.28137L1079.3 1.06427L1079.52 1.12386C1090.55 1.95559 1096.79 -0.0201998 1098.04 -4.57881L1098.16 -5.01297C1097.82 -5.9928 1096.45 -7.62984 1093.9 -9.91639L1093.47 -10.0355C1090.17 -8.93144 1088.38 -7.8367 1087.95 -6.45933Z" fill="#31827D"/>
<path d="M1036.25 11.3759C1033.73 12.1813 1032.22 12.2819 1031.51 11.5772C1030.61 10.6712 1031.11 9.2618 1032.92 7.34904C1034.13 6.14099 1037.76 4.02689 1043.7 1.00676L1043.5 0.80542C1037.56 2.31549 1033.13 4.42958 1030.31 7.34904L1028.79 8.75843C1028.49 9.06045 1028.19 9.46313 1027.69 10.0672C1026.88 11.5772 1026.88 12.7853 1027.79 13.792L1028.19 14.2953C1029.4 15.5034 1032.12 14.7987 1036.35 11.9799L1036.45 11.5772L1036.25 11.3759Z" fill="#31827D"/>
<path d="M947.506 -26.9798C947.909 -26.4764 948.413 -25.671 948.916 -24.5636C949.521 -23.3556 949.722 -22.5502 949.42 -22.3489C949.219 -22.2482 948.916 -22.2482 948.513 -22.4496C946.398 -23.3556 944.081 -22.8522 941.563 -20.8388C939.045 -18.8254 937.131 -15.1006 936.023 -9.86566C935.419 -7.24821 934.613 -0.805265 933.404 9.66453C932.8 15.3021 931.49 18.9263 929.576 20.4364C927.763 21.8458 925.648 22.4498 923.331 22.1478C920.914 21.8457 918.899 20.7384 917.489 18.8256C914.266 14.8994 912.15 9.36252 910.941 2.41621C910.841 1.51017 910.941 1.00682 911.244 0.704807C911.344 0.604136 911.445 0.604141 911.647 0.805485C911.848 1.00683 912.05 1.61084 912.15 2.41621C913.46 9.26185 915.676 14.1947 918.395 17.3155C920.511 19.631 922.425 20.0337 924.137 18.6243C926.655 16.5102 928.468 12.1813 929.375 5.73837C930.08 -0.201233 930.785 -6.2415 931.591 -12.1811C932.9 -19.0267 935.318 -23.859 938.944 -26.7784C940.455 -27.9865 942.067 -28.6912 943.678 -28.6912C945.29 -28.6912 946.6 -28.0871 947.506 -26.9798ZM902.48 -26.3757L902.682 -26.4764C906.912 -27.0804 910.136 -25.973 912.452 -22.9529L912.855 -22.4496C914.064 -20.9395 915.071 -17.9194 916.079 -13.3892L916.683 -12.2818C917.69 -10.973 918.597 -10.671 919.503 -11.4764C920.108 -11.9798 920.309 -13.0871 920.108 -14.6979L920.41 -14.9999C921.82 -12.0804 921.921 -10.1677 920.813 -9.26163L920.309 -8.85895C919 -8.05358 917.791 -8.45627 916.582 -9.96634L916.381 -10.1677C915.374 -11.4764 914.366 -14.2952 913.56 -18.5234C913.057 -19.4294 912.755 -20.0334 912.452 -20.4361L912.049 -20.9395C910.337 -23.0536 907.315 -23.9596 902.682 -23.6576L902.581 -23.7583C902.38 -24.8657 902.379 -25.671 902.48 -26.3757ZM943.88 -12.6845C945.189 -9.16097 946.197 -7.14754 946.801 -6.34217C947.808 -5.23479 948.513 -4.8321 949.017 -5.23479C949.42 -5.5368 949.42 -6.44284 949.118 -7.85224H949.319C950.629 -5.43613 950.931 -3.82539 950.125 -3.22136L949.823 -3.02002C949.319 -2.61734 948.614 -2.61733 947.708 -3.22136C947.405 -3.52337 947.204 -3.72472 947.103 -3.82539L946.398 -4.73143C944.988 -6.54351 943.981 -9.06029 943.578 -12.4831L943.88 -12.6845Z" fill="#31827D"/>
<path d="M1016.4 5.13426C1015.5 5.03359 1014.69 5.93964 1014.09 7.85239H1014.29C1014.99 7.04702 1015.5 6.64433 1016 6.64433C1016.71 6.745 1017.01 7.24836 1016.91 8.25507L1016.71 9.06044C1015.1 11.4765 1014.29 13.2886 1014.19 14.4967V14.8994C1013.99 17.2148 1014.89 19.2282 1017.11 20.7383H1017.21C1017.51 20.5369 1017.92 20.1343 1018.32 19.5302V19.4296C1016.2 17.5168 1015.2 15.8054 1015.4 14.1947L1015.5 13.792C1015.5 13.49 1015.6 13.0873 1015.8 12.4833C1017.21 10.2685 1018.12 8.65776 1018.22 7.55038V7.34904C1018.32 6.14098 1017.92 5.43628 1017.01 5.23494L1016.4 5.13426Z" fill="#31827D"/>
<path d="M871.606 18.5705C869.087 19.3758 867.576 19.4765 866.871 18.7718C865.965 17.8658 866.468 16.4564 868.281 14.5436C869.49 13.3356 873.116 11.2215 879.059 8.20134L878.858 8C872.915 9.51007 868.483 11.6242 865.662 14.5436L864.152 15.953C863.849 16.255 863.547 16.6577 863.044 17.2617C862.238 18.7718 862.238 19.9799 863.144 20.9866L863.547 21.4899C864.756 22.698 867.476 21.9933 871.706 19.1745L871.807 18.7718L871.606 18.5705Z" fill="#31827D"/>
<path d="M759.457 -31.2886C759.86 -30.7852 760.364 -29.9799 760.868 -28.8725C761.472 -27.6644 761.673 -26.8591 761.371 -26.6577C761.17 -26.5571 760.868 -26.5571 760.465 -26.7584C758.349 -27.6644 756.033 -27.1611 753.514 -25.1477C750.996 -23.1342 749.082 -19.4094 747.974 -14.1745C747.37 -11.5571 746.564 -5.1141 745.355 5.35569C744.751 10.9933 743.441 14.6175 741.528 16.1275C739.714 17.5369 737.599 18.1409 735.282 17.8389C732.865 17.5369 730.85 16.4295 729.44 14.5168C726.217 10.5906 724.101 5.05368 722.893 -1.89263C722.792 -2.79867 722.893 -3.30202 723.195 -3.60403C723.296 -3.7047 723.396 -3.7047 723.598 -3.50335C723.799 -3.30201 724.001 -2.69799 724.101 -1.89263C725.411 4.95301 727.627 9.8859 730.347 13.0067C732.462 15.3221 734.376 15.7248 736.088 14.3154C738.606 12.2013 740.42 7.87248 741.326 1.42953C742.031 -4.51007 742.736 -10.5503 743.542 -16.4899C744.852 -23.3356 747.269 -28.1678 750.895 -31.0873C752.406 -32.2953 754.018 -33 755.63 -33C757.241 -33 758.551 -32.396 759.457 -31.2886ZM714.431 -30.6846L714.633 -30.7852C718.863 -31.3893 722.087 -30.2819 724.404 -27.2617L724.807 -26.7584C726.015 -25.2483 727.023 -22.2282 728.03 -17.698L728.634 -16.5906C729.642 -15.2819 730.548 -14.9799 731.455 -15.7852C732.059 -16.2886 732.26 -17.396 732.059 -19.0067L732.361 -19.3087C733.771 -16.3893 733.872 -14.4765 732.764 -13.5705L732.26 -13.1678C730.951 -12.3624 729.742 -12.7651 728.533 -14.2752L728.332 -14.4765C727.325 -15.7852 726.317 -18.604 725.512 -22.8322C725.008 -23.7383 724.706 -24.3423 724.404 -24.745L724.001 -25.2483C722.288 -27.3624 719.266 -28.2685 714.633 -27.9664L714.532 -28.0671C714.331 -29.1745 714.331 -29.9799 714.431 -30.6846ZM755.831 -16.9933C757.141 -13.4698 758.148 -11.4564 758.752 -10.651C759.76 -9.54363 760.465 -9.14094 760.968 -9.54362C761.371 -9.84564 761.371 -10.7517 761.069 -12.1611H761.27C762.58 -9.74497 762.882 -8.13423 762.076 -7.5302L761.774 -7.32886C761.27 -6.92618 760.565 -6.92617 759.659 -7.5302C759.357 -7.83221 759.155 -8.03356 759.054 -8.13423L758.349 -9.04027C756.939 -10.8523 755.932 -13.3691 755.529 -16.7919L755.831 -16.9933Z" fill="#31827D"/>
<path d="M829.358 13.3154C828.451 13.2147 827.645 14.1208 827.041 16.0335H827.242C827.948 15.2282 828.451 14.8255 828.955 14.8255C829.66 14.9261 829.962 15.4295 829.861 16.4362L829.66 17.2416C828.048 19.6577 827.242 21.4698 827.142 22.6778V23.0805C826.94 25.396 827.847 27.4094 830.063 28.9194H830.164C830.466 28.7181 830.869 28.3154 831.272 27.7114V27.6107C829.156 25.698 828.149 23.9866 828.35 22.3758L828.451 21.9731C828.451 21.6711 828.552 21.2684 828.753 20.6644C830.164 18.4496 831.07 16.8389 831.171 15.7315V15.5302C831.272 14.3221 830.869 13.6174 829.962 13.4161L829.358 13.3154Z" fill="#31827D"/>
<path d="M648.139 13.691L647.938 13.087L646.83 12.2816L646.729 11.5769C648.038 9.66418 651.262 7.14741 656.399 3.82526C659.522 2.61721 661.032 1.81183 660.932 1.40914C660.73 0.805117 658.816 0.201091 655.19 -0.100923C643.908 0.805118 638.066 0.301762 637.563 -1.61099L637.764 -2.71836C639.074 -4.83246 639.678 -5.93985 639.678 -6.14119C639.476 -6.74522 638.167 -6.94656 635.447 -6.84589L635.044 -6.74521C634.541 -6.64454 634.238 -6.44319 634.037 -6.24185C631.821 -4.22843 630.914 -2.51703 631.217 -1.30897C632.123 2.31519 639.074 3.62391 652.068 2.51653L652.168 2.71787L651.967 2.81855C641.995 7.65076 637.563 12.3823 638.671 17.0132L638.771 17.4159C639.476 18.1206 641.592 18.8252 644.916 19.5299L645.319 19.4293C647.535 16.9125 648.441 15.1004 648.139 13.691Z" fill="#31827D"/>
<path d="M701.929 19.1274C699.31 19.4295 697.799 19.2281 697.295 18.4228C696.59 17.3154 697.396 16.0066 699.612 14.5972C701.022 13.6912 705.051 12.3825 711.498 10.6711L711.297 10.4697C705.253 10.6711 700.418 11.8791 696.993 14.0939L695.281 15.2013C694.878 15.4026 694.475 15.8053 693.971 16.3087C692.863 17.6174 692.561 18.8254 693.266 19.9328L693.568 20.4362C694.475 21.8456 697.295 21.7449 702.029 19.8321L702.13 19.4295L701.929 19.1274Z" fill="#31827D"/>
<path d="M617.919 -31.6108C618.221 -31.0068 618.523 -30.1008 618.826 -28.8927C619.128 -27.584 619.128 -26.7786 618.826 -26.6779C618.624 -26.5773 618.322 -26.6779 617.919 -26.98C616.005 -28.2887 613.588 -28.2887 610.767 -26.8793C607.846 -25.4699 605.328 -22.1477 603.011 -17.3155C601.903 -14.8994 599.687 -8.75848 596.363 1.20797C594.55 6.54354 592.535 9.86569 590.42 10.8724C588.305 11.8791 586.189 12.0804 583.973 11.2751C581.657 10.4697 579.944 8.95965 578.937 6.84555C576.62 2.31535 575.714 -3.52357 576.016 -10.5706C576.116 -11.4766 576.318 -11.98 576.721 -12.1813C576.822 -12.282 576.922 -12.1813 577.023 -11.98C577.124 -11.6779 577.224 -11.1746 577.224 -10.2685C577.124 -3.32223 578.131 1.91265 580.246 5.63749C581.757 8.35561 583.57 9.16098 585.585 8.15427C588.506 6.6442 591.125 2.8187 593.442 -3.32224C595.356 -9.06049 597.27 -14.6981 599.284 -20.3357C602.004 -26.7786 605.429 -31.0068 609.458 -33.0202C611.271 -33.9263 612.883 -34.2283 614.494 -33.9263C616.207 -33.7249 617.315 -32.9195 617.919 -31.6108ZM573.8 -40.4699L574.001 -40.5706C578.232 -40.2685 581.254 -38.4565 582.865 -35.1343L583.067 -34.631C583.873 -32.9195 584.376 -29.6981 584.276 -25.0672L584.578 -23.8591C585.283 -22.4498 586.189 -21.9464 587.197 -22.4498C587.902 -22.7518 588.305 -23.8591 588.506 -25.5706L588.909 -25.7719C589.715 -22.6511 589.413 -20.7383 588.103 -20.1343L587.499 -19.8323C586.089 -19.3289 584.88 -19.933 584.074 -21.7451L583.973 -22.0471C583.168 -23.5571 582.865 -26.4766 582.865 -30.8055C582.563 -31.7115 582.362 -32.4162 582.16 -32.8189L581.858 -33.4229C580.649 -35.839 577.829 -37.3491 573.296 -38.0538L573.195 -38.1544C573.397 -38.9598 573.497 -39.7652 573.8 -40.4699ZM611.472 -18.3222C612.077 -14.5974 612.58 -12.3826 612.983 -11.5773C613.688 -10.2685 614.293 -9.76519 614.998 -10.0672C615.502 -10.2685 615.703 -11.1746 615.703 -12.584L615.904 -12.4833C616.71 -9.76519 616.61 -8.25512 615.804 -7.75176L615.502 -7.55042C614.897 -7.24841 614.192 -7.44976 613.487 -8.15445C613.286 -8.45647 613.084 -8.75848 612.983 -8.95983L612.48 -9.96654C611.472 -11.98 611.069 -14.6981 611.271 -18.1209L611.472 -18.3222Z" fill="#31827D"/>
<path d="M683.897 8.85897C683.091 8.55696 682.084 9.26164 681.077 10.9731L681.278 11.0737C682.084 10.369 682.688 10.1677 683.192 10.2684C683.897 10.4697 684.099 11.0737 683.696 12.0804L683.293 12.7851C681.278 14.7986 680.069 16.4093 679.667 17.5167L679.566 17.9194C678.861 20.1341 679.364 22.2482 681.177 24.161L681.278 24.2616C681.681 24.161 682.084 23.7583 682.588 23.3556V23.2549C680.875 20.9395 680.271 19.0267 680.775 17.5167L680.875 17.114C680.976 16.812 681.177 16.4093 681.48 15.9059C683.394 13.9932 684.502 12.5838 684.804 11.5771L684.904 11.3757C685.307 10.2684 685.005 9.46299 684.199 9.06031L683.897 8.85897Z" fill="#31827D"/>
<path d="M76.8552 17.5167L76.7545 16.9127L75.7472 16.0066L75.6465 15.3019C77.0567 13.4898 80.3808 11.0737 85.8201 8.15425C89.0435 7.14754 90.5544 6.44285 90.4537 6.04017C90.2522 5.43614 88.4391 4.73144 84.8129 4.22808C73.5312 4.42943 67.6889 3.52339 67.3867 1.71131L67.5881 0.603917C68.9984 -1.40951 69.7035 -2.41621 69.7035 -2.61756C69.6027 -3.22158 68.1925 -3.5236 65.5736 -3.62427L65.1707 -3.52359C64.667 -3.42292 64.3648 -3.32225 64.1634 -3.12091C61.8466 -1.20816 60.8393 0.402574 61.0407 1.61063C61.7459 5.33546 68.5954 7.04688 81.5895 6.74486V6.9462H81.3881C71.2144 11.1744 66.4801 15.6039 67.286 20.3355L67.3867 20.7381C68.0918 21.5435 70.1064 22.3489 73.3297 23.1543L73.7326 23.0536C76.0494 20.7381 77.0567 18.9261 76.8552 17.5167Z" fill="#31827D"/>
<path d="M49.4562 -31.611C49.7584 -31.0069 49.9598 -30.1009 50.1613 -28.8929C50.4635 -27.5841 50.3627 -26.7788 50.0606 -26.6781C49.8591 -26.5774 49.5569 -26.6781 49.154 -27.0808C47.3409 -28.5908 44.9234 -28.5908 42.0022 -27.3828C38.9803 -26.0741 36.2606 -23.0539 33.7424 -18.2217C32.5337 -15.8056 29.9147 -9.86601 25.9863 -0.100914C23.871 5.13398 21.6549 8.2548 19.4389 9.26151C17.3236 10.1675 15.1075 10.1675 12.9922 9.26151C10.7761 8.35546 9.16448 6.74473 8.25792 4.52996C6.24333 -0.100906 5.63896 -6.0405 6.34406 -13.0875C6.44479 -13.9935 6.74698 -14.4969 7.1499 -14.6982C7.25063 -14.7989 7.35136 -14.6982 7.45208 -14.4969C7.55281 -14.1949 7.55281 -13.5908 7.55281 -12.7855C7.04917 -5.83917 7.75427 -0.503597 9.66813 3.22124C11.0783 6.04003 12.7907 6.94607 14.8053 6.04003C17.8272 4.73131 20.6476 1.00647 23.2666 -5.03379C25.5833 -10.5707 27.7994 -16.2083 30.1162 -21.6445C33.2388 -27.8861 36.865 -31.913 41.0957 -33.7251C42.9088 -34.5304 44.6212 -34.7318 46.1321 -34.3291C47.8445 -33.8257 48.9525 -32.9197 49.4562 -31.611ZM6.04188 -42.9868H6.24333C10.474 -42.4835 13.2944 -40.47 14.8053 -37.0472L15.0068 -36.5439C15.7119 -34.7318 16.0141 -31.611 15.7119 -26.9801L16.0141 -25.7721C16.6184 -24.262 17.525 -23.7586 18.5323 -24.1613C19.2374 -24.4633 19.7411 -25.47 19.9425 -27.1814L20.3454 -27.3828C20.9498 -24.1613 20.5469 -22.3492 19.1367 -21.7452L18.5323 -21.5439C17.1221 -21.1412 15.9133 -21.8459 15.2082 -23.658L15.1075 -23.96C14.4024 -25.47 14.3017 -28.4902 14.6039 -32.7184C14.4024 -33.6244 14.2009 -34.3291 14.1002 -34.8325L13.798 -35.4365C12.7907 -37.8526 9.97032 -39.564 5.53823 -40.5707L5.4375 -40.6714C5.4375 -41.5774 5.63896 -42.3828 6.04188 -42.9868ZM42.2037 -18.7251C42.6066 -15.0002 43.0095 -12.7855 43.3117 -11.8794C43.9161 -10.47 44.5204 -9.96667 45.2255 -10.2687C45.7292 -10.47 46.0314 -11.2754 46.0314 -12.7855L46.2328 -12.6848C46.8372 -9.96669 46.7365 -8.35595 45.8299 -7.95327L45.5277 -7.85259C44.9234 -7.55058 44.2183 -7.85258 43.6139 -8.55728C43.4124 -8.85929 43.211 -9.16131 43.211 -9.36266L42.7073 -10.3694C41.8008 -12.4835 41.4986 -15.2016 42.0022 -18.5237L42.2037 -18.7251Z" fill="#31827D"/>
<path d="M164.994 20.134C164.389 20.5366 163.583 21.04 162.475 21.4427C161.267 21.946 160.461 22.1474 160.259 21.8454C160.159 21.644 160.159 21.342 160.461 20.9393C161.468 18.8252 161.065 16.5098 159.151 13.8923C157.237 11.2749 153.611 9.26147 148.474 7.7514C145.855 7.0467 139.408 5.83864 129.134 4.12724C123.594 3.2212 120.068 1.71114 118.557 -0.201611C117.248 -2.11436 116.744 -4.22846 117.147 -6.54389C117.55 -8.96 118.86 -10.8728 120.773 -12.1815C124.903 -15.2016 130.544 -17.0137 137.595 -17.8191C138.502 -17.9197 139.005 -17.7184 139.308 -17.4164C139.408 -17.3157 139.308 -17.215 139.207 -17.0137C139.005 -16.8124 138.401 -16.7117 137.595 -16.5103C130.645 -15.5036 125.608 -13.6915 122.385 -11.0741C119.968 -9.16134 119.464 -7.2486 120.773 -5.43652C122.687 -2.81907 126.918 -0.805641 133.365 0.503084C139.308 1.5098 145.251 2.5165 151.093 3.62388C157.842 5.33529 162.576 8.05341 165.296 11.6776C166.404 13.2883 167.008 14.899 166.907 16.5098C166.807 18.0199 166.202 19.2279 164.994 20.134ZM166.807 -24.7654L166.907 -24.564C167.31 -20.3358 166.001 -17.1144 162.878 -15.0003L162.375 -14.6983C160.763 -13.5909 157.741 -12.6848 153.107 -11.9801L151.899 -11.4768C150.589 -10.5707 150.186 -9.56403 150.891 -8.65799C151.294 -8.05397 152.402 -7.75195 154.115 -7.85262L154.316 -7.55061C151.294 -6.34255 149.381 -6.34255 148.575 -7.55061L148.172 -8.05396C147.467 -9.36269 147.87 -10.6714 149.481 -11.7788L149.683 -11.9801C151.093 -12.9868 153.913 -13.7922 158.144 -14.3962C159.051 -14.7989 159.655 -15.1009 160.058 -15.403L160.662 -15.8056C162.878 -17.3157 163.886 -20.4365 163.886 -24.9667L163.986 -25.0674C165.296 -24.9667 166.202 -24.9667 166.807 -24.7654ZM150.891 15.8051C147.366 17.0131 145.251 17.8185 144.445 18.3219C143.236 19.2279 142.833 19.9326 143.236 20.5366C143.538 20.9393 144.445 21.04 145.855 20.8386V21.04C143.337 22.248 141.725 22.4494 141.121 21.644L140.919 21.342C140.516 20.738 140.617 20.1339 141.221 19.3286C141.524 19.0266 141.826 18.8252 141.927 18.7245L142.833 18.0199C144.646 16.7111 147.265 15.8051 150.69 15.6038L150.891 15.8051Z" fill="#31827D"/>
<path d="M1181.6 9.56162L1181.4 8.95761L1180.29 8.15223L1180.19 7.44754C1181.5 5.53479 1184.73 3.01801 1189.86 -0.304134C1192.99 -1.51219 1194.5 -2.31757 1194.4 -2.72025C1194.2 -3.32428 1192.28 -3.9283 1188.65 -4.23032C1177.37 -3.32428 1171.53 -3.82763 1171.03 -5.74038L1171.23 -6.84776C1172.54 -8.96185 1173.14 -10.0692 1173.14 -10.2706C1172.94 -10.8746 1171.63 -11.076 1168.91 -10.9753L1168.51 -10.8746C1168.01 -10.7739 1167.7 -10.5726 1167.5 -10.3712C1165.29 -8.35782 1164.38 -6.64642 1164.68 -5.43837C1165.59 -1.81421 1172.54 -0.50548 1185.53 -1.61286L1185.63 -1.41152L1185.43 -1.31085C1175.46 3.52137 1171.03 8.2529 1172.14 12.8838L1172.24 13.2865C1173.04 13.9912 1175.06 14.6959 1178.38 15.4006L1178.78 15.2999C1180.9 12.7831 1181.91 10.971 1181.6 9.56162Z" fill="#31827D"/>
<path d="M1231.06 17.416C1228.44 17.718 1226.93 17.5167 1226.43 16.7113C1225.72 15.6039 1226.53 14.2952 1228.74 12.8858C1230.15 11.9798 1234.18 10.671 1240.63 8.95964L1240.43 8.7583C1234.38 8.95964 1229.55 10.1677 1226.12 12.3825L1224.31 13.4898C1224.01 13.6912 1223.5 14.0939 1223 14.5972C1221.89 15.906 1221.59 17.114 1222.3 18.2214L1222.6 18.7247C1223.5 20.1341 1226.32 20.0335 1231.06 18.1207L1231.16 17.718L1231.06 17.416Z" fill="#31827D"/>
<path d="M1165.42 -28.0403C1165.73 -27.4362 1166.03 -26.5302 1166.33 -25.3221C1166.63 -24.0134 1166.63 -23.2081 1166.33 -23.1074C1166.13 -23.0067 1165.83 -23.1074 1165.42 -23.4094C1163.51 -24.7181 1161.09 -24.7181 1158.27 -23.3087C1155.35 -21.8993 1152.83 -18.5772 1150.52 -13.745C1149.41 -11.3289 1147.19 -5.18792 1143.87 4.77852C1142.06 10.1141 1140.04 13.4362 1137.93 14.443C1135.81 15.4497 1133.69 15.651 1131.48 14.8456C1129.16 14.0403 1127.45 12.5302 1126.44 10.4161C1124.13 5.88591 1123.22 0.0469818 1123.52 -7C1123.62 -7.90604 1123.82 -8.4094 1124.23 -8.61074C1124.33 -8.71141 1124.43 -8.61074 1124.53 -8.4094C1124.63 -8.10738 1124.73 -7.60403 1124.73 -6.69799C1124.63 0.248318 1125.64 5.48321 1127.75 9.20805C1129.26 11.9262 1131.08 12.7315 1133.09 11.7248C1136.01 10.2148 1138.63 6.38926 1140.95 0.248322C1142.86 -5.48993 1144.77 -11.1275 1146.79 -16.7651C1149.51 -23.2081 1152.93 -27.4362 1156.96 -29.4497C1158.78 -30.3557 1160.39 -30.6577 1162 -30.3557C1163.61 -30.1544 1164.72 -29.349 1165.42 -28.0403ZM1121.3 -36.8993L1121.51 -37C1125.74 -36.698 1128.76 -34.8859 1130.37 -31.5638L1130.57 -31.0604C1131.38 -29.349 1131.88 -26.1275 1131.78 -21.4966L1132.08 -20.2886C1132.79 -18.8792 1133.69 -18.3758 1134.7 -18.8792C1135.41 -19.1812 1135.81 -20.2886 1136.01 -22L1136.31 -22.2013C1137.12 -19.0805 1136.82 -17.1678 1135.51 -16.5638L1134.9 -16.2617C1133.49 -15.7584 1132.28 -16.3624 1131.48 -18.1745L1131.38 -18.4765C1130.57 -19.9866 1130.27 -22.906 1130.27 -27.2349C1129.97 -28.1409 1129.77 -28.8456 1129.56 -29.2483L1129.26 -29.8524C1128.05 -32.2685 1125.23 -33.7785 1120.7 -34.4832L1120.6 -34.5839C1120.8 -35.3893 1121 -36.1946 1121.3 -36.8993ZM1158.88 -14.7517C1159.48 -11.0268 1159.98 -8.81208 1160.39 -8.00671C1161.09 -6.69798 1161.7 -6.19463 1162.4 -6.49664C1162.91 -6.69798 1163.11 -7.60402 1163.11 -9.01342H1163.21L1163.41 -8.91275C1164.22 -6.19463 1164.11 -4.68457 1163.31 -4.18121L1163.01 -3.97987C1162.4 -3.67785 1161.7 -3.8792 1160.99 -4.5839C1160.79 -4.88591 1160.59 -5.18792 1160.49 -5.38926L1159.98 -6.39597C1158.98 -8.4094 1158.57 -11.1275 1158.78 -14.5503L1158.88 -14.7517Z" fill="#31827D"/>
<path d="M1270.86 -32.3861C1271.48 -32.1146 1272.29 -31.611 1273.3 -30.8751C1274.37 -30.0618 1274.88 -29.4425 1274.71 -29.172C1274.62 -28.9659 1274.33 -28.8502 1273.82 -28.825C1271.52 -28.6086 1269.66 -27.0641 1268.39 -24.1783C1267.04 -21.2282 1267.23 -17.0647 1268.54 -11.8686C1269.24 -9.30272 1271.46 -3.16463 1275.28 6.62313C1277.3 11.8845 1277.87 15.7263 1276.89 17.8519C1275.91 19.9776 1274.41 21.4839 1272.19 22.2804C1269.89 23.1413 1267.61 23.0741 1265.48 22.092C1260.8 20.0885 1256.37 16.1777 1252.1 10.5657C1251.6 9.80457 1251.43 9.28873 1251.61 8.87648C1251.62 8.73471 1251.76 8.74782 1251.97 8.83829C1252.24 9.00618 1252.64 9.32884 1253.22 10.0256C1257.59 15.4315 1261.71 18.8135 1265.72 20.3263C1268.62 21.4512 1270.53 20.9121 1271.43 18.8509C1272.71 15.8233 1272.28 11.2083 1270.13 5.00584C1267.94 -0.629544 1265.8 -6.18746 1263.74 -11.8098C1261.71 -18.5019 1261.64 -23.9415 1263.45 -28.064C1264.27 -29.9191 1265.32 -31.1811 1266.75 -31.9785C1268.12 -32.8534 1269.48 -32.942 1270.86 -32.3861ZM1231.27 -11.0106L1231.36 -11.2167C1234.81 -13.6874 1238.29 -14.2246 1241.65 -12.6997L1242.13 -12.4413C1243.84 -11.6401 1246.29 -9.48466 1249.18 -5.85925L1250.18 -5.1233C1251.63 -4.48999 1252.64 -4.68211 1253.1 -5.71275C1253.45 -6.39548 1253.05 -7.50449 1252.11 -8.94925L1252.21 -9.29718C1254.83 -7.41219 1255.82 -5.74821 1255.2 -4.44709L1254.93 -3.82873C1254.16 -2.54068 1252.85 -2.23288 1251.07 -3.11148L1250.8 -3.27938C1249.21 -3.92575 1247.11 -5.97771 1244.34 -9.30652C1243.53 -9.81018 1242.93 -10.2233 1242.51 -10.4043L1241.9 -10.6757C1239.42 -11.7614 1236.29 -11.1206 1232.35 -8.76651L1232.21 -8.77951C1231.85 -9.52753 1231.49 -10.2756 1231.27 -11.0106ZM1274.33 -17.9842C1277.17 -15.506 1278.98 -14.1247 1279.8 -13.7628C1281.18 -13.2069 1281.97 -13.206 1282.32 -13.8887C1282.58 -14.3653 1282.15 -15.1908 1281.25 -16.2746L1281.33 -16.339L1281.55 -16.3902C1283.91 -14.8149 1284.79 -13.5893 1284.5 -12.6874L1284.39 -12.3396C1284.12 -11.7212 1283.45 -11.4255 1282.46 -11.5169C1282.11 -11.6205 1281.76 -11.724 1281.56 -11.8145L1280.52 -12.2668C1278.46 -13.1716 1276.41 -15.0043 1274.38 -17.7651L1274.33 -17.9842Z" fill="#31827D"/>
<path d="M1213.03 7.14754C1212.22 6.84553 1211.22 7.55023 1210.21 9.26164L1210.41 9.36232C1211.22 8.65762 1211.82 8.45628 1212.32 8.55695C1212.93 8.75829 1213.13 9.36232 1212.83 10.369L1212.42 11.0737C1210.41 13.0871 1209.2 14.6979 1208.9 15.8053L1208.8 16.2079C1208.09 18.4227 1208.6 20.5368 1210.41 22.4496L1210.51 22.5502C1210.91 22.4496 1211.32 22.0469 1211.82 21.6442V21.5435C1210.11 19.2281 1209.6 17.3153 1210.01 15.8053L1210.11 15.4026C1210.21 15.1006 1210.41 14.6979 1210.71 14.1945C1212.63 12.2818 1213.73 10.8724 1214.04 9.86568L1214.14 9.66432C1214.54 8.55694 1214.24 7.75158 1213.43 7.3489L1213.03 7.14754Z" fill="#31827D"/>
<path d="M1835.03 14.5616L1834.83 13.9576L1833.72 13.1522L1833.62 12.4475C1834.93 10.5348 1838.15 8.01801 1843.29 4.69587C1846.41 3.48781 1847.92 2.68243 1847.82 2.27975C1847.62 1.67572 1845.71 1.0717 1842.08 0.769683C1830.8 1.67572 1824.95 1.17237 1824.45 -0.740384L1824.65 -1.84776C1825.96 -3.96185 1826.57 -5.06924 1826.57 -5.27058C1826.37 -5.87461 1825.06 -6.07595 1822.34 -5.97528L1821.93 -5.87461C1821.43 -5.77394 1821.13 -5.57259 1820.93 -5.37125C1818.71 -3.35782 1817.8 -1.64642 1818.11 -0.438368C1819.01 3.18579 1825.96 4.49452 1838.96 3.38714L1839.06 3.58848L1838.86 3.68915C1828.88 8.52137 1824.45 13.2529 1825.56 17.8838L1825.66 18.2865C1826.37 18.9912 1828.48 19.6959 1831.8 20.4006L1832.21 20.2999C1834.42 17.7831 1835.33 15.971 1835.03 14.5616Z" fill="#31827D"/>
<path d="M1784.18 -9.96106L1783.74 -9.50231L1783.54 -8.14765L1782.96 -7.73143C1780.66 -8.00288 1776.93 -9.68821 1771.6 -12.694C1769.08 -14.8976 1767.67 -15.8614 1767.36 -15.5853C1766.91 -15.1266 1767.27 -13.152 1768.68 -9.80172C1774.72 -0.235096 1776.99 5.17044 1775.53 6.50407L1774.45 6.83974C1771.97 6.66174 1770.71 6.64068 1770.53 6.73413C1770.09 7.19282 1770.52 8.44555 1771.87 10.8064L1772.14 11.1163C1772.47 11.5154 1772.79 11.6895 1773.06 11.7744C1775.87 12.8017 1777.81 12.8099 1778.74 11.9817C1781.53 9.49707 1779.46 2.7369 1772.45 -8.25218L1772.58 -8.43489L1772.77 -8.30321C1781.68 -1.71808 1787.93 0.00933175 1791.52 -3.12089L1791.83 -3.39695C1792.13 -4.34822 1791.77 -6.54786 1790.85 -9.81757L1790.57 -10.1276C1787.31 -10.9212 1785.29 -10.8827 1784.18 -9.96106Z" fill="#31827D"/>
<path d="M1896.42 7.69801C1893.8 8.00002 1892.29 7.79868 1891.78 6.99331C1891.08 5.88593 1891.88 4.5772 1894.1 3.16781C1895.51 2.26177 1899.54 0.953032 1905.99 -0.758378L1905.78 -0.959717C1899.74 -0.758375 1894.91 0.449685 1891.48 2.66445L1889.67 3.77182C1889.37 3.97317 1888.86 4.37586 1888.36 4.87921C1887.25 6.18794 1886.95 7.396 1887.65 8.50338L1887.95 9.00673C1888.86 10.4161 1891.68 10.3155 1896.42 8.4027L1896.52 8.00002L1896.42 7.69801Z" fill="#31827D"/>
<path d="M1868.21 2.06063C1867.41 1.75862 1866.4 2.46332 1865.39 4.17473L1865.59 4.27539C1866.4 3.57069 1867 3.36936 1867.51 3.47003C1868.21 3.67138 1868.41 4.27539 1868.11 5.2821L1867.71 5.98681C1865.59 8.00023 1864.49 9.61097 1864.08 10.7184L1863.98 11.121C1863.28 13.3358 1863.78 15.4499 1865.59 17.3626L1865.69 17.4633C1866.1 17.3626 1866.6 16.96 1867 16.5573V16.4566C1865.29 14.1412 1864.69 12.2284 1865.19 10.7184L1865.29 10.3157C1865.39 10.0136 1865.59 9.61096 1865.9 9.10761C1867.81 7.19486 1868.92 5.78546 1869.22 4.77875L1869.32 4.57741C1869.72 3.47002 1869.42 2.66465 1868.62 2.26197L1868.21 2.06063Z" fill="#31827D"/>
<path d="M1392.12 15.3421L1391.92 14.7381L1390.81 13.9328L1390.71 13.2281C1392.02 11.3153 1395.24 8.79853 1400.38 5.47638C1403.5 4.26833 1405.01 3.46295 1404.91 3.06027C1404.71 2.45624 1402.79 1.85221 1399.17 1.5502C1387.89 2.45624 1382.04 1.95288 1381.54 0.0401335L1381.74 -1.06724C1383.05 -3.18133 1383.66 -4.28873 1383.66 -4.49007C1383.45 -5.09409 1382.15 -5.29543 1379.43 -5.19476L1379.02 -5.09409C1378.52 -4.99342 1378.22 -4.79207 1378.02 -4.59073C1375.8 -2.57731 1374.89 -0.865904 1375.2 0.34215C1376.1 3.96631 1383.05 5.27504 1396.05 4.16765L1396.15 4.36899L1395.95 4.46967C1385.97 9.30189 1381.54 14.0334 1382.65 18.6643L1382.75 19.067C1383.45 19.7717 1385.57 20.4764 1388.89 21.1811L1389.3 21.0804C1391.51 18.5636 1392.42 16.7515 1392.12 15.3421Z" fill="#31827D"/>
<path d="M1453.16 8.69801C1450.54 9.00002 1449.03 8.79868 1448.53 7.99331C1447.82 6.88593 1448.63 5.5772 1450.84 4.16781C1452.25 3.26177 1456.28 1.95303 1462.73 0.241622L1462.53 0.0402832C1456.48 0.241625 1451.65 1.44969 1448.22 3.66445L1446.41 4.77182C1446.11 4.97317 1445.61 5.37586 1445.1 5.87921C1443.99 7.18794 1443.69 8.396 1444.4 9.50338L1444.7 10.0067C1445.61 11.4161 1448.43 11.3155 1453.16 9.4027L1453.26 9.00002L1453.16 8.69801Z" fill="#31827D"/>
<path d="M1424.96 3.06063C1424.15 2.75862 1423.14 3.46332 1422.14 5.17473L1422.34 5.27539C1423.14 4.57069 1423.75 4.36936 1424.25 4.47003C1424.96 4.67138 1425.16 5.27539 1424.86 6.2821L1424.45 6.98681C1422.34 9.00023 1421.23 10.611 1420.83 11.7184L1420.73 12.121C1420.02 14.3358 1420.52 16.4499 1422.34 18.3626L1422.44 18.4633C1422.84 18.3626 1423.34 17.96 1423.75 17.5573V17.4566C1422.04 15.1412 1421.43 13.2284 1421.93 11.7184L1422.04 11.3157C1422.14 11.0136 1422.34 10.611 1422.64 10.1076C1424.55 8.19486 1425.66 6.78546 1425.96 5.77875L1426.06 5.57741C1426.47 4.47002 1426.17 3.66465 1425.36 3.26197L1424.96 3.06063Z" fill="#31827D"/>
<path d="M1705.07 -2.13251L1705.57 -1.72983L1706.98 -1.8305L1707.49 -1.42782C1707.69 0.887618 1706.88 4.91446 1704.97 10.6527C1703.26 13.5722 1702.65 15.1829 1703.06 15.3843C1703.66 15.7869 1705.37 14.9816 1708.39 12.8675C1716.55 5.01513 1721.39 1.69299 1722.9 2.90104L1723.5 3.90775C1723.81 6.32386 1724.11 7.53192 1724.21 7.73326C1724.71 8.13595 1725.92 7.43124 1727.94 5.61916L1728.24 5.31714C1728.54 4.91446 1728.64 4.61245 1728.74 4.31043C1729.14 1.39097 1728.74 -0.521772 1727.84 -1.32714C1724.81 -3.54191 1718.67 -0.11909 1709.3 8.94131L1709.1 8.84064L1709.2 8.6393C1713.83 -1.32715 1714.24 -7.87077 1710.41 -10.6896L1710.11 -10.9916C1709.1 -11.0922 1707.08 -10.2869 1704.06 -8.77681L1703.76 -8.4748C1703.56 -5.05198 1703.96 -2.93788 1705.07 -2.13251Z" fill="#31827D"/>
<path d="M818.142 29.7785C816.631 29.0738 814.717 30.1812 812.501 33.2014L812.602 33.5034H812.703C814.314 32.396 815.624 31.9933 816.53 32.396C817.638 32.8993 817.84 34.0067 817.135 35.7181C816.631 36.8255 814.516 39.141 810.99 42.5638L811.292 42.6644C815.523 40.349 818.243 37.9329 819.351 35.2148L819.955 33.9061C820.056 33.604 820.157 33.302 820.358 32.7987C820.358 31.4899 819.854 30.5839 818.746 30.0805L818.142 29.7785Z" fill="#F5EBC3" fill-opacity="0.1"/>
<path d="M864.927 0.583885C864.524 1.18791 863.92 1.89262 863.013 2.69799C862.006 3.60403 861.402 4.00672 861.099 3.80537C860.898 3.7047 860.898 3.40268 860.999 2.89933C861.2 0.583889 859.991 -1.42952 857.372 -3.2416C854.653 -5.05368 850.523 -5.65772 845.184 -5.15437C842.464 -4.85235 836.018 -3.74496 825.844 -1.73154C820.304 -0.624157 816.476 -0.724831 814.462 -2.03355C812.548 -3.34228 811.339 -5.05369 810.936 -7.4698C810.533 -9.78523 811.037 -12 812.346 -14.0134C815.167 -18.2416 819.7 -21.9664 826.046 -25.1879C826.851 -25.5906 827.456 -25.5906 827.859 -25.3893C827.959 -25.3893 827.959 -25.1879 827.859 -24.9866C827.657 -24.7852 827.254 -24.3825 826.448 -23.9799C820.405 -20.557 816.275 -17.0336 814.16 -13.4094C812.649 -10.6913 812.749 -8.77852 814.663 -7.57047C817.484 -5.75838 822.117 -5.45637 828.564 -6.56376C834.507 -7.67114 840.349 -8.87919 846.292 -9.98658C853.242 -10.7919 858.581 -9.98658 862.409 -7.4698C864.021 -6.36242 865.129 -5.05369 865.632 -3.54362C865.834 -2.03355 865.733 -0.624168 864.927 0.583885ZM850.624 -42L850.724 -41.8993C852.638 -38.0738 852.537 -34.651 850.422 -31.5302L850.12 -31.0268C849.012 -29.4161 846.494 -27.5034 842.464 -25.1879L841.558 -24.2819C840.651 -22.9732 840.651 -21.9664 841.659 -21.3624C842.263 -20.9597 843.371 -21.0604 844.983 -21.7651L845.285 -21.5638C842.968 -19.349 841.155 -18.6443 839.946 -19.4497L839.443 -19.8524C838.335 -20.8591 838.234 -22.1678 839.342 -23.7785L839.543 -23.9799C840.45 -25.3893 842.867 -27.1007 846.594 -29.2148C847.299 -29.9195 847.803 -30.4228 848.005 -30.8255L848.408 -31.4295C849.918 -33.6443 849.818 -36.8658 848.206 -41.094V-41.1946C849.113 -41.698 849.918 -42 850.624 -42ZM850.12 1.48994C847.199 3.80537 845.486 5.4161 844.983 6.1208C844.177 7.42952 844.076 8.13422 844.681 8.63758C845.083 8.93959 845.99 8.73825 847.199 7.93288H847.299V8.13422C845.386 10.1476 843.975 10.953 843.17 10.349L842.867 10.1476C842.263 9.74496 842.162 9.04026 842.364 8.13422C842.565 7.73154 842.767 7.42953 842.767 7.32887L843.371 6.32215C844.681 4.4094 846.796 2.69799 849.818 1.2886L850.12 1.48994Z" fill="#31827D"/>
<path d="M770.847 9.54368C770.646 8.63764 769.538 8.13428 767.624 8.13428V8.33563C768.631 8.73832 769.135 9.141 769.235 9.54368C769.336 10.2484 769.034 10.6511 767.926 10.9531H767.12C764.3 10.1477 762.386 9.94636 761.177 10.2484L760.774 10.3491C758.457 10.8524 756.946 12.3625 756.141 14.8793V14.9799C756.443 15.2819 756.946 15.4833 757.551 15.6846H757.652C758.76 13.0672 760.17 11.6578 761.781 11.2551L762.184 11.1544C762.487 11.0537 762.889 11.0537 763.494 11.0537C766.012 11.7584 767.825 12.0605 768.933 11.7584H769.135C770.343 11.5571 770.847 10.9531 770.746 9.94636L770.847 9.54368Z" fill="#31827D"/>
<path d="M297.3 1.20798C295.789 0.503279 293.875 1.61066 291.659 4.63079L291.76 4.93281H291.861C293.472 3.82542 294.782 3.42275 295.689 3.82543C296.797 4.32879 296.998 5.43616 296.293 7.14757C295.789 8.25495 293.674 10.5704 290.148 13.9932L290.451 14.0939C294.681 11.7784 297.401 9.36233 298.509 6.64421L299.113 5.3355C299.214 5.03349 299.315 4.73147 299.516 4.22811C299.516 2.91939 299.013 2.01335 297.905 1.50999L297.3 1.20798Z" fill="#31827D"/>
<path d="M270.706 2.51658C270.505 1.61054 269.397 1.10718 267.483 1.10718V1.30853C268.49 1.71122 268.994 2.1139 269.095 2.51658C269.196 3.22128 268.893 3.62396 267.785 3.92597H266.98C264.159 3.1206 262.245 2.91926 261.036 3.22128L260.634 3.32195C258.317 3.82531 256.806 5.33538 256 7.85216V7.95282C256.302 8.25483 256.806 8.45617 257.41 8.65751H257.511C258.619 6.04006 260.029 4.63067 261.641 4.22799L262.044 4.12731C262.346 4.02664 262.749 4.02665 263.353 4.02665C265.871 4.73135 267.685 5.03336 268.793 4.73134H268.994C270.203 4.53 270.706 3.92597 270.606 2.91926L270.706 2.51658Z" fill="#31827D"/>
<mask id="mask1_1_26376" style="mask-type:luminance" maskUnits="userSpaceOnUse" x="1498" y="-99" width="171" height="140">
<path d="M1510.62 -99L1498.86 25.8845L1656.61 40.7197L1668.37 -84.1649L1510.62 -99Z" fill="white"/>
</mask>
<g mask="url(#mask1_1_26376)">
<path d="M1573.89 0.549368C1572.38 1.1534 1571.88 3.2675 1572.48 6.99233L1572.78 7.09299H1572.88C1573.19 5.07957 1573.89 3.97219 1574.7 3.5695C1575.91 3.06615 1576.81 3.77085 1577.52 5.48226C1578.02 6.58965 1578.22 9.71044 1578.22 14.6433L1578.42 14.5427C1579.73 9.91179 1579.73 6.28763 1578.63 3.46884L1578.02 2.05944C1577.92 1.75742 1577.72 1.35475 1577.42 0.952062C1576.51 0.0460217 1575.5 -0.255989 1574.4 0.247367L1573.89 0.549368Z" fill="#31827D"/>
<path d="M1493.01 -30.6587C1493.21 -31.3634 1493.51 -32.1688 1494.12 -33.2762C1494.72 -34.4842 1495.22 -35.0882 1495.63 -34.9876C1495.83 -34.8869 1496.03 -34.6856 1496.03 -34.1822C1496.53 -31.8668 1498.35 -30.3567 1501.47 -29.5513C1504.59 -28.6453 1508.72 -29.35 1513.66 -31.5647C1516.07 -32.6721 1521.82 -35.7929 1530.98 -40.9272C1535.92 -43.746 1539.54 -44.8533 1541.86 -44.2493C1544.08 -43.6453 1545.79 -42.3366 1546.9 -40.2225C1548.01 -38.1084 1548.31 -35.8936 1547.6 -33.5782C1546.29 -28.6453 1543.07 -23.7124 1538.13 -18.6788C1537.53 -18.0748 1536.93 -17.7728 1536.52 -17.8735C1536.42 -17.8735 1536.42 -17.9741 1536.42 -18.2762C1536.52 -18.5782 1536.82 -19.0815 1537.43 -19.6855C1542.06 -24.8198 1544.88 -29.4507 1545.79 -33.5782C1546.39 -36.5983 1545.69 -38.4104 1543.47 -39.0144C1540.25 -39.8198 1535.72 -38.7124 1529.97 -35.5916C1524.74 -32.6721 1519.5 -29.652 1514.26 -26.8332C1507.92 -23.9137 1502.58 -23.0077 1498.14 -24.1151C1496.23 -24.6184 1494.82 -25.5245 1493.81 -26.8332C1492.91 -27.9406 1492.6 -29.2493 1493.01 -30.6587ZM1519.9 5.18022L1519.7 5.07954C1516.68 2.05941 1515.67 -1.26274 1516.78 -4.8869L1516.98 -5.49092C1517.48 -7.30301 1519.3 -10.0211 1522.42 -13.4439L1523.02 -14.5513C1523.43 -16.1621 1523.13 -17.0681 1522.02 -17.3701C1521.31 -17.5715 1520.3 -17.0681 1519 -15.9607L1518.59 -16.0614C1520.1 -18.8802 1521.61 -20.0882 1523.02 -19.6855L1523.63 -19.4842C1525.04 -18.8802 1525.44 -17.6721 1524.94 -15.7594L1524.84 -15.4574C1524.43 -13.8466 1522.72 -11.4305 1519.8 -8.20905C1519.4 -7.30301 1519.1 -6.69898 1518.89 -6.19563L1518.69 -5.49092C1517.99 -2.87347 1519.1 0.14666 1521.92 3.67015V3.77082C1521.31 4.47552 1520.61 4.97887 1519.9 5.18022ZM1506.71 -36.2963C1508.72 -39.4171 1509.83 -41.4305 1510.13 -42.3366C1510.53 -43.746 1510.33 -44.5513 1509.63 -44.7527C1509.12 -44.954 1508.42 -44.4506 1507.41 -43.3433H1507.31L1507.21 -43.5446C1508.42 -46.0614 1509.53 -47.2694 1510.43 -46.9674L1510.74 -46.8668C1511.44 -46.6654 1511.74 -46.0614 1511.84 -45.0547C1511.84 -44.652 1511.74 -44.35 1511.74 -44.1486L1511.44 -43.0413C1510.84 -40.8265 1509.33 -38.5111 1506.91 -36.1956L1506.71 -36.2963Z" fill="#31827D"/>
<path d="M1606.63 2.56272C1606.83 1.85802 1607.13 1.05266 1607.74 -0.054719C1608.34 -1.26277 1608.85 -1.8668 1609.25 -1.76613C1609.45 -1.66546 1609.65 -1.46412 1609.65 -0.960768C1610.16 1.35467 1611.97 2.86474 1615.09 3.67011C1618.21 4.57615 1622.34 3.87145 1627.28 1.65669C1629.7 0.549305 1635.44 -2.5715 1644.6 -7.70573C1649.54 -10.5245 1653.17 -11.6319 1655.48 -11.0279C1657.7 -10.4238 1659.41 -9.11512 1660.52 -7.00103C1661.73 -4.88694 1661.93 -2.67217 1661.33 -0.356735C1660.02 4.57615 1656.79 9.50904 1651.86 14.5426C1651.25 15.1466 1650.65 15.4486 1650.25 15.348C1650.14 15.348 1650.04 15.2473 1650.14 14.9453C1650.25 14.6433 1650.55 14.1399 1651.15 13.5359C1655.89 8.40166 1658.61 3.77079 1659.51 -0.256058C1660.12 -3.27619 1659.41 -5.08828 1657.2 -5.69231C1653.97 -6.49768 1649.44 -5.39029 1643.7 -2.26949C1638.46 0.649975 1633.22 3.67011 1627.98 6.4889C1621.64 9.40837 1616.3 10.3144 1611.87 9.20702C1609.95 8.70367 1608.54 7.79763 1607.54 6.4889C1606.53 5.28085 1606.23 3.97212 1606.63 2.56272ZM1633.52 38.4016L1633.32 38.301C1630.3 35.2808 1629.29 31.9587 1630.4 28.3345L1630.6 27.7305C1631.11 25.9184 1632.92 23.2003 1636.04 19.7775L1636.65 18.6701C1637.05 17.0594 1636.75 16.1533 1635.64 15.8513C1634.93 15.65 1633.93 16.1533 1632.62 17.2607L1632.21 17.16C1633.73 14.3412 1635.24 13.1332 1636.65 13.5359L1637.25 13.7372C1638.66 14.3412 1639.06 15.5493 1638.56 17.4621L1638.46 17.7641C1638.06 19.3748 1636.34 21.7909 1633.42 25.0124C1633.02 25.9184 1632.72 26.5225 1632.52 27.0258L1632.32 27.7305C1631.61 30.3479 1632.72 33.3681 1635.54 36.8916V36.9923C1634.93 37.697 1634.23 38.2003 1633.52 38.4016ZM1620.33 -3.07485C1622.34 -6.19566 1623.45 -8.20908 1623.65 -9.11512C1624.06 -10.5245 1623.85 -11.3299 1623.25 -11.5312C1622.75 -11.7326 1622.04 -11.2292 1621.03 -10.1218H1620.93L1620.83 -10.3232C1622.04 -12.84 1623.15 -14.048 1624.06 -13.746L1624.36 -13.6453C1625.06 -13.444 1625.37 -12.84 1625.47 -11.8332C1625.47 -11.4306 1625.37 -11.1285 1625.37 -10.9272L1625.06 -9.81982C1624.46 -7.60506 1622.95 -5.28962 1620.53 -2.97418L1620.33 -3.07485Z" fill="#31827D"/>
<path d="M1537.23 7.89829L1537.03 8.09963V8.80434L1536.83 9.10634C1535.62 9.20701 1533.6 8.70366 1530.68 7.69695C1529.17 6.79091 1528.46 6.48889 1528.26 6.69024C1528.06 6.99225 1528.46 7.89829 1529.47 9.50903C1533.4 13.7372 1535.11 16.254 1534.51 16.9587L1534 17.2607C1532.8 17.3614 1532.09 17.462 1532.09 17.5627C1531.89 17.7641 1532.19 18.4688 1533.1 19.4755L1533.3 19.5761C1533.5 19.6768 1533.7 19.7775 1533.8 19.8782C1535.31 20.0795 1536.22 19.9788 1536.62 19.4755C1537.83 17.9654 1536.12 14.7439 1531.59 9.91171L1531.69 9.81105H1531.79C1536.93 12.2272 1540.15 12.5292 1541.66 10.6164L1541.76 10.4151C1541.86 9.91171 1541.46 8.80434 1540.65 7.29427L1540.45 7.19359C1538.74 7.09292 1537.73 7.29426 1537.23 7.89829Z" fill="#31827D"/>
</g>
<path d="M1479.91 6.20142C1478.29 6.20142 1476.99 8.0135 1476.18 11.537L1476.38 11.7383H1476.48C1477.59 10.1276 1478.5 9.22155 1479.5 9.22155C1480.71 9.22155 1481.42 10.2283 1481.42 12.0403C1481.42 13.2484 1480.41 16.1679 1478.6 20.7987H1478.9C1481.82 17.0739 1483.33 13.6511 1483.33 10.7316V9.22155C1483.33 8.91954 1483.23 8.51686 1483.23 8.0135C1482.73 6.80545 1481.82 6.20142 1480.61 6.20142H1479.91Z" fill="#31827D"/>
<path d="M1299.25 8.1545C1297.64 6.04041 1297.14 4.63102 1297.54 3.72498C1298.14 2.61759 1299.65 2.6176 1301.97 3.82565C1303.48 4.63102 1306.6 7.44981 1311.34 12.0807L1311.44 11.7787C1308.22 6.64444 1304.79 3.02028 1301.16 1.2082L1299.35 0.201487C1299.05 0.000144422 1298.45 -0.201204 1297.74 -0.402546C1296.03 -0.70456 1294.82 -0.402534 1294.21 0.80552L1293.91 1.30888C1293.11 2.81894 1294.62 5.23505 1298.65 8.35585L1299.05 8.25518L1299.25 8.1545Z" fill="#31827D"/>
<path d="M1347.4 7.65109C1345.89 6.94639 1343.98 8.05378 1341.76 11.0739L1341.86 11.3759H1341.96C1343.67 10.2686 1344.88 9.86586 1345.79 10.2685C1346.9 10.7719 1347.1 11.8793 1346.39 13.5907C1345.89 14.6981 1343.77 17.0135 1340.25 20.4363L1340.55 20.537C1344.78 18.2216 1347.5 15.8055 1348.61 13.0873L1349.21 11.7786C1349.31 11.4766 1349.41 11.1746 1349.62 10.6712C1349.62 9.3625 1349.11 8.45646 1348 7.95311L1347.4 7.65109Z" fill="#31827D"/>
<path d="M202.062 8.35558L202.767 7.65086L203.069 5.33544L203.975 4.53007C207.803 4.83208 214.25 7.34885 223.215 12.1811C227.546 15.8052 229.964 17.2146 230.467 16.7113C231.273 15.9059 230.467 12.7851 227.949 7.14751C217.272 -8.45652 213.142 -17.4162 215.559 -19.631L217.372 -20.3357C221.502 -20.235 223.618 -20.235 223.92 -20.4364C224.625 -21.1411 223.819 -23.3558 221.402 -27.1813L220.898 -27.6847C220.294 -28.2887 219.79 -28.5907 219.387 -28.7921C214.653 -30.3022 211.429 -30.2015 209.918 -28.7921C205.386 -24.4632 209.314 -13.2887 221.603 4.63073L221.402 4.83208L221.2 4.63073C205.99 -5.83907 195.413 -8.25517 189.571 -2.81893L189.068 -2.31557C188.665 -0.60416 189.37 2.91933 191.082 8.2549L191.586 8.75825C196.824 10.067 200.349 9.96631 202.062 8.35558Z" fill="#31827D"/>
<path d="M376.07 -1.91278C375.868 -1.20808 375.465 -0.402706 374.962 0.704678C374.357 1.91273 373.753 2.51675 373.451 2.41608C373.249 2.31541 373.048 2.11407 373.048 1.61071C372.544 -0.704727 370.731 -2.21479 367.709 -3.12083C364.587 -4.02687 360.457 -3.32216 355.521 -1.20807C353.104 -0.100685 347.261 2.91945 338.095 8.05367C333.159 10.7718 329.432 11.8792 327.115 11.2751C324.899 10.6711 323.187 9.36239 322.079 7.14762C320.971 5.03353 320.77 2.81878 321.374 0.503338C322.784 -4.42955 326.007 -9.36244 330.943 -14.396C331.548 -15 332.152 -15.2014 332.555 -15.1007C332.656 -15.1007 332.756 -15 332.656 -14.698C332.555 -14.396 332.253 -13.8926 331.648 -13.2886C326.914 -8.15438 324.094 -3.52351 323.187 0.503338C322.482 3.52347 323.288 5.33554 325.403 5.93957C328.626 6.74494 333.159 5.73823 339.002 2.7181C344.34 -0.201366 349.578 -3.12083 354.816 -5.93962C361.162 -8.85909 366.501 -9.66446 370.933 -8.4564C372.847 -7.95305 374.257 -7.047 375.264 -5.73827C376.171 -4.63089 376.473 -3.32218 376.07 -1.91278ZM349.477 -38.0537L349.679 -37.953C352.6 -34.9329 353.607 -31.6108 352.499 -27.9866L352.298 -27.3826C351.794 -25.5705 349.981 -22.953 346.758 -19.5302L346.153 -18.4228C345.75 -16.8121 346.053 -15.9061 347.161 -15.604C347.866 -15.4027 348.873 -15.9061 350.182 -17.0134L350.585 -16.9128C349.074 -14.094 347.563 -12.8859 346.153 -13.2886L345.549 -13.49C344.139 -14.094 343.736 -15.302 344.239 -17.2148L344.34 -17.5168C344.844 -19.1275 346.556 -21.5436 349.477 -24.6644C349.88 -25.5705 350.182 -26.1745 350.384 -26.6779L350.585 -27.3826C351.29 -29.8994 350.283 -33.0202 347.362 -36.5436V-36.6443C348.067 -37.349 348.772 -37.8524 349.477 -38.0537ZM362.27 3.52347C360.255 6.64428 359.047 8.6577 358.845 9.56374C358.442 10.9731 358.644 11.7785 359.248 11.9798C359.752 12.1812 360.457 11.6778 361.464 10.5704H361.565L361.666 10.7718C360.457 13.2886 359.349 14.3959 358.342 14.1946L358.039 14.0939C357.334 13.8926 357.032 13.2886 356.931 12.2819C356.931 11.8792 357.032 11.5772 357.133 11.3758L357.435 10.2684C358.039 8.05367 359.55 5.73823 362.069 3.42279L362.27 3.52347Z" fill="#31827D"/>
</g>
</svg>
