<svg width="64" height="66" viewBox="0 0 64 66" fill="none" xmlns="http://www.w3.org/2000/svg">
<path d="M58.4646 43.2196L57.184 42.4781L53.9162 42.9746L52.5195 42.0774C51.5076 36.6553 52.5327 26.8098 55.7507 12.4248C59.0615 4.99392 60.1828 1.1314 59.2904 0.585171C57.8738 -0.176115 53.7833 2.14405 46.9789 7.8175C29.3528 28.5747 18.5707 37.6952 14.6129 35.315L12.9872 33.1352C11.6071 27.3819 10.781 24.4855 10.4127 24.1543C9.13214 23.4128 6.3454 25.3673 2.03259 30.1538L1.48519 31.0459C0.917888 32.0739 0.662437 32.8696 0.562914 33.5492C0.344002 40.7357 1.65116 45.0902 4.19243 46.7091C11.9921 51.3138 25.9059 41.6771 46.0899 17.6828L46.4781 17.878L46.2823 18.266C37.6037 43.3784 38.2308 59.0167 48.0675 64.8894L48.9599 65.4356C51.468 65.3839 56.1226 63.007 62.8837 58.5766L63.4311 57.6845C62.9135 49.8356 61.3941 45.0338 58.4646 43.2196Z" fill="#DDEDEC"/>
</svg>
