<svg width="376" height="108" viewBox="0 0 376 108" fill="none" xmlns="http://www.w3.org/2000/svg">
<g filter="url(#filter0_d_1_28273)">
<rect x="11" y="24" width="354" height="83" rx="5" fill="white"/>
<rect x="10.63" y="23.63" width="354.74" height="83.74" rx="5.37" stroke="#E7E9EB" stroke-width="0.74"/>
</g>
<path d="M150.051 60C149.181 60 148.511 59.72 148.041 59.16C147.641 58.68 147.441 58.07 147.441 57.33V51.015L148.731 50.325V57.285C148.731 58.285 149.221 58.785 150.201 58.785H151.191V60H150.051ZM153.134 51.675C152.644 51.675 152.399 51.425 152.399 50.925C152.399 50.435 152.644 50.19 153.134 50.19C153.614 50.19 153.854 50.435 153.854 50.925C153.854 51.425 153.614 51.675 153.134 51.675ZM155.504 58.785H156.494V60H155.354C154.524 60 153.869 59.735 153.389 59.205C152.909 59.735 152.254 60 151.424 60H150.284V58.785H151.274C152.254 58.785 152.744 58.285 152.744 57.285V54.18L154.034 53.49V57.285C154.034 58.285 154.524 58.785 155.504 58.785ZM162.997 58.785H166.957V60H162.877C162.337 60 161.802 59.895 161.272 59.685C160.742 59.895 160.202 60 159.652 60H155.587V58.785H159.547H159.757C159.037 58.195 158.297 57.33 157.537 56.19V55.53C158.017 54.84 158.587 54.295 159.247 53.895C159.917 53.495 160.587 53.295 161.257 53.295C161.927 53.295 162.597 53.5 163.267 53.91C163.937 54.31 164.517 54.86 165.007 55.56V56.19C164.247 57.33 163.502 58.195 162.772 58.785H162.997ZM158.737 55.875C159.657 57.135 160.502 57.965 161.272 58.365C162.042 57.955 162.887 57.12 163.807 55.86C163.057 54.95 162.207 54.49 161.257 54.48C160.307 54.48 159.467 54.945 158.737 55.875ZM168.521 55.935C168.521 55.065 168.781 54.39 169.301 53.91C169.761 53.5 170.361 53.295 171.101 53.295C172.051 53.295 172.781 53.645 173.291 54.345C173.731 54.935 173.951 55.705 173.951 56.655C173.951 57.735 173.671 58.58 173.111 59.19C172.621 59.73 171.981 60 171.191 60C170.291 60 169.606 59.75 169.136 59.25C168.656 59.75 168.011 60 167.201 60H166.061V58.785H167.051C168.031 58.785 168.521 58.285 168.521 57.285V55.935ZM169.811 57.39C169.811 58.32 170.266 58.785 171.176 58.785C171.646 58.785 172.011 58.595 172.271 58.215C172.541 57.835 172.676 57.305 172.676 56.625C172.676 55.955 172.536 55.435 172.256 55.065C171.976 54.685 171.591 54.495 171.101 54.495C170.241 54.495 169.811 54.995 169.811 55.995V57.39ZM189.171 58.785H190.161V60H189.021C188.481 60 187.996 59.88 187.566 59.64C187.426 60.67 186.961 61.48 186.171 62.07C185.471 62.59 184.606 62.85 183.576 62.85C182.236 62.85 181.201 62.4 180.471 61.5C179.911 60.8 179.631 59.965 179.631 58.995C179.631 58.145 179.836 57.42 180.246 56.82L181.536 56.535C181.076 57.245 180.846 58.02 180.846 58.86C180.846 59.69 181.111 60.37 181.641 60.9C182.131 61.39 182.776 61.635 183.576 61.635C184.486 61.635 185.186 61.365 185.676 60.825C186.096 60.365 186.306 59.775 186.306 59.055V51.015L187.611 50.325V57.285C187.611 58.285 188.131 58.785 189.171 58.785ZM193.989 58.74C194.389 57.23 195.049 55.97 195.969 54.96C196.999 53.85 198.199 53.295 199.569 53.295C200.709 53.295 201.619 53.69 202.299 54.48C202.869 55.15 203.154 55.975 203.154 56.955V57.345C203.154 58.215 202.889 58.89 202.359 59.37C201.899 59.79 201.294 60 200.544 60H194.334C193.504 60 192.849 59.735 192.369 59.205C191.889 59.735 191.234 60 190.404 60H189.264V58.785H190.254C191.234 58.785 191.724 58.285 191.724 57.285V55.185L193.014 54.495V57.285C193.014 58.125 193.339 58.61 193.989 58.74ZM201.864 57.225V56.955C201.864 56.175 201.624 55.555 201.144 55.095C200.724 54.695 200.204 54.495 199.584 54.495C198.524 54.495 197.569 54.985 196.719 55.965C196.069 56.715 195.569 57.655 195.219 58.785H200.469C201.399 58.785 201.864 58.265 201.864 57.225ZM205.551 60V51.015L206.841 50.325V60H205.551ZM216.541 58.785V60H214.681C214.641 60.86 214.271 61.57 213.571 62.13C212.981 62.59 212.311 62.82 211.561 62.82C210.941 62.82 210.356 62.675 209.806 62.385V61.245C210.336 61.525 210.861 61.665 211.381 61.665C211.911 61.665 212.371 61.5 212.761 61.17C213.161 60.84 213.366 60.445 213.376 59.985C212.856 59.965 212.471 59.945 212.221 59.925C211.141 59.865 210.326 59.5 209.776 58.83C209.316 58.27 209.086 57.545 209.086 56.655C209.086 55.565 209.376 54.715 209.956 54.105C210.476 53.565 211.161 53.295 212.011 53.295C212.901 53.295 213.586 53.56 214.066 54.09C214.476 54.56 214.681 55.175 214.681 55.935V58.785H216.541ZM213.376 56.025C213.376 55.005 212.921 54.495 212.011 54.495C211.491 54.495 211.086 54.685 210.796 55.065C210.506 55.435 210.361 55.955 210.361 56.625C210.361 57.935 211.001 58.63 212.281 58.71C212.521 58.74 212.886 58.765 213.376 58.785V56.025ZM216.801 51.675C216.311 51.675 216.066 51.425 216.066 50.925C216.066 50.435 216.311 50.19 216.801 50.19C217.281 50.19 217.521 50.435 217.521 50.925C217.521 51.425 217.281 51.675 216.801 51.675ZM218.706 51.675C218.216 51.675 217.971 51.425 217.971 50.925C217.971 50.435 218.216 50.19 218.706 50.19C219.186 50.19 219.426 50.435 219.426 50.925C219.426 51.425 219.186 51.675 218.706 51.675ZM215.646 60V58.785H216.636C217.616 58.785 218.106 58.285 218.106 57.285V54.18L219.396 53.49V57.33C219.396 58.18 219.141 58.85 218.631 59.34C218.161 59.78 217.546 60 216.786 60H215.646ZM227.81 59.205C227.81 60.325 227.515 61.225 226.925 61.905C226.365 62.555 225.62 62.88 224.69 62.88C224.09 62.88 223.505 62.73 222.935 62.43V61.305C223.445 61.585 223.955 61.725 224.465 61.725C225.105 61.725 225.605 61.51 225.965 61.08C226.325 60.65 226.505 60.055 226.505 59.295V54.18L227.81 53.49V59.205ZM233.122 60C232.252 60 231.582 59.72 231.112 59.16C230.712 58.68 230.512 58.07 230.512 57.33V51.015L231.802 50.325V57.285C231.802 58.285 232.292 58.785 233.272 58.785H234.262V60H233.122ZM233.356 60V58.785H234.706C235.676 58.785 236.161 58.285 236.161 57.285V55.185L237.451 54.495V57.285C237.451 58.285 237.941 58.785 238.921 58.785H239.611C240.591 58.785 241.081 58.285 241.081 57.285V54.675L242.371 54V57.285C242.371 58.285 242.856 58.785 243.826 58.785H244.531C245.511 58.785 246.001 58.285 246.001 57.285V54.18L247.291 53.49V57.15C247.291 58.24 247.811 58.785 248.851 58.785H250.096V60H248.746C247.846 60 247.161 59.695 246.691 59.085C246.271 59.685 245.616 59.99 244.726 60H243.691C242.811 60 242.156 59.705 241.726 59.115C241.296 59.695 240.656 59.99 239.806 60H238.771C237.911 60 237.256 59.705 236.806 59.115C236.376 59.705 235.721 60 234.841 60H233.356ZM253.886 51.765C253.396 51.765 253.151 51.515 253.151 51.015C253.151 50.525 253.396 50.28 253.886 50.28C254.366 50.28 254.606 50.525 254.606 51.015C254.606 51.515 254.366 51.765 253.886 51.765ZM255.746 58.785H258.536V60H254.876C254.486 60 254.146 59.965 253.856 59.895C253.576 59.965 253.236 60 252.836 60H249.191V58.785H251.981C251.361 58.075 251.051 57.29 251.051 56.43C251.051 55.45 251.326 54.67 251.876 54.09C252.376 53.56 253.036 53.295 253.856 53.295C254.796 53.295 255.521 53.635 256.031 54.315C256.461 54.875 256.676 55.58 256.676 56.43C256.676 57.29 256.366 58.075 255.746 58.785ZM253.871 58.65C254.331 58.49 254.706 58.2 254.996 57.78C255.286 57.35 255.431 56.88 255.431 56.37C255.431 55.79 255.286 55.335 254.996 55.005C254.716 54.665 254.336 54.495 253.856 54.495C253.376 54.495 252.991 54.665 252.701 55.005C252.421 55.345 252.281 55.8 252.281 56.37C252.281 56.87 252.431 57.335 252.731 57.765C253.031 58.195 253.411 58.49 253.871 58.65ZM259.323 51.78C258.833 51.78 258.588 51.53 258.588 51.03C258.588 50.54 258.833 50.295 259.323 50.295C259.803 50.295 260.043 50.54 260.043 51.03C260.043 51.53 259.803 51.78 259.323 51.78ZM261.243 51.78C260.753 51.78 260.508 51.53 260.508 51.03C260.508 50.54 260.753 50.295 261.243 50.295C261.723 50.295 261.963 50.54 261.963 51.03C261.963 51.53 261.723 51.78 261.243 51.78ZM262.863 58.785H263.853V60H262.713C261.883 60 261.228 59.735 260.748 59.205C260.268 59.735 259.613 60 258.783 60H257.643V58.785H258.633C259.613 58.785 260.103 58.285 260.103 57.285V54.18L261.393 53.49V57.285C261.393 58.285 261.883 58.785 262.863 58.785ZM262.946 60V58.785H264.296C265.266 58.785 265.751 58.285 265.751 57.285V55.185L267.041 54.495V57.285C267.041 58.285 267.531 58.785 268.511 58.785H269.201C270.181 58.785 270.671 58.285 270.671 57.285V54.675L271.961 54V57.285C271.961 58.285 272.446 58.785 273.416 58.785H274.121C275.101 58.785 275.591 58.285 275.591 57.285V54.18L276.881 53.49V57.33C276.881 58.18 276.626 58.845 276.116 59.325C275.666 59.765 275.066 59.99 274.316 60H273.281C272.401 60 271.746 59.705 271.316 59.115C270.886 59.695 270.246 59.99 269.396 60H268.361C267.501 60 266.846 59.705 266.396 59.115C265.966 59.705 265.311 60 264.431 60H262.946ZM287.909 58.785H288.899V60H287.759C286.899 60 286.234 59.725 285.764 59.175C285.264 59.725 284.574 60 283.694 60H278.534L279.164 58.785H281.354V52.965L282.644 52.275V58.785H283.589C284.629 58.785 285.149 58.24 285.149 57.15V51.015L286.454 50.325V57.165C286.454 57.745 286.564 58.16 286.784 58.41C287.014 58.66 287.389 58.785 287.909 58.785ZM282.869 62.025C282.649 61.855 282.439 61.77 282.239 61.77C281.869 61.77 281.684 61.935 281.684 62.265C281.684 62.435 281.754 62.605 281.894 62.775H283.259L282.914 63.42H280.439L280.784 62.775H281.189C281.089 62.595 281.039 62.405 281.039 62.205C281.039 61.915 281.149 61.66 281.369 61.44C281.589 61.23 281.849 61.125 282.149 61.125C282.399 61.125 282.639 61.205 282.869 61.365V62.025ZM287.994 60V58.785H288.789C289.829 58.785 290.349 58.24 290.349 57.15V51.015L291.654 50.325V57.165C291.654 58.055 291.389 58.76 290.859 59.28C290.359 59.76 289.704 60 288.894 60H287.994Z" fill="black"/>
<path d="M197.865 80H195.075V79.175H197.865V76.19H198.795V79.175H201.585V80H198.795V83H197.865V80ZM202.959 83V82.01L205.614 79.1C206.264 78.38 206.719 77.79 206.979 77.33C207.239 76.86 207.369 76.39 207.369 75.92C207.369 75.43 207.199 75.035 206.859 74.735C206.529 74.435 206.089 74.285 205.539 74.285C204.879 74.285 204.229 74.495 203.589 74.915L203.124 74.255C203.954 73.625 204.844 73.31 205.794 73.31C206.634 73.31 207.314 73.575 207.834 74.105C208.314 74.585 208.554 75.19 208.554 75.92C208.554 76.45 208.409 76.97 208.119 77.48C207.839 77.98 207.309 78.665 206.529 79.535L204.264 82.055H208.374V83H202.959ZM213.436 73.505V83H212.326V74.69L210.421 75.77L209.866 74.975L212.326 73.505H213.436ZM215.791 83V82.01L218.446 79.1C219.096 78.38 219.551 77.79 219.811 77.33C220.071 76.86 220.201 76.39 220.201 75.92C220.201 75.43 220.031 75.035 219.691 74.735C219.361 74.435 218.921 74.285 218.371 74.285C217.711 74.285 217.061 74.495 216.421 74.915L215.956 74.255C216.786 73.625 217.676 73.31 218.626 73.31C219.466 73.31 220.146 73.575 220.666 74.105C221.146 74.585 221.386 75.19 221.386 75.92C221.386 76.45 221.241 76.97 220.951 77.48C220.671 77.98 220.141 78.665 219.361 79.535L217.096 82.055H221.206V83H215.791ZM226.482 74.45V73.505H231.672V74.525L228.012 83H226.842L230.562 74.45H226.482ZM236.595 73.505V83H235.485V74.69L233.58 75.77L233.025 74.975L235.485 73.505H236.595ZM242.329 80.03L246.589 73.505H247.759V80.03H249.499V80.975H247.759V83H246.664V80.975H242.329V80.03ZM243.439 80.03H246.664V75.035L243.439 80.03ZM253.035 77.915C251.905 77.485 251.34 76.775 251.34 75.785C251.34 75.015 251.625 74.395 252.195 73.925C252.705 73.505 253.35 73.295 254.13 73.295C254.99 73.295 255.685 73.565 256.215 74.105C256.685 74.575 256.92 75.145 256.92 75.815C256.92 76.285 256.765 76.71 256.455 77.09C256.155 77.46 255.74 77.74 255.21 77.93C255.82 78.12 256.3 78.435 256.65 78.875C257 79.315 257.175 79.83 257.175 80.42C257.175 81.28 256.84 81.975 256.17 82.505C255.59 82.955 254.895 83.18 254.085 83.18C253.155 83.18 252.395 82.89 251.805 82.31C251.285 81.8 251.025 81.175 251.025 80.435C251.025 79.835 251.21 79.305 251.58 78.845C251.95 78.375 252.435 78.065 253.035 77.915ZM254.115 77.555C254.625 77.435 255.025 77.215 255.315 76.895C255.615 76.575 255.765 76.2 255.765 75.77C255.765 75.32 255.615 74.955 255.315 74.675C255.015 74.395 254.62 74.255 254.13 74.255C253.63 74.255 253.23 74.39 252.93 74.66C252.64 74.92 252.495 75.275 252.495 75.725C252.495 76.625 253.035 77.235 254.115 77.555ZM254.085 78.29C253.555 78.35 253.11 78.585 252.75 78.995C252.39 79.395 252.21 79.86 252.21 80.39C252.21 80.93 252.385 81.375 252.735 81.725C253.085 82.065 253.535 82.235 254.085 82.235C254.645 82.235 255.1 82.065 255.45 81.725C255.81 81.385 255.99 80.945 255.99 80.405C255.99 79.855 255.81 79.38 255.45 78.98C255.09 78.58 254.635 78.35 254.085 78.29ZM264.287 74.45H260.657V77.12C260.957 77.07 261.307 77.045 261.707 77.045C262.717 77.045 263.517 77.325 264.107 77.885C264.657 78.415 264.932 79.13 264.932 80.03C264.932 81.02 264.577 81.82 263.867 82.43C263.287 82.93 262.597 83.18 261.797 83.18C260.747 83.18 259.837 82.85 259.067 82.19L259.502 81.545C260.132 81.975 260.817 82.19 261.557 82.19C262.247 82.19 262.787 82.005 263.177 81.635C263.567 81.255 263.762 80.725 263.762 80.045C263.762 79.375 263.552 78.855 263.132 78.485C262.712 78.115 262.127 77.93 261.377 77.93C260.877 77.93 260.267 77.995 259.547 78.125V73.505H264.287V74.45ZM269.985 80.03L274.245 73.505H275.415V80.03H277.155V80.975H275.415V83H274.32V80.975H269.985V80.03ZM271.095 80.03H274.32V75.035L271.095 80.03ZM280.691 77.915C279.561 77.485 278.996 76.775 278.996 75.785C278.996 75.015 279.281 74.395 279.851 73.925C280.361 73.505 281.006 73.295 281.786 73.295C282.646 73.295 283.341 73.565 283.871 74.105C284.341 74.575 284.576 75.145 284.576 75.815C284.576 76.285 284.421 76.71 284.111 77.09C283.811 77.46 283.396 77.74 282.866 77.93C283.476 78.12 283.956 78.435 284.306 78.875C284.656 79.315 284.831 79.83 284.831 80.42C284.831 81.28 284.496 81.975 283.826 82.505C283.246 82.955 282.551 83.18 281.741 83.18C280.811 83.18 280.051 82.89 279.461 82.31C278.941 81.8 278.681 81.175 278.681 80.435C278.681 79.835 278.866 79.305 279.236 78.845C279.606 78.375 280.091 78.065 280.691 77.915ZM281.771 77.555C282.281 77.435 282.681 77.215 282.971 76.895C283.271 76.575 283.421 76.2 283.421 75.77C283.421 75.32 283.271 74.955 282.971 74.675C282.671 74.395 282.276 74.255 281.786 74.255C281.286 74.255 280.886 74.39 280.586 74.66C280.296 74.92 280.151 75.275 280.151 75.725C280.151 76.625 280.691 77.235 281.771 77.555ZM281.741 78.29C281.211 78.35 280.766 78.585 280.406 78.995C280.046 79.395 279.866 79.86 279.866 80.39C279.866 80.93 280.041 81.375 280.391 81.725C280.741 82.065 281.191 82.235 281.741 82.235C282.301 82.235 282.756 82.065 283.106 81.725C283.466 81.385 283.646 80.945 283.646 80.405C283.646 79.855 283.466 79.38 283.106 78.98C282.746 78.58 282.291 78.35 281.741 78.29ZM286.543 83V82.01L289.198 79.1C289.848 78.38 290.303 77.79 290.563 77.33C290.823 76.86 290.953 76.39 290.953 75.92C290.953 75.43 290.783 75.035 290.443 74.735C290.113 74.435 289.673 74.285 289.123 74.285C288.463 74.285 287.813 74.495 287.173 74.915L286.708 74.255C287.538 73.625 288.428 73.31 289.378 73.31C290.218 73.31 290.898 73.575 291.418 74.105C291.898 74.585 292.138 75.19 292.138 75.92C292.138 76.45 291.993 76.97 291.703 77.48C291.423 77.98 290.893 78.665 290.113 79.535L287.848 82.055H291.958V83H286.543Z" fill="black"/>
<path d="M314.861 67.3073C314.554 66.987 314.183 66.8158 313.79 66.8158C313.4 66.8158 313.026 66.9839 312.705 67.3041L311.703 68.3028C311.621 68.2584 311.539 68.2172 311.459 68.176C311.345 68.1189 311.237 68.065 311.145 68.0079C310.207 67.4119 309.354 66.6351 308.536 65.6301C308.14 65.1291 307.873 64.7074 307.68 64.2794C307.94 64.0416 308.181 63.7943 308.416 63.5566C308.504 63.4678 308.593 63.3758 308.682 63.2871C309.348 62.6213 309.348 61.7589 308.682 61.0931L307.816 60.2275C307.718 60.1292 307.617 60.0278 307.522 59.9263C307.331 59.7298 307.132 59.5268 306.925 59.3366C306.618 59.0322 306.25 58.8705 305.863 58.8705C305.477 58.8705 305.102 59.0322 304.785 59.3366C304.782 59.3398 304.782 59.3398 304.779 59.3429L303.701 60.4304C303.295 60.8363 303.064 61.3309 303.013 61.9047C302.937 62.8305 303.21 63.6929 303.419 64.2572C303.932 65.6427 304.7 66.9268 305.844 68.3028C307.233 69.961 308.904 71.2704 310.812 72.193C311.542 72.5386 312.515 72.9476 313.603 73.0173C313.669 73.0205 313.739 73.0237 313.802 73.0237C314.535 73.0237 315.15 72.7605 315.632 72.2374C315.635 72.2311 315.641 72.2279 315.644 72.2215C315.809 72.0218 315.999 71.8411 316.199 71.6477C316.336 71.5177 316.475 71.3814 316.611 71.2387C316.925 70.9121 317.09 70.5317 317.09 70.1417C317.09 69.7485 316.922 69.3713 316.602 69.0542L314.861 67.3073ZM315.996 70.6458C315.993 70.6458 315.993 70.649 315.996 70.6458C315.873 70.779 315.746 70.8994 315.609 71.0326C315.403 71.2292 315.194 71.4353 314.998 71.6667C314.677 72.0091 314.3 72.1708 313.805 72.1708C313.758 72.1708 313.707 72.1708 313.66 72.1676C312.718 72.1074 311.843 71.7396 311.187 71.4257C309.392 70.557 307.816 69.3237 306.507 67.7606C305.426 66.4576 304.703 65.2528 304.224 63.9592C303.929 63.1697 303.822 62.5547 303.869 61.9745C303.901 61.6035 304.043 61.296 304.307 61.0328L305.388 59.9517C305.543 59.8058 305.708 59.7266 305.87 59.7266C306.069 59.7266 306.231 59.8471 306.333 59.9485C306.336 59.9517 306.339 59.9549 306.342 59.958C306.535 60.1387 306.719 60.3258 306.913 60.5255C307.011 60.627 307.113 60.7285 307.214 60.8331L308.08 61.6986C308.416 62.0347 308.416 62.3454 308.08 62.6815C307.988 62.7734 307.899 62.8654 307.807 62.9542C307.541 63.2268 307.287 63.4805 307.011 63.7278C307.005 63.7341 306.998 63.7373 306.995 63.7436C306.723 64.0163 306.773 64.2826 306.83 64.4633C306.834 64.4728 306.837 64.4823 306.84 64.4918C307.065 65.0372 307.382 65.5508 307.864 66.1627L307.867 66.1659C308.742 67.2438 309.665 68.084 310.682 68.7276C310.812 68.8101 310.946 68.8767 311.072 68.9401C311.187 68.9971 311.294 69.051 311.386 69.1081C311.399 69.1144 311.412 69.124 311.424 69.1303C311.532 69.1842 311.634 69.2096 311.738 69.2096C312.001 69.2096 312.166 69.0447 312.22 68.9908L313.305 67.9065C313.412 67.7987 313.584 67.6687 313.783 67.6687C313.98 67.6687 314.142 67.7923 314.24 67.9001C314.243 67.9033 314.243 67.9033 314.246 67.9065L315.993 69.6534C316.32 69.9768 316.32 70.3097 315.996 70.6458Z" fill="black"/>
<path d="M311.106 61.5723C311.937 61.7118 312.691 62.1049 313.294 62.7073C313.896 63.3097 314.286 64.0643 314.429 64.895C314.464 65.1042 314.645 65.2501 314.851 65.2501C314.876 65.2501 314.898 65.2469 314.924 65.2437C315.158 65.2057 315.313 64.9838 315.275 64.7492C315.104 63.7441 314.629 62.8278 313.903 62.1018C313.177 61.3757 312.26 60.9002 311.255 60.729C311.021 60.6909 310.802 60.8463 310.761 61.0777C310.719 61.3092 310.872 61.5343 311.106 61.5723Z" fill="black"/>
<path d="M317.992 64.6265C317.71 62.9715 316.93 61.4655 315.732 60.2671C314.533 59.0686 313.027 58.2887 311.372 58.0065C311.141 57.9653 310.922 58.1238 310.881 58.3553C310.843 58.5899 310.998 58.8087 311.233 58.8499C312.71 59.1003 314.058 59.801 315.129 60.8695C316.201 61.9411 316.898 63.2886 317.149 64.766C317.184 64.9753 317.364 65.1211 317.57 65.1211C317.596 65.1211 317.618 65.118 317.643 65.1148C317.875 65.0799 318.033 64.858 317.992 64.6265Z" fill="black"/>
<defs>
<filter id="filter0_d_1_28273" x="0.261719" y="0.259995" width="375.477" height="107.48" filterUnits="userSpaceOnUse" color-interpolation-filters="sRGB">
<feFlood flood-opacity="0" result="BackgroundImageFix"/>
<feColorMatrix in="SourceAlpha" type="matrix" values="0 0 0 0 0 0 0 0 0 0 0 0 0 0 0 0 0 0 127 0" result="hardAlpha"/>
<feMorphology radius="40" operator="erode" in="SourceAlpha" result="effect1_dropShadow_1_28273"/>
<feOffset dy="-13"/>
<feGaussianBlur stdDeviation="25"/>
<feComposite in2="hardAlpha" operator="out"/>
<feColorMatrix type="matrix" values="0 0 0 0 0.687905 0 0 0 0 0.687905 0 0 0 0 0.687905 0 0 0 0.49 0"/>
<feBlend mode="normal" in2="BackgroundImageFix" result="effect1_dropShadow_1_28273"/>
<feBlend mode="normal" in="SourceGraphic" in2="effect1_dropShadow_1_28273" result="shape"/>
</filter>
</defs>
</svg>
