<svg width="183" height="363" viewBox="0 0 183 363" fill="none" xmlns="http://www.w3.org/2000/svg">
<path d="M142.946 98.3246C144.105 100.598 145.257 103.92 146.277 108.121C147.502 112.953 147.523 115.804 146.386 116.382C145.587 116.711 144.582 116.41 143.122 115.14C136.065 110.179 127.335 110.362 116.933 115.689C106.237 120.971 96.7955 132.889 88.5275 150.98C84.4778 159.964 76.4297 182.585 64.2145 218.969C57.6557 238.667 50.3122 250.601 42.3526 254.648C34.7305 258.445 26.8371 259.054 18.5917 256.012C10.3463 252.97 4.25765 247.554 0.201135 239.597C-8.242 222.884 -11.7846 201.513 -10.5955 175.609C-10.4047 172.34 -9.50967 170.376 -8.03514 169.549C-7.69768 169.3 -7.27953 169.513 -6.78071 170.188C-6.32592 171.156 -6.04722 173.297 -6.06931 176.442C-6.16538 202.061 -2.31458 221.379 5.27034 234.815C10.9921 244.672 17.4329 247.742 24.8862 244.069C35.6261 238.493 45.2511 224.354 53.5926 201.777C60.7897 180.826 67.818 160 75.1398 139.218C85.1246 115.689 97.6547 100.19 112.605 92.5504C119.09 89.3309 125.267 88.1636 131.092 89.3417C136.454 90.6 140.504 93.609 142.946 98.3246ZM-18.8894 65.9776L-18.2585 65.7729C-2.65513 66.7765 8.20912 73.3615 14.2902 85.8211L15.1998 87.7571C18.3027 94.0712 19.8576 105.698 19.6957 122.763L20.9647 127.302C23.6128 132.648 26.7892 134.476 30.5379 132.493C32.9808 131.212 34.6021 127.409 35.2332 121.208L36.539 120.506C39.3116 132.017 38.255 139.053 33.4133 141.321L31.3079 142.353C26.092 144.115 21.7859 141.816 18.683 135.502L18.2282 134.534C15.4554 129.019 14.2306 118.191 14.3411 102.468C13.3582 99.022 12.5367 96.4997 11.8765 94.9011L10.7175 92.6277C6.33084 83.8714 -4.07859 78.2544 -20.6356 75.608L-20.885 75.2706C-20.6061 71.4151 -19.9972 68.3589 -18.8894 65.9776ZM119.103 147.196C121.275 160.715 123.189 168.949 124.678 172.021C127.245 176.906 129.542 178.601 131.94 177.614C133.708 176.831 134.486 173.65 134.398 168.24L134.567 168.116L135.278 168.373C138.147 178.249 138.022 184.077 134.779 185.687L133.642 186.265C131.368 187.421 128.94 186.605 126.314 184.11C125.441 182.929 124.861 181.793 124.487 181.287L122.499 177.539C118.817 170.088 117.166 160.096 118.135 147.65L119.103 147.196Z" fill="#DDEDEC"/>
<path d="M77.3991 334.069L78.5031 333.597L79.768 331.232L81.0296 330.76C85.0452 332.736 90.9461 338.185 98.7322 347.265C101.953 353.027 103.919 355.632 104.708 355.317C105.891 354.766 106.37 350.981 105.988 343.802C101.06 322.263 100.37 310.824 103.839 309.408L106.046 309.411C110.455 311.309 112.739 312.179 113.133 312.1C114.237 311.628 114.321 308.867 113.305 303.739L112.991 302.95C112.599 302.082 112.206 301.529 111.812 301.135C107.248 297.501 103.783 296.235 101.496 297.101C94.7142 299.933 94.2183 313.657 100.008 338.432L99.6924 338.589L99.5354 338.274C87.4299 320.434 76.9614 313.244 68.366 316.785L67.5775 317.099C66.3927 318.755 65.6764 322.935 65.2714 329.481L65.5853 330.27C70.9379 333.747 74.797 335.092 77.3991 334.069Z" fill="#DDEDEC"/>
</svg>
