<svg width="70" height="51" viewBox="0 0 70 51" fill="none" xmlns="http://www.w3.org/2000/svg">
<path d="M14.1406 10.2064V36.8001H49.7193H52.4561H65.0455V36.2461H67.235V24.0573H65.0455V11.3144H52.4561V7.51707" fill="#F6E89A"/>
<path d="M52.9102 11.3366V37.2245H68.4991C68.5041 37.0427 68.4991 37.0648 68.4991 37.0648V27.4157L65.1586 16.3267H52.9102" fill="#F6E89A"/>
<path d="M52.9102 11.3366V37.2245H68.4991C68.5041 37.0427 68.4991 37.0648 68.4991 37.0648V27.4157L65.1586 16.3267H52.9102" stroke="#8D4520" stroke-width="2.00999" stroke-miterlimit="10" stroke-linecap="round" stroke-linejoin="round"/>
<path opacity="0.5" d="M39.186 51C53.0182 51 64.2314 48.2012 64.2314 44.7488C64.2314 41.2964 53.0182 38.4977 39.186 38.4977C25.3538 38.4977 14.1406 41.2964 14.1406 44.7488C14.1406 48.2012 25.3538 51 39.186 51Z" fill="#B8CBCD"/>
<path d="M14.0977 10.2503V35.0691C14.0977 36.2822 15.0836 37.2757 16.2886 37.2757H19.0272" stroke="#8D4520" stroke-width="3.01499" stroke-miterlimit="10" stroke-linecap="round" stroke-linejoin="round"/>
<path d="M58.3468 37.2807H68.3258V26.2479L63.3985 10.802H53.2578" stroke="#8D4520" stroke-width="3.01499" stroke-miterlimit="10" stroke-linejoin="round"/>
<path d="M32.1719 37.2757H45.3174" stroke="#8D4520" stroke-width="3.01499" stroke-miterlimit="10" stroke-linecap="square" stroke-linejoin="round"/>
<path d="M9.50629 22.3708H1.5" stroke="#8D4520" stroke-width="3.01499" stroke-miterlimit="10" stroke-linecap="round" stroke-linejoin="round"/>
<path d="M9.50582 15.1561H4.44922" stroke="#8D4520" stroke-width="3.01499" stroke-miterlimit="10" stroke-linecap="round" stroke-linejoin="round"/>
<path d="M9.50582 29.5855H4.44922" stroke="#8D4520" stroke-width="3.01499" stroke-miterlimit="10" stroke-linecap="round" stroke-linejoin="round"/>
<path d="M25.7114 43.4722C29.0728 43.4722 31.7977 40.7278 31.7977 37.3424C31.7977 33.957 29.0728 31.2126 25.7114 31.2126C22.35 31.2126 19.625 33.957 19.625 37.3424C19.625 40.7278 22.35 43.4722 25.7114 43.4722Z" fill="white" stroke="#8D4520" stroke-width="2.00999" stroke-miterlimit="10" stroke-linecap="round" stroke-linejoin="round"/>
<path d="M32.1689 37.2757C32.1689 40.9656 29.3771 43.6863 25.7134 43.6863C22.0502 43.6863 19.0234 40.9656 19.0234 37.2757" fill="white"/>
<path d="M32.1689 37.2757C32.1689 40.9656 29.3771 43.6863 25.7134 43.6863C22.0502 43.6863 19.0234 40.9656 19.0234 37.2757" stroke="#8D4520" stroke-width="3.01499" stroke-miterlimit="10" stroke-linecap="square" stroke-linejoin="round"/>
<path d="M25.7132 39.6107C26.9571 39.6107 27.9655 38.5951 27.9655 37.3424C27.9655 36.0896 26.9571 35.074 25.7132 35.074C24.4693 35.074 23.4609 36.0896 23.4609 37.3424C23.4609 38.5951 24.4693 39.6107 25.7132 39.6107Z" fill="#8D4520"/>
<path d="M52.5512 43.4722C55.9126 43.4722 58.6376 40.7278 58.6376 37.3424C58.6376 33.957 55.9126 31.2126 52.5512 31.2126C49.1898 31.2126 46.4648 33.957 46.4648 37.3424C46.4648 40.7278 49.1898 43.4722 52.5512 43.4722Z" fill="white" stroke="#8D4520" stroke-width="2.00999" stroke-miterlimit="10" stroke-linecap="round" stroke-linejoin="round"/>
<path d="M59.0088 37.2756C59.0088 40.9655 56.217 43.6862 52.5532 43.6862C48.89 43.6862 45.8633 40.9655 45.8633 37.2756" fill="white"/>
<path d="M59.0088 37.2756C59.0088 40.9655 56.217 43.6862 52.5532 43.6862C48.89 43.6862 45.8633 40.9655 45.8633 37.2756" stroke="#8D4520" stroke-width="3.01499" stroke-miterlimit="10" stroke-linecap="square" stroke-linejoin="round"/>
<path d="M52.553 39.6107C53.7969 39.6107 54.8053 38.5951 54.8053 37.3424C54.8053 36.0896 53.7969 35.074 52.553 35.074C51.3092 35.074 50.3008 36.0896 50.3008 37.3424C50.3008 38.5951 51.3092 39.6107 52.553 39.6107Z" fill="#8D4520"/>
<path d="M52.9864 10.2503L50.3518 3.0354C50.1437 2.46611 49.4809 1.99997 48.8784 1.99997H18.5419C17.9394 1.99997 17.2597 2.45949 17.0318 3.02106L14.0977 10.2503" fill="#F6E89A"/>
<path d="M52.9864 10.2503L50.3518 3.0354C50.1437 2.46611 49.4809 1.99997 48.8784 1.99997H18.5419C17.9394 1.99997 17.2597 2.45949 17.0318 3.02106L14.0977 10.2503" stroke="#8D4520" stroke-width="3.01499" stroke-miterlimit="10" stroke-linecap="round" stroke-linejoin="round"/>
<path d="M14.1406 10.9122H52.0652" stroke="#8D4520" stroke-width="2.00999" stroke-miterlimit="10" stroke-linecap="round" stroke-linejoin="round"/>
</svg>
