<svg width="1920" height="30" viewBox="0 0 1920 30" fill="none" xmlns="http://www.w3.org/2000/svg">
<mask id="mask0_1_4859" style="mask-type:luminance" maskUnits="userSpaceOnUse" x="0" y="0" width="1920" height="30">
<path d="M1920 0H0V30H1920V0Z" fill="white"/>
</mask>
<g mask="url(#mask0_1_4859)">
<path d="M440.938 3.62359C439.427 4.22761 438.924 6.34172 439.427 10.0665L439.729 10.1672H439.83C440.233 8.15379 440.837 7.04641 441.643 6.64372C442.852 6.14037 443.759 6.84507 444.464 8.55648C444.967 9.66386 445.169 12.7847 445.169 17.7175L445.37 17.6169C446.68 12.986 446.68 9.36185 445.572 6.54306L444.967 5.13365C444.867 4.83164 444.665 4.42897 444.363 4.02628C443.456 3.12024 442.449 2.81823 441.341 3.32159L440.938 3.62359Z" fill="#31827D"/>
<path d="M374.759 -27.6849C374.961 -28.3896 375.263 -29.195 375.867 -30.3024C376.471 -31.5104 376.975 -32.1144 377.378 -32.0138C377.579 -31.9131 377.781 -31.7118 377.781 -31.2084C378.285 -28.893 380.098 -27.3829 383.22 -26.5775C386.343 -25.6715 390.473 -26.3762 395.409 -28.591C397.826 -29.6983 403.568 -32.8191 412.734 -37.9534C417.67 -40.7722 421.296 -41.8795 423.613 -41.2755C425.829 -40.6715 427.541 -39.3628 428.649 -37.2487C429.757 -35.1346 430.059 -32.9198 429.354 -30.6044C428.045 -25.6715 424.822 -20.7386 419.886 -15.7051C419.281 -15.101 418.677 -14.799 418.274 -14.8997C418.173 -14.8997 418.073 -15.0004 418.173 -15.3024C418.274 -15.6044 418.576 -16.1077 419.181 -16.7118C423.814 -21.846 426.635 -26.4769 427.541 -30.6044C428.146 -33.6245 427.44 -35.4366 425.224 -36.0406C422.001 -36.846 417.468 -35.7386 411.727 -32.6178C406.489 -29.6983 401.251 -26.6782 396.013 -23.8594C389.667 -20.94 384.328 -20.0339 379.896 -21.1413C377.982 -21.6446 376.572 -22.5507 375.565 -23.8594C374.658 -24.8661 374.356 -26.2755 374.759 -27.6849ZM401.654 8.25468L401.452 8.154C398.43 5.13387 397.423 1.81173 398.531 -1.81244L398.733 -2.41647C399.236 -4.22855 401.049 -6.94666 404.172 -10.3695L404.776 -11.4769C405.179 -13.0876 404.877 -13.9936 403.769 -14.2957C403.064 -14.497 402.057 -13.9936 400.747 -12.8863L400.344 -12.9869C401.855 -15.8057 403.366 -17.0138 404.776 -16.6111L405.381 -16.4097C406.791 -15.8057 407.194 -14.5977 406.69 -12.6849L406.59 -12.3829C406.187 -10.7722 404.474 -8.35606 401.553 -5.13459C401.15 -4.22855 400.848 -3.62452 400.646 -3.12116L400.445 -2.41647C399.74 0.200981 400.848 3.22112 403.668 6.74461V6.84529C403.064 7.44931 402.359 7.95267 401.654 8.25468ZM388.458 -33.2218C390.473 -36.3426 391.581 -38.3561 391.883 -39.2621C392.286 -40.6715 392.085 -41.4769 391.379 -41.6782C390.876 -41.8795 390.171 -41.3762 389.163 -40.2688H389.063L388.962 -40.4702C390.171 -42.9869 391.279 -44.195 392.185 -43.893L392.487 -43.7923C393.193 -43.591 393.495 -42.9869 393.595 -41.9802C393.595 -41.5775 393.495 -41.2755 393.495 -41.0742L393.193 -39.9668C392.588 -37.752 391.077 -35.4366 388.66 -33.1212L388.458 -33.2218Z" fill="#31827D"/>
<path d="M473.574 -2.41628C473.775 -3.12098 474.078 -3.92634 474.682 -5.03372C475.286 -6.24178 475.79 -6.8458 476.193 -6.74513C476.394 -6.64446 476.596 -6.44313 476.596 -5.93977C477.099 -3.62434 478.913 -2.11426 482.035 -1.30889C485.158 -0.402853 489.288 -1.10755 494.223 -3.32232C496.641 -4.4297 502.382 -7.55051 511.549 -12.6847C516.485 -15.5035 520.111 -16.6109 522.428 -16.0069C524.644 -15.4029 526.356 -14.0941 527.464 -11.98C528.673 -9.86594 528.874 -7.65117 528.169 -5.33574C526.86 -0.402853 523.636 4.53004 518.701 9.56359C518.096 10.1676 517.492 10.4696 517.089 10.369C516.988 10.369 516.888 10.2683 516.988 9.96627C517.089 9.66426 517.391 9.16091 517.996 8.55688C522.73 3.42265 525.45 -1.20822 526.356 -5.23506C526.96 -8.25519 526.255 -10.0673 524.039 -10.6713C520.816 -11.4767 516.283 -10.3693 510.542 -7.24848C505.304 -4.32902 500.066 -1.30889 494.828 1.5099C488.482 4.42937 483.143 5.3354 478.711 4.22802C476.797 3.72466 475.387 2.81863 474.38 1.5099C473.574 0.301849 473.272 -1.00689 473.574 -2.41628ZM500.569 33.4226L500.368 33.322C497.346 30.3018 496.339 26.9797 497.447 23.3555L497.648 22.7515C498.152 20.9394 499.965 18.2213 503.088 14.7985L503.692 13.6911C504.095 12.0804 503.793 11.1743 502.685 10.8723C501.98 10.671 500.972 11.1743 499.663 12.2817L499.26 12.181C500.771 9.36224 502.282 8.1542 503.692 8.55688L504.296 8.75822C505.707 9.36225 506.109 10.5703 505.606 12.483L505.505 12.7851C505.102 14.3958 503.39 16.8119 500.469 20.0334C500.066 20.9394 499.764 21.5434 499.562 22.0468L499.361 22.7515C498.656 25.3689 499.764 28.3891 502.584 31.9126V32.0133C501.98 32.718 501.274 33.2213 500.569 33.4226ZM487.374 -8.05386C489.388 -11.1747 490.496 -13.1881 490.799 -14.0941C491.202 -15.5035 491 -16.3089 490.295 -16.5102C489.791 -16.7116 489.086 -16.2082 488.079 -15.1008H487.978L487.877 -15.3022C489.086 -17.819 490.194 -19.027 491.101 -18.725L491.403 -18.6243C492.108 -18.423 492.41 -17.819 492.511 -16.8122C492.511 -16.4096 492.41 -16.1075 492.41 -15.9062L492.108 -14.7988C491.504 -12.5841 489.993 -10.2686 487.575 -7.95319L487.374 -8.05386Z" fill="#31827D"/>
<path d="M986.992 12.9861L986.69 12.4827L985.481 11.8787L985.179 11.2746C986.086 9.16055 988.705 5.93907 993.036 1.71089C995.857 -0.101193 997.166 -1.20858 996.965 -1.61126C996.662 -2.21529 994.648 -2.31596 991.022 -1.91328C980.143 1.3082 974.3 2.01291 973.495 0.301497L973.394 -0.805891C974.2 -3.12133 974.603 -4.32938 974.502 -4.53072C974.2 -5.03408 972.79 -5.03408 970.171 -4.32938L969.768 -4.12804C969.365 -3.9267 969.063 -3.72536 968.861 -3.42335C967.149 -1.00724 966.645 0.80485 967.149 2.0129C968.861 5.43572 975.811 5.23437 988.302 1.40887L988.403 1.61021L988.201 1.71089C979.438 8.45585 976.114 14.0934 978.229 18.3216L978.43 18.7243C979.337 19.2277 981.452 19.5297 984.877 19.5297L985.28 19.3283C986.992 16.3082 987.597 14.2948 986.992 12.9861Z" fill="#31827D"/>
<path d="M1087.95 -6.46006L1087.84 -5.88375L1088.34 -4.62726L1088.16 -3.97603C1086.07 -3.00813 1081.97 -2.35945 1075.92 -2.10494C1072.61 -2.63955 1070.89 -2.6898 1070.77 -2.25564C1070.6 -1.60441 1072.03 -0.18445 1074.99 1.93695C1085.24 6.80291 1090.06 10.1791 1089.52 11.9906L1088.85 12.8819C1086.7 14.0669 1085.6 14.6969 1085.54 14.9139C1085.43 15.4903 1086.48 16.4318 1088.9 17.6559L1089.33 17.7751C1089.76 17.8943 1090.12 17.9462 1090.48 17.856C1093.36 17.2014 1094.95 16.1892 1095.38 14.954C1096.4 11.2637 1091.09 6.77314 1079.24 1.28063L1079.3 1.06353L1079.52 1.12313C1090.55 1.95486 1096.79 -0.0209322 1098.04 -4.57955L1098.16 -5.0137C1097.82 -5.99353 1096.45 -7.63057 1093.9 -9.91712L1093.47 -10.0363C1090.17 -8.93218 1088.38 -7.83744 1087.95 -6.46006Z" fill="#31827D"/>
<path d="M1036.25 11.3752C1033.73 12.1805 1032.22 12.2812 1031.51 11.5765C1030.61 10.6705 1031.11 9.26106 1032.92 7.34831C1034.13 6.14026 1037.76 4.02616 1043.7 1.00603L1043.5 0.804688C1037.56 2.31475 1033.13 4.42885 1030.31 7.34831L1028.79 8.7577C1028.49 9.05971 1028.19 9.4624 1027.69 10.0664C1026.88 11.5765 1026.88 12.7845 1027.79 13.7913L1028.19 14.2946C1029.4 15.5027 1032.12 14.798 1036.35 11.9792L1036.45 11.5765L1036.25 11.3752Z" fill="#31827D"/>
<path d="M947.506 -26.98C947.909 -26.4766 948.413 -25.6713 948.916 -24.5639C949.521 -23.3558 949.722 -22.5505 949.42 -22.3491C949.219 -22.2485 948.916 -22.2485 948.513 -22.4498C946.398 -23.3558 944.081 -22.8525 941.563 -20.8391C939.045 -18.8256 937.131 -15.1008 936.023 -9.86591C935.419 -7.24846 934.613 -0.80551 933.404 9.66429C932.8 15.3019 931.49 18.926 929.576 20.4361C927.763 21.8455 925.648 22.4495 923.331 22.1475C920.914 21.8455 918.899 20.7381 917.489 18.8254C914.266 14.8992 912.15 9.36228 910.941 2.41597C910.841 1.50993 910.941 1.00658 911.244 0.704563C911.344 0.603891 911.445 0.603897 911.647 0.805241C911.848 1.00658 912.05 1.6106 912.15 2.41597C913.46 9.2616 915.676 14.1945 918.395 17.3153C920.511 19.6307 922.425 20.0334 924.137 18.624C926.655 16.5099 928.468 12.1811 929.375 5.73812C930.08 -0.201477 930.785 -6.24175 931.591 -12.1813C932.9 -19.027 935.318 -23.8592 938.944 -26.7787C940.455 -27.9867 942.067 -28.6914 943.678 -28.6914C945.29 -28.6914 946.6 -28.0874 947.506 -26.98ZM902.48 -26.376L902.682 -26.4766C906.912 -27.0807 910.136 -25.9733 912.452 -22.9532L912.855 -22.4498C914.064 -20.9397 915.071 -17.9196 916.079 -13.3894L916.683 -12.282C917.69 -10.9733 918.597 -10.6713 919.503 -11.4766C920.108 -11.98 920.309 -13.0874 920.108 -14.6981L920.41 -15.0001C921.82 -12.0807 921.921 -10.1679 920.813 -9.26187L920.309 -8.8592C919 -8.05383 917.791 -8.45652 916.582 -9.96658L916.381 -10.1679C915.374 -11.4766 914.366 -14.2954 913.56 -18.5236C913.057 -19.4297 912.755 -20.0337 912.452 -20.4364L912.049 -20.9397C910.337 -23.0538 907.315 -23.9599 902.682 -23.6578L902.581 -23.7585C902.38 -24.8659 902.379 -25.6713 902.48 -26.376ZM943.88 -12.6847C945.189 -9.16121 946.197 -7.14779 946.801 -6.34242C947.808 -5.23503 948.513 -4.83234 949.017 -5.23503C949.42 -5.53704 949.42 -6.44309 949.118 -7.85248H949.319C950.629 -5.43638 950.931 -3.82563 950.125 -3.22161L949.823 -3.02027C949.319 -2.61758 948.614 -2.61758 947.708 -3.22161C947.405 -3.52362 947.204 -3.72497 947.103 -3.82564L946.398 -4.73167C944.988 -6.54375 943.981 -9.06054 943.578 -12.4834L943.88 -12.6847Z" fill="#31827D"/>
<path d="M1016.4 5.13353C1015.5 5.03286 1014.69 5.93891 1014.09 7.85166H1014.29C1014.99 7.04629 1015.5 6.64359 1016 6.64359C1016.71 6.74426 1017.01 7.24763 1016.91 8.25434L1016.71 9.05971C1015.1 11.4758 1014.29 13.2879 1014.19 14.4959V14.8986C1013.99 17.2141 1014.89 19.2275 1017.11 20.7376H1017.21C1017.51 20.5362 1017.92 20.1335 1018.32 19.5295V19.4288C1016.2 17.5161 1015.2 15.8047 1015.4 14.1939L1015.5 13.7912C1015.5 13.4892 1015.6 13.0865 1015.8 12.4825C1017.21 10.2678 1018.12 8.65703 1018.22 7.54964V7.3483C1018.32 6.14025 1017.92 5.43555 1017.01 5.2342L1016.4 5.13353Z" fill="#31827D"/>
<path d="M871.606 18.57C869.087 19.3753 867.576 19.476 866.871 18.7713C865.965 17.8653 866.468 16.4559 868.281 14.5431C869.49 13.3351 873.116 11.221 879.059 8.20085L878.858 7.99951C872.915 9.50958 868.483 11.6237 865.662 14.5431L864.152 15.9525C863.849 16.2545 863.547 16.6572 863.044 17.2613C862.238 18.7713 862.238 19.9794 863.144 20.9861L863.547 21.4894C864.756 22.6975 867.476 21.9928 871.706 19.174L871.807 18.7713L871.606 18.57Z" fill="#31827D"/>
<path d="M759.457 -31.2891C759.86 -30.7857 760.364 -29.9804 760.868 -28.873C761.472 -27.6649 761.673 -26.8596 761.371 -26.6582C761.17 -26.5575 760.868 -26.5575 760.465 -26.7589C758.349 -27.6649 756.033 -27.1616 753.514 -25.1481C750.996 -23.1347 749.082 -19.4099 747.974 -14.175C747.37 -11.5575 746.564 -5.11459 745.355 5.35521C744.751 10.9928 743.441 14.617 741.528 16.127C739.714 17.5364 737.599 18.1404 735.282 17.8384C732.865 17.5364 730.85 16.429 729.44 14.5163C726.217 10.5901 724.101 5.0532 722.893 -1.89311C722.792 -2.79915 722.893 -3.30251 723.195 -3.60452C723.296 -3.70519 723.396 -3.70518 723.598 -3.50384C723.799 -3.3025 724.001 -2.69848 724.101 -1.89311C725.411 4.95252 727.627 9.88541 730.347 13.0062C732.462 15.3217 734.376 15.7243 736.088 14.3149C738.606 12.2009 740.42 7.87199 741.326 1.42904C742.031 -4.51056 742.736 -10.5508 743.542 -16.4904C744.852 -23.3361 747.269 -28.1683 750.895 -31.0877C752.406 -32.2958 754.018 -33.0005 755.63 -33.0005C757.241 -33.0005 758.551 -32.3965 759.457 -31.2891ZM714.431 -30.6851L714.633 -30.7857C718.863 -31.3898 722.087 -30.2824 724.404 -27.2622L724.807 -26.7589C726.015 -25.2488 727.023 -22.2287 728.03 -17.6985L728.634 -16.5911C729.642 -15.2824 730.548 -14.9804 731.455 -15.7857C732.059 -16.2891 732.26 -17.3965 732.059 -19.0072L732.361 -19.3092C733.771 -16.3898 733.872 -14.477 732.764 -13.571L732.26 -13.1683C730.951 -12.3629 729.742 -12.7656 728.533 -14.2757L728.332 -14.477C727.325 -15.7857 726.317 -18.6045 725.512 -22.8327C725.008 -23.7387 724.706 -24.3428 724.404 -24.7455L724.001 -25.2488C722.288 -27.3629 719.266 -28.2689 714.633 -27.9669L714.532 -28.0676C714.331 -29.175 714.331 -29.9804 714.431 -30.6851ZM755.831 -16.9938C757.141 -13.4703 758.148 -11.4569 758.752 -10.6515C759.76 -9.54412 760.465 -9.14143 760.968 -9.54411C761.371 -9.84612 761.371 -10.7522 761.069 -12.1616H761.27C762.58 -9.74546 762.882 -8.13471 762.076 -7.53069L761.774 -7.32935C761.27 -6.92666 760.565 -6.92666 759.659 -7.53069C759.357 -7.8327 759.155 -8.03405 759.054 -8.13472L758.349 -9.04075C756.939 -10.8528 755.932 -13.3696 755.529 -16.7924L755.831 -16.9938Z" fill="#31827D"/>
<path d="M829.358 13.3152C828.451 13.2145 827.645 14.1205 827.041 16.0333H827.242C827.948 15.2279 828.451 14.8252 828.955 14.8252C829.66 14.9259 829.962 15.4293 829.861 16.436L829.66 17.2414C828.048 19.6575 827.242 21.4695 827.142 22.6776V23.0803C826.94 25.3957 827.847 27.4091 830.063 28.9192H830.164C830.466 28.7178 830.869 28.3152 831.272 27.7111V27.6105C829.156 25.6977 828.149 23.9863 828.35 22.3756L828.451 21.9729C828.451 21.6709 828.552 21.2682 828.753 20.6642C830.164 18.4494 831.07 16.8387 831.171 15.7313V15.5299C831.272 14.3219 830.869 13.6172 829.962 13.4158L829.358 13.3152Z" fill="#31827D"/>
<path d="M648.139 13.6905L647.938 13.0865L646.83 12.2811L646.729 11.5764C648.038 9.66369 651.262 7.14692 656.399 3.82477C659.522 2.61672 661.032 1.81134 660.932 1.40866C660.73 0.804629 658.816 0.200603 655.19 -0.101411C643.908 0.804629 638.066 0.301273 637.563 -1.61148L637.764 -2.71885C639.074 -4.83294 639.678 -5.94034 639.678 -6.14168C639.476 -6.74571 638.167 -6.94704 635.447 -6.84637L635.044 -6.7457C634.541 -6.64503 634.238 -6.44368 634.037 -6.24234C631.821 -4.22892 630.914 -2.51752 631.217 -1.30946C632.123 2.3147 639.074 3.62343 652.068 2.51604L652.168 2.71738L651.967 2.81806C641.995 7.65027 637.563 12.3818 638.671 17.0127L638.771 17.4154C639.476 18.1201 641.592 18.8248 644.916 19.5295L645.319 19.4288C647.535 16.912 648.441 15.0999 648.139 13.6905Z" fill="#31827D"/>
<path d="M701.929 19.1274C699.31 19.4295 697.799 19.2281 697.295 18.4228C696.59 17.3154 697.396 16.0066 699.612 14.5972C701.022 13.6912 705.051 12.3825 711.498 10.6711L711.297 10.4697C705.253 10.6711 700.418 11.8791 696.993 14.0939L695.281 15.2013C694.878 15.4026 694.475 15.8053 693.971 16.3087C692.863 17.6174 692.561 18.8254 693.266 19.9328L693.568 20.4362C694.475 21.8456 697.295 21.7449 702.029 19.8321L702.13 19.4295L701.929 19.1274Z" fill="#31827D"/>
<path d="M617.919 -31.6111C618.221 -31.007 618.523 -30.101 618.826 -28.893C619.128 -27.5842 619.128 -26.7789 618.826 -26.6782C618.624 -26.5775 618.322 -26.6782 617.919 -26.9802C616.005 -28.2889 613.588 -28.2889 610.767 -26.8795C607.846 -25.4701 605.328 -22.148 603.011 -17.3158C601.903 -14.8997 599.687 -8.75872 596.363 1.20772C594.55 6.54329 592.535 9.86544 590.42 10.8722C588.305 11.8789 586.189 12.0802 583.973 11.2748C581.657 10.4695 579.944 8.9594 578.937 6.84531C576.62 2.31511 575.714 -3.52382 576.016 -10.5708C576.116 -11.4768 576.318 -11.9802 576.721 -12.1815C576.822 -12.2822 576.922 -12.1815 577.023 -11.9802C577.124 -11.6782 577.224 -11.1748 577.224 -10.2688C577.124 -3.32248 578.131 1.91241 580.246 5.63725C581.757 8.35537 583.57 9.16074 585.585 8.15402C588.506 6.64396 591.125 2.81846 593.442 -3.32248C595.356 -9.06074 597.27 -14.6983 599.284 -20.3359C602.004 -26.7789 605.429 -31.007 609.458 -33.0205C611.271 -33.9265 612.883 -34.2285 614.494 -33.9265C616.207 -33.7252 617.315 -32.9198 617.919 -31.6111ZM573.8 -40.4701L574.001 -40.5708C578.232 -40.2688 581.254 -38.4567 582.865 -35.1346L583.067 -34.6312C583.873 -32.9198 584.376 -29.6983 584.276 -25.0674L584.578 -23.8594C585.283 -22.45 586.189 -21.9466 587.197 -22.45C587.902 -22.752 588.305 -23.8594 588.506 -25.5708L588.909 -25.7721C589.715 -22.6513 589.413 -20.7386 588.103 -20.1346L587.499 -19.8325C586.089 -19.3292 584.88 -19.9332 584.074 -21.7453L583.973 -22.0473C583.168 -23.5574 582.865 -26.4768 582.865 -30.8057C582.563 -31.7117 582.362 -32.4164 582.16 -32.8191L581.858 -33.4232C580.649 -35.8393 577.829 -37.3493 573.296 -38.054L573.195 -38.1547C573.397 -38.9601 573.497 -39.7654 573.8 -40.4701ZM611.472 -18.3225C612.077 -14.5976 612.58 -12.3829 612.983 -11.5775C613.688 -10.2688 614.293 -9.76543 614.998 -10.0674C615.502 -10.2688 615.703 -11.1748 615.703 -12.5842L615.904 -12.4836C616.71 -9.76543 616.61 -8.25536 615.804 -7.752L615.502 -7.55067C614.897 -7.24865 614.192 -7.45 613.487 -8.1547C613.286 -8.45671 613.084 -8.75873 612.983 -8.96007L612.48 -9.96678C611.472 -11.9802 611.069 -14.6983 611.271 -18.1211L611.472 -18.3225Z" fill="#31827D"/>
<path d="M683.897 8.85897C683.091 8.55696 682.084 9.26164 681.077 10.9731L681.278 11.0737C682.084 10.369 682.688 10.1677 683.192 10.2684C683.897 10.4697 684.099 11.0737 683.696 12.0804L683.293 12.7851C681.278 14.7986 680.069 16.4093 679.667 17.5167L679.566 17.9194C678.861 20.1341 679.364 22.2482 681.177 24.161L681.278 24.2616C681.681 24.161 682.084 23.7583 682.588 23.3556V23.2549C680.875 20.9395 680.271 19.0267 680.775 17.5167L680.875 17.114C680.976 16.812 681.177 16.4093 681.48 15.9059C683.394 13.9932 684.502 12.5838 684.804 11.5771L684.904 11.3757C685.307 10.2684 685.005 9.46299 684.199 9.06031L683.897 8.85897Z" fill="#31827D"/>
<path d="M76.8572 17.5169L76.7565 16.9129L75.7492 16.0068L75.6484 15.3022C77.0586 13.4901 80.3827 11.074 85.8221 8.1545C89.0454 7.14778 90.5564 6.4431 90.4556 6.04041C90.2542 5.43638 88.4411 4.73168 84.8148 4.22833C73.5331 4.42967 67.6908 3.52363 67.3886 1.71155L67.5901 0.604161C69.0003 -1.40926 69.7054 -2.41597 69.7054 -2.61731C69.6047 -3.22134 68.1945 -3.52335 65.5755 -3.62402L65.1726 -3.52335C64.669 -3.42268 64.3668 -3.32201 64.1653 -3.12067C61.8485 -1.20792 60.8412 0.402818 61.0427 1.61087C61.7478 5.3357 68.5974 7.04712 81.5915 6.74511V6.94644H81.39C71.2164 11.1746 66.4821 15.6042 67.2879 20.3357L67.3886 20.7384C68.0938 21.5438 70.1083 22.3491 73.3317 23.1545L73.7346 23.0538C76.0514 20.7384 77.0587 18.9263 76.8572 17.5169Z" fill="#31827D"/>
<path d="M49.4581 -31.611C49.7603 -31.0069 49.9618 -30.1009 50.1632 -28.8929C50.4654 -27.5841 50.3647 -26.7788 50.0625 -26.6781C49.861 -26.5774 49.5589 -26.6781 49.1559 -27.0808C47.3428 -28.5908 44.9253 -28.5908 42.0042 -27.3828C38.9823 -26.0741 36.2626 -23.0539 33.7444 -18.2217C32.5356 -15.8056 29.9167 -9.86601 25.9882 -0.100914C23.8729 5.13398 21.6569 8.2548 19.4408 9.26151C17.3255 10.1675 15.1095 10.1675 12.9941 9.26151C10.7781 8.35546 9.16643 6.74473 8.25987 4.52996C6.24529 -0.100906 5.64091 -6.0405 6.34602 -13.0875C6.44675 -13.9935 6.74893 -14.4969 7.15185 -14.6982C7.25258 -14.7989 7.35331 -14.6982 7.45404 -14.4969C7.55477 -14.1949 7.55477 -13.5908 7.55477 -12.7855C7.05112 -5.83917 7.75623 -0.503597 9.67008 3.22124C11.0803 6.04003 12.7927 6.94607 14.8073 6.04003C17.8291 4.73131 20.6496 1.00647 23.2685 -5.03379C25.5853 -10.5707 27.8013 -16.2083 30.1181 -21.6445C33.2407 -27.8861 36.867 -31.913 41.0976 -33.7251C42.9107 -34.5304 44.6231 -34.7318 46.1341 -34.3291C47.8465 -33.8257 48.9545 -32.9197 49.4581 -31.611ZM6.04383 -42.9868H6.24529C10.4759 -42.4835 13.2963 -40.47 14.8073 -37.0472L15.0087 -36.5439C15.7138 -34.7318 16.016 -31.611 15.7138 -26.9801L16.016 -25.7721C16.6204 -24.262 17.527 -23.7586 18.5343 -24.1613C19.2394 -24.4633 19.743 -25.47 19.9445 -27.1814L20.3474 -27.3828C20.9518 -24.1613 20.5488 -22.3492 19.1386 -21.7452L18.5343 -21.5439C17.124 -21.1412 15.9153 -21.8459 15.2102 -23.658L15.1095 -23.96C14.4044 -25.47 14.3036 -28.4902 14.6058 -32.7184C14.4044 -33.6244 14.2029 -34.3291 14.1022 -34.8325L13.8 -35.4365C12.7927 -37.8526 9.97227 -39.564 5.54018 -40.5707L5.43945 -40.6714C5.43945 -41.5774 5.64091 -42.3828 6.04383 -42.9868ZM42.2056 -18.7251C42.6085 -15.0002 43.0115 -12.7855 43.3136 -11.8794C43.918 -10.47 44.5224 -9.96667 45.2275 -10.2687C45.7311 -10.47 46.0333 -11.2754 46.0333 -12.7855L46.2348 -12.6848C46.8392 -9.96669 46.7384 -8.35595 45.8319 -7.95327L45.5297 -7.85259C44.9253 -7.55058 44.2202 -7.85258 43.6158 -8.55728C43.4144 -8.85929 43.2129 -9.16131 43.2129 -9.36266L42.7093 -10.3694C41.8027 -12.4835 41.5005 -15.2016 42.0042 -18.5237L42.2056 -18.7251Z" fill="#31827D"/>
<path d="M164.995 20.134C164.391 20.5366 163.585 21.04 162.477 21.4427C161.269 21.946 160.463 22.1474 160.261 21.8454C160.16 21.644 160.16 21.342 160.463 20.9393C161.47 18.8252 161.067 16.5098 159.153 13.8923C157.239 11.2749 153.613 9.26147 148.476 7.7514C145.857 7.0467 139.41 5.83864 129.136 4.12724C123.596 3.2212 120.07 1.71114 118.559 -0.201611C117.25 -2.11436 116.746 -4.22846 117.149 -6.54389C117.552 -8.96 118.862 -10.8728 120.775 -12.1815C124.905 -15.2016 130.546 -17.0137 137.597 -17.8191C138.504 -17.9197 139.007 -17.7184 139.31 -17.4164C139.41 -17.3157 139.31 -17.215 139.209 -17.0137C139.007 -16.8124 138.403 -16.7117 137.597 -16.5103C130.647 -15.5036 125.61 -13.6915 122.387 -11.0741C119.97 -9.16134 119.466 -7.2486 120.775 -5.43652C122.689 -2.81907 126.92 -0.805641 133.367 0.503084C139.31 1.5098 145.253 2.5165 151.095 3.62388C157.844 5.33529 162.578 8.05341 165.298 11.6776C166.406 13.2883 167.01 14.899 166.909 16.5098C166.809 18.0199 166.204 19.2279 164.995 20.134ZM166.809 -24.7654L166.909 -24.564C167.312 -20.3358 166.003 -17.1144 162.88 -15.0003L162.377 -14.6983C160.765 -13.5909 157.743 -12.6848 153.109 -11.9801L151.901 -11.4768C150.591 -10.5707 150.188 -9.56403 150.893 -8.65799C151.296 -8.05397 152.404 -7.75195 154.117 -7.85262L154.318 -7.55061C151.296 -6.34255 149.382 -6.34255 148.577 -7.55061L148.174 -8.05396C147.469 -9.36269 147.872 -10.6714 149.483 -11.7788L149.685 -11.9801C151.095 -12.9868 153.915 -13.7922 158.146 -14.3962C159.052 -14.7989 159.657 -15.1009 160.06 -15.403L160.664 -15.8056C162.88 -17.3157 163.887 -20.4365 163.887 -24.9667L163.988 -25.0674C165.298 -24.9667 166.204 -24.9667 166.809 -24.7654ZM150.893 15.8051C147.368 17.0131 145.253 17.8185 144.447 18.3219C143.238 19.2279 142.835 19.9326 143.238 20.5366C143.54 20.9393 144.447 21.04 145.857 20.8386V21.04C143.339 22.248 141.727 22.4494 141.123 21.644L140.921 21.342C140.518 20.738 140.619 20.1339 141.223 19.3286C141.526 19.0266 141.828 18.8252 141.929 18.7245L142.835 18.0199C144.648 16.7111 147.267 15.8051 150.692 15.6038L150.893 15.8051Z" fill="#31827D"/>
<path d="M1181.6 9.56162L1181.4 8.95761L1180.29 8.15223L1180.19 7.44754C1181.5 5.53479 1184.73 3.01801 1189.86 -0.304134C1192.99 -1.51219 1194.5 -2.31757 1194.4 -2.72025C1194.2 -3.32428 1192.28 -3.9283 1188.65 -4.23032C1177.37 -3.32428 1171.53 -3.82763 1171.03 -5.74038L1171.23 -6.84776C1172.54 -8.96185 1173.14 -10.0692 1173.14 -10.2706C1172.94 -10.8746 1171.63 -11.076 1168.91 -10.9753L1168.51 -10.8746C1168.01 -10.7739 1167.7 -10.5726 1167.5 -10.3712C1165.29 -8.35782 1164.38 -6.64642 1164.68 -5.43837C1165.59 -1.81421 1172.54 -0.50548 1185.53 -1.61286L1185.63 -1.41152L1185.43 -1.31085C1175.46 3.52137 1171.03 8.2529 1172.14 12.8838L1172.24 13.2865C1173.04 13.9912 1175.06 14.6959 1178.38 15.4006L1178.78 15.2999C1180.9 12.7831 1181.91 10.971 1181.6 9.56162Z" fill="#31827D"/>
<path d="M1231.06 17.4155C1228.44 17.7175 1226.93 17.5162 1226.43 16.7108C1225.72 15.6034 1226.53 14.2947 1228.74 12.8853C1230.15 11.9793 1234.18 10.6706 1240.63 8.95915L1240.43 8.75781C1234.38 8.95915 1229.55 10.1672 1226.12 12.382L1224.31 13.4894C1224.01 13.6907 1223.5 14.0934 1223 14.5967C1221.89 15.9055 1221.59 17.1135 1222.3 18.2209L1222.6 18.7242C1223.5 20.1336 1226.32 20.033 1231.06 18.1202L1231.16 17.7175L1231.06 17.4155Z" fill="#31827D"/>
<path d="M1165.42 -28.0403C1165.73 -27.4362 1166.03 -26.5302 1166.33 -25.3221C1166.63 -24.0134 1166.63 -23.2081 1166.33 -23.1074C1166.13 -23.0067 1165.83 -23.1074 1165.42 -23.4094C1163.51 -24.7181 1161.09 -24.7181 1158.27 -23.3087C1155.35 -21.8993 1152.83 -18.5772 1150.52 -13.745C1149.41 -11.3289 1147.19 -5.18792 1143.87 4.77852C1142.06 10.1141 1140.04 13.4362 1137.93 14.443C1135.81 15.4497 1133.69 15.651 1131.48 14.8456C1129.16 14.0403 1127.45 12.5302 1126.44 10.4161C1124.13 5.88591 1123.22 0.0469818 1123.52 -7C1123.62 -7.90604 1123.82 -8.4094 1124.23 -8.61074C1124.33 -8.71141 1124.43 -8.61074 1124.53 -8.4094C1124.63 -8.10738 1124.73 -7.60403 1124.73 -6.69799C1124.63 0.248318 1125.64 5.48321 1127.75 9.20805C1129.26 11.9262 1131.08 12.7315 1133.09 11.7248C1136.01 10.2148 1138.63 6.38926 1140.95 0.248322C1142.86 -5.48993 1144.77 -11.1275 1146.79 -16.7651C1149.51 -23.2081 1152.93 -27.4362 1156.96 -29.4497C1158.78 -30.3557 1160.39 -30.6577 1162 -30.3557C1163.61 -30.1544 1164.72 -29.349 1165.42 -28.0403ZM1121.3 -36.8993L1121.51 -37C1125.74 -36.698 1128.76 -34.8859 1130.37 -31.5638L1130.57 -31.0604C1131.38 -29.349 1131.88 -26.1275 1131.78 -21.4966L1132.08 -20.2886C1132.79 -18.8792 1133.69 -18.3758 1134.7 -18.8792C1135.41 -19.1812 1135.81 -20.2886 1136.01 -22L1136.31 -22.2013C1137.12 -19.0805 1136.82 -17.1678 1135.51 -16.5638L1134.9 -16.2617C1133.49 -15.7584 1132.28 -16.3624 1131.48 -18.1745L1131.38 -18.4765C1130.57 -19.9866 1130.27 -22.906 1130.27 -27.2349C1129.97 -28.1409 1129.77 -28.8456 1129.56 -29.2483L1129.26 -29.8524C1128.05 -32.2685 1125.23 -33.7785 1120.7 -34.4832L1120.6 -34.5839C1120.8 -35.3893 1121 -36.1946 1121.3 -36.8993ZM1158.88 -14.7517C1159.48 -11.0268 1159.98 -8.81208 1160.39 -8.00671C1161.09 -6.69798 1161.7 -6.19463 1162.4 -6.49664C1162.91 -6.69798 1163.11 -7.60402 1163.11 -9.01342H1163.21L1163.41 -8.91275C1164.22 -6.19463 1164.11 -4.68457 1163.31 -4.18121L1163.01 -3.97987C1162.4 -3.67785 1161.7 -3.8792 1160.99 -4.5839C1160.79 -4.88591 1160.59 -5.18792 1160.49 -5.38926L1159.98 -6.39597C1158.98 -8.4094 1158.57 -11.1275 1158.78 -14.5503L1158.88 -14.7517Z" fill="#31827D"/>
<path d="M1270.86 -32.3863C1271.48 -32.1149 1272.29 -31.6112 1273.3 -30.8753C1274.37 -30.062 1274.88 -29.4427 1274.71 -29.1722C1274.62 -28.9661 1274.33 -28.8504 1273.82 -28.8253C1271.52 -28.6089 1269.66 -27.0643 1268.39 -24.1786C1267.04 -21.2284 1267.23 -17.0649 1268.54 -11.8688C1269.24 -9.30296 1271.46 -3.16487 1275.28 6.62289C1277.3 11.8843 1277.87 15.7261 1276.89 17.8517C1275.91 19.9773 1274.41 21.4836 1272.19 22.2801C1269.89 23.141 1267.61 23.0739 1265.48 22.0917C1260.8 20.0883 1256.37 16.1775 1252.1 10.5654C1251.6 9.80432 1251.43 9.28849 1251.61 8.87624C1251.62 8.73447 1251.76 8.74757 1251.97 8.83805C1252.24 9.00593 1252.64 9.3286 1253.22 10.0253C1257.59 15.4313 1261.71 18.8132 1265.72 20.3261C1268.62 21.4509 1270.53 20.9119 1271.43 18.8506C1272.71 15.8231 1272.28 11.208 1270.13 5.00559C1267.94 -0.629788 1265.8 -6.18771 1263.74 -11.81C1261.71 -18.5022 1261.64 -23.9417 1263.45 -28.0643C1264.27 -29.9194 1265.32 -31.1813 1266.75 -31.9788C1268.12 -32.8537 1269.48 -32.9422 1270.86 -32.3863ZM1231.27 -11.0108L1231.36 -11.2169C1234.81 -13.6876 1238.29 -14.2249 1241.65 -12.6999L1242.13 -12.4415C1243.84 -11.6403 1246.29 -9.48491 1249.18 -5.85949L1250.18 -5.12355C1251.63 -4.49024 1252.64 -4.68236 1253.1 -5.71299C1253.45 -6.39572 1253.05 -7.50474 1252.11 -8.94949L1252.21 -9.29742C1254.83 -7.41243 1255.82 -5.74845 1255.2 -4.44734L1254.93 -3.82898C1254.16 -2.54092 1252.85 -2.23312 1251.07 -3.11173L1250.8 -3.27963C1249.21 -3.92599 1247.11 -5.97795 1244.34 -9.30677C1243.53 -9.81043 1242.93 -10.2236 1242.51 -10.4045L1241.9 -10.676C1239.42 -11.7616 1236.29 -11.1209 1232.35 -8.76676L1232.21 -8.77975C1231.85 -9.52778 1231.49 -10.2759 1231.27 -11.0108ZM1274.33 -17.9845C1277.17 -15.5063 1278.98 -14.1249 1279.8 -13.7631C1281.18 -13.2072 1281.97 -13.2062 1282.32 -13.889C1282.58 -14.3656 1282.15 -15.1911 1281.25 -16.2749L1281.33 -16.3392L1281.55 -16.3905C1283.91 -14.8151 1284.79 -13.5896 1284.5 -12.6877L1284.39 -12.3398C1284.12 -11.7214 1283.45 -11.4258 1282.46 -11.5172C1282.11 -11.6207 1281.76 -11.7242 1281.56 -11.8147L1280.52 -12.2671C1278.46 -13.1718 1276.41 -15.0045 1274.38 -17.7653L1274.33 -17.9845Z" fill="#31827D"/>
<path d="M1213.03 7.14705C1212.22 6.84504 1211.22 7.54974 1210.21 9.26115L1210.41 9.36183C1211.22 8.65713 1211.82 8.45579 1212.32 8.55646C1212.93 8.7578 1213.13 9.36183 1212.83 10.3685L1212.42 11.0732C1210.41 13.0867 1209.2 14.6974 1208.9 15.8048L1208.8 16.2075C1208.09 18.4222 1208.6 20.5363 1210.41 22.4491L1210.51 22.5497C1210.91 22.4491 1211.32 22.0464 1211.82 21.6437V21.543C1210.11 19.2276 1209.6 17.3148 1210.01 15.8048L1210.11 15.4021C1210.21 15.1001 1210.41 14.6974 1210.71 14.194C1212.63 12.2813 1213.73 10.8719 1214.04 9.86519L1214.14 9.66383C1214.54 8.55645 1214.24 7.75109 1213.43 7.34841L1213.03 7.14705Z" fill="#31827D"/>
<path d="M1835.03 14.5616L1834.83 13.9576L1833.72 13.1522L1833.62 12.4475C1834.93 10.5348 1838.15 8.01801 1843.29 4.69587C1846.41 3.48781 1847.92 2.68243 1847.82 2.27975C1847.62 1.67572 1845.71 1.0717 1842.08 0.769683C1830.8 1.67572 1824.95 1.17237 1824.45 -0.740384L1824.65 -1.84776C1825.96 -3.96185 1826.57 -5.06924 1826.57 -5.27058C1826.37 -5.87461 1825.06 -6.07595 1822.34 -5.97528L1821.93 -5.87461C1821.43 -5.77394 1821.13 -5.57259 1820.93 -5.37125C1818.71 -3.35782 1817.8 -1.64642 1818.11 -0.438368C1819.01 3.18579 1825.96 4.49452 1838.96 3.38714L1839.06 3.58848L1838.86 3.68915C1828.88 8.52137 1824.45 13.2529 1825.56 17.8838L1825.66 18.2865C1826.37 18.9912 1828.48 19.6959 1831.8 20.4006L1832.21 20.2999C1834.42 17.7831 1835.33 15.971 1835.03 14.5616Z" fill="#31827D"/>
<path d="M1784.18 -9.96082L1783.74 -9.50207L1783.54 -8.14741L1782.96 -7.73118C1780.66 -8.00263 1776.93 -9.68796 1771.6 -12.6938C1769.08 -14.8974 1767.67 -15.8611 1767.36 -15.585C1766.91 -15.1264 1767.27 -13.1518 1768.68 -9.80147C1774.72 -0.234852 1776.99 5.17069 1775.53 6.50432L1774.45 6.83999C1771.97 6.66199 1770.71 6.64092 1770.53 6.73437C1770.09 7.19306 1770.52 8.4458 1771.87 10.8067L1772.14 11.1166C1772.47 11.5157 1772.79 11.6897 1773.06 11.7746C1775.87 12.8019 1777.81 12.8102 1778.74 11.982C1781.53 9.49732 1779.46 2.73714 1772.45 -8.25194L1772.58 -8.43464L1772.77 -8.30296C1781.68 -1.71784 1787.93 0.00957589 1791.52 -3.12065L1791.83 -3.3967C1792.13 -4.34798 1791.77 -6.54761 1790.85 -9.81733L1790.57 -10.1273C1787.31 -10.921 1785.29 -10.8825 1784.18 -9.96082Z" fill="#31827D"/>
<path d="M1896.42 7.69776C1893.8 7.99977 1892.29 7.79844 1891.78 6.99307C1891.08 5.88568 1891.88 4.57696 1894.1 3.16756C1895.51 2.26152 1899.54 0.952787 1905.99 -0.758622L1905.78 -0.959961C1899.74 -0.758619 1894.91 0.449441 1891.48 2.66421L1889.67 3.77158C1889.37 3.97292 1888.86 4.37561 1888.36 4.87897C1887.25 6.18769 1886.95 7.39575 1887.65 8.50313L1887.95 9.00649C1888.86 10.4159 1891.68 10.3152 1896.42 8.40246L1896.52 7.99978L1896.42 7.69776Z" fill="#31827D"/>
<path d="M1868.21 2.06063C1867.41 1.75862 1866.4 2.46332 1865.39 4.17473L1865.59 4.27539C1866.4 3.57069 1867 3.36936 1867.51 3.47003C1868.21 3.67138 1868.41 4.27539 1868.11 5.2821L1867.71 5.98681C1865.59 8.00023 1864.49 9.61097 1864.08 10.7184L1863.98 11.121C1863.28 13.3358 1863.78 15.4499 1865.59 17.3626L1865.69 17.4633C1866.1 17.3626 1866.6 16.96 1867 16.5573V16.4566C1865.29 14.1412 1864.69 12.2284 1865.19 10.7184L1865.29 10.3157C1865.39 10.0136 1865.59 9.61096 1865.9 9.10761C1867.81 7.19486 1868.92 5.78546 1869.22 4.77875L1869.32 4.57741C1869.72 3.47002 1869.42 2.66465 1868.62 2.26197L1868.21 2.06063Z" fill="#31827D"/>
<path d="M1392.12 15.3424L1391.92 14.7384L1390.81 13.933L1390.71 13.2283C1392.02 11.3155 1395.24 8.79877 1400.38 5.47663C1403.5 4.26857 1405.01 3.4632 1404.91 3.06051C1404.71 2.45648 1402.79 1.85246 1399.17 1.55044C1387.89 2.45648 1382.04 1.95313 1381.54 0.0403776L1381.74 -1.067C1383.05 -3.18109 1383.66 -4.28848 1383.66 -4.48982C1383.45 -5.09385 1382.15 -5.29519 1379.43 -5.19452L1379.02 -5.09385C1378.52 -4.99318 1378.22 -4.79183 1378.02 -4.59049C1375.8 -2.57706 1374.89 -0.86566 1375.2 0.342394C1376.1 3.96655 1383.05 5.27528 1396.05 4.1679L1396.15 4.36924L1395.95 4.46992C1385.97 9.30213 1381.54 14.0337 1382.65 18.6645L1382.75 19.0672C1383.45 19.7719 1385.57 20.4766 1388.89 21.1813L1389.3 21.0807C1391.51 18.5639 1392.42 16.7518 1392.12 15.3424Z" fill="#31827D"/>
<path d="M1453.16 8.69776C1450.54 8.99977 1449.03 8.79844 1448.53 7.99307C1447.82 6.88568 1448.63 5.57696 1450.84 4.16756C1452.25 3.26152 1456.28 1.95279 1462.73 0.241378L1462.53 0.0400391C1456.48 0.241381 1451.65 1.44944 1448.22 3.66421L1446.41 4.77158C1446.11 4.97292 1445.61 5.37561 1445.1 5.87897C1443.99 7.18769 1443.69 8.39575 1444.4 9.50313L1444.7 10.0065C1445.61 11.4159 1448.43 11.3152 1453.16 9.40246L1453.26 8.99978L1453.16 8.69776Z" fill="#31827D"/>
<path d="M1424.96 3.06063C1424.15 2.75862 1423.14 3.46332 1422.14 5.17473L1422.34 5.27539C1423.14 4.57069 1423.75 4.36936 1424.25 4.47003C1424.96 4.67138 1425.16 5.27539 1424.86 6.2821L1424.45 6.98681C1422.34 9.00023 1421.23 10.611 1420.83 11.7184L1420.73 12.121C1420.02 14.3358 1420.52 16.4499 1422.34 18.3626L1422.44 18.4633C1422.84 18.3626 1423.34 17.96 1423.75 17.5573V17.4566C1422.04 15.1412 1421.43 13.2284 1421.93 11.7184L1422.04 11.3157C1422.14 11.0136 1422.34 10.611 1422.64 10.1076C1424.55 8.19486 1425.66 6.78546 1425.96 5.77875L1426.06 5.57741C1426.47 4.47002 1426.17 3.66465 1425.36 3.26197L1424.96 3.06063Z" fill="#31827D"/>
<path d="M1705.07 -2.13251L1705.57 -1.72983L1706.98 -1.8305L1707.49 -1.42782C1707.69 0.887618 1706.88 4.91446 1704.97 10.6527C1703.26 13.5722 1702.65 15.1829 1703.06 15.3843C1703.66 15.7869 1705.37 14.9816 1708.39 12.8675C1716.55 5.01513 1721.39 1.69299 1722.9 2.90104L1723.5 3.90775C1723.81 6.32386 1724.11 7.53192 1724.21 7.73326C1724.71 8.13595 1725.92 7.43124 1727.94 5.61916L1728.24 5.31714C1728.54 4.91446 1728.64 4.61245 1728.74 4.31043C1729.14 1.39097 1728.74 -0.521772 1727.84 -1.32714C1724.81 -3.54191 1718.67 -0.11909 1709.3 8.94131L1709.1 8.84064L1709.2 8.6393C1713.83 -1.32715 1714.24 -7.87077 1710.41 -10.6896L1710.11 -10.9916C1709.1 -11.0922 1707.08 -10.2869 1704.06 -8.77681L1703.76 -8.4748C1703.56 -5.05198 1703.96 -2.93788 1705.07 -2.13251Z" fill="#31827D"/>
<path d="M818.142 29.7785C816.631 29.0738 814.717 30.1812 812.501 33.2014L812.602 33.5034H812.703C814.314 32.396 815.624 31.9933 816.53 32.396C817.638 32.8993 817.84 34.0067 817.135 35.7181C816.631 36.8255 814.516 39.141 810.99 42.5638L811.292 42.6644C815.523 40.349 818.243 37.9329 819.351 35.2148L819.955 33.9061C820.056 33.604 820.157 33.302 820.358 32.7987C820.358 31.4899 819.854 30.5839 818.746 30.0805L818.142 29.7785Z" fill="#F5EBC3" fill-opacity="0.1"/>
<path d="M864.927 0.583885C864.524 1.18791 863.92 1.89262 863.013 2.69799C862.006 3.60403 861.402 4.00672 861.099 3.80537C860.898 3.7047 860.898 3.40268 860.999 2.89933C861.2 0.583889 859.991 -1.42952 857.372 -3.2416C854.653 -5.05368 850.523 -5.65772 845.184 -5.15437C842.464 -4.85235 836.018 -3.74496 825.844 -1.73154C820.304 -0.624157 816.476 -0.724831 814.462 -2.03355C812.548 -3.34228 811.339 -5.05369 810.936 -7.4698C810.533 -9.78523 811.037 -12 812.346 -14.0134C815.167 -18.2416 819.7 -21.9664 826.046 -25.1879C826.851 -25.5906 827.456 -25.5906 827.859 -25.3893C827.959 -25.3893 827.959 -25.1879 827.859 -24.9866C827.657 -24.7852 827.254 -24.3825 826.448 -23.9799C820.405 -20.557 816.275 -17.0336 814.16 -13.4094C812.649 -10.6913 812.749 -8.77852 814.663 -7.57047C817.484 -5.75838 822.117 -5.45637 828.564 -6.56376C834.507 -7.67114 840.349 -8.87919 846.292 -9.98658C853.242 -10.7919 858.581 -9.98658 862.409 -7.4698C864.021 -6.36242 865.129 -5.05369 865.632 -3.54362C865.834 -2.03355 865.733 -0.624168 864.927 0.583885ZM850.624 -42L850.724 -41.8993C852.638 -38.0738 852.537 -34.651 850.422 -31.5302L850.12 -31.0268C849.012 -29.4161 846.494 -27.5034 842.464 -25.1879L841.558 -24.2819C840.651 -22.9732 840.651 -21.9664 841.659 -21.3624C842.263 -20.9597 843.371 -21.0604 844.983 -21.7651L845.285 -21.5638C842.968 -19.349 841.155 -18.6443 839.946 -19.4497L839.443 -19.8524C838.335 -20.8591 838.234 -22.1678 839.342 -23.7785L839.543 -23.9799C840.45 -25.3893 842.867 -27.1007 846.594 -29.2148C847.299 -29.9195 847.803 -30.4228 848.005 -30.8255L848.408 -31.4295C849.918 -33.6443 849.818 -36.8658 848.206 -41.094V-41.1946C849.113 -41.698 849.918 -42 850.624 -42ZM850.12 1.48994C847.199 3.80537 845.486 5.4161 844.983 6.1208C844.177 7.42952 844.076 8.13422 844.681 8.63758C845.083 8.93959 845.99 8.73825 847.199 7.93288H847.299V8.13422C845.386 10.1476 843.975 10.953 843.17 10.349L842.867 10.1476C842.263 9.74496 842.162 9.04026 842.364 8.13422C842.565 7.73154 842.767 7.42953 842.767 7.32887L843.371 6.32215C844.681 4.4094 846.796 2.69799 849.818 1.2886L850.12 1.48994Z" fill="#31827D"/>
<path d="M770.847 9.54368C770.646 8.63764 769.538 8.13428 767.624 8.13428V8.33563C768.631 8.73832 769.135 9.141 769.235 9.54368C769.336 10.2484 769.034 10.6511 767.926 10.9531H767.12C764.3 10.1477 762.386 9.94636 761.177 10.2484L760.774 10.3491C758.457 10.8524 756.946 12.3625 756.141 14.8793V14.9799C756.443 15.2819 756.946 15.4833 757.551 15.6846H757.652C758.76 13.0672 760.17 11.6578 761.781 11.2551L762.184 11.1544C762.487 11.0537 762.889 11.0537 763.494 11.0537C766.012 11.7584 767.825 12.0605 768.933 11.7584H769.135C770.343 11.5571 770.847 10.9531 770.746 9.94636L770.847 9.54368Z" fill="#31827D"/>
<path d="M297.298 1.20773C295.787 0.503035 293.873 1.61041 291.657 4.63055L291.758 4.93256H291.859C293.471 3.82518 294.78 3.4225 295.687 3.82519C296.795 4.32854 296.996 5.43591 296.291 7.14732C295.787 8.25471 293.672 10.5701 290.146 13.993L290.449 14.0936C294.679 11.7782 297.399 9.36209 298.507 6.64397L299.111 5.33526C299.212 5.03324 299.313 4.73122 299.514 4.22787C299.514 2.91914 299.011 2.01311 297.903 1.50975L297.298 1.20773Z" fill="#31827D"/>
<path d="M270.706 2.51634C270.505 1.6103 269.397 1.10693 267.483 1.10693V1.30829C268.49 1.71097 268.994 2.11365 269.095 2.51634C269.196 3.22104 268.893 3.62372 267.785 3.92573H266.98C264.159 3.12036 262.245 2.91902 261.036 3.22103L260.634 3.32171C258.317 3.82507 256.806 5.33513 256 7.85191V7.95257C256.302 8.25459 256.806 8.45593 257.41 8.65727H257.511C258.619 6.03982 260.029 4.63043 261.641 4.22775L262.044 4.12707C262.346 4.0264 262.749 4.02641 263.353 4.02641C265.871 4.7311 267.685 5.03311 268.793 4.7311H268.994C270.203 4.52976 270.706 3.92573 270.606 2.91902L270.706 2.51634Z" fill="#31827D"/>
<mask id="mask1_1_4859" style="mask-type:luminance" maskUnits="userSpaceOnUse" x="1498" y="-99" width="171" height="140">
<path d="M1510.62 -98.9998L1498.86 25.8848L1656.61 40.7199L1668.37 -84.1646L1510.62 -98.9998Z" fill="white"/>
</mask>
<g mask="url(#mask1_1_4859)">
<path d="M1573.89 0.549368C1572.38 1.1534 1571.88 3.2675 1572.48 6.99233L1572.78 7.09299H1572.88C1573.19 5.07957 1573.89 3.97219 1574.7 3.5695C1575.91 3.06615 1576.81 3.77085 1577.52 5.48226C1578.02 6.58965 1578.22 9.71044 1578.22 14.6433L1578.42 14.5427C1579.73 9.91179 1579.73 6.28763 1578.63 3.46884L1578.02 2.05944C1577.92 1.75742 1577.72 1.35475 1577.42 0.952062C1576.51 0.0460217 1575.5 -0.255989 1574.4 0.247367L1573.89 0.549368Z" fill="#31827D"/>
<path d="M1493.01 -30.6585C1493.21 -31.3632 1493.51 -32.1685 1494.12 -33.2759C1494.72 -34.484 1495.22 -35.088 1495.63 -34.9873C1495.83 -34.8867 1496.03 -34.6853 1496.03 -34.182C1496.53 -31.8665 1498.35 -30.3564 1501.47 -29.5511C1504.59 -28.645 1508.72 -29.3497 1513.66 -31.5645C1516.07 -32.6719 1521.82 -35.7927 1530.98 -40.9269C1535.92 -43.7457 1539.54 -44.8531 1541.86 -44.2491C1544.08 -43.645 1545.79 -42.3363 1546.9 -40.2222C1548.01 -38.1081 1548.31 -35.8934 1547.6 -33.5779C1546.29 -28.645 1543.07 -23.7122 1538.13 -18.6786C1537.53 -18.0746 1536.93 -17.7726 1536.52 -17.8732C1536.42 -17.8732 1536.42 -17.9739 1536.42 -18.2759C1536.52 -18.5779 1536.82 -19.0813 1537.43 -19.6853C1542.06 -24.8195 1544.88 -29.4504 1545.79 -33.5779C1546.39 -36.5981 1545.69 -38.4101 1543.47 -39.0142C1540.25 -39.8195 1535.72 -38.7122 1529.97 -35.5913C1524.74 -32.6719 1519.5 -29.6518 1514.26 -26.833C1507.92 -23.9135 1502.58 -23.0075 1498.14 -24.1148C1496.23 -24.6182 1494.82 -25.5242 1493.81 -26.833C1492.91 -27.9403 1492.6 -29.2491 1493.01 -30.6585ZM1519.9 5.18046L1519.7 5.07978C1516.68 2.05965 1515.67 -1.26249 1516.78 -4.88665L1516.98 -5.49068C1517.48 -7.30276 1519.3 -10.0209 1522.42 -13.4437L1523.02 -14.5511C1523.43 -16.1618 1523.13 -17.0679 1522.02 -17.3699C1521.31 -17.5712 1520.3 -17.0679 1519 -15.9605L1518.59 -16.0611C1520.1 -18.8799 1521.61 -20.088 1523.02 -19.6853L1523.63 -19.484C1525.04 -18.8799 1525.44 -17.6719 1524.94 -15.7591L1524.84 -15.4571C1524.43 -13.8464 1522.72 -11.4303 1519.8 -8.20881C1519.4 -7.30276 1519.1 -6.69874 1518.89 -6.19538L1518.69 -5.49068C1517.99 -2.87323 1519.1 0.146904 1521.92 3.67039V3.77107C1521.31 4.47577 1520.61 4.97912 1519.9 5.18046ZM1506.71 -36.296C1508.72 -39.4168 1509.83 -41.4303 1510.13 -42.3363C1510.53 -43.7457 1510.33 -44.5511 1509.63 -44.7524C1509.12 -44.9538 1508.42 -44.4504 1507.41 -43.343H1507.31L1507.21 -43.5444C1508.42 -46.0611 1509.53 -47.2692 1510.43 -46.9672L1510.74 -46.8665C1511.44 -46.6652 1511.74 -46.0611 1511.84 -45.0544C1511.84 -44.6518 1511.74 -44.3497 1511.74 -44.1484L1511.44 -43.041C1510.84 -40.8262 1509.33 -38.5108 1506.91 -36.1954L1506.71 -36.296Z" fill="#31827D"/>
<path d="M1606.63 2.56321C1606.83 1.85851 1607.13 1.05315 1607.74 -0.0542307C1608.34 -1.26228 1608.85 -1.86631 1609.25 -1.76564C1609.45 -1.66497 1609.65 -1.46363 1609.65 -0.960279C1610.16 1.35516 1611.97 2.86523 1615.09 3.6706C1618.21 4.57664 1622.34 3.87194 1627.28 1.65718C1629.7 0.549793 1635.44 -2.57102 1644.6 -7.70524C1649.54 -10.524 1653.17 -11.6314 1655.48 -11.0274C1657.7 -10.4234 1659.41 -9.11463 1660.52 -7.00054C1661.73 -4.88645 1661.93 -2.67168 1661.33 -0.356247C1660.02 4.57664 1656.79 9.50953 1651.86 14.5431C1651.25 15.1471 1650.65 15.4491 1650.25 15.3485C1650.14 15.3485 1650.04 15.2478 1650.14 14.9458C1650.25 14.6437 1650.55 14.1404 1651.15 13.5364C1655.89 8.40215 1658.61 3.77128 1659.51 -0.255569C1660.12 -3.2757 1659.41 -5.08779 1657.2 -5.69182C1653.97 -6.49719 1649.44 -5.3898 1643.7 -2.269C1638.46 0.650463 1633.22 3.6706 1627.98 6.48939C1621.64 9.40886 1616.3 10.3149 1611.87 9.20751C1609.95 8.70415 1608.54 7.79812 1607.54 6.48939C1606.53 5.28134 1606.23 3.97261 1606.63 2.56321ZM1633.52 38.4021L1633.32 38.3015C1630.3 35.2813 1629.29 31.9592 1630.4 28.335L1630.6 27.731C1631.11 25.9189 1632.92 23.2008 1636.04 19.778L1636.65 18.6706C1637.05 17.0598 1636.75 16.1538 1635.64 15.8518C1634.93 15.6505 1633.93 16.1538 1632.62 17.2612L1632.21 17.1605C1633.73 14.3417 1635.24 13.1337 1636.65 13.5364L1637.25 13.7377C1638.66 14.3417 1639.06 15.5498 1638.56 17.4625L1638.46 17.7646C1638.06 19.3753 1636.34 21.7914 1633.42 25.0129C1633.02 25.9189 1632.72 26.5229 1632.52 27.0263L1632.32 27.731C1631.61 30.3484 1632.72 33.3686 1635.54 36.8921V36.9927C1634.93 37.6974 1634.23 38.2008 1633.52 38.4021ZM1620.33 -3.07436C1622.34 -6.19517 1623.45 -8.20859 1623.65 -9.11463C1624.06 -10.524 1623.85 -11.3294 1623.25 -11.5307C1622.75 -11.7321 1622.04 -11.2287 1621.03 -10.1213H1620.93L1620.83 -10.3227C1622.04 -12.8395 1623.15 -14.0475 1624.06 -13.7455L1624.36 -13.6448C1625.06 -13.4435 1625.37 -12.8395 1625.47 -11.8328C1625.47 -11.4301 1625.37 -11.1281 1625.37 -10.9267L1625.06 -9.81933C1624.46 -7.60457 1622.95 -5.28913 1620.53 -2.97369L1620.33 -3.07436Z" fill="#31827D"/>
<path d="M1537.23 7.89853L1537.03 8.09987V8.80458L1536.83 9.10658C1535.62 9.20725 1533.6 8.7039 1530.68 7.69719C1529.17 6.79115 1528.46 6.48914 1528.26 6.69048C1528.06 6.99249 1528.46 7.89854 1529.47 9.50927C1533.4 13.7375 1535.11 16.2542 1534.51 16.9589L1534 17.2609C1532.8 17.3616 1532.09 17.4623 1532.09 17.563C1531.89 17.7643 1532.19 18.469 1533.1 19.4757L1533.3 19.5764C1533.5 19.6771 1533.7 19.7777 1533.8 19.8784C1535.31 20.0797 1536.22 19.9791 1536.62 19.4757C1537.83 17.9656 1536.12 14.7442 1531.59 9.91195L1531.69 9.81129H1531.79C1536.93 12.2274 1540.15 12.5294 1541.66 10.6166L1541.76 10.4153C1541.86 9.91195 1541.46 8.80458 1540.65 7.29451L1540.45 7.19384C1538.74 7.09316 1537.73 7.2945 1537.23 7.89853Z" fill="#31827D"/>
</g>
<path d="M1479.91 6.20117C1478.29 6.20117 1476.99 8.01326 1476.18 11.5367L1476.38 11.7381H1476.48C1477.59 10.1273 1478.5 9.22131 1479.5 9.22131C1480.71 9.22131 1481.42 10.228 1481.42 12.0401C1481.42 13.2482 1480.41 16.1676 1478.6 20.7985H1478.9C1481.82 17.0737 1483.33 13.6508 1483.33 10.7314V9.22131C1483.33 8.91929 1483.23 8.51661 1483.23 8.01326C1482.73 6.8052 1481.82 6.20117 1480.61 6.20117H1479.91Z" fill="#31827D"/>
<path d="M1299.25 8.15425C1297.64 6.04016 1297.14 4.63077 1297.54 3.72473C1298.14 2.61735 1299.65 2.61736 1301.97 3.82541C1303.48 4.63078 1306.6 7.44957 1311.34 12.0804L1311.44 11.7784C1308.22 6.64419 1304.79 3.02003 1301.16 1.20795L1299.35 0.201243C1299.05 -9.97186e-05 1298.45 -0.201448 1297.74 -0.40279C1296.03 -0.704804 1294.82 -0.402778 1294.21 0.805275L1293.91 1.30863C1293.11 2.8187 1294.62 5.2348 1298.65 8.35561L1299.05 8.25493L1299.25 8.15425Z" fill="#31827D"/>
<path d="M1347.4 7.6506C1345.89 6.9459 1343.98 8.0533 1341.76 11.0734L1341.86 11.3754H1341.96C1343.67 10.2681 1344.88 9.86537 1345.79 10.2681C1346.9 10.7714 1347.1 11.8788 1346.39 13.5902C1345.89 14.6976 1343.77 17.013 1340.25 20.4358L1340.55 20.5365C1344.78 18.2211 1347.5 15.805 1348.61 13.0869L1349.21 11.7781C1349.31 11.4761 1349.41 11.1741 1349.62 10.6707C1349.62 9.36201 1349.11 8.45597 1348 7.95262L1347.4 7.6506Z" fill="#31827D"/>
<path d="M202.062 8.35509L202.767 7.65038L203.069 5.33495L203.975 4.52958C207.803 4.83159 214.25 7.34836 223.215 12.1806C227.546 15.8047 229.964 17.2141 230.467 16.7108C231.273 15.9054 230.467 12.7846 227.949 7.14702C217.272 -8.45701 213.142 -17.4167 215.559 -19.6315L217.372 -20.3362C221.502 -20.2355 223.618 -20.2355 223.92 -20.4369C224.625 -21.1416 223.819 -23.3563 221.402 -27.1818L220.898 -27.6852C220.294 -28.2892 219.79 -28.5912 219.387 -28.7926C214.653 -30.3026 211.429 -30.202 209.918 -28.7926C205.386 -24.4637 209.314 -13.2892 221.603 4.63024L221.402 4.8316L221.2 4.63024C205.99 -5.83956 195.413 -8.25566 189.571 -2.81941L189.068 -2.31606C188.665 -0.604649 189.37 2.91884 191.082 8.25441L191.586 8.75776C196.824 10.0665 200.349 9.96582 202.062 8.35509Z" fill="#31827D"/>
<path d="M376.068 -1.91278C375.866 -1.20808 375.464 -0.402706 374.96 0.704678C374.356 1.91273 373.751 2.51675 373.449 2.41608C373.247 2.31541 373.046 2.11407 373.046 1.61071C372.542 -0.704727 370.729 -2.21479 367.707 -3.12083C364.585 -4.02687 360.455 -3.32216 355.519 -1.20807C353.102 -0.100685 347.259 2.91945 338.093 8.05367C333.157 10.7718 329.43 11.8792 327.113 11.2751C324.897 10.6711 323.185 9.36239 322.077 7.14762C320.969 5.03353 320.768 2.81878 321.372 0.503338C322.782 -4.42955 326.005 -9.36244 330.941 -14.396C331.546 -15 332.15 -15.2014 332.553 -15.1007C332.654 -15.1007 332.754 -15 332.654 -14.698C332.553 -14.396 332.251 -13.8926 331.646 -13.2886C326.912 -8.15438 324.092 -3.52351 323.185 0.503338C322.48 3.52347 323.286 5.33554 325.401 5.93957C328.624 6.74494 333.157 5.73823 339 2.7181C344.338 -0.201366 349.576 -3.12083 354.814 -5.93962C361.16 -8.85909 366.499 -9.66446 370.931 -8.4564C372.845 -7.95305 374.255 -7.047 375.262 -5.73827C376.169 -4.63089 376.471 -3.32218 376.068 -1.91278ZM349.475 -38.0537L349.677 -37.953C352.598 -34.9329 353.605 -31.6108 352.497 -27.9866L352.296 -27.3826C351.792 -25.5705 349.979 -22.953 346.756 -19.5302L346.151 -18.4228C345.748 -16.8121 346.051 -15.9061 347.159 -15.604C347.864 -15.4027 348.871 -15.9061 350.18 -17.0134L350.583 -16.9128C349.072 -14.094 347.562 -12.8859 346.151 -13.2886L345.547 -13.49C344.137 -14.094 343.734 -15.302 344.237 -17.2148L344.338 -17.5168C344.842 -19.1275 346.554 -21.5436 349.475 -24.6644C349.878 -25.5705 350.18 -26.1745 350.382 -26.6779L350.583 -27.3826C351.289 -29.8994 350.281 -33.0202 347.36 -36.5436V-36.6443C348.065 -37.349 348.77 -37.8524 349.475 -38.0537ZM362.268 3.52347C360.253 6.64428 359.045 8.6577 358.843 9.56374C358.44 10.9731 358.642 11.7785 359.246 11.9798C359.75 12.1812 360.455 11.6778 361.462 10.5704H361.563L361.664 10.7718C360.455 13.2886 359.347 14.3959 358.34 14.1946L358.037 14.0939C357.332 13.8926 357.03 13.2886 356.929 12.2819C356.929 11.8792 357.03 11.5772 357.131 11.3758L357.433 10.2684C358.037 8.05367 359.548 5.73823 362.067 3.42279L362.268 3.52347Z" fill="#31827D"/>
</g>
</svg>
