<svg width="1521" height="805" viewBox="0 0 1521 805" fill="none" xmlns="http://www.w3.org/2000/svg">
<g filter="url(#filter0_d_0_1)">
<rect x="11" y="24" width="1461" height="780" rx="5" fill="white"/>
<rect x="10.63" y="23.63" width="1461.74" height="780.74" rx="5.37" stroke="#E7E9EB" stroke-width="0.74"/>
</g>
<g opacity="0.2">
<mask id="mask0_0_1" style="mask-type:alpha" maskUnits="userSpaceOnUse" x="59" y="23" width="1463" height="782">
<rect x="59.63" y="23.63" width="1461.74" height="780.74" rx="5.37" fill="white" stroke="#E7E9EB" stroke-width="0.74"/>
</mask>
<g mask="url(#mask0_0_1)">
<g opacity="0.2">
<path d="M1257.76 819.999H1153.26C1151.43 819.995 1149.64 819.464 1148.11 818.47C1146.58 817.476 1145.36 816.06 1144.61 814.394L1106.61 728.893C1105.76 726.631 1105.8 724.128 1106.72 721.894C1107.65 719.66 1109.39 717.864 1111.6 716.87C1113.8 715.877 1116.3 715.762 1118.59 716.548C1120.88 717.335 1122.78 718.963 1123.9 721.103L1159.43 800.999H1250.92L1277.24 721.958C1277.87 720.071 1279.09 718.432 1280.71 717.273C1282.33 716.114 1284.27 715.493 1286.26 715.498H1324.26C1326.78 715.498 1329.2 716.499 1330.98 718.28C1332.76 720.062 1333.76 722.478 1333.76 724.998C1333.76 727.517 1332.76 729.934 1330.98 731.715C1329.2 733.497 1326.78 734.498 1324.26 734.498H1293.1L1267.26 813.539C1266.6 815.505 1265.31 817.201 1263.6 818.367C1261.88 819.534 1259.83 820.107 1257.76 819.999Z" fill="#188886"/>
<path d="M1196.29 705.429C1194.92 705.429 1193.57 705.132 1192.32 704.558C1191.07 703.984 1189.97 703.147 1189.07 702.104L1175.01 685.384C1174.21 684.43 1173.6 683.326 1173.22 682.136C1172.84 680.947 1172.7 679.694 1172.81 678.45C1172.91 677.206 1173.26 675.995 1173.84 674.886C1174.41 673.777 1175.2 672.793 1176.15 671.989C1177.11 671.183 1178.21 670.574 1179.4 670.195C1180.59 669.816 1181.84 669.676 1183.09 669.782C1184.33 669.888 1185.54 670.238 1186.65 670.812C1187.76 671.386 1188.75 672.174 1189.55 673.129L1196.48 681.394L1222.13 652.228C1223.8 650.341 1226.14 649.191 1228.66 649.03C1231.17 648.87 1233.64 649.713 1235.53 651.373C1237.42 653.038 1238.57 655.383 1238.73 657.894C1238.89 660.405 1238.05 662.878 1236.38 664.769L1203.42 702.199C1202.53 703.212 1201.43 704.024 1200.2 704.581C1198.98 705.138 1197.64 705.427 1196.29 705.429Z" fill="#188886"/>
<path d="M1200.75 744.001C1185.64 744.001 1171.14 737.996 1160.45 727.306C1149.76 716.616 1143.75 702.118 1143.75 687C1143.75 671.883 1149.76 657.385 1160.45 646.695C1171.14 636.005 1185.64 630 1200.75 630C1203.27 630 1205.69 631.001 1207.47 632.783C1209.25 634.564 1210.25 636.981 1210.25 639.5C1210.25 642.02 1209.25 644.436 1207.47 646.218C1205.69 647.999 1203.27 649 1200.75 649C1193.24 649 1185.89 651.229 1179.64 655.404C1173.39 659.58 1168.52 665.515 1165.64 672.458C1162.77 679.402 1162.02 687.043 1163.48 694.414C1164.95 701.785 1168.57 708.556 1173.88 713.871C1179.2 719.185 1185.97 722.804 1193.34 724.271C1200.71 725.737 1208.35 724.984 1215.29 722.108C1222.24 719.232 1228.17 714.361 1232.35 708.112C1236.52 701.863 1238.75 694.516 1238.75 687C1238.75 684.481 1239.75 682.065 1241.54 680.283C1243.32 678.501 1245.73 677.5 1248.25 677.5C1250.77 677.5 1253.19 678.501 1254.97 680.283C1256.75 682.065 1257.75 684.481 1257.75 687C1257.75 702.118 1251.75 716.616 1241.06 727.306C1230.37 737.996 1215.87 744.001 1200.75 744.001Z" fill="#188886"/>
<path d="M1153.26 858.001C1147.62 858.001 1142.11 856.329 1137.43 853.198C1132.74 850.066 1129.09 845.615 1126.93 840.407C1124.77 835.199 1124.21 829.469 1125.31 823.94C1126.41 818.412 1129.12 813.334 1133.11 809.348C1137.09 805.362 1142.17 802.648 1147.7 801.548C1153.23 800.448 1158.96 801.013 1164.17 803.17C1169.37 805.327 1173.83 808.98 1176.96 813.667C1180.09 818.353 1181.76 823.864 1181.76 829.501C1181.76 837.059 1178.76 844.308 1173.41 849.653C1168.07 854.998 1160.82 858.001 1153.26 858.001ZM1153.26 820C1151.38 820 1149.54 820.558 1147.98 821.601C1146.42 822.645 1145.2 824.129 1144.48 825.865C1143.76 827.601 1143.58 829.511 1143.94 831.354C1144.31 833.197 1145.21 834.889 1146.54 836.218C1147.87 837.547 1149.56 838.451 1151.41 838.818C1153.25 839.185 1155.16 838.996 1156.9 838.277C1158.63 837.558 1160.12 836.341 1161.16 834.778C1162.2 833.216 1162.76 831.379 1162.76 829.501C1162.76 826.981 1161.76 824.565 1159.98 822.783C1158.2 821.001 1155.78 820 1153.26 820Z" fill="#188886"/>
<path d="M1257.76 858.001C1252.13 858.001 1246.61 856.329 1241.93 853.198C1237.24 850.066 1233.59 845.615 1231.43 840.407C1229.27 835.199 1228.71 829.469 1229.81 823.94C1230.91 818.412 1233.62 813.334 1237.61 809.348C1241.6 805.362 1246.67 802.648 1252.2 801.548C1257.73 800.448 1263.46 801.013 1268.67 803.17C1273.88 805.327 1278.33 808.98 1281.46 813.667C1284.59 818.353 1286.26 823.864 1286.26 829.501C1286.26 837.059 1283.26 844.308 1277.91 849.653C1272.57 854.998 1265.32 858.001 1257.76 858.001ZM1257.76 820C1255.88 820 1254.05 820.558 1252.48 821.601C1250.92 822.645 1249.7 824.129 1248.99 825.865C1248.27 827.601 1248.08 829.511 1248.44 831.354C1248.81 833.197 1249.72 834.889 1251.04 836.218C1252.37 837.547 1254.07 838.451 1255.91 838.818C1257.75 839.185 1259.66 838.996 1261.4 838.277C1263.13 837.558 1264.62 836.341 1265.66 834.778C1266.7 833.216 1267.26 831.379 1267.26 829.501C1267.26 826.981 1266.26 824.565 1264.48 822.783C1262.7 821.001 1260.28 820 1257.76 820Z" fill="#188886"/>
</g>
</g>
</g>
<ellipse cx="747.5" cy="414" rx="76.5" ry="16" fill="#DDEDEC"/>
<path d="M678.24 95.7C677.84 95.7 677.52 95.58 677.28 95.34C677.04 95.0867 676.92 94.76 676.92 94.36C676.92 93.9733 677.04 93.66 677.28 93.42C677.52 93.18 677.84 93.06 678.24 93.06C678.64 93.06 678.953 93.18 679.18 93.42C679.42 93.6467 679.54 93.96 679.54 94.36C679.54 95.2533 679.107 95.7 678.24 95.7ZM681.32 95.7C680.92 95.7 680.6 95.58 680.36 95.34C680.12 95.1 680 94.7733 680 94.36C680 93.4933 680.44 93.06 681.32 93.06C681.72 93.06 682.033 93.18 682.26 93.42C682.5 93.6467 682.62 93.96 682.62 94.36C682.62 95.2533 682.187 95.7 681.32 95.7ZM676.32 105C675.187 105 674.3 104.62 673.66 103.86C673.087 103.193 672.8 102.333 672.8 101.28V99.24L675.3 97.92V101.12C675.3 101.653 675.407 102.033 675.62 102.26C675.847 102.473 676.213 102.58 676.72 102.58H683.24C683.747 102.58 684.107 102.467 684.32 102.24C684.533 102.013 684.64 101.64 684.64 101.12V97.44L687.16 96.12V101.28C687.16 102.493 686.78 103.44 686.02 104.12C685.353 104.707 684.5 105 683.46 105H676.32ZM694.449 105C693.235 105 692.295 104.613 691.629 103.84C691.055 103.173 690.769 102.313 690.769 101.26V93.42L693.289 92.1V101.14C693.289 101.66 693.395 102.033 693.609 102.26C693.822 102.473 694.182 102.58 694.689 102.58H696.489V105H694.449ZM695.283 105V102.58H697.083C697.589 102.58 697.949 102.473 698.163 102.26C698.376 102.033 698.483 101.66 698.483 101.14V97.44L701.003 96.12V101.26C701.003 102.473 700.629 103.42 699.883 104.1C699.229 104.7 698.376 105 697.323 105H695.283ZM696.363 109.46C695.963 109.46 695.643 109.34 695.403 109.1C695.163 108.86 695.043 108.533 695.043 108.12C695.043 107.253 695.483 106.82 696.363 106.82C696.763 106.82 697.076 106.933 697.303 107.16C697.543 107.4 697.663 107.72 697.663 108.12C697.663 109.013 697.229 109.46 696.363 109.46ZM699.443 109.46C699.043 109.46 698.723 109.34 698.483 109.1C698.243 108.86 698.123 108.533 698.123 108.12C698.123 107.253 698.563 106.82 699.443 106.82C699.843 106.82 700.156 106.933 700.383 107.16C700.623 107.4 700.743 107.72 700.743 108.12C700.743 109.013 700.309 109.46 699.443 109.46ZM710.925 102.58H712.725V105H710.685C710.232 105 709.812 104.94 709.425 104.82C709.252 106.1 708.739 107.113 707.885 107.86C707.112 108.527 706.185 108.86 705.105 108.86C704.265 108.86 703.445 108.647 702.645 108.22V106.02C703.339 106.407 704.019 106.6 704.685 106.6C705.419 106.6 705.985 106.36 706.385 105.88C706.799 105.413 707.005 104.76 707.005 103.92V97.44L708.645 96.58L709.505 96.12V96.14L709.525 96.12V101.14C709.525 101.66 709.632 102.033 709.845 102.26C710.059 102.473 710.419 102.58 710.925 102.58ZM713.433 94.36C713.033 94.36 712.713 94.24 712.473 94C712.233 93.76 712.113 93.4333 712.113 93.02C712.113 92.6333 712.233 92.32 712.473 92.08C712.713 91.84 713.033 91.72 713.433 91.72C713.833 91.72 714.146 91.84 714.373 92.08C714.613 92.3067 714.733 92.62 714.733 93.02C714.733 93.9133 714.299 94.36 713.433 94.36ZM716.493 94.36C716.093 94.36 715.773 94.24 715.533 94C715.293 93.7467 715.173 93.42 715.173 93.02C715.173 92.6333 715.293 92.32 715.533 92.08C715.786 91.84 716.106 91.72 716.493 91.72C716.893 91.72 717.206 91.84 717.433 92.08C717.673 92.3067 717.793 92.62 717.793 93.02C717.793 93.9133 717.359 94.36 716.493 94.36ZM718.653 102.58H720.453V105H718.413C717.439 105 716.633 104.74 715.993 104.22C715.353 104.74 714.546 105 713.573 105H711.533V102.58H713.333C713.839 102.58 714.199 102.473 714.413 102.26C714.626 102.033 714.733 101.66 714.733 101.14V97.44L717.253 96.12V101.14C717.253 101.66 717.359 102.033 717.573 102.26C717.786 102.473 718.146 102.58 718.653 102.58ZM730.608 91.42C729.808 91.42 729.408 91.0133 729.408 90.2C729.408 89.4133 729.808 89.02 730.608 89.02C731.394 89.02 731.788 89.4133 731.788 90.2C731.788 91.0133 731.394 91.42 730.608 91.42ZM729.088 94.36C728.688 94.36 728.368 94.24 728.128 94C727.888 93.76 727.768 93.4333 727.768 93.02C727.768 92.6333 727.888 92.32 728.128 92.08C728.368 91.84 728.688 91.72 729.088 91.72C729.488 91.72 729.801 91.84 730.028 92.08C730.268 92.3067 730.388 92.62 730.388 93.02C730.388 93.9133 729.954 94.36 729.088 94.36ZM732.168 94.36C731.768 94.36 731.448 94.24 731.208 94C730.968 93.76 730.848 93.4333 730.848 93.02C730.848 92.6333 730.968 92.32 731.208 92.08C731.448 91.84 731.768 91.72 732.168 91.72C732.568 91.72 732.881 91.84 733.108 92.08C733.348 92.3067 733.468 92.62 733.468 93.02C733.468 93.9133 733.034 94.36 732.168 94.36ZM719.248 105V102.58H721.368C721.874 102.58 722.234 102.473 722.448 102.26C722.674 102.033 722.788 101.66 722.788 101.14V98.5L725.308 97.18V101.14C725.308 101.66 725.414 102.033 725.628 102.26C725.841 102.473 726.201 102.58 726.708 102.58H728.068C728.574 102.58 728.934 102.473 729.148 102.26C729.361 102.033 729.468 101.66 729.468 101.14V97.98L731.988 96.64V101.14C731.988 101.66 732.094 102.033 732.308 102.26C732.534 102.473 732.901 102.58 733.408 102.58H734.768C735.274 102.58 735.634 102.473 735.848 102.26C736.061 102.033 736.168 101.66 736.168 101.14V97.44L738.688 96.12V100.82C738.688 101.46 738.814 101.913 739.068 102.18C739.334 102.447 739.774 102.58 740.388 102.58H742.228V105H740.248C739.128 105 738.228 104.68 737.548 104.04C736.948 104.667 736.141 104.987 735.128 105H733.148C732.161 105 731.354 104.707 730.728 104.12C730.154 104.693 729.394 104.987 728.448 105H726.468C725.481 105 724.674 104.707 724.048 104.12C723.421 104.707 722.614 105 721.628 105H719.248ZM753.745 102.58H755.525V105H753.485C752.525 105 751.738 104.753 751.125 104.26C750.405 105.02 749.458 105.4 748.285 105.4C747.085 105.4 746.138 105.02 745.445 104.26C744.805 104.753 744.012 105 743.065 105H741.025V102.58H742.825C743.332 102.58 743.692 102.473 743.905 102.26C744.118 102.033 744.225 101.66 744.225 101.14V100.56C744.225 99 744.632 97.7867 745.445 96.92C746.152 96.16 747.098 95.78 748.285 95.78C749.632 95.78 750.672 96.2733 751.405 97.26C752.018 98.1 752.325 99.2 752.325 100.56V101.14C752.325 101.66 752.432 102.033 752.645 102.26C752.872 102.473 753.238 102.58 753.745 102.58ZM748.285 102.98C749.298 102.98 749.805 102.153 749.805 100.5C749.805 98.9133 749.298 98.12 748.285 98.12C747.258 98.12 746.745 98.9133 746.745 100.5C746.745 102.153 747.258 102.98 748.285 102.98ZM754.326 105V102.58H755.586C756.199 102.58 756.632 102.447 756.886 102.18C757.152 101.913 757.286 101.46 757.286 100.82V93.44L759.786 92.1V100.84C759.786 102.133 759.392 103.167 758.606 103.94C757.886 104.647 756.926 105 755.726 105H754.326ZM763.386 105V93.44L765.906 92.1V105H763.386ZM775.704 93.7C775.304 93.7 774.984 93.58 774.744 93.34C774.504 93.1 774.384 92.7733 774.384 92.36C774.384 91.4933 774.824 91.06 775.704 91.06C776.104 91.06 776.417 91.18 776.644 91.42C776.884 91.6467 777.004 91.96 777.004 92.36C777.004 93.2533 776.571 93.7 775.704 93.7ZM778.784 93.7C778.384 93.7 778.064 93.58 777.824 93.34C777.584 93.1 777.464 92.7733 777.464 92.36C777.464 91.4933 777.904 91.06 778.784 91.06C779.184 91.06 779.497 91.18 779.724 91.42C779.964 91.6467 780.084 91.96 780.084 92.36C780.084 93.2533 779.651 93.7 778.784 93.7ZM782.164 102.58H783.964V105H781.924C780.684 105 779.724 104.587 779.044 103.76C778.471 104.2 777.771 104.42 776.944 104.42C775.717 104.42 774.737 103.96 774.004 103.04C773.404 102.28 773.104 101.367 773.104 100.3C773.104 98.98 773.531 97.9067 774.384 97.08C775.104 96.3867 775.937 96.04 776.884 96.04C777.377 96.04 777.831 96.1333 778.244 96.32V95.8L780.744 94.48V101.14C780.744 101.66 780.851 102.033 781.064 102.26C781.291 102.473 781.657 102.58 782.164 102.58ZM778.244 98.84C777.897 98.5467 777.504 98.4 777.064 98.4C776.624 98.4 776.264 98.58 775.984 98.94C775.717 99.3 775.584 99.7733 775.584 100.36C775.584 100.947 775.717 101.413 775.984 101.76C776.251 102.107 776.617 102.28 777.084 102.28C777.591 102.28 777.984 102.107 778.264 101.76C778.251 101.653 778.244 101.487 778.244 101.26V98.84ZM789.643 102.58H791.443V105H789.403C788.363 105 787.517 104.707 786.863 104.12C786.13 104.707 785.23 105 784.163 105H782.763V102.58H784.023C784.637 102.58 785.07 102.447 785.323 102.18C785.59 101.913 785.723 101.46 785.723 100.82V93.44L788.223 92.1V96.14L788.243 96.12V101.14C788.243 101.66 788.35 102.033 788.563 102.26C788.777 102.473 789.137 102.58 789.643 102.58ZM790.244 105V102.58H792.364C792.87 102.58 793.23 102.473 793.444 102.26C793.67 102.033 793.784 101.66 793.784 101.14V98.5L796.304 97.18V101.14C796.304 101.66 796.41 102.033 796.624 102.26C796.837 102.473 797.197 102.58 797.704 102.58H799.064C799.57 102.58 799.93 102.473 800.144 102.26C800.357 102.033 800.464 101.66 800.464 101.14V97.98L802.984 96.64V101.14C802.984 101.66 803.09 102.033 803.304 102.26C803.53 102.473 803.897 102.58 804.404 102.58H805.764C806.27 102.58 806.63 102.473 806.844 102.26C807.057 102.033 807.164 101.66 807.164 101.14V97.44L809.684 96.12V101.26C809.684 102.447 809.324 103.38 808.604 104.06C807.977 104.66 807.15 104.973 806.124 105H804.144C803.157 105 802.35 104.707 801.724 104.12C801.15 104.693 800.39 104.987 799.444 105H797.464C796.477 105 795.67 104.707 795.044 104.12C794.417 104.707 793.61 105 792.624 105H790.244Z" fill="black"/>
<path d="M752.281 404.668C751.251 404.672 750.233 404.441 749.306 403.992C735.199 397.023 719.944 392.671 704.283 391.148C695.743 390.269 687.135 390.269 678.594 391.148C677.652 391.243 676.699 391.138 675.799 390.841C674.9 390.544 674.072 390.061 673.371 389.424C672.67 388.786 672.11 388.009 671.729 387.141C671.348 386.273 671.154 385.335 671.158 384.388V276.225C671.15 274.543 671.769 272.918 672.894 271.668C674.019 270.418 675.569 269.633 677.242 269.464C686.686 268.585 696.191 268.585 705.635 269.464C721.783 271.118 737.544 275.436 752.281 282.241C767.017 275.436 782.779 271.118 798.926 269.464C808.37 268.585 817.875 268.585 827.319 269.464C828.992 269.633 830.543 270.418 831.668 271.668C832.793 272.918 833.411 274.543 833.403 276.225V384.388C833.408 385.335 833.213 386.273 832.832 387.141C832.451 388.009 831.891 388.786 831.19 389.424C830.489 390.061 829.662 390.544 828.762 390.841C827.862 391.138 826.91 391.243 825.967 391.148C817.426 390.269 808.818 390.269 800.278 391.148C784.617 392.671 769.362 397.023 755.255 403.992C754.328 404.441 753.311 404.672 752.281 404.668ZM691.439 376.951C696.171 376.951 700.903 376.951 705.635 377.627C721.783 379.281 737.544 383.599 752.281 390.404C767.017 383.599 782.779 379.281 798.926 377.627C805.891 376.963 812.895 376.805 819.883 377.154V282.512C813.345 282.161 806.791 282.32 800.278 282.985C784.617 284.508 769.362 288.86 755.255 295.829C754.329 296.283 753.312 296.519 752.281 296.519C751.249 296.519 750.232 296.283 749.306 295.829C735.199 288.86 719.944 284.508 704.283 282.985C697.77 282.32 691.216 282.161 684.679 282.512V377.154C686.91 377.019 689.208 376.951 691.439 376.951Z" fill="#289795"/>
<path d="M752.281 364.107C750.488 364.107 748.768 363.395 747.501 362.127C746.233 360.859 745.521 359.14 745.521 357.347V289.745C745.521 287.952 746.233 286.233 747.501 284.965C748.768 283.697 750.488 282.985 752.281 282.985C754.074 282.985 755.793 283.697 757.061 284.965C758.329 286.233 759.041 287.952 759.041 289.745V357.347C759.041 359.14 758.329 360.859 757.061 362.127C755.793 363.395 754.074 364.107 752.281 364.107Z" fill="#289795"/>
<path d="M503.771 344.996L505.245 346.542L509.972 347.177L511.543 348.986C510.749 356.906 505.342 370.128 495.06 388.751C487.464 397.703 484.347 402.599 485.362 403.717C487.016 405.345 493.621 403.788 505.344 398.684C538.165 377.071 556.793 368.804 561.311 373.703L562.68 377.381C562.262 385.909 562.233 390.256 562.609 390.864C564.083 392.409 568.734 390.83 576.646 385.947L577.766 384.933C578.968 383.739 579.644 382.74 580.057 381.839C583.271 371.973 583.223 365.412 580.359 362.141C571.42 352.604 548.245 360.318 510.57 385.38L510.112 384.952L510.54 384.494C532.731 353.224 538.195 331.309 526.948 319.191L525.933 318.073C522.438 317.129 515.028 318.536 503.869 321.935L502.749 322.949C500.288 334.03 500.448 341.297 503.771 344.996Z" fill="#DDEDEC"/>
<path d="M1006.9 342.632L1007.73 343.512L1010.42 343.874L1011.32 344.903C1010.87 349.41 1007.79 356.934 1001.94 367.532C997.616 372.626 995.842 375.412 996.42 376.048C997.361 376.975 1001.12 376.089 1007.79 373.185C1026.47 360.885 1037.07 356.181 1039.64 358.969L1040.42 361.062C1040.18 365.915 1040.16 368.388 1040.38 368.734C1041.22 369.614 1043.86 368.715 1048.37 365.936L1049 365.359C1049.69 364.68 1050.07 364.111 1050.31 363.599C1052.14 357.984 1052.11 354.251 1050.48 352.389C1045.39 346.962 1032.2 351.352 1010.76 365.613L1010.5 365.37L1010.75 365.109C1023.38 347.315 1026.49 334.843 1020.08 327.948L1019.51 327.311C1017.52 326.774 1013.3 327.575 1006.95 329.509L1006.31 330.086C1004.91 336.392 1005 340.527 1006.9 342.632Z" fill="#DDEDEC"/>
<path d="M1019.43 257.524C1020.24 258.973 1021.07 261.103 1021.83 263.808C1022.74 266.918 1022.82 268.77 1022.1 269.172C1021.59 269.405 1020.93 269.234 1019.95 268.444C1015.24 265.39 1009.58 265.718 1002.95 269.429C996.125 273.117 990.278 281.086 985.341 293.037C982.925 298.97 978.24 313.859 971.177 337.789C967.389 350.743 962.905 358.672 957.831 361.492C952.971 364.142 947.857 364.727 942.428 362.948C936.998 361.17 932.913 357.798 930.087 352.726C924.201 342.071 921.386 328.273 921.537 311.416C921.583 309.287 922.117 307.99 923.055 307.418C923.268 307.248 923.545 307.376 923.885 307.802C924.204 308.42 924.436 309.804 924.498 311.848C925.05 328.493 928.015 340.951 933.265 349.498C937.219 355.764 941.477 357.604 946.23 355.039C953.074 351.158 958.987 341.742 963.864 326.875C968.037 313.092 972.103 299.394 976.361 285.717C982.283 270.192 990.051 259.823 999.58 254.501C1003.72 252.254 1007.7 251.347 1011.51 251.973C1015.03 252.662 1017.73 254.519 1019.43 257.524Z" fill="#DDEDEC"/>
<path d="M453.007 342.461C452.082 341.702 450.964 340.49 449.738 338.876C448.305 337.029 447.76 335.808 448.14 335.346C448.422 335.054 448.911 334.995 449.776 335.267C453.74 336.075 457.458 334.359 460.929 330.117C464.535 325.839 466.357 318.946 466.516 309.619C466.571 304.998 465.785 293.765 464.208 275.835C463.33 266.138 464.247 259.631 466.909 256.398C469.472 253.336 472.751 251.593 476.865 251.353C480.98 251.114 484.613 252.299 487.85 254.957C494.615 260.556 500.147 269.077 504.497 280.433C505.028 281.874 505.012 282.886 504.534 283.518C504.435 283.689 504.216 283.676 503.875 283.479C503.498 283.148 502.976 282.281 502.395 280.925C497.629 269.896 492.349 262.315 486.568 257.964C482.259 254.801 478.915 254.69 476.401 257.668C472.831 262.079 471.348 269.962 471.999 281.231C472.837 291.586 473.724 301.856 474.477 312.162C474.6 324.148 472.123 333.161 467.131 339.25C464.948 341.85 462.512 343.511 459.788 344.098C457.247 344.563 454.942 344.03 453.007 342.461Z" fill="#DDEDEC"/>
<path d="M593.692 507.647C592.908 507.647 592.516 507.247 592.516 506.447C592.516 505.663 592.908 505.271 593.692 505.271C594.46 505.271 594.844 505.663 594.844 506.447C594.844 507.247 594.46 507.647 593.692 507.647ZM596.74 507.647C595.956 507.647 595.564 507.247 595.564 506.447C595.564 505.663 595.956 505.271 596.74 505.271C597.508 505.271 597.892 505.663 597.892 506.447C597.892 507.247 597.508 507.647 596.74 507.647ZM591.268 518.807C589.972 518.807 588.956 518.375 588.22 517.511C587.58 516.759 587.26 515.775 587.26 514.559V511.655L589.324 510.551V514.367C589.324 516.031 590.1 516.863 591.652 516.863H599.62C601.172 516.863 601.948 516.031 601.948 514.367V509.495L604.012 508.391V514.559C604.012 515.951 603.588 517.031 602.74 517.799C601.988 518.471 601.02 518.807 599.836 518.807H591.268ZM612.037 518.807C610.645 518.807 609.573 518.359 608.821 517.463C608.181 516.695 607.861 515.719 607.861 514.535V504.431L609.925 503.327V514.463C609.925 516.063 610.709 516.863 612.277 516.863H613.861V518.807H612.037ZM612.411 518.807V516.863H613.995C615.563 516.863 616.347 516.063 616.347 514.463V509.495L618.411 508.391V514.535C618.411 515.895 618.003 516.967 617.187 517.751C616.435 518.455 615.451 518.807 614.235 518.807H612.411ZM613.683 523.583C612.899 523.583 612.507 523.183 612.507 522.383C612.507 521.599 612.899 521.207 613.683 521.207C614.451 521.207 614.835 521.599 614.835 522.383C614.835 523.183 614.451 523.583 613.683 523.583ZM616.731 523.583C615.947 523.583 615.555 523.183 615.555 522.383C615.555 521.599 615.947 521.207 616.731 521.207C617.499 521.207 617.883 521.599 617.883 522.383C617.883 523.183 617.499 523.583 616.731 523.583ZM630.171 516.863H631.755V518.807H629.931C629.115 518.807 628.411 518.647 627.819 518.327C627.675 519.911 627.123 521.175 626.163 522.119C625.283 522.983 624.179 523.415 622.851 523.415C621.891 523.415 620.955 523.175 620.043 522.695V520.895C620.859 521.343 621.675 521.567 622.491 521.567C623.515 521.567 624.315 521.223 624.891 520.535C625.467 519.847 625.755 518.895 625.755 517.679V509.495L627.819 508.391V508.415L627.843 508.391V514.943C627.987 516.223 628.763 516.863 630.171 516.863ZM633.005 505.655C632.221 505.655 631.829 505.255 631.829 504.455C631.829 503.671 632.221 503.279 633.005 503.279C633.773 503.279 634.157 503.671 634.157 504.455C634.157 505.255 633.773 505.655 633.005 505.655ZM636.077 505.655C635.293 505.655 634.901 505.255 634.901 504.455C634.901 503.671 635.293 503.279 636.077 503.279C636.845 503.279 637.229 503.671 637.229 504.455C637.229 505.255 636.845 505.655 636.077 505.655ZM638.669 516.863H640.253V518.807H638.429C637.101 518.807 636.053 518.383 635.285 517.535C634.517 518.383 633.469 518.807 632.141 518.807H630.317V516.863H631.901C633.469 516.863 634.253 516.063 634.253 514.463V509.495L636.317 508.391V514.463C636.317 516.063 637.101 516.863 638.669 516.863ZM652.002 503.279C651.298 503.279 650.946 502.919 650.946 502.199C650.946 501.495 651.298 501.143 652.002 501.143C652.706 501.143 653.058 501.495 653.058 502.199C653.058 502.919 652.706 503.279 652.002 503.279ZM650.49 506.135C649.706 506.135 649.314 505.735 649.314 504.935C649.314 504.151 649.706 503.759 650.49 503.759C651.258 503.759 651.642 504.151 651.642 504.935C651.642 505.735 651.258 506.135 650.49 506.135ZM653.538 506.135C652.754 506.135 652.362 505.735 652.362 504.935C652.362 504.151 652.754 503.759 653.538 503.759C654.306 503.759 654.69 504.151 654.69 504.935C654.69 505.735 654.306 506.135 653.538 506.135ZM638.802 518.807V516.863H640.962C642.514 516.863 643.29 516.063 643.29 514.463V511.103L645.354 509.999V514.463C645.354 516.063 646.138 516.863 647.706 516.863H648.81C650.378 516.863 651.162 516.063 651.162 514.463V510.287L653.226 509.207V514.463C653.226 516.063 654.002 516.863 655.554 516.863H656.682C658.25 516.863 659.034 516.063 659.034 514.463V509.495L661.098 508.391V514.247C661.098 515.991 661.93 516.863 663.594 516.863H665.586V518.807H663.426C661.986 518.807 660.89 518.319 660.138 517.343C659.466 518.303 658.418 518.791 656.994 518.807H655.338C653.93 518.807 652.882 518.335 652.194 517.391C651.506 518.319 650.482 518.791 649.122 518.807H647.466C646.09 518.807 645.042 518.335 644.322 517.391C643.634 518.335 642.586 518.807 641.178 518.807H638.802ZM679.594 516.863H681.202V518.807H679.378C678.05 518.807 677.002 518.383 676.234 517.535C675.418 518.703 674.226 519.287 672.658 519.287C671.09 519.287 669.906 518.711 669.106 517.559C668.354 518.391 667.306 518.807 665.962 518.807H664.138V516.863H665.722C667.29 516.863 668.074 516.063 668.074 514.463V513.671C668.074 511.815 668.53 510.391 669.442 509.399C670.242 508.519 671.314 508.079 672.658 508.079C674.194 508.079 675.378 508.647 676.21 509.783C676.914 510.759 677.266 512.055 677.266 513.671V514.463C677.266 516.063 678.042 516.863 679.594 516.863ZM672.658 517.343C673.442 517.343 674.058 517.015 674.506 516.359C674.97 515.703 675.202 514.799 675.202 513.647C675.202 511.215 674.354 509.999 672.658 509.999C670.978 509.999 670.138 511.215 670.138 513.647C670.138 516.111 670.978 517.343 672.658 517.343ZM679.77 518.807V516.863H681.042C682.706 516.863 683.538 515.991 683.538 514.247V504.431L685.626 503.327V514.271C685.626 515.695 685.202 516.823 684.354 517.655C683.554 518.423 682.506 518.807 681.21 518.807H679.77ZM689.939 518.807V504.431L692.003 503.327V518.807H689.939ZM704.004 505.247C703.22 505.247 702.828 504.847 702.828 504.047C702.828 503.263 703.22 502.871 704.004 502.871C704.772 502.871 705.156 503.263 705.156 504.047C705.156 504.847 704.772 505.247 704.004 505.247ZM707.052 505.247C706.268 505.247 705.876 504.847 705.876 504.047C705.876 503.263 706.268 502.871 707.052 502.871C707.82 502.871 708.204 503.263 708.204 504.047C708.204 504.847 707.82 505.247 707.052 505.247ZM711.516 516.863H713.1V518.807H711.276C709.628 518.807 708.444 518.199 707.724 516.983C706.956 517.719 706.004 518.087 704.868 518.087C703.46 518.087 702.34 517.559 701.508 516.503C700.82 515.607 700.476 514.511 700.476 513.215C700.476 511.663 700.948 510.415 701.892 509.471C702.692 508.655 703.668 508.247 704.82 508.247C705.7 508.247 706.46 508.471 707.1 508.919V507.887L709.188 506.783V514.463C709.188 516.063 709.964 516.863 711.516 516.863ZM707.1 511.151C706.508 510.495 705.78 510.167 704.916 510.167C704.212 510.167 703.636 510.455 703.188 511.031C702.74 511.591 702.516 512.327 702.516 513.239C702.516 514.167 702.74 514.911 703.188 515.471C703.636 516.031 704.22 516.311 704.94 516.311C705.836 516.311 706.572 515.943 707.148 515.207C707.116 514.919 707.1 514.695 707.1 514.535V511.151ZM719.853 516.863H721.437V518.807H719.613C718.237 518.807 717.173 518.367 716.421 517.487C715.621 518.367 714.517 518.807 713.109 518.807H711.669V516.863H712.941C714.605 516.863 715.437 515.991 715.437 514.247V504.431L717.525 503.327V514.271C717.525 515.199 717.701 515.863 718.053 516.263C718.421 516.663 719.021 516.863 719.853 516.863ZM719.989 518.807V516.863H722.149C723.701 516.863 724.477 516.063 724.477 514.463V511.103L726.541 509.999V514.463C726.541 516.063 727.325 516.863 728.893 516.863H729.997C731.565 516.863 732.349 516.063 732.349 514.463V510.287L734.413 509.207V514.463C734.413 516.063 735.189 516.863 736.741 516.863H737.869C739.437 516.863 740.221 516.063 740.221 514.463V509.495L742.285 508.391V514.535C742.285 515.895 741.877 516.959 741.061 517.727C740.341 518.431 739.381 518.791 738.181 518.807H736.525C735.117 518.807 734.069 518.335 733.381 517.391C732.693 518.319 731.669 518.791 730.309 518.807H728.653C727.277 518.807 726.229 518.335 725.509 517.391C724.821 518.335 723.773 518.807 722.365 518.807H719.989ZM766.061 518.807C765.901 520.215 765.133 521.343 763.757 522.191C762.477 522.975 760.845 523.367 758.861 523.367C756.333 523.367 754.429 522.631 753.149 521.159C752.205 520.071 751.733 518.727 751.733 517.127C751.733 515.783 752.069 514.631 752.741 513.671L754.733 513.239C754.013 514.375 753.653 515.599 753.653 516.911C753.653 518.335 754.117 519.455 755.045 520.271C755.957 521.087 757.229 521.495 758.861 521.495C760.237 521.495 761.373 521.255 762.269 520.775C763.165 520.295 763.709 519.639 763.901 518.807H761.501L762.509 516.863H766.133V518.807H766.061ZM757.253 527.615C756.469 527.615 756.077 527.215 756.077 526.415C756.077 525.631 756.469 525.239 757.253 525.239C758.021 525.239 758.405 525.631 758.405 526.415C758.405 527.215 758.021 527.615 757.253 527.615ZM760.301 527.615C759.517 527.615 759.125 527.215 759.125 526.415C759.125 525.631 759.517 525.239 760.301 525.239C761.069 525.239 761.453 525.631 761.453 526.415C761.453 527.215 761.069 527.615 760.301 527.615ZM772.696 505.631C771.912 505.631 771.52 505.231 771.52 504.431C771.52 503.647 771.912 503.255 772.696 503.255C773.464 503.255 773.848 503.647 773.848 504.431C773.848 505.231 773.464 505.631 772.696 505.631ZM764.872 518.807V516.863H769.192C768.456 516.047 768.088 514.911 768.088 513.455C768.088 511.711 768.544 510.351 769.456 509.375C770.256 508.511 771.32 508.079 772.648 508.079C774.008 508.079 775.064 508.503 775.816 509.351C776.456 510.103 776.776 511.087 776.776 512.303V514.583C776.76 515.911 776.368 516.959 775.6 517.727C774.848 518.447 773.848 518.807 772.6 518.807H764.872ZM774.712 512.399C774.712 510.799 774.024 509.999 772.648 509.999C771.864 509.999 771.248 510.303 770.8 510.911C770.352 511.503 770.128 512.335 770.128 513.407C770.128 514.463 770.344 515.303 770.776 515.927C771.208 516.551 771.784 516.863 772.504 516.863C773.976 516.863 774.712 516.095 774.712 514.559V512.399ZM805.559 516.863H806.663V518.807H805.319C803.975 518.807 802.927 518.391 802.175 517.559C801.423 518.391 800.375 518.807 799.031 518.807H790.463C789.167 518.807 788.151 518.375 787.415 517.511C786.775 516.759 786.455 515.775 786.455 514.559V511.655L788.519 510.551V514.367C788.519 516.031 789.295 516.863 790.847 516.863H798.815C800.367 516.863 801.143 516.031 801.143 514.367V509.495L803.207 508.391V514.463C803.207 516.063 803.991 516.863 805.559 516.863ZM793.967 521.207C794.735 521.207 795.119 521.599 795.119 522.383C795.119 523.183 794.735 523.583 793.967 523.583C793.183 523.583 792.791 523.183 792.791 522.383C792.791 521.599 793.183 521.207 793.967 521.207ZM807.919 505.655C807.135 505.655 806.743 505.255 806.743 504.455C806.743 503.671 807.135 503.279 807.919 503.279C808.687 503.279 809.071 503.671 809.071 504.455C809.071 505.255 808.687 505.655 807.919 505.655ZM810.991 505.655C810.207 505.655 809.815 505.255 809.815 504.455C809.815 503.671 810.207 503.279 810.991 503.279C811.759 503.279 812.143 503.671 812.143 504.455C812.143 505.255 811.759 505.655 810.991 505.655ZM813.583 516.863H815.167V518.807H813.343C812.015 518.807 810.967 518.383 810.199 517.535C809.431 518.383 808.383 518.807 807.055 518.807H805.231V516.863H806.815C808.383 516.863 809.167 516.063 809.167 514.463V509.495L811.231 508.391V514.463C811.231 516.063 812.015 516.863 813.583 516.863ZM818.444 508.655C818.46 508.655 818.484 508.655 818.516 508.655C818.548 508.655 818.572 508.655 818.588 508.655C820.396 508.655 821.86 509.215 822.98 510.335C824.004 511.343 824.516 512.631 824.516 514.199V514.607C824.516 515.983 824.092 517.055 823.244 517.823C822.492 518.479 821.524 518.807 820.34 518.807H813.716V516.863H820.148C821.684 516.863 822.452 516.055 822.452 514.439V514.223C822.452 513.039 821.988 512.127 821.06 511.487C820.324 510.991 819.428 510.743 818.372 510.743C817.524 510.743 816.668 510.895 815.804 511.199V509.159L821.06 503.327H823.172L818.444 508.655ZM831.808 518.807L832.816 516.863H837.088C837.728 516.863 838.176 516.703 838.432 516.383C838.704 516.063 838.84 515.511 838.84 514.727C838.84 512.599 837.856 510.999 835.888 509.927L836.944 508.151C839.456 509.623 840.768 511.655 840.88 514.247C840.912 515.175 841.12 515.847 841.504 516.263C841.904 516.663 842.536 516.863 843.4 516.863H844.816V518.807H843.232C841.904 518.807 840.864 518.383 840.112 517.535C839.584 518.383 838.696 518.807 837.448 518.807H831.808ZM843.388 518.807V516.863H846.676C849.924 516.863 852.492 515.791 854.38 513.647C853.052 511.199 851.436 509.975 849.532 509.975C848.236 509.975 846.9 510.663 845.524 512.039V510.119C846.868 508.759 848.292 508.079 849.796 508.079C851.028 508.079 852.22 508.527 853.372 509.423C854.524 510.303 855.54 511.567 856.42 513.215V514.271C854.068 517.295 850.812 518.807 846.652 518.807H843.388ZM850.42 523.583C849.636 523.583 849.244 523.183 849.244 522.383C849.244 521.599 849.636 521.207 850.42 521.207C851.188 521.207 851.572 521.599 851.572 522.383C851.572 523.183 851.188 523.583 850.42 523.583ZM870.999 516.863V518.807H868.023C867.959 520.183 867.367 521.319 866.247 522.215C865.303 522.951 864.231 523.319 863.031 523.319C862.039 523.319 861.103 523.087 860.223 522.623V520.799C861.071 521.247 861.911 521.471 862.743 521.471C863.591 521.471 864.327 521.207 864.951 520.679C865.591 520.151 865.919 519.519 865.935 518.783C865.103 518.751 864.487 518.719 864.087 518.687C862.359 518.591 861.055 518.007 860.175 516.935C859.439 516.039 859.071 514.879 859.071 513.455C859.071 511.711 859.535 510.351 860.463 509.375C861.295 508.511 862.391 508.079 863.751 508.079C865.175 508.079 866.271 508.503 867.039 509.351C867.695 510.103 868.023 511.087 868.023 512.303V516.863H870.999ZM865.935 512.447C865.935 510.815 865.207 509.999 863.751 509.999C862.919 509.999 862.271 510.303 861.807 510.911C861.343 511.503 861.111 512.335 861.111 513.407C861.111 515.503 862.135 516.615 864.183 516.743C864.567 516.791 865.151 516.831 865.935 516.863V512.447ZM869.567 518.807V516.863H871.151C872.719 516.863 873.503 516.063 873.503 514.463V509.495L875.567 508.391V514.535C875.567 515.895 875.159 516.967 874.343 517.751C873.591 518.455 872.607 518.807 871.391 518.807H869.567ZM870.839 523.583C870.055 523.583 869.663 523.183 869.663 522.383C869.663 521.599 870.055 521.207 870.839 521.207C871.607 521.207 871.991 521.599 871.991 522.383C871.991 523.183 871.607 523.583 870.839 523.583ZM873.887 523.583C873.103 523.583 872.711 523.183 872.711 522.383C872.711 521.599 873.103 521.207 873.887 521.207C874.655 521.207 875.039 521.599 875.039 522.383C875.039 523.183 874.655 523.583 873.887 523.583ZM894.382 504.431L896.47 503.327V514.271C896.47 515.695 896.046 516.823 895.198 517.655C894.398 518.423 893.35 518.807 892.054 518.807H883.798L884.806 516.863H888.31V507.551L890.374 506.447V516.863H891.886C893.55 516.863 894.382 515.991 894.382 514.247V504.431Z" fill="black"/>
<defs>
<filter id="filter0_d_0_1" x="0.259995" y="0.260002" width="1482.48" height="804.48" filterUnits="userSpaceOnUse" color-interpolation-filters="sRGB">
<feFlood flood-opacity="0" result="BackgroundImageFix"/>
<feColorMatrix in="SourceAlpha" type="matrix" values="0 0 0 0 0 0 0 0 0 0 0 0 0 0 0 0 0 0 127 0" result="hardAlpha"/>
<feMorphology radius="40" operator="erode" in="SourceAlpha" result="effect1_dropShadow_0_1"/>
<feOffset dy="-13"/>
<feGaussianBlur stdDeviation="25"/>
<feComposite in2="hardAlpha" operator="out"/>
<feColorMatrix type="matrix" values="0 0 0 0 0.687905 0 0 0 0 0.687905 0 0 0 0 0.687905 0 0 0 0.49 0"/>
<feBlend mode="normal" in2="BackgroundImageFix" result="effect1_dropShadow_0_1"/>
<feBlend mode="normal" in="SourceGraphic" in2="effect1_dropShadow_0_1" result="shape"/>
</filter>
</defs>
</svg>
