<svg width="82" height="83" viewBox="0 0 82 83" fill="none" xmlns="http://www.w3.org/2000/svg">
<path d="M68.1629 14.4075C53.1723 -0.647217 28.8285 -0.647217 13.8379 14.4075C-1.2168 29.3981 -1.2168 53.7418 13.8379 68.7325C21.3332 76.2278 31.1348 80.0075 41.0004 80.0075C45.741 80.0075 50.5457 79.1106 55.0301 77.3809C59.8348 75.5231 64.3191 72.6403 68.1629 68.7965C74.3129 62.6465 77.9645 54.895 79.0535 46.8872C80.6551 35.3559 77.0676 23.2481 68.1629 14.4075Z" fill="white"/>
<path d="M41 64.6325C53.7371 64.6325 64.0625 54.307 64.0625 41.57C64.0625 28.8329 53.7371 18.5075 41 18.5075C28.2629 18.5075 17.9375 28.8329 17.9375 41.57C17.9375 54.307 28.2629 64.6325 41 64.6325Z" fill="#8CE5C3"/>
<path d="M41 51.1793C40.4875 51.1793 39.975 50.9872 39.6547 50.6028L30.0453 40.9934C29.2766 40.2247 29.2766 39.0075 30.0453 38.3028C30.8141 37.534 32.0312 37.534 32.7359 38.3028L40.8719 46.4387L58.7453 25.5543C59.45 24.7215 60.6672 24.6575 61.4359 25.3622C62.2687 26.0668 62.3328 27.284 61.6281 28.0528L42.4094 50.4747C42.0891 50.859 41.5766 51.1153 41 51.1153C41.0641 51.1793 41 51.1793 41 51.1793Z" fill="black"/>
<path d="M41 81.9294C18.7703 81.9294 0.640625 63.7997 0.640625 41.57C0.640625 19.3403 18.7703 1.2106 41 1.2106C63.2297 1.2106 81.3594 19.3403 81.3594 41.57C81.3594 63.7997 63.2297 81.9294 41 81.9294ZM41 5.05435C20.8844 5.05435 4.48438 21.4544 4.48438 41.57C4.48438 61.6856 20.8844 78.0856 41 78.0856C61.1156 78.0856 77.5156 61.6856 77.5156 41.57C77.5156 21.4544 61.1156 5.05435 41 5.05435Z" fill="black"/>
</svg>
