<svg width="158" height="78" viewBox="0 0 158 78" fill="none" xmlns="http://www.w3.org/2000/svg">
<path d="M139.623 11.6156L139.708 11.5288L139.751 11.3119L139.837 11.2251C140.221 11.2685 140.819 11.5722 141.674 12.0929C142.059 12.4834 142.315 12.6135 142.358 12.5701C142.443 12.4834 142.358 12.1797 142.187 11.6156C141.247 10.0103 140.905 9.09915 141.161 8.88221L141.332 8.83882C141.717 8.88221 141.931 8.88221 141.973 8.88221C142.059 8.79544 141.973 8.5785 141.76 8.18801L141.717 8.14463C141.674 8.10124 141.631 8.05785 141.589 8.01446C141.119 7.84092 140.819 7.79753 140.649 7.97108C140.178 8.36156 140.478 9.48964 141.589 11.3553L141.546 11.3987L141.503 11.3553C140.093 10.2272 139.067 9.92351 138.469 10.4008L138.426 10.4442C138.383 10.6177 138.426 10.9648 138.554 11.4855L138.597 11.5288C139.11 11.7892 139.452 11.7892 139.623 11.6156Z" fill="#FFFFFE"/>
<path d="M144.92 49.1892H144.963L145.049 49.1458H145.091C145.177 49.276 145.262 49.5363 145.391 49.9268C145.391 50.1437 145.433 50.2739 145.433 50.2739C145.476 50.2739 145.562 50.1871 145.647 49.9268C145.861 49.1892 145.989 48.7987 146.117 48.8421L146.203 48.8855C146.288 49.0157 146.374 49.1024 146.374 49.1024C146.416 49.1024 146.459 49.0157 146.502 48.8421V48.7987C146.502 48.7553 146.502 48.7553 146.502 48.7119C146.416 48.5384 146.331 48.4082 146.245 48.4082C145.989 48.3648 145.775 48.7987 145.562 49.6665C145.476 48.9289 145.262 48.5384 144.963 48.495H144.92C144.878 48.5384 144.75 48.6252 144.664 48.8421V48.8855C144.707 49.1024 144.835 49.1892 144.92 49.1892Z" fill="#FFFFFE"/>
<path d="M113.68 17.603C113.466 17.2559 113.381 16.9956 113.466 16.8654C113.595 16.6919 113.808 16.6919 114.193 16.9088C114.449 17.039 114.919 17.5596 115.603 18.384L115.646 18.3406C115.176 17.4729 114.663 16.8221 114.107 16.475L113.808 16.3014C113.766 16.258 113.68 16.2146 113.552 16.1712C113.295 16.0845 113.082 16.1712 112.954 16.3448L112.911 16.4316C112.783 16.6919 112.996 17.0824 113.595 17.6464L113.68 17.603Z" fill="#FFFFFE"/>
<path d="M67.7386 11.9629C68.2942 11.9629 68.6788 11.3555 68.978 10.184L68.8925 10.0972H68.8497C68.5079 10.6613 68.166 10.9216 67.8668 10.9216C67.4394 10.9216 67.2685 10.6179 67.2685 9.96708C67.2685 9.5766 67.5676 8.57869 68.2087 7.10352H68.1232C67.183 8.36175 66.7129 9.48982 66.7129 10.4443V10.9216C66.7129 11.0084 66.7129 11.1385 66.7556 11.3121C66.9266 11.7026 67.183 11.9195 67.5676 11.9195H67.7386V11.9629Z" fill="#FFFFFE"/>
<path d="M98.8087 10.0105C98.8942 9.92373 99.0224 9.83696 99.1933 9.75018C99.407 9.66341 99.4925 9.62002 99.5352 9.66341C99.578 9.7068 99.5352 9.75018 99.4925 9.83696C99.3643 10.1841 99.4498 10.5745 99.7489 10.965C100.091 11.3989 100.689 11.7026 101.544 11.8762C101.971 11.9629 103.04 12.0931 104.706 12.2667C105.604 12.3534 106.202 12.5704 106.459 12.8741C106.715 13.1778 106.801 13.5249 106.758 13.9154C106.715 14.3059 106.544 14.6096 106.245 14.8699C105.604 15.3905 104.706 15.781 103.595 15.9546C103.467 15.998 103.339 15.9546 103.296 15.9112V15.8678C103.339 15.8244 103.424 15.8244 103.553 15.781C104.664 15.5207 105.476 15.1736 105.946 14.6963C106.33 14.3492 106.373 14.0455 106.159 13.7418C105.818 13.3079 105.134 13.0476 104.065 12.9175C103.082 12.7873 102.142 12.7005 101.159 12.5704C100.048 12.3534 99.2361 11.9629 98.766 11.3989C98.5523 11.1386 98.4668 10.8783 98.4668 10.6179C98.5095 10.401 98.595 10.1841 98.8087 10.0105ZM98.9369 17.4297C98.8087 16.7355 98.9796 16.1715 99.4498 15.781L99.5352 15.7376C99.7916 15.5207 100.262 15.3472 100.988 15.217L101.159 15.1302C101.373 14.9567 101.416 14.7831 101.287 14.653C101.202 14.5662 101.031 14.5228 100.775 14.5662L100.732 14.5228C101.202 14.3059 101.501 14.2625 101.672 14.436L101.758 14.5228C101.886 14.7397 101.843 14.9567 101.587 15.1302L101.544 15.1736C101.33 15.3472 100.86 15.5207 100.176 15.6509C100.048 15.7376 99.9199 15.781 99.8771 15.8244L99.7917 15.9112C99.4498 16.1715 99.3215 16.6922 99.3643 17.4731C99.1933 17.4731 99.0651 17.4731 98.9369 17.4297ZM101.159 10.6179C101.715 10.401 102.057 10.2274 102.185 10.1407C102.356 9.96712 102.441 9.88035 102.356 9.75018C102.313 9.66341 102.142 9.66341 101.929 9.75018V9.7068C102.313 9.48986 102.57 9.44647 102.698 9.57663L102.741 9.62002C102.826 9.7068 102.826 9.83696 102.698 9.96712C102.655 10.0105 102.612 10.0539 102.57 10.0973L102.441 10.2274C102.099 10.3576 101.715 10.5312 101.159 10.6179Z" fill="#FFFFFE"/>
<path d="M57.054 0.0312979C56.8831 -0.0554769 56.6266 0.0312979 56.3275 0.378397L56.4129 0.421784C56.6266 0.291622 56.7548 0.291622 56.8831 0.33501C57.0113 0.421784 57.054 0.551946 56.9258 0.768883L56.7976 0.855658C56.2847 1.20276 55.9428 1.50647 55.8146 1.76679L55.7719 1.85357C55.5155 2.33083 55.5582 2.80809 55.8574 3.32874C55.9428 3.32874 56.071 3.24196 56.1993 3.19858C55.9428 2.63454 55.9001 2.15728 56.071 1.85357L56.1138 1.76679C56.1565 1.72341 56.1993 1.63663 56.2847 1.50647C56.7976 1.15937 57.0967 0.899045 57.1822 0.682109V0.638721C57.3104 0.421784 57.3104 0.204847 57.1395 0.0746853L57.054 0.0312979Z" fill="#FFFFFE"/>
<path d="M60.0028 57.7364C59.96 57.4327 59.5754 57.2158 58.8916 57.1724V57.2591C59.2335 57.4327 59.4044 57.5629 59.4472 57.7364C59.4899 57.9967 59.319 58.1269 58.9771 58.1703H58.6779C57.7377 57.8232 57.0539 57.693 56.6265 57.7798H56.4983C55.6863 57.9099 55.088 58.3872 54.7461 59.255V59.2983C54.8743 59.3851 55.0025 59.4719 55.2162 59.6021H55.2589C55.729 58.6909 56.2419 58.2137 56.7975 58.1269L56.9257 58.0835C57.0112 58.0835 57.1821 58.0835 57.3958 58.0835C58.2933 58.3872 58.8916 58.5174 59.2762 58.474H59.3617C59.7891 58.4306 60.0028 58.2137 60.0028 57.8666V57.7364Z" fill="#FFFFFE"/>
<path d="M55.9435 12.1799C55.687 12.0497 55.3024 12.0931 54.6613 12.2667C53.5502 12.6138 52.8236 12.7873 52.5245 12.8307C51.9262 12.9609 51.4561 12.9175 51.1569 12.7439C50.8577 12.5704 50.6868 12.3534 50.6868 12.0931C50.6868 12.0497 50.6868 12.0063 50.6441 12.0063C50.6013 12.0063 50.5586 12.0497 50.4304 12.1365C50.3449 12.2233 50.3022 12.3101 50.2594 12.3968C50.1739 12.527 50.1739 12.7005 50.2594 12.8741C50.3449 13.0476 50.4731 13.1778 50.6441 13.2646C51.0714 13.5249 51.7125 13.5683 52.439 13.3947C53.0801 13.2212 53.7211 13.0043 54.3622 12.8307C55.0887 12.6572 55.6016 12.6572 55.9007 12.8307C56.1144 12.9609 56.1571 13.1778 56.0289 13.4815C55.8153 13.9154 55.3879 14.3493 54.7468 14.7831C54.6613 14.8265 54.6186 14.8699 54.6186 14.9133V14.9567C54.6613 15.0001 54.7468 14.9567 54.8323 14.9133C55.5161 14.4794 55.9862 14.0022 56.2426 13.5249C56.3708 13.2646 56.4136 13.0476 56.3281 12.7873C56.3281 12.4836 56.1999 12.3101 55.9435 12.1799Z" fill="#FFFFFE"/>
<path d="M94.8342 29.014L94.706 28.9272C94.4496 28.7537 94.0649 28.9706 93.5948 29.4913L93.6803 29.5347C94.0222 29.3611 94.2359 29.3177 94.4068 29.3611C94.6205 29.4913 94.6633 29.7082 94.4923 30.0119L94.3214 30.2289C93.5094 30.7929 92.9538 31.2702 92.7828 31.6607L92.7401 31.7908C92.3555 32.5284 92.3982 33.266 92.8683 34.0903H92.911C93.0393 34.047 93.2102 34.0036 93.4239 33.8734V33.83C92.9965 32.9189 92.911 32.2247 93.2102 31.704L93.2957 31.5739C93.3384 31.4871 93.4239 31.3569 93.5948 31.1834C94.3641 30.6627 94.8342 30.2289 95.0479 29.8818L95.0906 29.8384C95.1334 29.4913 95.0906 29.1876 94.8342 29.014Z" fill="#FFFFFE"/>
<path d="M18.4628 11.6159C18.2064 11.8762 18.0354 12.2233 17.9927 12.7873C17.95 13.2646 17.95 13.6985 17.9072 14.1757C17.8645 14.6964 17.779 15.0435 17.5653 15.217C17.4371 15.3472 17.3089 15.3038 17.138 15.1302C16.9243 14.9133 16.7106 14.5228 16.5824 14.0022C16.5824 13.9588 16.5396 13.9154 16.5396 13.872C16.5396 13.872 16.5396 13.872 16.4969 13.872C16.4542 13.9154 16.4542 13.9588 16.4969 14.0022C16.6251 14.5228 16.7961 14.9567 17.0525 15.2604C17.1807 15.3906 17.3089 15.4773 17.5226 15.4773C17.6935 15.4773 17.8645 15.434 17.9927 15.3038C18.1209 15.1736 18.2064 14.9133 18.2491 14.436C18.2919 13.6117 18.3346 13.1344 18.3346 12.9175C18.3773 12.4836 18.5055 12.2233 18.7192 12.0497C18.8902 11.8762 19.0611 11.8328 19.2321 11.8762C19.2748 11.8762 19.2748 11.8762 19.3175 11.8762C19.3175 11.8762 19.3175 11.7894 19.2748 11.7026C19.2321 11.6159 19.1893 11.5725 19.1466 11.5291C19.0611 11.4423 18.9757 11.3989 18.8474 11.3989C18.7192 11.4423 18.591 11.5291 18.4628 11.6159Z" fill="#FFFFFE"/>
<path d="M10.3212 69.2814C10.3212 66.4311 10.3212 65.9281 10.3212 65.3413C10.3212 64.7545 10.0735 64.4192 9.74318 64.3353C9.57803 64.2515 9.3303 64.2515 9.16515 64.2515C9.08257 64.2515 9 64.2515 9 64.1677C9 64.0838 9.08258 64 9.24773 64C9.82575 64 10.9818 64.0838 11.0644 64.0838C11.1469 64.0838 12.303 64 12.7984 64C12.9636 64 13.0462 64 13.0462 64.1677C13.0462 64.2515 12.9636 64.2515 12.881 64.2515C12.7159 64.2515 12.6333 64.2515 12.4681 64.3353C11.9727 64.4192 11.8075 64.7545 11.8075 65.3413C11.8075 65.9281 11.8075 66.4311 11.8075 69.2814V72.467C11.8075 74.2274 11.8075 75.6525 11.8901 76.407C11.9727 76.91 12.0553 77.3292 12.5507 77.413C12.7984 77.413 13.2113 77.4968 13.2939 77.4968C13.459 77.4968 13.5416 77.5807 13.5416 77.5807C13.5416 77.6645 13.459 77.7483 13.2939 77.7483C12.303 77.7483 11.1469 77.6645 11.0644 77.6645C10.9818 77.6645 9.82575 77.7483 9.3303 77.7483C9.16515 77.7483 9.08257 77.7483 9.08257 77.5807C9.08257 77.4968 9.08258 77.4968 9.24773 77.4968C9.3303 77.4968 9.57803 77.4968 9.74318 77.413C10.0735 77.3292 10.2386 76.91 10.2386 76.407C10.3212 75.6525 10.3212 74.2274 10.3212 72.467V69.2814Z" fill="#FFFFFE"/>
<path d="M18.2483 67.6049C18.0006 66.8504 17.8354 66.5151 17.34 66.4313C17.1748 66.3474 16.8445 66.3474 16.6794 66.3474C16.5968 66.3474 16.4316 66.3474 16.4316 66.1798C16.4316 66.0959 16.5142 66.0959 16.6794 66.0959C17.5877 66.0959 18.4134 66.1798 18.5786 66.1798C18.7437 66.1798 19.4869 66.0959 20.3127 66.0959C20.5604 66.0959 20.5604 66.1798 20.5604 66.2636C20.5604 66.3474 20.4778 66.4313 20.3127 66.4313C20.1475 66.4313 19.8998 66.4313 19.7346 66.5151C19.5695 66.5989 19.5695 66.6828 19.5695 66.9343C19.5695 67.1019 19.7346 67.6049 19.8998 68.3594C20.1475 69.3654 21.6339 74.7306 21.9642 75.5689L25.2672 67.1019C25.5149 66.4313 25.5975 66.3474 25.68 66.3474C25.8452 66.3474 25.9278 66.5989 26.0929 67.1019L29.2308 75.5689C29.6436 74.0599 31.13 69.533 31.6254 67.6887C31.7906 67.1857 31.7906 67.1019 31.7906 66.9343C31.7906 66.6828 31.708 66.4313 30.9648 66.4313C30.7997 66.4313 30.7171 66.3474 30.7171 66.2636C30.7171 66.1798 30.7997 66.1798 30.9648 66.1798C31.6254 66.1798 32.3686 66.2636 32.4512 66.2636C32.5338 66.2636 33.4421 66.1798 33.9375 66.1798C34.1027 66.1798 34.1853 66.2636 34.1853 66.2636C34.1853 66.3474 34.1027 66.4313 33.9375 66.4313C33.855 66.4313 33.6898 66.4313 33.4421 66.5151C32.9466 66.6828 32.6989 67.4372 32.4512 68.1917C31.7906 70.1198 30.1391 74.9821 29.6436 76.491C29.1482 77.7485 29.0656 78 28.9005 78C28.7353 78 28.6527 77.7485 28.405 77.0778L25.3497 68.8624C24.7717 70.2875 22.6248 75.7365 22.1293 77.0778C21.8816 77.7485 21.7164 78 21.5513 78C21.3861 78 21.3036 77.7485 20.8907 76.6587L18.2483 67.6049Z" fill="#FFFFFE"/>
<path d="M38.4806 73.2215C38.3981 73.2215 38.3155 73.3054 38.3155 73.3892L37.5723 75.6526C37.4072 76.1556 37.242 76.6586 37.242 76.9101C37.242 77.2454 37.4072 77.4131 37.82 77.4131C37.9026 77.4131 37.9026 77.4131 37.9852 77.4131C38.1503 77.4131 38.2329 77.4969 38.2329 77.5808C38.2329 77.6646 38.0678 77.7484 37.9852 77.7484C37.5723 77.7484 36.7466 77.6646 36.5814 77.6646C36.4163 77.6646 35.5905 77.7484 34.8473 77.7484C34.6822 77.7484 34.5996 77.7484 34.5996 77.5808C34.5996 77.4969 34.6822 77.4131 34.8473 77.4131C34.9299 77.4131 35.0951 77.4131 35.1776 77.4131C35.9208 77.3293 36.2511 76.7425 36.5814 75.988L40.1321 66.515C40.2973 66.0121 40.3799 65.9282 40.545 65.9282C40.6276 65.9282 40.7102 66.0121 40.8753 66.515C41.123 67.1019 43.5177 73.3892 44.5086 75.6526C45.0866 77.0778 45.5821 77.3293 45.8298 77.4131C46.0775 77.4969 46.3253 77.4969 46.4078 77.4969C46.4904 77.4969 46.6556 77.4969 46.6556 77.6646C46.6556 77.8323 46.573 77.8323 46.4078 77.8323C46.2427 77.8323 44.9215 77.8323 43.6829 77.8323C43.3526 77.8323 43.27 77.8323 43.27 77.6646C43.27 77.5808 43.3526 77.5808 43.4351 77.4969C43.5177 77.4969 43.6003 77.3293 43.5177 77.0778L42.1139 73.473C42.1139 73.3892 42.0313 73.3892 41.9488 73.3892H38.4806V73.2215ZM41.4533 72.6347C41.5359 72.6347 41.5359 72.5509 41.5359 72.5509L40.1321 68.527C40.0496 68.2755 40.0496 68.2755 39.967 68.527L38.6458 72.5509C38.6458 72.6347 38.6458 72.6347 38.6458 72.6347H41.4533Z" fill="#FFFFFE"/>
<path d="M51.4435 73.2215C51.3609 73.2215 51.2784 73.3054 51.2784 73.3892L50.5352 75.6526C50.3701 76.1556 50.2049 76.6586 50.2049 76.9101C50.2049 77.2454 50.3701 77.4131 50.7829 77.4131C50.8655 77.4131 50.8655 77.4131 50.9481 77.4131C51.1132 77.4131 51.1958 77.4969 51.1958 77.5808C51.1958 77.6646 51.0307 77.7484 50.9481 77.7484C50.5352 77.7484 49.7095 77.6646 49.5443 77.6646C49.3792 77.6646 48.5534 77.7484 47.8102 77.7484C47.6451 77.7484 47.5625 77.7484 47.5625 77.5808C47.5625 77.4969 47.6451 77.4131 47.8102 77.4131C47.8928 77.4131 48.0579 77.4131 48.1405 77.4131C48.8837 77.3293 49.214 76.7425 49.5443 75.988L53.095 66.515C53.2602 66.0121 53.3427 65.9282 53.5079 65.9282C53.5905 65.9282 53.6731 66.0121 53.8382 66.515C54.0859 67.1019 56.4806 73.3892 57.4715 75.6526C58.0495 77.0778 58.545 77.3293 58.7927 77.4131C59.0404 77.4969 59.2881 77.4969 59.3707 77.4969C59.4533 77.4969 59.6184 77.4969 59.6184 77.6646C59.6184 77.8323 59.5359 77.8323 59.3707 77.8323C59.2056 77.8323 57.8844 77.8323 56.6457 77.8323C56.3154 77.8323 56.2329 77.8323 56.2329 77.6646C56.2329 77.5808 56.3154 77.5808 56.398 77.4969C56.4806 77.4969 56.5632 77.3293 56.4806 77.0778L55.0768 73.473C55.0768 73.3892 54.9943 73.3892 54.9117 73.3892H51.4435V73.2215ZM54.4162 72.6347C54.4988 72.6347 54.4988 72.5509 54.4988 72.5509L53.095 68.527C53.0124 68.2755 53.0124 68.2755 52.9299 68.527L51.5261 72.5509C51.5261 72.6347 51.5261 72.6347 51.5261 72.6347H54.4162Z" fill="#FFFFFE"/>
<path d="M62.9211 66.599C62.9211 66.0121 63.0037 65.8445 63.0863 65.8445C63.2514 65.8445 63.4992 66.1798 63.6643 66.3475C63.8295 66.5151 66.3067 69.1139 68.7839 71.7127C70.1877 73.054 71.9218 74.9821 72.4173 75.4012L72.2521 67.8564C72.2521 66.8505 72.0869 66.5151 71.6741 66.4313C71.3438 66.3475 71.0961 66.3475 71.0135 66.3475C70.8483 66.3475 70.7658 66.2636 70.7658 66.1798C70.7658 66.096 70.9309 66.096 71.096 66.096C71.8392 66.096 72.5824 66.1798 72.7475 66.1798C72.9127 66.1798 73.4907 66.096 74.1513 66.096C74.3165 66.096 74.399 66.096 74.399 66.1798C74.399 66.2636 74.3165 66.3475 74.2339 66.3475C74.1513 66.3475 73.9862 66.3475 73.821 66.4313C73.4081 66.5151 73.3256 66.6828 73.3256 67.7726V76.8264C73.3256 77.7485 73.3256 77.8324 73.1604 77.8324C72.9953 77.8324 72.8301 77.6647 72.0044 76.9102C71.9218 76.9102 69.4446 74.3953 67.8756 72.8863C66.059 70.9582 64.2423 69.0301 63.8294 68.6109L64.0772 75.6527C64.0772 76.9102 64.2423 77.3294 64.6552 77.497C64.9029 77.5809 65.2332 77.5809 65.3984 77.5809C65.5635 77.5809 65.6461 77.6647 65.6461 77.7485C65.6461 77.8323 65.5635 77.9162 65.3984 77.9162C64.4075 77.9162 63.8295 77.8324 63.6643 77.8324C63.4992 77.8324 62.9211 77.9162 62.0954 77.9162C61.9302 77.9162 61.8477 77.9162 61.8477 77.7485C61.8477 77.6647 61.9302 77.5809 62.0954 77.5809C62.2605 77.5809 62.4257 77.5809 62.6734 77.497C63.0863 77.3294 63.1689 76.9102 63.1689 75.5689C62.9211 66.7666 62.9211 69.5331 62.9211 66.599Z" fill="#FFFFFE"/>
<path fill-rule="evenodd" clip-rule="evenodd" d="M121.544 75.6122C128.04 64.2447 144.28 73.2693 153.768 71.0999C145.221 71.664 129.707 62.7262 121.544 72.6185C113.381 62.7696 97.9105 71.664 89.3203 71.0999C98.808 73.2693 115.048 64.2447 121.544 75.6122ZM115.091 65.0691C109.45 62.1188 102.654 66.4575 95.8591 66.5877L92.5683 69.9285C91.7563 70.0153 90.9871 70.102 90.2605 70.102L95.218 65.0257C102.013 64.9389 109.834 60.5568 115.091 65.0691ZM92.4829 75.2651C99.4063 74.7879 106.629 72.1412 113.125 72.8354C106.33 73.0524 100.517 76.0461 93.9787 77.044L92.4829 75.2651ZM90.0896 72.445C97.9532 73.3995 110.304 68.193 117.655 73.009C109.877 69.7983 100.56 74.0937 91.7991 74.4408L90.0896 72.445ZM127.997 65.0691C133.639 62.1188 140.434 66.4575 147.229 66.5877L150.52 69.9285C151.332 70.0153 152.101 70.102 152.828 70.102L147.827 65.0691C141.075 64.9389 133.211 60.5568 127.997 65.0691ZM150.605 75.2651C143.682 74.7879 136.459 72.1412 129.963 72.8354C136.759 73.0524 142.571 76.0461 149.11 77.044L150.605 75.2651ZM152.956 72.445C145.092 73.3995 132.741 68.193 125.39 73.009C133.169 69.7983 142.485 74.0937 151.246 74.4408L152.956 72.445Z" fill="#FFFFFE"/>
<path d="M25.7701 49.8401C24.4452 51.0983 22.8212 52.0528 20.9835 52.7036C19.1031 53.3545 17.0517 53.7016 14.7866 53.7016C10.5984 53.7016 7.17941 52.4867 4.57244 50.0136C1.96548 47.5406 0.640625 44.2865 0.640625 40.1647C0.640625 39.8176 0.640625 39.4705 0.683362 39.1234C0.683362 38.7763 0.726099 38.3858 0.768836 37.9953C0.811574 37.6048 0.897048 37.2144 0.939785 36.9106C0.982522 36.5635 1.11073 36.1731 1.19621 35.7392L1.88 33.1359L2.73475 30.4025L3.88865 27.1051L4.40149 28.9708L4.57244 30.5327C4.8716 30.2724 5.12803 30.0554 5.42719 29.8385C5.72635 29.6216 6.02551 29.4046 6.3674 29.1443C6.92299 28.7538 7.52131 28.4501 8.07689 28.2332C9.05984 27.8427 10.0001 27.6257 10.8975 27.539L11.4531 27.5824C11.6668 27.5824 11.8378 27.6257 12.0087 27.6691C12.3933 27.7125 12.778 27.8861 13.1626 28.1898C12.0514 28.1898 10.7266 28.6237 9.18806 29.448C7.60678 30.3158 6.19645 31.6174 4.91434 33.3529C3.63223 35.0884 2.99117 37.1276 2.99117 39.4271C2.99117 42.7246 4.10233 45.2844 6.28193 47.1501C8.50426 49.0157 11.2822 49.9269 14.7011 49.9269C18.0346 49.9269 20.8126 48.9723 22.9494 47.0199C25.0863 45.1109 26.1974 42.6812 26.1974 39.8176V30.1856C26.1974 29.7083 26.0692 29.4046 25.8555 29.2311C25.6419 29.0575 25.3854 28.9274 25.0435 28.8406C24.6589 28.8406 24.3597 28.884 24.1461 29.0141C23.9751 29.1443 23.7614 29.2311 23.4623 29.3179C23.4623 28.8406 23.5477 28.4067 23.6759 28.0162C23.8042 27.6257 24.0606 27.2786 24.3597 26.9315C25.0008 26.2807 25.7273 25.9336 26.5393 25.9336H26.7958L28.2916 23.5473L29.8301 21.2478V38.7329C29.8301 41.1192 29.4882 43.2018 28.8471 45.0241C28.2061 46.8897 27.1377 48.4951 25.7701 49.8401ZM15.214 41.9002C14.4875 41.9002 13.8464 41.6399 13.2908 41.1192C12.778 40.5986 12.5216 39.9478 12.5216 39.1668C12.5216 38.516 12.778 37.9086 13.2908 37.2577C13.8891 36.6937 14.5302 36.4334 15.214 36.4334C15.5986 36.4334 15.9405 36.5202 16.1969 36.6503C16.4961 36.7371 16.7953 36.954 17.0517 37.2144C17.3081 37.4747 17.5218 37.7784 17.6927 38.0821C17.7782 38.2123 17.821 38.3858 17.8637 38.5594C17.9064 38.7329 17.9064 38.9065 17.9064 39.1668C17.9064 39.9044 17.65 40.5552 17.0944 41.1192C16.5388 41.6399 15.8978 41.9002 15.214 41.9002Z" fill="#FFFFFE"/>
<path d="M40.2575 8.57867C40.1293 8.57867 40.0011 8.62205 39.8728 8.66544C39.7446 8.70883 39.5737 8.83899 39.4027 9.01254C39.189 9.31625 39.1036 9.66335 39.1036 10.0538V40.5552C39.1036 44.3299 38.6335 47.15 37.6932 49.0157C36.753 50.8814 35.8128 52.2697 34.9153 53.2243C34.0178 54.1788 33.1204 54.6127 32.2656 54.6127L33.1631 53.0941L33.5477 52.4867L33.8469 51.9226L34.0606 51.2718L34.3597 50.4475C34.5734 49.8834 34.7871 48.8421 35.0008 47.367C35.0435 46.9765 35.129 46.4992 35.1718 45.9786C35.2145 45.4579 35.2572 44.9807 35.2572 44.5468L35.3427 40.5985V0.248291L37.1377 3.02508L38.377 5.62832H38.6335C39.4027 5.62832 40.1293 5.93204 40.7703 6.58285C41.4114 7.23366 41.7533 8.05802 41.7533 9.05593C41.2404 8.75222 40.7276 8.57867 40.2575 8.57867Z" fill="#FFFFFE"/>
<path d="M58.7628 50.5777C57.3952 52.3132 55.8566 53.6149 54.1044 54.4392L51.9248 55.3937L50.0871 56.0879C49.0614 56.3916 48.1212 56.5652 47.2237 56.5652L48.2921 55.7408L49.2751 55.0466L51.3265 53.7884L52.4804 53.0074C52.8223 52.7471 53.2069 52.4 53.5916 52.0095C54.3181 51.4021 55.2156 50.274 56.284 48.6253C57.3524 46.9766 57.8653 44.5469 57.8653 41.3796V29.101C56.284 29.4047 55.1728 29.7518 54.489 30.1423C53.7625 30.446 53.1214 30.7931 52.5659 31.1402C52.1812 31.4005 51.6256 31.8778 50.8564 32.6154C50.2581 33.1794 49.7879 33.9604 49.4461 35.0017C49.1042 36.043 48.9332 37.0843 48.9332 38.0388H57.0533V41.7267H45.2578V38.8198C45.2578 37.388 45.5142 35.7826 46.0698 34.0905C46.5827 32.3984 47.4801 30.9666 48.7623 29.7952C50.0444 28.6237 51.6256 27.6692 53.6343 26.9316L57.8225 25.4564L58.8482 24.9358L59.7457 24.4151L60.6432 23.6342L61.5407 22.8098V41.3796C61.4552 45.0242 60.5577 48.1047 58.7628 50.5777ZM62.2672 41.6833V37.9954H65.7289V41.6833H62.2672Z" fill="#FFFFFE"/>
<path d="M63.8496 41.6833V37.9954H71.3714V30.2724C71.3714 29.882 71.2431 29.5349 70.944 29.2312C70.773 29.0142 70.5166 28.8841 70.1747 28.7973C69.8756 28.7973 69.6191 28.8407 69.4054 28.9708C69.2772 28.9708 69.0208 29.101 68.6362 29.2745C68.6362 28.4068 68.9353 27.6258 69.5764 26.9316C70.1747 26.2374 70.9012 25.8903 71.756 25.8903H72.0124L73.7219 23.2437L75.0468 21.2913V41.6833H63.8496ZM69.8756 49.4063C69.2772 49.8835 68.6789 50.1005 68.0806 50.1005C67.3968 50.1005 66.7985 49.8402 66.3284 49.3629C65.8155 48.8856 65.5591 48.3216 65.5591 47.6274C65.5591 47.2803 65.6018 47.02 65.6873 46.7596C65.7728 46.4993 65.8583 46.3692 65.9437 46.239C66.0292 46.1088 66.1574 45.9787 66.3284 45.8485C66.7985 45.3279 67.3968 45.0675 68.0806 45.0675C68.6362 45.0675 69.2345 45.3279 69.7901 45.8051C70.3457 46.3258 70.6448 46.8898 70.6448 47.584C70.6448 48.2782 70.3884 48.8856 69.8756 49.4063ZM75.3886 49.4063C74.9185 49.8835 74.363 50.1005 73.5937 50.1005C72.9099 50.1005 72.3116 49.8402 71.8415 49.3629C71.3286 48.8856 71.0722 48.3216 71.0722 47.6274C71.0722 47.2803 71.1149 47.02 71.2004 46.7596C71.2859 46.5427 71.3714 46.3692 71.4568 46.239C71.5423 46.1088 71.6705 45.9787 71.8415 45.8485C72.3116 45.3279 72.9099 45.0675 73.5937 45.0675C74.1493 45.0675 74.7476 45.3279 75.3032 45.8051C75.8588 46.3258 76.1579 46.8898 76.1579 47.584C76.1152 48.2782 75.9015 48.8856 75.3886 49.4063Z" fill="#FFFFFE"/>
<path d="M85.7306 61.5546C85.4315 61.5546 85.1323 61.598 84.7049 61.7282C84.3203 61.8583 83.9357 61.9885 83.6365 62.1621L82.5681 62.6827C82.098 62.8563 81.6279 63.0298 81.115 63.2034C80.9013 63.2467 80.6449 63.2901 80.4312 63.3335C80.1748 63.3769 79.9611 63.3769 79.7047 63.3769H78.5508L79.9184 61.2075L80.3457 61.1641L80.7731 61.0774C80.5594 60.9472 80.303 60.7303 80.0466 60.4266C79.8329 60.1228 79.6192 59.7757 79.4055 59.3853C79.32 59.2551 79.2773 59.0816 79.1918 58.8212C79.1064 58.6043 79.0209 58.344 78.9782 58.0836C78.8927 57.6498 78.8499 57.3461 78.8499 57.1291C78.8499 56.9122 78.8499 56.782 78.8499 56.6519C79.2773 56.6519 79.6619 56.6085 80.0466 56.4783C80.3885 56.3915 80.8159 56.1746 81.2432 55.9143L82.2262 55.3502L82.9527 55.1333C83.722 55.1333 84.4485 55.4804 85.1323 56.218L85.9016 57.3027L85.3887 57.8233L84.7477 57.5196L83.8929 57.2159L83.0382 57.1291L82.6108 57.2159L82.1407 57.5196L81.7561 57.9101L81.4996 58.3874C81.4996 58.5609 81.6706 58.7778 82.0552 59.0816L82.8672 59.5588C82.9954 59.6022 83.1664 59.6456 83.4228 59.689C83.6792 59.7324 83.8502 59.7324 83.9784 59.7758L85.987 59.2985L88.1239 59.1249L85.7306 61.5546Z" fill="#FFFFFE"/>
<path d="M86.1579 8.57867C86.0297 8.57867 85.9014 8.62205 85.7732 8.66544C85.645 8.70883 85.4741 8.83899 85.3031 9.01254C85.0894 9.31625 85.004 9.66335 85.004 10.0538V40.5552C85.004 44.3299 84.5339 47.15 83.5936 49.0157C82.6534 50.8814 81.7132 52.2697 80.8157 53.2243C79.9182 54.1788 79.0208 54.6127 78.166 54.6127L79.0635 53.0941L79.4481 52.4867L79.7473 51.9226L79.961 51.2718L80.2601 50.4475C80.4738 49.8834 80.6875 48.8421 80.9012 47.367C80.9439 46.9765 81.0294 46.4992 81.0721 45.9786C81.1149 45.4579 81.1576 44.9807 81.1576 44.5468L81.2431 40.5985V0.248291L83.0381 3.02508L84.2774 5.62832H84.5339C85.3031 5.62832 86.0297 5.93204 86.6707 6.58285C87.3118 7.23366 87.6537 8.05802 87.6537 9.05593C87.1408 8.75222 86.628 8.57867 86.1579 8.57867Z" fill="#FFFFFE"/>
<path d="M105.603 47.7574C105.004 48.7119 104.235 49.5797 103.38 50.2305C102.526 50.9247 101.457 51.4887 100.261 52.0094L99.4486 52.1395L98.2092 52.4866C97.3544 52.6602 96.6707 52.7904 96.1151 52.7904C95.8159 52.7904 95.4313 52.747 95.0039 52.6602C95.645 52.4433 96.286 52.1395 96.9271 51.6623L98.8503 50.4474C99.4913 50.0136 100.175 49.4929 100.902 48.7553C101.244 48.4082 101.628 47.931 102.056 47.3669C102.269 47.1066 102.44 46.8029 102.654 46.5426C102.868 46.2389 103.081 45.8918 103.38 45.4145C103.85 44.7203 104.192 43.8092 104.406 42.6377C104.663 41.5096 104.748 40.1212 104.748 38.5593V29.231C104.748 28.8405 104.662 28.5802 104.449 28.3633C104.278 28.1897 104.021 28.0595 103.68 28.0162C103.252 28.0162 102.996 28.0162 102.953 28.0595L102.697 28.1897L102.269 28.45C102.269 27.5389 102.568 26.8013 103.167 26.2373C103.765 25.6732 104.406 25.3695 105.133 25.3695L106.5 23.3737L108.039 21.2043V37.0407C108.124 41.5096 107.269 45.1108 105.603 47.7574Z" fill="#FFFFFE"/>
<path d="M142.699 42.9414C139.408 42.9414 136.972 42.4208 135.348 41.4229C133.724 40.425 132.698 39.3403 132.314 38.2122L131.929 36.8238C131.844 36.4333 131.801 36.0862 131.801 35.7825C131.801 35.4788 131.844 35.1317 131.929 34.828C132.014 34.4809 132.1 34.2206 132.228 33.9168C132.271 33.7433 132.399 33.5697 132.527 33.3094C133.126 35.2185 134.237 36.7804 135.775 37.9085C137.314 39.0799 139.664 39.644 142.784 39.644H154.195V38.863C154.195 37.0407 153.81 35.6523 152.998 34.6544C152.186 33.6565 150.605 33.1793 148.255 33.1793H147.143C145.092 33.1793 143.254 32.7454 141.63 31.8343C140.006 30.9231 138.681 29.8818 137.656 28.667C136.63 27.4521 136.075 26.6278 135.989 26.1505V21.2043L138.126 24.2415C138.681 24.979 139.28 25.6732 140.006 26.3674C140.305 26.6712 140.647 26.9749 141.032 27.2786C141.417 27.5823 141.801 27.886 142.186 28.1463C143.767 29.1876 145.605 29.7083 147.656 29.7083H149.494C152.058 29.7083 154.067 30.4459 155.434 31.9644C156.845 33.483 157.529 35.7391 157.529 38.7762V42.9414H142.699Z" fill="#FFFFFE"/>
<path d="M123.597 42.551C123.64 42.0303 123.64 41.4663 123.64 40.8589V10.3575C123.64 9.96706 123.725 9.61996 123.939 9.31625C124.11 9.1427 124.281 9.01254 124.409 8.96915C124.537 8.92577 124.665 8.88238 124.793 8.88238C125.264 8.88238 125.776 9.05593 126.289 9.35964C126.289 8.36173 125.947 7.53737 125.306 6.88656C124.665 6.23575 123.939 5.93204 123.169 5.93204H122.913L121.674 3.32879L119.879 0.552002V40.8155L119.836 42.0737C121.118 41.8568 122.443 42.0303 123.597 42.551Z" fill="#FFFFFE"/>
<path fill-rule="evenodd" clip-rule="evenodd" d="M127.528 39.8176C125.648 39.3837 123.639 39.1667 121.545 39.1667C119.451 39.1667 117.442 39.3837 115.562 39.8176C115.562 42.2039 115.092 47.931 112.912 50.7512C116.801 52.6602 118.853 55.6106 120.477 59.6022V47.931C120.049 47.6273 119.75 47.1066 119.75 46.5426C119.75 45.5881 120.519 44.8505 121.417 44.8505C122.314 44.8505 123.084 45.6315 123.084 46.5426C123.084 47.1066 122.827 47.5839 122.442 47.8876V59.6022C124.067 55.6106 126.289 52.6602 130.178 50.7512C127.998 47.8876 127.528 42.2039 127.528 39.8176Z" fill="#FFFFFE"/>
<path d="M83.8501 72.9221H82.1406V73.92H83.8501V72.9221Z" fill="#FFFFFE"/>
<path d="M1.79496 72.4014H0V73.3993H1.79496V72.4014Z" fill="#FFFFFE"/>
</svg>
