<svg width="17" height="16" viewBox="0 0 17 16" fill="none" xmlns="http://www.w3.org/2000/svg">
<path d="M16.3796 0.190377C16.2577 0.0684788 16.0923 0 15.9199 0C15.7475 0 15.5821 0.0684788 15.4602 0.190377L8.76741 6.88315L2.07464 0.190377C1.9527 0.0684788 1.78735 0 1.61493 0C1.44251 0 1.27716 0.0684788 1.15522 0.190377C1.03332 0.312313 0.964844 0.47767 0.964844 0.650087C0.964844 0.822503 1.03332 0.987861 1.15522 1.1098L7.84799 7.80257L1.15522 14.4953C1.03332 14.6173 0.964844 14.7826 0.964844 14.955C0.964844 15.1275 1.03332 15.2928 1.15522 15.4148C1.27716 15.5367 1.44251 15.6051 1.61493 15.6051C1.78735 15.6051 1.9527 15.5367 2.07464 15.4148L8.76741 8.72199L15.4602 15.4148C15.5821 15.5367 15.7475 15.6051 15.9199 15.6051C16.0923 15.6051 16.2577 15.5367 16.3796 15.4148C16.5015 15.2928 16.57 15.1275 16.57 14.955C16.57 14.7826 16.5015 14.6173 16.3796 14.4953L9.68683 7.80257L16.3796 1.1098C16.5015 0.987861 16.57 0.822503 16.57 0.650087C16.57 0.47767 16.5015 0.312313 16.3796 0.190377Z" fill="white"/>
</svg>
