<svg width="18" height="19" viewBox="0 0 18 19" fill="none" xmlns="http://www.w3.org/2000/svg">
<g clip-path="url(#clip0_1_17266)">
<path d="M14.25 0.956787H3.75C2.7558 0.957978 1.80267 1.35345 1.09966 2.05645C0.396661 2.75946 0.00119089 3.71259 0 4.70679L0 13.7068C0.00119089 14.701 0.396661 15.6541 1.09966 16.3571C1.80267 17.0601 2.7558 17.4556 3.75 17.4568H14.25C15.2442 17.4556 16.1973 17.0601 16.9003 16.3571C17.6033 15.6541 17.9988 14.701 18 13.7068V4.70679C17.9988 3.71259 17.6033 2.75946 16.9003 2.05645C16.1973 1.35345 15.2442 0.957978 14.25 0.956787ZM3.75 2.45679H14.25C14.6991 2.45767 15.1376 2.59292 15.5092 2.84514C15.8808 3.09736 16.1684 3.455 16.335 3.87204L10.5915 9.61629C10.1688 10.0373 9.59656 10.2736 9 10.2736C8.40344 10.2736 7.83118 10.0373 7.4085 9.61629L1.665 3.87204C1.83161 3.455 2.11921 3.09736 2.49079 2.84514C2.86236 2.59292 3.30091 2.45767 3.75 2.45679ZM14.25 15.9568H3.75C3.15326 15.9568 2.58097 15.7197 2.15901 15.2978C1.73705 14.8758 1.5 14.3035 1.5 13.7068V5.83179L6.348 10.6768C7.05197 11.379 8.00569 11.7733 9 11.7733C9.99431 11.7733 10.948 11.379 11.652 10.6768L16.5 5.83179V13.7068C16.5 14.3035 16.2629 14.8758 15.841 15.2978C15.419 15.7197 14.8467 15.9568 14.25 15.9568Z" fill="#B3B5B7"/>
</g>
<defs>
<clipPath id="clip0_1_17266">
<rect width="18" height="18" fill="white" transform="translate(0 0.206787)"/>
</clipPath>
</defs>
</svg>
