<svg width="21" height="22" viewBox="0 0 21 22" fill="none" xmlns="http://www.w3.org/2000/svg">
<g clip-path="url(#clip0_1_17272)">
<path d="M20.3621 9.22239C19.5722 7.9289 18.5758 6.77349 17.4125 5.80201L19.8625 3.35201C20.0219 3.18699 20.1101 2.96596 20.1081 2.73654C20.1061 2.50712 20.0141 2.28765 19.8518 2.12542C19.6896 1.96319 19.4701 1.87117 19.2407 1.86917C19.0113 1.86718 18.7903 1.95538 18.6252 2.11476L15.9609 4.78264C14.3092 3.80161 12.421 3.29029 10.5 3.30389C5.08286 3.30389 1.99586 7.01214 0.637859 9.22239C0.218321 9.90096 -0.00390625 10.683 -0.00390625 11.4808C-0.00390625 12.2786 0.218321 13.0606 0.637859 13.7391C1.42777 15.0326 2.42416 16.188 3.58748 17.1595L1.13748 19.6095C1.05391 19.6902 0.987253 19.7868 0.941395 19.8935C0.895537 20.0003 0.871399 20.1151 0.87039 20.2313C0.86938 20.3475 0.891519 20.4627 0.935515 20.5702C0.979511 20.6778 1.04448 20.7755 1.12664 20.8576C1.20879 20.9398 1.30649 21.0047 1.41402 21.0487C1.52156 21.0927 1.63678 21.1149 1.75296 21.1139C1.86914 21.1128 1.98396 21.0887 2.09071 21.0429C2.19747 20.997 2.29402 20.9303 2.37473 20.8468L5.04523 18.1763C6.69484 19.1571 8.58082 19.6693 10.5 19.6576C15.9171 19.6576 19.0041 15.9494 20.3621 13.7391C20.7816 13.0606 21.0039 12.2786 21.0039 11.4808C21.0039 10.683 20.7816 9.90096 20.3621 9.22239ZM2.12886 12.823C1.8796 12.4197 1.74758 11.9549 1.74758 11.4808C1.74758 11.0066 1.8796 10.5418 2.12886 10.1385C3.29611 8.24326 5.93423 5.05389 10.5 5.05389C11.9527 5.04575 13.3851 5.39587 14.6702 6.07326L12.9089 7.83464C12.0688 7.27692 11.0617 7.02701 10.0583 7.12733C9.05497 7.22765 8.11724 7.67201 7.40424 8.38502C6.69123 9.09802 6.24687 10.0358 6.14655 11.0391C6.04623 12.0424 6.29614 13.0496 6.85386 13.8896L4.83261 15.9109C3.76082 15.0444 2.84622 13.9998 2.12886 12.823ZM13.125 11.4808C13.125 12.177 12.8484 12.8446 12.3561 13.3369C11.8639 13.8292 11.1962 14.1058 10.5 14.1058C10.1102 14.1043 9.72578 14.0145 9.37561 13.8433L12.8625 10.3564C13.0337 10.7066 13.1235 11.091 13.125 11.4808ZM7.87498 11.4808C7.87498 10.7846 8.15155 10.1169 8.64383 9.62461C9.13611 9.13232 9.80379 8.85576 10.5 8.85576C10.8898 8.85727 11.2742 8.94702 11.6244 9.11826L8.13748 12.6051C7.96624 12.255 7.87649 11.8706 7.87498 11.4808ZM18.8711 12.823C17.7039 14.7183 15.0657 17.9076 10.5 17.9076C9.04725 17.9158 7.6149 17.5657 6.32973 16.8883L8.09111 15.1269C8.93117 15.6846 9.93832 15.9345 10.9417 15.8342C11.945 15.7339 12.8827 15.2895 13.5957 14.5765C14.3087 13.8635 14.7531 12.9258 14.8534 11.9224C14.9537 10.9191 14.7038 9.91195 14.1461 9.07189L16.1674 7.05064C17.2391 7.91713 18.1538 8.96168 18.8711 10.1385C19.1204 10.5418 19.2524 11.0066 19.2524 11.4808C19.2524 11.9549 19.1204 12.4197 18.8711 12.823Z" fill="#B3B5B7"/>
</g>
<defs>
<clipPath id="clip0_1_17272">
<rect width="21" height="21" fill="white" transform="translate(0 0.980957)"/>
</clipPath>
</defs>
</svg>
